<svg width="1440" height="1024" viewBox="0 0 1440 1024" fill="none" xmlns="http://www.w3.org/2000/svg">
  <g clip-path="url(#clip0_157_300)">
    <path fill-rule="evenodd" clip-rule="evenodd"
      d="M1198.28 306.949L1272.63 305.715L1226.31 355.435L1253.27 379.463L1298.35 334.659L1302.55 387.824L1337.69 384.181L1336.85 334.021L1385.28 371.154L1408.74 343.842L1357.57 301.859L1432.63 303.061L1432.06 268.805L1365.61 266.236L1402.77 224.623L1375.82 201.207L1332.09 247.212L1327.11 186.718L1289.3 189.792L1293.59 247.851L1244.45 208.281L1220.99 234.981L1262.11 271.624L1194.39 272.748L1198.28 306.949Z"
      stroke="#FFFCFC" />
    <path
      d="M1361.8 274.16C1355.31 282.982 1344.01 293.37 1330.12 297.975M1271.69 275.655C1281.8 287.856 1291.94 294.805 1301.65 298.064M1301.65 298.064L1294.38 317.638M1301.65 298.064C1306.68 299.755 1311.6 300.453 1316.34 300.375M1301.65 298.064C1306.74 299.683 1316.81 302.411 1316.34 300.375M1316.34 300.375L1316.7 322.427M1316.34 300.375C1321.14 300.297 1325.76 299.421 1330.12 297.975M1330.12 297.975L1338.68 319.619"
      stroke="#FFFCFC" stroke-width="15" />
    <path d="M1287.9 265.126C1296.72 257.645 1320.42 246.983 1344.66 264.185" stroke="#FFFCFC" stroke-width="10" />
    <path
      d="M168.875 524H32.7844C30.3725 502.266 33.1314 490.061 46.5657 468.251C67.2517 448.379 81.2799 444.305 108.007 442C129.168 444.54 138.819 451.88 154.806 468.251C167.281 490.202 169.622 502.389 168.875 524Z"
      stroke="#FFFCFC" />
    <rect x="0.694395" y="0.134028" width="6.32645" height="12.4283"
      transform="matrix(0.828384 -0.560161 0.560406 0.828218 119.9 489.275)" fill="#FFFCFC" stroke="#D9D9D9" />
    <rect x="0.127413" y="0.655204" width="7.47807" height="12.5481"
      transform="matrix(0.858351 0.513064 -0.603524 0.797345 66.9728 483.36)" fill="#FFFCFC" stroke="#D9D9D9" />
    <path
      d="M137.12 476.64C131.38 482.268 121.407 488.907 109.17 491.879M57.8398 477.88C66.6891 485.602 75.5878 489.987 84.1174 492.027M84.1174 492.027L77.6616 504.491M84.1174 492.027C88.542 493.086 92.8674 493.513 97.0351 493.449M84.1174 492.027C88.5949 493.04 97.447 494.741 97.0351 493.449M97.0351 493.449L97.2817 507.464M97.0351 493.449C101.263 493.384 105.328 492.812 109.17 491.879M109.17 491.879L116.624 505.608"
      stroke="#FFFCFC" stroke-width="15" />
    <path
      d="M1285.6 719H1170.66C1168.63 695.411 1170.96 682.164 1182.3 658.492C1199.77 636.924 1211.62 632.502 1234.19 630C1252.06 632.757 1260.21 640.723 1273.72 658.492C1284.25 682.316 1286.23 695.544 1285.6 719Z"
      stroke="#FFFCFC" />
    <rect x="0.610343" y="0.11445" width="5.79067" height="12.6419"
      transform="matrix(0.754806 -0.655949 0.465879 0.884848 1244.29 681.277)" fill="#FFFCFC" stroke="#D9D9D9" />
    <rect x="0.142768" y="0.735421" width="6.74989" height="12.6072"
      transform="matrix(0.793028 0.609185 -0.507491 0.861657 1199.59 674.832)" fill="#FFFCFC" stroke="#D9D9D9" />
    <path
      d="M1258.78 667.597C1253.93 673.706 1245.51 680.911 1235.17 684.137M1191.82 668.943C1199.3 677.324 1206.81 682.083 1214.02 684.298M1214.02 684.298L1208.56 697.826M1214.02 684.298C1217.75 685.447 1221.41 685.911 1224.92 685.841M1214.02 684.298C1217.8 685.397 1225.27 687.244 1224.92 685.841M1224.92 685.841L1225.13 701.052M1224.92 685.841C1228.5 685.77 1231.93 685.15 1235.17 684.137M1235.17 684.137L1241.47 699.038"
      stroke="#FFFCFC" stroke-width="15" />
    <path d="M1056.95 978.443L1073.01 962.058" stroke="#FFFCFC" stroke-width="10" />
    <path d="M1181.99 957.534L1145.19 1009.6" stroke="#FFFCFC" stroke-width="10" />
    <path
      d="M1024.96 926.259C1046.09 906.304 1103.62 874.208 1178.56 910.927C1158.13 928.621 1101.6 957.55 1024.96 926.259Z"
      stroke="#FFFCFC" stroke-width="2" />
    <path
      d="M1147.13 912.186C1147.13 923.99 1133.77 933.559 1117.28 933.559C1100.8 933.559 1087.44 923.99 1087.44 912.186C1087.44 900.382 1100.8 890.812 1117.28 890.812C1133.77 890.812 1147.13 900.382 1147.13 912.186Z"
      fill="#FFFCFC" />
    <path
      d="M1020.6 923.908C1029.83 916.737 1056.85 898.455 1079.19 893.559M1079.19 893.559C1105.47 887.802 1145.11 891.985 1181.84 907.134C1161.82 899.606 1108.42 882.923 1079.19 893.559Z"
      stroke="#FFFCFC" stroke-width="15" />
    <path d="M1059.01 962.813L1051.58 968.571" stroke="#FFFCFC" stroke-width="10" />
    <path
      d="M45.2268 657.268C58.7853 642.324 95.6942 618.291 143.782 645.786C130.675 659.036 94.3989 680.699 45.2268 657.268Z"
      stroke="#FFFCFC" stroke-width="2" />
    <ellipse cx="91.4678" cy="649.226" rx="19.1505" ry="16.0046" fill="#FFFCFC" />
    <path
      d="M42.4241 655.507C48.3486 650.137 65.685 636.447 80.0244 632.781M80.0244 632.781C96.8824 628.47 122.319 631.603 145.883 642.946C133.041 637.309 98.7739 624.816 80.0244 632.781ZM80.0244 632.781L66.0118 618.433M66.0118 638.565L51.5322 626.334"
      stroke="#FFFCFC" stroke-width="10" />
    <path
      d="M412.227 97.2675C425.785 82.3243 462.694 58.2909 510.782 85.7864C497.675 99.0361 461.399 120.699 412.227 97.2675Z"
      stroke="#FFFCFC" stroke-width="2" />
    <ellipse cx="458.468" cy="89.2263" rx="19.1505" ry="16.0046" fill="#FFFCFC" />
    <path
      d="M409.424 95.5065C415.349 90.1366 432.685 76.4469 447.024 72.7806M447.024 72.7806C463.882 68.4703 489.319 71.6025 512.883 82.946C500.041 77.3087 465.774 64.8162 447.024 72.7806ZM447.024 72.7806L433.012 58.4326M433.012 78.5649L418.532 66.3336"
      stroke="#FFFCFC" stroke-width="5" />
    <path d="M101 819L184.518 693L262.121 819H101Z" stroke="#D9D9D9" />
    <path
      d="M139.04 779.578C150.98 767.151 183.481 747.165 225.827 770.03C214.285 781.048 182.341 799.062 139.04 779.578Z"
      stroke="#D9D9D9" stroke-width="2" />
    <path
      d="M179.759 760.082C188.913 760.082 196.124 765.921 196.124 772.891C196.123 779.861 188.913 785.7 179.759 785.7C170.605 785.7 163.396 779.861 163.396 772.891C163.396 765.921 170.605 760.082 179.759 760.082Z"
      fill="#FFFCFC" stroke="#D9D9D9" />
    <path
      d="M136.572 778.113C141.789 773.648 157.056 762.264 169.683 759.215M169.683 759.215C184.528 755.63 206.927 758.235 227.678 767.668C216.369 762.98 186.193 752.592 169.683 759.215ZM169.683 759.215L157.343 747.283M157.343 764.025L144.593 753.854"
      stroke="#D9D9D9" stroke-width="5" />
    <rect x="0.490246" y="0.506019" width="8.06701" height="16.151"
      transform="matrix(0.999925 0.0122263 -0.0194327 0.999811 173.882 741.745)" stroke="#D9D9D9" />
    <rect x="0.316794" y="0.581322" width="7.93769" height="16.5327"
      transform="matrix(0.974889 0.22269 -0.341302 0.939954 194.518 741.11)" stroke="#D9D9D9" />
    <path fill-rule="evenodd" clip-rule="evenodd"
      d="M95.1339 23.0023C118.479 23.2609 128.137 45.3799 142.55 59.3125C154.261 70.6326 168.811 80.9156 169.907 95.2811C171.057 110.352 161.382 124.242 148.377 135.669C134.148 148.172 116.896 160.45 95.1339 160.981C72.92 161.522 53.634 150.596 38.3549 138.352C23.5557 126.493 11.5287 111.565 13.1462 95.2811C14.6829 79.8106 32.972 70.0065 46.3118 58.2464C61.5445 44.8176 71.7821 22.7435 95.1339 23.0023Z"
      fill="#FFFCFC" stroke="#FFFCFC" />
    <path fill-rule="evenodd" clip-rule="evenodd"
      d="M89.445 67.0317C116.034 67.0317 140.053 79.6141 140.053 97.2619C140.053 114.644 115.633 126.465 89.445 126.465C66.5312 126.465 50.627 112.47 50.627 97.2619C50.627 81.7503 66.0744 67.0317 89.445 67.0317Z"
      stroke="#FFFCFC" />
    <path
      d="M306.915 1012C272.669 910.147 169.542 767.552 31 1012M240.256 1012C227.199 971.598 183.355 823.903 87.6949 1012"
      stroke="#FFFCFC" stroke-width="10" />
    <path
      d="M185.03 157C205.014 179.191 226.356 222.164 151.846 216.526C173.7 241.617 197.938 288.179 120.063 273.701C146.361 297.667 178.931 342.12 98.8343 328.204C131.234 367.712 168.164 436.101 56.687 393.594"
      stroke="#FFFCFC" stroke-width="20" />
    <path
      d="M66.3105 771C84.1549 771 89.8477 776.599 89.8477 794.079C89.8475 811.559 75.3815 825.729 57.5371 825.729C39.6929 825.729 34.0001 820.131 34 802.651C34 785.171 48.466 771 66.3105 771ZM64.1309 786.237C57.576 786.238 52.2619 791.847 52.2617 798.766C52.2617 805.685 57.5759 811.295 64.1309 811.295C70.686 811.295 76 805.685 76 798.766C75.9998 791.846 70.6859 786.237 64.1309 786.237Z"
      fill="#D9D9D9" />
    <path fill-rule="evenodd" clip-rule="evenodd"
      d="M706.134 877.002C729.479 877.261 739.137 899.38 753.55 913.313C765.261 924.633 779.811 934.916 780.907 949.281C782.057 964.352 772.382 978.242 759.377 989.669C745.148 1002.17 727.896 1014.45 706.134 1014.98C683.92 1015.52 664.634 1004.6 649.355 992.352C634.556 980.493 622.529 965.565 624.146 949.281C625.683 933.811 643.972 924.006 657.312 912.246C672.544 898.818 682.782 876.744 706.134 877.002Z"
      fill="#FFFCFC" stroke="#FFFCFC" />
    <path fill-rule="evenodd" clip-rule="evenodd"
      d="M700.445 921.032C727.034 921.032 751.053 933.614 751.053 951.262C751.053 968.644 726.633 980.464 700.445 980.464C677.531 980.464 661.627 966.47 661.627 951.262C661.627 935.75 677.074 921.032 700.445 921.032Z"
      stroke="#FFFCFC" />
    <path fill-rule="evenodd" clip-rule="evenodd"
      d="M357.03 962.217L397.359 961.548L372.303 992.691L386.961 1007.81L411.348 979.753L413.703 1013.13L432.756 1010.89L432.233 979.406L458.554 1002.78L471.237 985.673L443.425 959.248L484.14 960.109L483.783 938.606L447.737 936.899L467.835 910.832L453.183 896.095L429.528 924.91L426.737 886.932L406.238 888.808L408.643 925.257L381.937 900.35L369.248 917.076L391.601 940.135L354.873 940.744L357.03 962.217Z"
      stroke="#FFFCFC" />
    <path
      d="M443.091 940.277C439.683 945.641 433.743 951.954 426.427 954.74M395.598 941.064C400.941 948.51 406.296 952.757 411.418 954.756M411.418 954.756L407.616 966.669M411.418 954.756C414.074 955.792 416.668 956.224 419.165 956.183M411.418 954.756C414.106 955.749 419.419 957.424 419.165 956.183M419.165 956.183L419.388 969.616M419.165 956.183C421.697 956.142 424.13 955.615 426.427 954.74M426.427 954.74L430.967 967.935"
      stroke="#FFFCFC" stroke-width="15" />
    <path d="M404.129 934.673C408.768 930.128 421.245 923.666 434.044 934.177" stroke="#FFFCFC" stroke-width="10" />
    <path fill-rule="evenodd" clip-rule="evenodd"
      d="M597.673 92.5192L634.672 91.9055L611.641 117.822L625.066 130.367L647.479 107.014L649.591 134.747L667.073 132.862L666.639 106.696L690.752 126.085L702.412 111.848L676.935 89.9277L714.285 90.5849L713.989 72.7157L680.923 71.3491L699.398 49.6575L685.977 37.4321L664.236 61.4121L661.73 29.8548L642.921 31.4435L645.076 61.7299L620.611 41.0698L608.946 54.9881L629.42 74.1185L595.725 74.6774L597.673 92.5192Z"
      stroke="#FFFCFC" />
    <path
      d="M676.656 74.1625C673.521 78.6256 668.064 83.8798 661.348 86.2058M633.085 74.8853C637.977 81.0651 642.883 84.5868 647.579 86.2403M647.579 86.2403L644.074 96.1458M647.579 86.2403C650.014 87.098 652.393 87.4531 654.684 87.4157M647.579 86.2403C650.043 87.0616 654.915 88.4465 654.684 87.4157M654.684 87.4157L654.869 98.5783M654.684 87.4157C657.007 87.3778 659.24 86.9362 661.348 86.2058M661.348 86.2058L665.494 97.165"
      stroke="#FFFCFC" stroke-width="5" />
    <path d="M640.921 69.5617C645.183 65.7781 656.639 60.39 668.365 69.1065" stroke="#FFFCFC" stroke-width="4" />
    <path fill-rule="evenodd" clip-rule="evenodd"
      d="M841.238 33.0678C851.289 39.4031 852.77 54.9962 864.534 58.0668C882.596 62.7816 903.829 44.4848 919.739 53.5586C932.998 61.1206 934.707 81.5417 928.667 94.6444C922.366 108.316 900.528 109.056 889.226 119.761C881.504 127.074 882.197 139.291 874.134 146.296C865.099 154.143 853.54 159.374 841.238 161.446C827.597 163.743 813.024 163.996 800.436 158.708C787.427 153.243 778.645 142.357 770.435 131.701C761.652 120.302 752.063 108.52 751.075 94.6444C750.067 80.4786 759.432 68.0028 764.956 54.7202C771.526 38.9235 768.921 14.0472 786.693 9.00255C806.324 3.43029 824.348 22.422 841.238 33.0678Z"
      stroke="#FFFCFC" stroke-width="3" />
    <path d="M1131 128C1108.41 59.8481 1040.39 -35.5647 949 128M1087.03 128C1078.42 100.966 1049.5 2.14073 986.397 128"
      stroke="#FFFCFC" stroke-width="10" />
    <path
      d="M859.032 925.794C859.005 926.274 857.692 928.443 857.692 927.022C857.692 925.935 857.928 925.476 859.032 924.95C859.632 924.664 861.265 924.845 861.265 925.682C861.265 926.468 860.447 927.624 859.702 927.978C858.814 928.398 857.692 928.196 857.692 927.246C857.692 926.115 858.342 926.24 859.255 926.24C860.239 926.24 860.595 926.93 860.595 927.928C860.595 928.88 859.471 929.413 858.486 929.132C856.698 928.621 856.921 925.981 858.052 925.025C859.033 924.194 859.93 924.135 861.216 924.23C861.554 924.255 863.158 925.55 863.263 925.918C863.73 927.554 861.625 929.367 860.26 929.367C859.052 929.367 855.656 925.57 858.362 925.57"
      stroke="#FFFCFC" stroke-width="2" stroke-linecap="round" />
    <path d="M862.159 927.357C862.552 927.308 862.382 926.332 862.382 926.017" stroke="#FFFCFC" stroke-width="2"
      stroke-linecap="round" />
    <path
      d="M848.758 956.615C848.758 957.457 849.135 958.68 849.701 959.246C850.408 959.953 851.765 958.095 852.108 957.732C853.618 956.133 851.317 953.124 849.651 954.605C848.726 955.428 848.535 956.487 848.535 957.732C848.535 958.849 849.266 958.849 850.321 958.849C851.318 958.849 851.995 957.925 851.264 957.012C851.002 956.684 851.364 955.854 850.545 956.218C850.226 956.36 849.645 956.836 850.098 957.062"
      stroke="#FFFCFC" stroke-width="2" stroke-linecap="round" />
    <path fill-rule="evenodd" clip-rule="evenodd"
      d="M1167.09 130.486C1179.82 126.29 1178.59 150.523 1191.27 154.802C1204.18 159.16 1227.9 143.376 1233.4 152.872C1239.94 164.158 1207.02 172.073 1208.34 184.27C1209.39 193.973 1236.23 193.344 1238.81 202.896C1240.88 210.538 1225.38 214.709 1218.15 220.484C1211.31 225.945 1206.17 232.727 1197.15 236.162C1188.04 239.631 1177.2 238.499 1167.09 239.931C1154.78 241.675 1138.25 252.833 1130.76 245.568C1120.58 235.707 1135.49 221.589 1135.46 209.289C1135.45 205.004 1131.84 201.277 1130.66 197.078C1129.5 192.957 1130.19 188.747 1128.54 184.715C1125.26 176.733 1108.04 167.646 1116.15 161.729C1124.81 155.409 1142.24 173.63 1151.62 167.873C1165.52 159.348 1150.5 135.955 1167.09 130.486Z"
      stroke="#FFFCFC" />
    <path
      d="M31.6365 195.5V148L60.4794 186.5M31.6365 195.5C35.6148 188.7 52.8543 186.667 60.4794 186.5M31.6365 195.5C28.5516 196.275 25.9027 199.264 23.6798 203.342M60.4794 186.5C70.8322 186.839 88.809 191.787 100.905 206.819M23.6798 203.342C19.0229 211.887 16.2357 225.216 15.2259 233C-1.48309 239.8 8.26382 245.167 15.2259 247C14.0655 244.667 13.4356 246.2 20.1988 271C28.6528 302 63.4632 293.5 84.3494 294C101.058 294.4 110.209 262.833 112.695 247C126.221 240.2 118.331 236.5 112.695 235.5C111.034 223.297 106.628 213.929 100.905 206.819M23.6798 203.342C25.3796 209.3 32.0092 216.161 46.058 206.819M46.058 206.819C49.8199 204.317 54.1138 200.654 58.9875 195.5C55.0092 192.379 46.8536 190.274 46.058 206.819ZM46.058 206.819C49.4462 214.561 58.0213 223.58 69.9279 213.622M69.9279 213.622C73.7493 210.426 77.9139 205.275 82.3602 197.5C78.2161 194.748 69.9279 194.119 69.9279 213.622ZM69.9279 213.622C76.3239 216.96 91.4737 220.274 100.905 206.819M76.89 230.5V234.848M76.89 234.848C74.263 235.631 71.8728 236.956 69.9279 239C76.5585 242.833 92.7039 248.2 104.241 239C101.279 237.543 96.8758 235.864 92.0737 234.848M76.89 234.848C79.237 234.149 81.773 233.883 84.3494 233.924M84.3494 230.5V233.924M84.3494 233.924C86.9335 233.966 89.5583 234.316 92.0737 234.848M92.3061 230.5L92.0737 234.848M31.6365 228.5L31.5094 233.924M31.5094 233.924C29.3571 234.622 27.2252 235.624 25.1717 237C31.8023 241.5 47.5498 247.8 57.4957 237C55.3527 235.769 52.011 234.356 48.0471 233.466M31.5094 233.924C34.2104 233.049 36.9434 232.651 39.5932 232.591M39.5932 228.5V232.591M39.5932 232.591C42.5707 232.523 45.4432 232.882 48.0471 233.466M48.0471 228.5V233.466M60.4794 245L80.3711 247L63.4632 252.5M13.734 239L14.2313 240L16.2205 240.5M112.198 241.5L116.176 240.5M76.89 263C76.89 276.08 60.3136 271.783 52.0255 268C53.8415 261.914 56.9624 259.011 60.4794 258.025C66.2079 256.42 72.9872 259.902 76.89 263Z"
      stroke="#FFFCFC" stroke-width="3" />
    <ellipse cx="42.3023" cy="237.5" rx="4.47562" ry="4.5" fill="#D9D9D9" />
    <ellipse cx="85.5667" cy="239" rx="3.97833" ry="4" fill="#D9D9D9" />
    <path d="M59.2102 262.5H60.7021H61.1994H61.6967H62.194" stroke="#FFFCFC" stroke-width="3" />
    <path d="M65.1777 262.5H68.6588" stroke="#FFFCFC" stroke-width="3" />
    <path d="M1329.61 1007.93C1333.11 1009.93 1340.91 1012.73 1344.11 1007.93" stroke="#FFFCFC" stroke-width="3" />
    <path d="M1336.11 961.43L1348.61 964.43L1336.11 967.43" stroke="#FFFCFC" stroke-width="3" />
    <path
      d="M1358.61 974.998C1362.87 975.249 1366.95 975.573 1370.61 975.93C1377.71 986.586 1370.75 991.469 1358.61 993.169M1358.61 974.998V993.169M1358.61 974.998C1353.43 974.694 1347.97 974.499 1342.61 974.484M1358.61 993.169C1350.39 994.32 1339.8 994.015 1329.61 993.056M1342.61 974.484V993.169M1342.61 974.484C1338.13 974.472 1333.72 974.587 1329.61 974.87M1329.61 974.87V993.056M1329.61 974.87C1325.17 975.175 1321.07 975.677 1317.61 976.429M1329.61 993.056C1325.48 992.668 1321.42 992.174 1317.61 991.626M1317.61 976.429C1307.62 978.596 1302.85 982.837 1310.11 990.43C1312.45 990.842 1314.97 991.247 1317.61 991.626M1317.61 976.429V991.626M1410.61 942.93C1413.92 943.19 1418 944.222 1420.91 946.43M1420.91 946.43C1425.45 949.879 1427.14 956.199 1418.61 966.93C1422.48 962.596 1428.35 952.43 1420.91 946.43ZM1420.91 946.43L1414.11 951.93M1262.61 940.93C1259.63 941.163 1256.01 942.028 1253.11 943.826M1253.11 965.43C1244.78 953.726 1247.71 947.166 1253.11 943.826M1253.11 943.826L1258.61 951.93"
      stroke="#FFFCFC" stroke-width="3" />
    <path
      d="M1399.61 932.43C1444.41 918.03 1448.61 948.43 1445.11 965.43C1431.51 987.83 1409.11 982.763 1399.61 977.43L1383.11 1001.43V1019.43H1289.61C1290.94 1012.76 1292.81 999.83 1289.61 1001.43C1286.41 1003.03 1277.94 986.096 1274.11 977.43C1244.51 983.43 1235.11 971.93 1234.11 965.43C1222.91 922.23 1259.11 925.43 1278.61 932.43M1399.61 932.43C1380.77 903.43 1330.21 862.83 1278.61 932.43M1399.61 932.43C1392.01 944.43 1385.44 934.43 1383.11 927.93C1374.56 930.73 1369.21 922.096 1367.61 917.43C1355.21 931.03 1345.77 923.096 1342.61 917.43C1330.61 929.83 1317.61 927.263 1312.61 924.43C1287.11 947.43 1278.61 941.93 1278.61 932.43M1321.11 937.93H1307.61M1315.61 963.583C1310.2 963.466 1304.3 962.521 1299.61 961.43C1293.22 950.874 1302.77 948.19 1312.61 947.691M1315.61 963.583C1326.71 963.825 1335.68 960.576 1327.61 947.93C1325.09 947.93 1318.79 947.378 1312.61 947.691M1315.61 963.583C1306.01 958.106 1309.61 950.707 1312.61 947.691M1367.61 961.43C1362.2 961.312 1356.3 960.367 1351.61 959.276C1338.61 944.622 1367.61 945.447 1364.61 945.538M1367.61 961.43C1378.71 961.672 1387.68 958.422 1379.61 945.776C1377.09 945.776 1370.79 945.224 1364.61 945.538M1367.61 961.43C1358.01 955.953 1361.61 948.553 1364.61 945.538"
      stroke="#FFFCFC" stroke-width="3" />
    <path d="M1375.61 937.93H1362.11" stroke="#FFFCFC" stroke-width="3" />
    <path
      d="M1395.31 398C1413.15 398 1418.85 403.599 1418.85 421.079C1418.85 438.559 1404.38 452.729 1386.54 452.729C1368.69 452.729 1363 447.131 1363 429.651C1363 412.171 1377.47 398 1395.31 398ZM1393.13 413.237C1386.58 413.238 1381.26 418.847 1381.26 425.766C1381.26 432.685 1386.58 438.295 1393.13 438.295C1399.69 438.295 1405 432.685 1405 425.766C1405 418.846 1399.69 413.237 1393.13 413.237Z"
      fill="#D9D9D9" />
    <path
      d="M829.311 66C847.155 66 852.848 71.5988 852.848 89.0791C852.848 106.559 838.382 120.729 820.537 120.729C802.693 120.729 797 115.131 797 97.6514C797 80.171 811.466 66 829.311 66ZM827.131 81.2373C820.576 81.2375 815.262 86.8466 815.262 93.7656C815.262 100.685 820.576 106.295 827.131 106.295C833.686 106.295 839 100.685 839 93.7656C839 86.8465 833.686 81.2373 827.131 81.2373Z"
      fill="#D9D9D9" />
    <path
      d="M1271.31 789C1289.15 789 1294.85 794.599 1294.85 812.079C1294.85 829.559 1280.38 843.729 1262.54 843.729C1244.69 843.729 1239 838.131 1239 820.651C1239 803.171 1253.47 789 1271.31 789ZM1269.13 804.237C1262.58 804.238 1257.26 809.847 1257.26 816.766C1257.26 823.685 1262.58 829.295 1269.13 829.295C1275.69 829.295 1281 823.685 1281 816.766C1281 809.846 1275.69 804.237 1269.13 804.237Z"
      fill="#D9D9D9" />
    <path
      d="M573.311 921C591.155 921 596.848 926.599 596.848 944.079C596.848 961.559 582.382 975.729 564.537 975.729C546.693 975.729 541 970.131 541 952.651C541 935.171 555.466 921 573.311 921ZM571.131 936.237C564.576 936.238 559.262 941.847 559.262 948.766C559.262 955.685 564.576 961.295 571.131 961.295C577.686 961.295 583 955.685 583 948.766C583 941.846 577.686 936.237 571.131 936.237Z"
      fill="#D9D9D9" />
    <path
      d="M964.311 891C982.155 891 987.848 896.599 987.848 914.079C987.848 931.559 973.382 945.729 955.537 945.729C937.693 945.729 932 940.131 932 922.651C932 905.171 946.466 891 964.311 891ZM962.131 906.237C955.576 906.238 950.262 911.847 950.262 918.766C950.262 925.685 955.576 931.295 962.131 931.295C968.686 931.295 974 925.685 974 918.766C974 911.846 968.686 906.237 962.131 906.237Z"
      fill="#D9D9D9" />
    <path
      d="M1219.31 41C1237.15 41 1242.85 46.5988 1242.85 64.0791C1242.85 81.5593 1228.38 95.7295 1210.54 95.7295C1192.69 95.7295 1187 90.1313 1187 72.6514C1187 55.171 1201.47 41 1219.31 41ZM1217.13 56.2373C1210.58 56.2375 1205.26 61.8466 1205.26 68.7656C1205.26 75.6848 1210.58 81.2947 1217.13 81.2949C1223.69 81.2949 1229 75.6849 1229 68.7656C1229 61.8465 1223.69 56.2373 1217.13 56.2373Z"
      fill="#D9D9D9" />
    <path
      d="M263.311 138C281.155 138 286.848 143.599 286.848 161.079C286.848 178.559 272.382 192.729 254.537 192.729C236.693 192.729 231 187.131 231 169.651C231 152.171 245.466 138 263.311 138ZM261.131 153.237C254.576 153.238 249.262 158.847 249.262 165.766C249.262 172.685 254.576 178.295 261.131 178.295C267.686 178.295 273 172.685 273 165.766C273 158.846 267.686 153.237 261.131 153.237Z"
      fill="#D9D9D9" />
  </g>
  <rect x="0.5" y="0.5" width="1439" height="1023" stroke="#F4E9E9" />
  <defs>
    <clipPath id="clip0_157_300">
      <rect width="1440" height="1024" fill="white" />
    </clipPath>
  </defs>
</svg>