<svg width="1440" height="1024" viewBox="0 0 1440 1024" fill="none" xmlns="http://www.w3.org/2000/svg">
  <g clip-path="url(#clip0_146_250)">
    <rect width="1440" height="1024" fill="#FFFFE5" />
    <path fill-rule="evenodd" clip-rule="evenodd"
      d="M1198.28 306.949L1272.63 305.715L1226.31 355.435L1253.27 379.463L1298.35 334.659L1302.55 387.824L1337.69 384.181L1336.85 334.021L1385.28 371.154L1408.74 343.842L1357.57 301.859L1432.63 303.061L1432.06 268.805L1365.61 266.236L1402.77 224.623L1375.82 201.207L1332.09 247.212L1327.11 186.718L1289.3 189.792L1293.59 247.851L1244.45 208.281L1220.99 234.981L1262.11 271.624L1194.39 272.748L1198.28 306.949Z"
      fill="#FF7436" stroke="black" />
    <path
      d="M1304.16 298.83C1308.32 299.967 1312.39 300.44 1316.34 300.376C1316.36 300.463 1316.36 300.542 1316.34 300.613C1316.01 301.938 1309.2 300.303 1304.16 298.83C1303.33 298.602 1302.49 298.347 1301.65 298.064C1302.39 298.302 1303.25 298.564 1304.16 298.83Z"
      fill="#FF7436" />
    <path
      d="M1361.8 274.16C1355.31 282.982 1344.01 293.37 1330.12 297.975M1271.69 275.655C1281.8 287.856 1291.94 294.805 1301.65 298.064M1301.65 298.064L1294.38 317.638M1301.65 298.064C1306.68 299.755 1311.6 300.453 1316.34 300.376M1301.65 298.064C1306.74 299.683 1316.81 302.411 1316.34 300.376M1316.34 300.376L1316.7 322.427M1316.34 300.376C1321.14 300.297 1325.76 299.421 1330.12 297.975M1330.12 297.975L1338.68 319.619"
      stroke="black" stroke-width="15" />
    <path d="M1287.91 265.126C1296.72 257.645 1320.42 246.983 1344.66 264.185" stroke="black" stroke-width="10" />
    <path
      d="M168.875 524H32.7844C30.3725 502.266 33.1314 490.061 46.5657 468.251C67.2517 448.379 81.2799 444.305 108.007 442C129.168 444.54 138.819 451.88 154.806 468.251C167.281 490.202 169.622 502.389 168.875 524Z"
      fill="#9672EC" stroke="black" />
    <rect x="0.694395" y="0.134028" width="6.32645" height="12.4283"
      transform="matrix(0.828384 -0.560161 0.560406 0.828218 119.9 489.275)" fill="black" stroke="#131212" />
    <rect x="0.127413" y="0.655204" width="7.47807" height="12.5481"
      transform="matrix(0.858351 0.513064 -0.603524 0.797345 66.9728 483.36)" fill="black" stroke="#131212" />
    <path
      d="M137.12 476.64C131.38 482.268 121.407 488.907 109.17 491.879M57.8398 477.88C66.6891 485.602 75.5878 489.987 84.1174 492.027M84.1174 492.027L77.6616 504.491M84.1174 492.027C88.542 493.086 92.8674 493.513 97.0351 493.449M84.1174 492.027C88.5949 493.04 97.447 494.741 97.0351 493.449M97.0351 493.449L97.2817 507.464M97.0351 493.449C101.263 493.384 105.328 492.812 109.17 491.879M109.17 491.879L116.624 505.608"
      stroke="black" stroke-width="15" />
    <path
      d="M1285.6 719H1170.66C1168.63 695.411 1170.96 682.164 1182.3 658.492C1199.77 636.924 1211.62 632.502 1234.19 630C1252.06 632.757 1260.21 640.723 1273.72 658.492C1284.25 682.316 1286.23 695.544 1285.6 719Z"
      fill="#70BA35" stroke="black" />
    <rect x="0.610343" y="0.11445" width="5.79067" height="12.6419"
      transform="matrix(0.754806 -0.655949 0.465879 0.884848 1244.29 681.277)" fill="black" stroke="#131212" />
    <rect x="0.142768" y="0.735421" width="6.74989" height="12.6072"
      transform="matrix(0.793028 0.609185 -0.507491 0.861657 1199.59 674.832)" fill="black" stroke="#131212" />
    <path
      d="M1258.78 667.597C1253.93 673.706 1245.51 680.911 1235.17 684.137M1191.82 668.943C1199.3 677.324 1206.81 682.083 1214.02 684.298M1214.02 684.298L1208.56 697.826M1214.02 684.298C1217.75 685.447 1221.41 685.911 1224.93 685.841M1214.02 684.298C1217.8 685.397 1225.27 687.244 1224.93 685.841M1224.93 685.841L1225.13 701.052M1224.93 685.841C1228.5 685.77 1231.93 685.15 1235.17 684.137M1235.17 684.137L1241.47 699.038"
      stroke="black" stroke-width="15" />
    <rect x="998" y="857" width="194.967" height="155" fill="#4B4FC6" />
    <path d="M1056.95 978.443L1073.01 962.058" stroke="black" stroke-width="10" />
    <path d="M1181.99 957.534L1145.19 1009.6" stroke="black" stroke-width="10" />
    <path
      d="M1024.96 926.259C1046.09 906.304 1103.62 874.208 1178.56 910.927C1158.13 928.621 1101.6 957.55 1024.96 926.259Z"
      fill="#F2E9E9" stroke="black" stroke-width="2" />
    <path
      d="M1147.13 912.186C1147.13 923.99 1133.76 933.559 1117.28 933.559C1100.8 933.559 1087.44 923.99 1087.44 912.186C1087.44 900.382 1100.8 890.812 1117.28 890.812C1133.76 890.812 1147.13 900.382 1147.13 912.186Z"
      fill="black" />
    <path
      d="M1020.6 923.908C1029.83 916.737 1056.85 898.455 1079.19 893.559M1079.19 893.559C1105.47 887.802 1145.11 891.985 1181.84 907.134C1161.82 899.606 1108.42 882.923 1079.19 893.559Z"
      stroke="black" stroke-width="15" />
    <path d="M1059.01 962.813L1051.58 968.571" stroke="black" stroke-width="10" />
    <path
      d="M94 571L112.158 616.187L166.71 599.615L134.801 639.39L184.668 663.912L126.72 668.323L134.351 715.474L94 681.2L53.6488 715.474L61.2804 668.323L3.3317 663.912L53.1993 639.39L21.2897 599.615L75.842 616.187L94 571Z"
      fill="#FEC902" />
    <path
      d="M45.2268 657.268C58.7853 642.324 95.6942 618.291 143.782 645.786C130.675 659.036 94.3989 680.699 45.2268 657.268Z"
      fill="#F2E9E9" stroke="black" stroke-width="2" />
    <ellipse cx="91.4678" cy="649.226" rx="19.1505" ry="16.0046" fill="black" />
    <path
      d="M42.4241 655.507C48.3486 650.137 65.685 636.447 80.0244 632.781M80.0244 632.781C96.8824 628.47 122.319 631.603 145.883 642.946C133.041 637.309 98.7739 624.816 80.0244 632.781ZM80.0244 632.781L66.0118 618.433M66.0118 638.565L51.5322 626.334"
      stroke="black" stroke-width="10" />
    <path
      d="M461 11L479.158 56.1869L533.71 39.6148L501.801 79.3898L551.668 103.912L493.72 108.323L501.351 155.474L461 121.2L420.649 155.474L428.28 108.323L370.332 103.912L420.199 79.3898L388.29 39.6148L442.842 56.1869L461 11Z"
      fill="#FE02D8" />
    <path
      d="M412.227 97.2675C425.785 82.3243 462.694 58.2909 510.782 85.7864C497.675 99.0361 461.399 120.699 412.227 97.2675Z"
      fill="#F2E9E9" stroke="black" stroke-width="2" />
    <ellipse cx="458.468" cy="89.2263" rx="19.1505" ry="16.0046" fill="black" />
    <path
      d="M409.424 95.5066C415.349 90.1366 432.685 76.4469 447.024 72.7806M447.024 72.7806C463.882 68.4703 489.319 71.6026 512.883 82.946C500.041 77.3087 465.774 64.8163 447.024 72.7806ZM447.024 72.7806L433.012 58.4326M433.012 78.5649L418.532 66.3336"
      stroke="black" stroke-width="5" />
    <path d="M101 819L184.518 693L262.121 819H101Z" fill="#D6412B" stroke="#131212" />
    <path
      d="M139.04 779.578C150.98 767.151 183.481 747.165 225.827 770.03C214.285 781.048 182.341 799.062 139.04 779.578Z"
      fill="#D6412B" stroke="#131212" stroke-width="2" />
    <path
      d="M179.759 760.082C188.913 760.082 196.124 765.921 196.124 772.891C196.123 779.861 188.913 785.7 179.759 785.7C170.605 785.7 163.396 779.861 163.396 772.891C163.396 765.921 170.605 760.082 179.759 760.082Z"
      fill="black" stroke="#131212" />
    <path
      d="M201.191 759.321C189.351 757.139 178.257 757.145 169.683 759.215C178.078 755.847 190.007 756.878 201.191 759.321C209.852 760.917 218.912 763.683 227.678 767.668C222.119 765.364 212.003 761.683 201.191 759.321Z"
      fill="#D6412B" />
    <path
      d="M136.572 778.113C141.789 773.648 157.056 762.264 169.683 759.215M169.683 759.215C184.528 755.63 206.927 758.235 227.678 767.668C216.369 762.98 186.193 752.592 169.683 759.215ZM169.683 759.215L157.343 747.283M157.343 764.025L144.593 753.854"
      stroke="#131212" stroke-width="5" />
    <rect x="0.490246" y="0.506019" width="8.06701" height="16.151"
      transform="matrix(0.999925 0.0122263 -0.0194327 0.999811 173.882 741.745)" fill="#1C1C1E" stroke="#131212" />
    <rect x="0.316794" y="0.581322" width="7.93769" height="16.5327"
      transform="matrix(0.974889 0.22269 -0.341302 0.939954 194.518 741.11)" fill="#141415" stroke="#131212" />
    <path fill-rule="evenodd" clip-rule="evenodd"
      d="M95.1339 23.0023C118.479 23.2609 128.137 45.3799 142.55 59.3125C154.261 70.6326 168.811 80.9156 169.907 95.2811C171.057 110.352 161.382 124.242 148.377 135.669C134.148 148.172 116.896 160.45 95.1339 160.981C72.92 161.522 53.634 150.596 38.3549 138.352C23.5557 126.493 11.5287 111.565 13.1462 95.2811C14.6829 79.8106 32.972 70.0065 46.3118 58.2464C61.5445 44.8176 71.7821 22.7435 95.1339 23.0023Z"
      fill="#FFFCFC" stroke="black" />
    <path fill-rule="evenodd" clip-rule="evenodd"
      d="M89.445 67.0317C116.034 67.0317 140.053 79.6141 140.053 97.2619C140.053 114.644 115.633 126.464 89.445 126.464C66.5312 126.464 50.627 112.47 50.627 97.2619C50.627 81.7503 66.0744 67.0317 89.445 67.0317Z"
      fill="#FFEC3F" stroke="black" />
    <path d="M33.0615 1009.1C85.9768 908.66 214.829 768.043 306.915 1009.1" stroke="#C22727" stroke-opacity="0.47"
      stroke-width="50" />
    <path d="M87.6948 1011.38C119.077 942.466 192.838 845.982 236.82 1011.38" stroke="#383BE3" stroke-opacity="0.69"
      stroke-width="50" />
    <path
      d="M306.915 1012C272.669 910.147 169.542 767.552 31 1012M240.256 1012C227.199 971.598 183.355 823.903 87.6949 1012"
      stroke="black" stroke-width="10" />
    <path
      d="M185.03 157C205.014 179.191 226.356 222.164 151.846 216.526C173.7 241.617 197.938 288.179 120.063 273.701C146.361 297.667 178.931 342.12 98.8343 328.204C131.234 367.712 168.164 436.101 56.687 393.594"
      stroke="black" stroke-width="20" />
    <path
      d="M66.3105 771C84.1549 771 89.8477 776.599 89.8477 794.079C89.8475 811.559 75.3815 825.729 57.5371 825.729C39.6929 825.729 34.0001 820.131 34 802.651C34 785.171 48.466 771 66.3105 771ZM64.1309 786.237C57.576 786.238 52.2619 791.847 52.2617 798.766C52.2617 805.685 57.5759 811.295 64.1309 811.295C70.686 811.295 76 805.685 76 798.766C75.9998 791.846 70.6859 786.237 64.1309 786.237Z"
      fill="#131212" />
    <path fill-rule="evenodd" clip-rule="evenodd"
      d="M1329.93 26.6934C1343.44 29.9623 1351.02 43.8254 1363.59 49.6616C1377.71 56.2161 1400.45 49.2264 1407.68 62.7853C1415.04 76.5915 1403.37 94.1222 1394 106.713C1386.59 116.685 1365.89 113.024 1361.67 124.646C1355.88 140.593 1377.94 159.12 1369.6 173.945C1363 185.667 1341.55 188.118 1329.93 181.055C1316.28 172.755 1326.15 144.237 1311.21 138.446C1292.09 131.034 1263.27 167.574 1251.89 150.808C1240.86 134.552 1281.42 124.479 1289.67 106.713C1293.44 98.5951 1284.87 89.846 1284.33 80.9454C1283.29 63.9206 1273.99 43.8288 1285.06 30.658C1294.77 19.1119 1315.1 23.1043 1329.93 26.6934Z"
      fill="#923DCF" />
    <path
      d="M1326.58 457.292C1340.62 473.523 1324.02 506.772 1339.09 521.866C1348.92 531.709 1363.14 504.211 1376.25 507.04C1386.09 509.165 1387.36 524.715 1393.24 533.556C1402.25 547.105 1425.16 557.485 1420.34 573.36C1415.24 590.177 1390.79 586.658 1375.38 592.398C1366.57 595.679 1356.29 594.167 1348.71 600.043C1338.95 607.605 1337.3 636.051 1326.58 630.217C1312.23 622.399 1322.86 594.46 1313.06 580.631C1308.6 574.337 1298.46 582.676 1291.41 580.593C1281.17 577.57 1270.83 573.701 1263.05 565.862C1252.77 555.512 1242.11 543.55 1239.73 528.543C1237.28 513.168 1241.08 495.918 1249.99 483.687C1258.9 471.454 1274.12 467.265 1287.81 462.55C1300.38 458.216 1317.55 446.842 1326.58 457.292Z"
      fill="#FEBA4B" />
    <path fill-rule="evenodd" clip-rule="evenodd"
      d="M1358.75 1009.69C1337.09 1019.63 1316.63 1009.3 1294.92 1008.65C1274.47 1008.03 1245.62 1019.3 1235.36 1005.96C1224.64 992.012 1238.78 968.498 1249.97 950.171C1327.56 991.187 1344.78 970.111 1286 923.053C1292.09 918.053 1296.98 912.781 1302.32 907.212C1312.64 896.464 1379.74 915.281 1331.79 875.326C1283.83 835.371 1383.25 844.728 1402.96 852.718C1421.35 860.175 1409.19 887.784 1409.32 906.768C1409.44 924.166 1412.35 941.045 1403.67 958.728C1394.15 978.088 1380.75 999.592 1358.75 1009.69Z"
      fill="#EF1280" />
    <path
      d="M1379.06 615C1367.12 615 1358.72 625.21 1348.75 630.195C1339.37 634.886 1333.79 647.507 1331.02 656.748C1326.13 673.043 1339.72 686.233 1352.89 692.434C1360.66 696.092 1370.91 701.194 1379.6 701.95C1388.2 702.698 1395.01 699.568 1403.16 697.345C1418.26 693.227 1423.26 693.604 1423.26 676.855C1423.26 669.036 1412.5 661.806 1405.61 659.511C1395.36 656.093 1377.69 665.433 1370.16 671.636C1360.23 679.815 1350.76 696.788 1345.37 708.166C1342.99 713.194 1341.91 724.042 1341.76 729.654C1341.55 737.726 1342.63 740.911 1347.9 747.151C1355.26 755.869 1363.38 759.779 1373 764.956C1390.38 774.318 1443.6 752.645 1426.79 729.961C1422.8 724.567 1407.23 720.15 1401.09 718.833C1389.79 716.412 1377.32 728.177 1369.39 734.565C1352.36 748.284 1340.71 770.545 1341.84 792.583C1342.8 811.242 1352.6 821.281 1369.08 827.731C1381.98 832.778 1399.15 828.862 1410.83 824.969"
      stroke="#171716" stroke-width="13" stroke-linecap="round" />
    <path fill-rule="evenodd" clip-rule="evenodd"
      d="M247.301 9.31113C257.79 4.6984 271.548 13.2859 280.862 19.1418C289.631 24.6548 297.403 32.5443 297.873 41.1061C298.361 49.9908 278.19 57.1177 283.386 65.1153C290.8 76.5278 318.171 73.5884 326.23 84.7536C332.568 93.535 331.506 111.573 318.486 113.744C298.423 117.091 281.496 88.963 262.788 95.3344C244.636 101.517 267.22 138.74 247.301 137.989C226.948 137.221 247.792 104.313 232.549 94.1936C222.478 87.5074 206.85 106.645 194.376 102.851C185.174 100.053 185.84 88.0102 189.594 81.1302C193.733 73.5432 207.15 71.676 214.647 65.7009C218.074 62.9689 219.344 59.2327 221.368 55.8051C224.043 51.2733 226 46.7203 228.55 42.1483C234.755 31.0242 233.411 15.4199 247.301 9.31113Z"
      fill="#742688" />
    <path fill-rule="evenodd" clip-rule="evenodd"
      d="M237.811 553.905C255.773 557.878 261.002 575.901 273.971 587.034C286.605 597.879 306.449 602.79 311.656 617.296C318.389 636.055 324.041 662.129 305.026 673.548C285.683 685.164 261.462 663.926 237.811 661.644C219.457 659.873 194.52 674.906 184.493 661.919C173.844 648.125 205.067 633.671 203.572 617.296C201.774 597.599 165.947 583.291 175.67 565.29C184.75 548.479 216.5 549.191 237.811 553.905Z"
      fill="#DC2754" />
    <path d="M540.516 982.857L568.957 944.5M597.397 906.144L568.957 944.5M568.957 944.5L540.44 923.356L599.883 967.431"
      stroke="#383BE3" stroke-opacity="0.69" stroke-width="10" />
    <path fill-rule="evenodd" clip-rule="evenodd"
      d="M894.057 916.251C909.538 917.656 925.109 905.297 938.681 911.816C954.223 919.28 962.19 934.834 964.269 949.971C966.62 967.081 963.619 985.165 950.561 998.284C936.593 1012.32 915.325 1023.5 894.057 1020.51C874.107 1017.71 867.526 997.1 853.505 984.645C840.006 972.655 817.587 966.422 814.64 949.971C811.477 932.314 820.123 910.699 838.835 902.754C856.66 895.185 874.266 914.455 894.057 916.251Z"
      fill="#429AF2" />
    <path fill-rule="evenodd" clip-rule="evenodd"
      d="M706.134 877.002C729.479 877.261 739.137 899.38 753.55 913.313C765.261 924.633 779.811 934.916 780.907 949.281C782.057 964.352 772.382 978.242 759.377 989.669C745.148 1002.17 727.896 1014.45 706.134 1014.98C683.92 1015.52 664.634 1004.6 649.355 992.352C634.556 980.493 622.529 965.565 624.146 949.281C625.683 933.811 643.972 924.006 657.312 912.246C672.544 898.818 682.782 876.744 706.134 877.002Z"
      fill="#FFFCFC" stroke="black" />
    <path fill-rule="evenodd" clip-rule="evenodd"
      d="M700.445 921.032C727.034 921.032 751.053 933.614 751.053 951.262C751.053 968.644 726.633 980.464 700.445 980.464C677.531 980.464 661.627 966.47 661.627 951.262C661.627 935.75 677.074 921.032 700.445 921.032Z"
      fill="#FFEC3F" stroke="black" />
    <path fill-rule="evenodd" clip-rule="evenodd"
      d="M357.03 962.217L397.359 961.548L372.303 992.691L386.961 1007.81L411.348 979.753L413.703 1013.13L432.756 1010.89L432.233 979.406L458.554 1002.78L471.237 985.673L443.425 959.248L484.14 960.109L483.783 938.606L447.737 936.899L467.835 910.832L453.183 896.095L429.528 924.91L426.737 886.932L406.238 888.808L408.643 925.257L381.937 900.35L369.248 917.076L391.601 940.135L354.873 940.744L357.03 962.217Z"
      fill="#07A6EF" stroke="black" />
    <path
      d="M412.745 955.226C414.939 955.923 417.086 956.217 419.165 956.183C419.176 956.237 419.176 956.285 419.167 956.328C418.996 957.135 415.404 956.129 412.745 955.226C412.305 955.085 411.862 954.929 411.418 954.756C411.812 954.901 412.264 955.062 412.745 955.226Z"
      fill="#07A6EF" />
    <path
      d="M443.091 940.277C439.683 945.641 433.743 951.954 426.427 954.74M395.598 941.064C400.941 948.51 406.296 952.757 411.418 954.756M411.418 954.756L407.616 966.669M411.418 954.756C414.074 955.792 416.668 956.224 419.165 956.183M411.418 954.756C414.106 955.748 419.419 957.424 419.165 956.183M419.165 956.183L419.388 969.616M419.165 956.183C421.697 956.142 424.13 955.615 426.427 954.74M426.427 954.74L430.967 967.935"
      stroke="black" stroke-width="15" />
    <path d="M404.129 934.673C408.768 930.128 421.245 923.666 434.044 934.177" stroke="black" stroke-width="10" />
    <path fill-rule="evenodd" clip-rule="evenodd"
      d="M597.673 92.5193L634.672 91.9056L611.641 117.822L625.066 130.367L647.479 107.014L649.591 134.747L667.073 132.862L666.639 106.696L690.752 126.085L702.412 111.848L676.935 89.9278L714.285 90.585L713.989 72.7157L680.923 71.3492L699.398 49.6576L685.977 37.4321L664.236 61.4122L661.73 29.8548L642.921 31.4435L645.076 61.73L620.611 41.0699L608.946 54.9881L629.42 74.1185L595.725 74.6775L597.673 92.5193Z"
      fill="#16EF07" stroke="black" />
    <path
      d="M648.796 86.6291C650.808 87.2059 652.776 87.4469 654.684 87.4158C654.694 87.4602 654.694 87.5002 654.686 87.536C654.527 88.2065 651.234 87.3764 648.796 86.6291C648.392 86.5132 647.986 86.3838 647.579 86.2403C647.94 86.3609 648.354 86.4936 648.796 86.6291Z"
      fill="#16EF07" />
    <path
      d="M676.656 74.1625C673.521 78.6256 668.064 83.8798 661.348 86.2058M633.085 74.8853C637.977 81.0652 642.883 84.5868 647.579 86.2403M647.579 86.2403L644.074 96.1458M647.579 86.2403C650.014 87.0981 652.393 87.4531 654.684 87.4158M647.579 86.2403C650.043 87.0616 654.915 88.4466 654.684 87.4158M654.684 87.4158L654.869 98.5784M654.684 87.4158C657.007 87.3779 659.24 86.9362 661.348 86.2058M661.348 86.2058L665.494 97.165"
      stroke="black" stroke-width="5" />
    <path d="M640.921 69.5617C645.183 65.7781 656.639 60.39 668.365 69.1065" stroke="black" stroke-width="4" />
    <path fill-rule="evenodd" clip-rule="evenodd"
      d="M841.238 33.0678C851.289 39.4031 852.77 54.9962 864.534 58.0668C882.596 62.7816 903.829 44.4848 919.739 53.5586C932.998 61.1206 934.706 81.5417 928.667 94.6444C922.366 108.316 900.528 109.056 889.226 119.761C881.504 127.074 882.197 139.291 874.134 146.296C865.099 154.143 853.54 159.374 841.238 161.446C827.597 163.743 813.024 163.996 800.436 158.708C787.427 153.243 778.645 142.357 770.435 131.701C761.652 120.302 752.063 108.52 751.075 94.6444C750.067 80.4786 759.432 68.0028 764.956 54.7202C771.526 38.9235 768.921 14.0472 786.693 9.00255C806.324 3.43029 824.348 22.422 841.238 33.0678Z"
      fill="#5AD9B5" stroke="black" stroke-width="3" />
    <path d="M950.36 126.06C985.264 58.8531 1070.26 -35.2359 1131 126.06" stroke="#9FEC72" stroke-width="50" />
    <path d="M986.397 127.587C1007.1 81.4734 1055.75 16.9145 1084.76 127.587" stroke="#07A6EF" stroke-width="50" />
    <path d="M1131 128C1108.41 59.848 1040.39 -35.5647 949 128M1087.03 128C1078.42 100.966 1049.5 2.1407 986.397 128"
      stroke="black" stroke-width="10" />
    <path
      d="M859.032 925.794C859.005 926.274 857.692 928.443 857.692 927.022C857.692 925.935 857.928 925.476 859.032 924.95C859.632 924.664 861.265 924.845 861.265 925.682C861.265 926.468 860.447 927.624 859.702 927.978C858.814 928.398 857.692 928.196 857.692 927.246C857.692 926.115 858.342 926.24 859.255 926.24C860.239 926.24 860.595 926.93 860.595 927.928C860.595 928.88 859.471 929.413 858.486 929.132C856.698 928.621 856.921 925.981 858.052 925.025C859.033 924.194 859.93 924.135 861.216 924.23C861.554 924.255 863.158 925.55 863.263 925.918C863.73 927.554 861.625 929.367 860.26 929.367C859.052 929.367 855.656 925.57 858.362 925.57"
      stroke="black" stroke-width="2" stroke-linecap="round" />
    <path d="M862.159 927.357C862.552 927.308 862.382 926.332 862.382 926.017" stroke="black" stroke-width="2"
      stroke-linecap="round" />
    <path
      d="M848.758 956.615C848.758 957.457 849.135 958.68 849.701 959.246C850.408 959.953 851.765 958.095 852.108 957.732C853.618 956.133 851.317 953.124 849.651 954.605C848.726 955.428 848.535 956.487 848.535 957.732C848.535 958.849 849.266 958.849 850.321 958.849C851.318 958.849 851.995 957.925 851.264 957.012C851.002 956.684 851.364 955.854 850.545 956.218C850.226 956.36 849.645 956.836 850.098 957.062"
      stroke="black" stroke-width="2" stroke-linecap="round" />
    <path fill-rule="evenodd" clip-rule="evenodd"
      d="M1167.09 130.486C1179.82 126.29 1178.59 150.523 1191.27 154.802C1204.18 159.16 1227.9 143.376 1233.4 152.872C1239.94 164.158 1207.02 172.073 1208.34 184.27C1209.39 193.973 1236.23 193.344 1238.81 202.896C1240.88 210.538 1225.38 214.709 1218.15 220.484C1211.31 225.945 1206.17 232.727 1197.15 236.162C1188.04 239.631 1177.2 238.499 1167.09 239.931C1154.78 241.675 1138.25 252.833 1130.76 245.568C1120.58 235.707 1135.49 221.589 1135.46 209.289C1135.45 205.004 1131.84 201.277 1130.66 197.078C1129.5 192.957 1130.19 188.747 1128.54 184.715C1125.26 176.733 1108.04 167.646 1116.15 161.729C1124.81 155.409 1142.24 173.63 1151.62 167.873C1165.52 159.348 1150.5 135.955 1167.09 130.486Z"
      fill="#BC1717" stroke="black" />
    <path
      d="M889.348 980.405C889.942 980.405 890.5 981.005 891.148 981.005C891.809 981.005 892.428 981.178 893.031 981.455C893.676 981.751 894.561 981.605 895.264 981.605C896.755 981.605 898.725 981.213 900.079 980.555C900.65 980.278 901.212 980.264 901.796 979.955C902.494 979.585 903.106 979.089 903.762 978.689C905.108 977.866 906.062 976.48 907.161 975.339C908.13 974.334 909.05 973.107 909.811 971.932C910.619 970.683 911.69 969.619 912.51 968.341C913.529 966.753 914.17 964.989 914.71 963.233C915.106 961.947 915.293 960.922 915.293 959.559C915.293 958.981 915.293 958.404 915.293 957.826C915.293 957.329 914.933 957.29 914.685 956.918C914.178 956.158 913.684 955.573 913.193 954.793C912.692 953.997 912.175 953.271 911.544 952.577C910.965 951.941 910.279 951.559 909.744 950.827C909.195 950.076 907.963 948.911 906.995 948.911C906.514 948.911 907.889 949.272 908.311 949.503C908.543 949.629 909.226 949.788 909.328 949.961C909.778 950.726 911.022 950.748 911.535 951.519C911.837 951.972 912.333 952.244 912.66 952.66C912.847 952.898 913.445 953.842 913.485 954.102C913.578 954.702 913.943 955.021 913.943 955.66C913.943 956.213 914.093 956.744 914.093 957.309C914.093 958.103 914.543 958.852 914.543 959.709C914.543 960.344 914.377 961.397 913.977 961.842C913.358 962.529 913.193 963.441 913.193 964.358C913.193 965.143 912.726 965.976 912.41 966.608C911.965 967.499 911.075 969.332 910.119 969.757C909.925 969.843 909.456 970.865 909.369 971.107C909.222 971.519 908.863 971.799 908.728 972.19C908.617 972.51 908.501 973.111 908.094 973.206C907.829 973.269 907.31 974.404 907.053 974.639C906.785 974.885 906.619 975.5 906.361 975.831C905.939 976.374 905.156 976.705 904.645 977.189C904.312 977.504 903.695 977.804 903.295 978.039C902.957 978.238 902.586 978.581 902.254 978.83C901.779 979.186 901.065 979.805 900.446 979.805C899.999 979.805 899.764 980.224 899.363 980.255C898.893 980.291 898.464 980.405 897.971 980.405C897.021 980.405 896.023 980.405 895.08 980.405C893.207 980.405 891.345 980.555 889.498 980.555"
      stroke="#1B1919" stroke-width="2" stroke-linecap="round" />
    <path
      d="M31.6365 195.5V148L60.4794 186.5C70.8322 186.839 88.809 191.787 100.905 206.819C106.628 213.929 111.034 223.297 112.695 235.5C118.331 236.5 126.221 240.2 112.695 247C110.209 262.833 101.058 294.4 84.3494 294C63.4632 293.5 28.6528 302 20.1988 271C15.7986 254.865 14.5279 248.578 14.4966 246.798C7.6228 244.795 -0.906662 239.565 15.2259 233C16.2357 225.216 19.0229 211.887 23.6798 203.342C25.9027 199.264 28.5516 196.275 31.6365 195.5Z"
      fill="#FEC902" />
    <path
      d="M31.6365 195.5V148L60.4794 186.5M31.6365 195.5C35.6148 188.7 52.8543 186.667 60.4794 186.5M31.6365 195.5C28.5516 196.275 25.9027 199.264 23.6798 203.342M60.4794 186.5C70.8322 186.839 88.809 191.787 100.905 206.819M23.6798 203.342C19.0229 211.887 16.2357 225.216 15.2259 233C-1.48309 239.8 8.26382 245.167 15.2259 247C14.0655 244.667 13.4356 246.2 20.1988 271C28.6528 302 63.4632 293.5 84.3494 294C101.058 294.4 110.209 262.833 112.695 247C126.221 240.2 118.331 236.5 112.695 235.5C111.034 223.297 106.628 213.929 100.905 206.819M23.6798 203.342C25.3796 209.3 32.0092 216.161 46.058 206.819M46.058 206.819C49.8199 204.317 54.1138 200.654 58.9875 195.5C55.0092 192.379 46.8536 190.274 46.058 206.819ZM46.058 206.819C49.4462 214.561 58.0213 223.58 69.9279 213.622M69.9279 213.622C73.7493 210.426 77.9139 205.275 82.3602 197.5C78.2161 194.748 69.9279 194.119 69.9279 213.622ZM69.9279 213.622C76.3239 216.96 91.4737 220.274 100.905 206.819M76.89 230.5V234.848M76.89 234.848C74.263 235.631 71.8728 236.956 69.9279 239C76.5585 242.833 92.7039 248.2 104.241 239C101.279 237.543 96.8758 235.864 92.0737 234.848M76.89 234.848C79.237 234.149 81.773 233.883 84.3494 233.924M84.3494 230.5V233.924M84.3494 233.924C86.9335 233.966 89.5583 234.316 92.0737 234.848M92.3061 230.5L92.0737 234.848M31.6365 228.5L31.5094 233.924M31.5094 233.924C29.3571 234.622 27.2252 235.624 25.1717 237C31.8023 241.5 47.5498 247.8 57.4957 237C55.3527 235.769 52.011 234.356 48.0471 233.466M31.5094 233.924C34.2104 233.049 36.9434 232.651 39.5932 232.591M39.5932 228.5V232.591M39.5932 232.591C42.5707 232.523 45.4432 232.882 48.0471 233.466M48.0471 228.5V233.466M60.4794 245L80.3711 247L63.4632 252.5M13.734 239L14.2313 240L16.2205 240.5M112.198 241.5L116.176 240.5M76.89 263C76.89 276.08 60.3136 271.783 52.0255 268C53.8415 261.914 56.9624 259.011 60.4794 258.025C66.2079 256.42 72.9872 259.902 76.89 263Z"
      stroke="black" stroke-width="3" />
    <ellipse cx="42.3023" cy="237.5" rx="4.47562" ry="4.5" fill="#131212" />
    <ellipse cx="85.5667" cy="239" rx="3.97833" ry="4" fill="#131212" />
    <path d="M59.2102 262.5H60.7021H61.1994H61.6967H62.194" stroke="black" stroke-width="3" />
    <path d="M65.1777 262.5H68.6588" stroke="black" stroke-width="3" />
    <path d="M1329.61 1007.93C1333.11 1009.93 1340.91 1012.73 1344.11 1007.93" stroke="black" stroke-width="3" />
    <path d="M1336.11 961.43L1348.61 964.43L1336.11 967.43" stroke="black" stroke-width="3" />
    <path
      d="M1358.61 974.998C1362.87 975.249 1366.95 975.573 1370.61 975.93C1377.71 986.586 1370.75 991.469 1358.61 993.169C1350.39 994.32 1339.8 994.015 1329.61 993.056C1325.48 992.668 1321.42 992.174 1317.61 991.626C1314.97 991.247 1312.45 990.842 1310.11 990.43C1302.85 982.837 1307.62 978.596 1317.61 976.429C1321.07 975.677 1325.17 975.175 1329.61 974.87C1333.72 974.587 1338.13 974.472 1342.61 974.484C1347.97 974.499 1353.43 974.694 1358.61 974.998Z"
      fill="#D9D9D9" />
    <path
      d="M1420.91 946.43C1424.42 949.095 1426.23 953.473 1422.93 960.275C1421.73 962.951 1420.03 965.335 1418.61 966.93C1420.55 964.489 1421.96 962.277 1422.93 960.275C1425 955.679 1425.62 950.222 1420.91 946.43Z"
      fill="#D9D9D9" />
    <path
      d="M1358.61 974.998C1362.87 975.249 1366.95 975.573 1370.61 975.93C1377.71 986.586 1370.75 991.469 1358.61 993.169M1358.61 974.998V993.169M1358.61 974.998C1353.43 974.694 1347.97 974.499 1342.61 974.484M1358.61 993.169C1350.39 994.32 1339.8 994.015 1329.61 993.056M1342.61 974.484V993.169M1342.61 974.484C1338.13 974.472 1333.72 974.587 1329.61 974.87M1329.61 974.87V993.056M1329.61 974.87C1325.17 975.175 1321.07 975.677 1317.61 976.429M1329.61 993.056C1325.48 992.668 1321.42 992.174 1317.61 991.626M1317.61 976.429C1307.62 978.596 1302.85 982.837 1310.11 990.43C1312.45 990.842 1314.97 991.247 1317.61 991.626M1317.61 976.429V991.626M1410.61 942.93C1413.92 943.19 1418 944.222 1420.91 946.43M1420.91 946.43C1425.45 949.879 1427.14 956.199 1418.61 966.93C1422.48 962.596 1428.35 952.43 1420.91 946.43ZM1420.91 946.43L1414.11 951.93M1262.61 940.93C1259.63 941.163 1256.01 942.028 1253.11 943.826M1253.11 965.43C1244.78 953.726 1247.71 947.166 1253.11 943.826M1253.11 943.826L1258.61 951.93"
      stroke="black" stroke-width="3" />
    <path
      d="M1379.61 945.776C1387.68 958.422 1378.71 961.672 1367.61 961.43C1358.01 955.953 1361.61 948.553 1364.61 945.538C1370.79 945.224 1377.09 945.776 1379.61 945.776Z"
      fill="#D9D9D9" />
    <path
      d="M1399.61 932.43C1444.41 918.03 1448.61 948.43 1445.11 965.43C1431.51 987.83 1409.11 982.763 1399.61 977.43L1383.11 1001.43V1019.43H1289.61C1290.94 1012.76 1292.81 999.83 1289.61 1001.43C1286.41 1003.03 1277.94 986.096 1274.11 977.43C1244.51 983.43 1235.11 971.93 1234.11 965.43C1222.91 922.23 1259.11 925.43 1278.61 932.43M1399.61 932.43C1380.77 903.43 1330.21 862.83 1278.61 932.43M1399.61 932.43C1392.01 944.43 1385.44 934.43 1383.11 927.93C1374.56 930.73 1369.21 922.096 1367.61 917.43C1355.21 931.03 1345.77 923.096 1342.61 917.43C1330.61 929.83 1317.61 927.263 1312.61 924.43C1287.11 947.43 1278.61 941.93 1278.61 932.43M1321.11 937.93H1307.61M1315.61 963.583C1310.2 963.466 1304.3 962.521 1299.61 961.43C1293.22 950.874 1302.77 948.19 1312.61 947.691M1315.61 963.583C1326.71 963.825 1335.68 960.576 1327.61 947.93C1325.09 947.93 1318.79 947.378 1312.61 947.691M1315.61 963.583C1306.01 958.106 1309.61 950.707 1312.61 947.691M1367.61 961.43C1362.2 961.312 1356.3 960.367 1351.61 959.276C1338.61 944.622 1367.61 945.447 1364.61 945.538M1367.61 961.43C1378.71 961.672 1387.68 958.422 1379.61 945.776C1377.09 945.776 1370.79 945.224 1364.61 945.538M1367.61 961.43C1358.01 955.953 1361.61 948.553 1364.61 945.538"
      stroke="black" stroke-width="3" />
    <path d="M1375.61 937.93H1362.11" stroke="black" stroke-width="3" />
    <path
      d="M1395.31 398C1413.15 398 1418.85 403.599 1418.85 421.079C1418.85 438.559 1404.38 452.729 1386.54 452.729C1368.69 452.729 1363 447.131 1363 429.651C1363 412.171 1377.47 398 1395.31 398ZM1393.13 413.237C1386.58 413.238 1381.26 418.847 1381.26 425.766C1381.26 432.685 1386.58 438.295 1393.13 438.295C1399.69 438.295 1405 432.685 1405 425.766C1405 418.846 1399.69 413.237 1393.13 413.237Z"
      fill="#131212" />
    <path
      d="M829.311 66C847.155 66 852.848 71.5988 852.848 89.0791C852.848 106.559 838.382 120.729 820.537 120.729C802.693 120.729 797 115.131 797 97.6514C797 80.171 811.466 66 829.311 66ZM827.131 81.2373C820.576 81.2375 815.262 86.8466 815.262 93.7656C815.262 100.685 820.576 106.295 827.131 106.295C833.686 106.295 839 100.685 839 93.7656C839 86.8465 833.686 81.2373 827.131 81.2373Z"
      fill="#131212" />
    <path
      d="M1271.31 789C1289.15 789 1294.85 794.599 1294.85 812.079C1294.85 829.559 1280.38 843.729 1262.54 843.729C1244.69 843.729 1239 838.131 1239 820.651C1239 803.171 1253.47 789 1271.31 789ZM1269.13 804.237C1262.58 804.238 1257.26 809.847 1257.26 816.766C1257.26 823.685 1262.58 829.295 1269.13 829.295C1275.69 829.295 1281 823.685 1281 816.766C1281 809.846 1275.69 804.237 1269.13 804.237Z"
      fill="#131212" />
    <path
      d="M573.311 921C591.155 921 596.848 926.599 596.848 944.079C596.848 961.559 582.382 975.729 564.537 975.729C546.693 975.729 541 970.131 541 952.651C541 935.171 555.466 921 573.311 921ZM571.131 936.237C564.576 936.238 559.262 941.847 559.262 948.766C559.262 955.685 564.576 961.295 571.131 961.295C577.686 961.295 583 955.685 583 948.766C583 941.846 577.686 936.237 571.131 936.237Z"
      fill="#131212" />
    <path
      d="M964.311 891C982.155 891 987.848 896.599 987.848 914.079C987.848 931.559 973.382 945.729 955.537 945.729C937.693 945.729 932 940.131 932 922.651C932 905.171 946.466 891 964.311 891ZM962.131 906.237C955.576 906.238 950.262 911.847 950.262 918.766C950.262 925.685 955.576 931.295 962.131 931.295C968.686 931.295 974 925.685 974 918.766C974 911.846 968.686 906.237 962.131 906.237Z"
      fill="#131212" />
    <path
      d="M1219.31 41C1237.15 41 1242.85 46.5988 1242.85 64.0791C1242.85 81.5593 1228.38 95.7295 1210.54 95.7295C1192.69 95.7295 1187 90.1313 1187 72.6514C1187 55.171 1201.47 41 1219.31 41ZM1217.13 56.2373C1210.58 56.2375 1205.26 61.8466 1205.26 68.7656C1205.26 75.6848 1210.58 81.2947 1217.13 81.2949C1223.69 81.2949 1229 75.6849 1229 68.7656C1229 61.8465 1223.69 56.2373 1217.13 56.2373Z"
      fill="#131212" />
    <path
      d="M263.311 138C281.155 138 286.848 143.599 286.848 161.079C286.848 178.559 272.382 192.729 254.537 192.729C236.693 192.729 231 187.131 231 169.651C231 152.171 245.466 138 263.311 138ZM261.131 153.237C254.576 153.238 249.262 158.847 249.262 165.766C249.262 172.685 254.576 178.295 261.131 178.295C267.686 178.295 273 172.685 273 165.766C273 158.846 267.686 153.237 261.131 153.237Z"
      fill="#131212" />
  </g>
  <defs>
    <clipPath id="clip0_146_250">
      <rect width="1440" height="1024" fill="white" />
    </clipPath>
  </defs>
</svg>