<svg xmlns="http://www.w3.org/2000/svg" xmlns:xlink="http://www.w3.org/1999/xlink" preserveAspectRatio="xMidYMid meet" version="1.0" viewBox="-1.9 -1.7 516.6 494.7" zoomAndPan="magnify" style="fill: rgb(0, 0, 0);" original_string_length="13406"><g id="__id183_s2pplbyhko"><path d="M508.815,225.843c-8.043-16.371-15.207-33.155-23.464-49.443c-20.979-41.38-40.021-83.664-58.341-126.285 c-4.837-11.253-10.731-22.034-17.055-32.574c-4.607-7.678-10.384-12.986-19.767-13.775c-7.581-0.638-15.186-1.474-22.653-2.893 c-13.645-2.594-25.664,0.673-36.731,8.697c-7.616,5.522-15.171,11.181-23.148,16.145c-18.928,11.779-36.442,25.583-55.082,37.818 c-21.23,13.936-42.199,28.367-63.146,42.781c-5.704,3.925-11.295,8.005-15.616,13.416c-11.778,14.747-26.852,26.526-37.721,42.079 c-0.764,1.093-1.822,1.983-2.756,2.955c-21.679,22.564-41.237,47.038-63.193,69.391c-15.09,15.363-30.341,30.607-44.929,46.466 c-7.803,8.482-15.477,17.097-22.868,25.938c-4.254,5.088-2.59,8.685,3.918,9.973c2.092,0.414,4.194,0.785,6.199,0.034 c1.782-0.667,2.32,0.203,3.034,1.542c3.799,7.125,7.631,14.233,11.558,21.289c6.32,11.357,13.503,21.89,25.464,28.267 c3.982,2.123,7.467,2.023,11.506,0.407c15.022-6.012,28.072-15.426,41.155-24.531c25.527-17.764,48.237-38.887,69.587-61.472 c1.175-1.243,2.028-3.223,4.271-3.102c0.472,1.676-0.626,2.528-1.261,3.416c-6.849,9.574-13.329,19.46-20.784,28.543 c-12.793,15.587-25.013,31.648-39.098,46.191c-10.407,10.745-22.262,20.053-31.545,31.913c-1.182,1.509-3.462,2.557-2.259,4.74 c1.182,2.144,3.641,2.522,5.911,2.043c3.535-0.747,6.7-2.47,9.812-4.274c14.662-8.496,27.931-18.929,41.094-29.51 c5.768-4.637,11.629-9.16,16.887-14.514c1.2,1.792,0.169,2.768-0.288,3.787c-5.807,12.946-11.363,25.998-17.695,38.718 c-3.374,6.778-6.34,13.875-8.096,21.323c-0.58,2.458-0.805,5.277,1.89,6.862c2.68,1.576,4.828,0.128,6.808-1.708 c4.608-4.272,9.594-8.141,13.47-13.176c5.013-6.512,9.963-13.084,15.246-19.373c3.958-4.712,7.823-9.49,11.308-14.618 c0.414,2.076,0.587,3.876,0.385,5.632c-1.079,9.372-1.688,18.766-1.221,28.194c0.399,8.044,0.14,16.199,3.39,23.85 c3.123,7.351,6.818,8.298,13.014,3.273c5.847-4.742,11.008-10.14,15.47-16.21c0.81-1.102,1.372-2.566,3.267-3.095 c1.446,10.436,4.193,20.166,8.27,29.46c1.476,3.364,1.737,8.172,6.546,8.839c5.129,0.711,6.977-3.816,9.55-7.001 c7.623-9.435,11.923-20.656,17.146-32.587c0.951,2.129,1.576,3.283,1.997,4.507c5.143,14.971,13.362,28.379,21.603,41.715 c8.67,14.03,12.568,15.181,28.037,9.484c3.005-1.106,4.595-0.478,6.191,2.123c3.942,6.422,8.767,12.099,14.743,16.787 c2.942,2.309,6.128,3.587,9.845,3.832c14.389,0.951,28.715,1.029,42.797-2.742c1.996-0.535,3.678-0.446,5.305,1.195 c6.295,6.346,13.387,4.55,18.49-2.459c4.515-6.2,8.213-12.84,11.082-19.945c12.767-31.616,27.902-62.13,42.94-92.696 c8.183-16.632,17.006-32.968,23.927-50.204c4.008-9.982,7.379-20.281,12.162-29.876c4.873-9.776,9.784-19.495,13.927-29.612 C514.255,249.697,514.74,237.903,508.815,225.843z M96.675,387.357c-0.27,0.15-0.539,0.299-0.809,0.449 C96.135,387.657,96.405,387.507,96.675,387.357c0.312-0.117,0.654-0.192,0.956-0.325C97.328,387.165,96.987,387.24,96.675,387.357z M328.306,18.443L328.306,18.443c0.21,0.19,0.396,0.4,0.559,0.632C328.702,18.843,328.516,18.632,328.306,18.443z M329.168,18.746 c0.205-0.218,0.383-0.443,0.339-0.725C329.551,18.303,329.373,18.528,329.168,18.746z M329.379,17.575 C329.379,17.575,329.379,17.575,329.379,17.575c0.134-0.154,0.267-0.308,0.401-0.462c0.03,0.182,0.06,0.364,0.09,0.547 C329.706,17.631,329.543,17.603,329.379,17.575z M329.78,17.113c0.03,0.182,0.06,0.364,0.09,0.547 c-0.164-0.028-0.327-0.056-0.491-0.085C329.513,17.421,329.646,17.267,329.78,17.113z" style="fill: rgb(30, 63, 72);"/></g><g id="__id184_s2pplbyhko"><path d="M447.585,315.123c-13.751-28.549-30.409-54.133-43.746-81.542c-8.487-17.443-18.859-33.924-26.802-51.667 c-4.568-10.203-7.811-20.966-13.267-30.803c-1.14-2.055-1.44-4.201,0.139-7.013c9.968-17.75,21.493-34.492,32.49-51.578 c2.009-3.12,3.451-6.603,5.193-9.898c0.95-1.797,1.931-2.333,3.641-0.507c4.16,4.441,6.891,9.687,9.466,15.123 c6.83,14.417,12.961,29.144,20.181,43.404c5.914,11.68,10.305,24.131,15.854,36.043c9.2,19.747,16.464,40.39,27.38,59.343 c2.01,3.49,2.003,6.885,0.986,10.709c-4.806,18.087-13.828,34.292-22.3,50.748C453.944,303.036,451.021,308.553,447.585,315.123z" style="fill: rgb(215, 180, 175);"/></g><g id="__id185_s2pplbyhko"><path d="M403.306,17.886c7.536,12.581,13.59,25.102,19.217,37.816c10.836,24.479,21.071,49.23,32.294,73.528 c9.531,20.635,20.178,40.752,30.183,61.17c6.976,14.235,14.018,28.452,20.421,42.947c3.764,8.519,0.598,17.113-2.336,25.247 c-3.755,10.411-8.998,20.172-13.884,30.103c-4.996,10.157-8.485,21.047-12.826,31.536c-8.584,20.74-19.186,40.533-28.949,60.714 c-10.276,21.241-20.007,42.724-29.671,64.239c-4.768,10.616-8.124,21.873-14.541,31.732c-1.142,1.755-2.293,3.514-3.571,5.169 c-2.927,3.792-5.954,3.933-9.166,0.425c-7.35-8.027-12.841-17.404-17.631-26.99c-9.165-18.345-19.256-36.173-29.046-54.166 c-10.547-19.385-18.014-40.11-26.757-60.27c-8.924-20.575-19.421-40.489-26.658-61.775c-5.49-16.146-10.21-32.562-16.036-48.58 c-2.062-5.671-1.596-8.959,2.207-13.938c10.958-14.35,21.662-28.943,30.439-44.863c6.277-11.386,13.717-22.124,20.338-33.328 c9.969-16.871,19.458-34.027,29.55-50.823c12.645-21.046,26.763-41.138,40.716-61.329C399.455,23.764,401.222,21.019,403.306,17.886 z M484.928,241.261c0.441-2.465,0.211-4.693-1.054-6.951c-7.155-12.774-13.644-25.865-18.92-39.555 c-5.373-13.941-12.732-27.049-18.139-40.934c-5.758-14.787-14.128-28.279-19.923-43.022c-1.999-5.087-4.88-9.885-7.015-14.989 c-2.438-5.829-5.582-11.249-10.039-15.817c-4.848-4.968-8.417-4.616-12.089,1.395c-3.973,6.504-8.031,12.937-12.349,19.227 c-8.545,12.446-16.659,25.179-24.275,38.224c-2.842,4.866-4.479,9.814-1.532,15.192c4.681,8.542,7.428,17.895,11.328,26.751 c12.046,27.356,27.183,53.161,40.739,79.762c10.157,19.93,21.925,39.046,32.217,58.938c1.862,3.598,3.896,3.227,6.281,1.083 c1.303-1.171,2.413-2.684,3.237-4.241c8.668-16.383,17.61-32.638,24.843-49.73C481.67,258.481,484.499,250.147,484.928,241.261z M313.193,285.931c0.681,2.389,1.395,5.44,2.414,8.385c11.38,32.904,25.126,64.761,42.348,95.06 c2.581,4.54,5.474,8.906,8.325,13.286c0.957,1.47,2.204,3.358,4.269,1.994c1.862-1.229,1.128-3.163,0.255-4.818 c-0.626-1.187-1.294-2.355-1.994-3.5c-2.337-3.821-4.894-7.521-7.016-11.457c-14.026-26.019-26.897-52.572-36.986-80.409 c-2.331-6.431-5.549-12.527-7.3-19.19c-0.39-1.482-1.159-2.911-3.094-2.514C313.104,283.038,313.073,284.189,313.193,285.931z M320.122,265.183c-0.035,5.965,2.662,10.959,4.661,16.106c15.198,39.153,32.565,77.231,55.938,112.315 c1.024,1.537,1.74,4.171,4.213,2.673c2.524-1.529,1.42-3.862,0.184-5.863c-0.549-0.89-1.21-1.711-1.754-2.604 c-10.566-17.347-21.499-34.574-30.083-52.944c-10.337-22.12-21.149-44.056-30.241-66.751 C322.54,266.867,322.141,265.594,320.122,265.183z M325.351,20.538c-14.249,11.427-30.409,20.233-44.222,32.273 c-2.574,2.243-5.58,4.034-8.53,5.794c-20.831,12.428-39.978,27.35-60.231,40.641c-7.755,5.089-15.233,10.574-23.496,14.858 c-2.785,1.444-5.711,2.852-7.58,5.483c-7.663,10.786-17.553,19.636-25.94,29.7c-12.476,14.97-25.935,29.025-38.577,43.818 c-8.559,10.016-16.896,20.309-26.276,29.516c-16.028,15.732-30.879,32.592-47.046,48.181c-4.615,4.45-8.673,9.465-13.4,13.874 c-8.063,7.519-14.049,16.92-23.169,25.242c8.109,0.161,14.195-2.1,20.304-4.201c8.72-3,15.922-8.846,24.057-12.922 c19.819-9.931,38.127-22.403,57.035-33.849c15.344-9.288,30.748-18.5,45.831-28.25c8.309-5.371,16.74-10.343,23.883-17.253 c2.205-2.133,5-3.333,6.884-6.17c9.432-14.199,18.46-28.689,29.825-41.538c16.568-18.732,32.619-38.003,47.27-58.192 c20.666-28.477,41.127-57.061,63.649-84.117c0.712-0.856,1.775-1.625,1.241-3.461C326.17,20.219,325.678,20.276,325.351,20.538z M342.364,11.208c-5.507,5.222-9.162,11.8-13.812,17.637C316.341,44.172,303.561,59.143,292.54,75.3 c-19.512,28.604-40.756,55.811-63.024,82.246c-12.639,15.004-25.042,30.137-35.777,46.598c-2.151,3.298-1.288,4.214,2.048,4.633 c7.396,0.927,14.784,1.922,22.179,2.855c14.798,1.866,29.651,3.383,44.363,5.771c4.095,0.665,6.062-0.607,8.219-3.262 c8.693-10.696,16.227-22.268,23.574-33.837c7.44-11.715,14.455-23.747,21.711-35.609c18.721-30.605,35.232-62.54,55.758-92.067 c8.45-12.155,17.497-23.896,25.338-36.483c1.884-3.025,1.65-4.042-1.967-5.005c-12.519-3.336-25.393-3.765-38.091-5.146 C350.911,4.726,346.543,7.246,342.364,11.208z" style="fill: rgb(164, 137, 92);"/></g><g id="__id186_s2pplbyhko"><path d="M42.616,351.461c8.939-3.303,16.871-8.051,25.255-11.759c13.362-5.91,25.667-13.64,37.469-21.95 c14.181-9.986,28.953-19.167,42.322-30.334c17.855-14.912,34.754-30.715,48.94-49.245c0.454-0.593,1.071-1.11,1.354-1.773 c0.368-0.863,1.64-1.784,0.543-2.744c-1.113-0.974-2.303-0.237-3.184,0.613c-5.265,5.083-10.791,9.936-15.678,15.363 c-18.354,20.383-39.435,37.435-62.091,52.795c-12.629,8.562-25.036,17.498-38.295,25.009c-12.327,6.984-25.297,12.831-37.943,19.259 c-1.53,0.778-2.127,0.07-2.871-0.961c-2.984-4.136-5.517-8.537-7.919-13.03c-0.849-1.589-0.638-2.41,0.99-3.097 c2.613-1.102,5.115-2.498,7.78-3.444c15.447-5.483,29.322-14.061,43.732-21.649c19.638-10.34,38.48-21.964,56.662-34.539 c15.718-10.871,31.171-22.331,43.874-36.916c1.667-1.914,3.559-3.677,4.477-6.107c0.232-0.613,0.167-1.6-0.192-2.113 c-0.565-0.807-1.251,0.022-1.904,0.262c-2.895,1.062-5.217,2.989-7.237,5.175c-15.265,16.519-33.403,29.442-52.079,41.676 c-21.661,14.189-44.467,26.414-67.067,39.004c-9.835,5.479-20.678,8.684-30.401,14.32c-0.764,0.443-1.867,1.237-2.419,0.417 c-2.327-3.458-4.539-7.008-6.544-10.66c-0.526-0.958,0.864-1.263,1.681-1.585c23.326-9.191,44.493-22.344,65.913-35.163 c14.758-8.832,29.24-18.099,43.951-26.999c18.002-10.891,36.312-21.382,52.824-34.565c2.567-2.05,5.247-2.418,8.357-1.95 c8.26,1.243,16.541,2.339,24.738,3.483c0.511,1.344-0.314,2.142-0.891,2.975c-31.439,45.318-69.723,84.027-114.126,116.562 c-12.961,9.497-26.333,18.74-41.457,24.881c-2.834,1.151-4.959,1.292-7.294-0.895C50.301,358.421,46.076,355.755,42.616,351.461z M234.897,220.825c4.498,11.449,6.361,23.594,8.924,35.507c6.164,28.645,13.186,56.924,23.267,84.573 c9.916,27.196,17.328,55.27,29.592,81.675c8.092,17.422,16.708,34.45,28.285,49.822c5.225,6.938,11.464,12.23,21.217,9.65 c0.122-1.518-1.127-2.359-1.783-3.458c-5.437-9.121-11.911-17.569-17.067-26.891c-6.09-11.012-11.016-22.556-16.427-33.883 c-15.788-33.052-30.417-66.57-41.39-101.562c-7.801-24.875-17.029-49.33-22.409-74.931c-0.318-1.513-1.438-3.582,0.518-4.162 c2.13-0.632,2.306,1.837,2.755,3.29c2.288,7.393,4.283,14.882,6.753,22.211c12.526,37.175,24.172,74.627,40.36,110.523 c15.673,34.755,30.239,69.984,51.678,101.793c5.64,8.369,7.384,9.254,17.78,6.762c-0.512-0.789-0.968-1.527-1.459-2.241 c-8.462-12.318-18.037-23.908-24.506-37.527c-5.66-11.916-13.902-22.41-19.588-34.22c-7.118-14.787-13.134-30.13-19.121-45.431 c-8.164-20.865-16.011-41.859-23.699-62.906c-7.066-19.346-13.735-38.836-20.6-58.255c-0.502-1.42-1.441-3.102,0.435-3.858 c1.654-0.667,2.724,0.97,3.393,2.271c2.593,5.042,5.387,9.976,7.348,15.34c12.356,33.804,24.603,67.65,37.243,101.348 c9.553,25.467,20.667,50.153,34.545,73.722c9.802,16.647,19.913,33.012,30.856,48.898c0.339,0.492,0.603,1.118,1.07,1.426 c2.42,1.59,5.087,0.543,7.156-0.35c1.159-0.5-0.811-2.484-1.573-3.643c-14.41-21.916-24.973-45.98-38.324-68.494 c-10.642-17.945-17.741-37.575-25.72-56.756c-9.706-23.333-21.644-45.716-29.923-69.637c-6.354-18.361-12.12-36.925-18.151-55.398 c-0.494-1.514-0.621-3.198-2.954-3.253c-9.544-0.224-18.981-2.117-28.559-1.898L234.897,220.825z M227.367,240.823 c-0.64,4.201-1.283,8.401-1.92,12.603c-3.046,20.113-5.419,40.293-6.548,60.618c-0.956,17.203-0.874,34.422-1.027,51.635 c-0.141,15.82-0.36,31.71,2.767,47.302c2.05,10.223,4.108,20.59,10.468,29.812c1.055-1.35,1.935-2.528,2.87-3.661 c8.023-9.731,12.088-21.586,17.679-32.632c1.536-3.035,1.723-5.543,0.694-8.732c-10.528-32.64-15.145-66.393-18.577-100.354 c-1.904-18.842-3.72-37.693-5.576-56.54C227.92,240.856,227.644,240.84,227.367,240.823z M236.785,256.25 c0.109,13.492,2.25,26.806,3.561,40.191c2.538,25.917,6.279,51.663,12.203,77.027c3.398,14.55,8.85,28.496,13.609,42.652 c4.84,14.395,12.768,26.956,20.761,39.486c5.444,8.534,7.461,8.388,17.179,5.275c3.716-1.19,4.018-2.459,2.114-5.796 c-16.129-28.275-28.764-58.074-37.674-89.376c-5.284-18.561-13.045-36.275-18.356-54.785c-5.597-19.506-9.194-39.501-13.399-59.596 C236.784,252.968,236.772,254.609,236.785,256.25z M220.546,245.117c-0.241,0.135-0.65,0.224-0.701,0.411 c-5.305,19.597-13.281,38.372-18.735,57.842c-5.54,19.777-10.13,39.926-13.316,60.326c-3.054,19.556-3.469,38.951,1.333,58.285 c1.037,4.177,1.848,4.463,5.042,1.841c6.549-5.376,11.46-12.179,16.762-18.671c1.993-2.44,2.676-4.772,2.267-7.763 c-1.257-9.194-1.791-18.431-1.565-27.72c0.332-13.618,0.453-27.241,0.819-40.858c0.543-20.187,2.139-40.282,4.833-60.316 c1.05-7.81,3.255-15.475,3.19-23.434L220.546,245.117z M213.641,245.467c-5.97,12.162-12.284,24.17-17.846,36.516 c-16.739,37.154-33.921,74.102-51.042,111.08c-2.393,5.167-4.261,10.578-6.372,15.876c4.352-2.761,7.918-5.891,10.962-9.599 c5.858-7.138,12.029-14.031,17.644-21.353c8.967-11.693,16.978-23.589,19.56-38.936c3.531-20.982,9.366-41.516,17.6-61.275 c4.274-10.257,6.817-21.11,10.224-31.667C214.127,245.895,213.884,245.681,213.641,245.467z M96.675,387.357 c0.417-0.156,0.884-0.237,1.242-0.48c15.572-10.558,31.287-20.954,45.328-33.545c10.613-9.517,22.518-17.95,28.502-31.682 c1.908-4.379,3.986-8.683,5.993-13.018c7.644-16.509,15.441-32.943,24.152-48.925c-0.293-0.318-0.586-0.635-0.879-0.953 c-4.363,4.777-6.839,10.846-10.668,15.927c-14.779,19.617-27.59,40.683-44.18,58.981c-11.845,13.065-23.748,26.062-36.052,38.691 c-4.687,4.811-10.252,8.754-14.181,14.319C96.18,386.9,96.427,387.129,96.675,387.357z" style="fill: rgb(227, 216, 214);"/></g></svg>