<svg xmlns="http://www.w3.org/2000/svg" xmlns:xlink="http://www.w3.org/1999/xlink" preserveAspectRatio="xMidYMid meet" version="1.0" viewBox="-0.6 -4.5 238.4 502.1" zoomAndPan="magnify" style="fill: rgb(0, 0, 0);" original_string_length="33285"><g id="__id9_s2pplbyhko"><path d="M237.26,482.63c-0.14,5.21-0.94,10.63-6.22,13.05c-4.31,1.98-9.63,0.19-12.86-2.98 c-0.19-0.18-0.29-0.39-0.32-0.59c-4.67-4.77-7.03-14.49-8.68-19.03c-4.25-11.69-7.67-23.69-10.24-35.86c-3.49,1-6.99,1.72-10.3,2.12 c-0.48,0.06-0.8-0.16-0.95-0.48c-35.81-32.78-67.87-71.77-89.65-115.59c3.73,38.92,12.03,77.77,22,115.49 c0.07,0.28,0.04,0.53-0.05,0.73c-0.08,0.21-0.23,0.39-0.47,0.54c-0.66,0.4-1.33,0.77-1.99,1.13c1.83,9.89,3.41,19.82,5.26,29.71 c0.05,0.28,0.01,0.52-0.09,0.73c-0.07,0.2-0.21,0.39-0.42,0.54c-6.8,4.82-14.1,8.73-21.66,12.23c-6.23,2.89-12.7,6.37-19.37,8.12 c-4.98,1.3-10.87,1.19-14.99-2.29c-3.77-3.19-4.68-8.57-4.52-13.26c0.01-0.38,0.18-0.65,0.42-0.84c0.6-2.67,2.25-5.34,4.33-7.59 c7.49-8.11,15.57-15.74,23.37-23.55c-2.57-0.67-5.16-1.6-7.77-2.83c-0.23-0.02-0.45-0.12-0.62-0.33c-0.2-0.17-0.29-0.37-0.32-0.59 c-5.65-11.89-9.86-24.66-14.36-37.01c-4.92-13.49-8.94-27.3-12.16-41.3c-6.29-27.37-9.92-55.62-9.86-83.72 c-2.55-0.57-5.02-1.59-7.33-3.04c-0.26-0.11-0.48-0.34-0.58-0.71c-5.95-23.1-0.17-46.92,2.96-70c0.29-2.15,0.56-4.3,0.83-6.45 c-20.87-12.13-31.84-35.4-37.28-58.07c-0.17-0.29-0.19-0.66,0.07-1.04c0.53-0.78,1.07-1.57,1.84-2.15c0.35-0.26,0.73-0.44,1.13-0.58 c-2.8-4.03-4.08-8.83-3.51-14c-0.36-0.03-0.71-0.23-0.89-0.55c-0.96-1.74-2.63-3.77-1.76-5.84c0.76-1.81,3.05-3.11,4.7-3.95 c1.68-0.86,3.98-1.61,5.69-0.44c0.24,0.17,0.46,0.36,0.66,0.57c0.12-1.49,0.24-2.98,0.25-4.48c0.01-2.18-0.51-4.3-0.57-6.46 c-0.06-1.99,0.42-4.61,2.95-4.55c2.85,0.08,3.39,3.37,3.57,5.56c0.31,3.81,0.6,7.62,0.89,11.43c2.83-6.25,8.21-17,11.62-13.02 c0.75,0.88,0.12,2.38-0.12,3.31c-0.82,3.13-1.66,6.19-2.35,9.36c-1.3,5.97-2.56,11.96-4.02,17.9c1.59,0.1,2.88,1.3,3.84,2.6 c2.44,3.44,4.89,6.87,7.33,10.31c3.1-19.9,10-42.3,29.02-52.23c0.24-2.98,1.24-5.16,3.83-4.71c0.16-1.72,0.11-3.44-0.06-5.16 c-2.35-0.73-4.63-1.77-6.77-3.09c-8.14-5.03-12.1-12.45-14.02-20.77c-2.56-3.05-3.58-7.61-2.67-11.78 c-0.65-1.75-1.36-3.49-1.98-5.26c-0.55,0.33-1.09,0.68-1.62,1.07c-0.76,0.55-1.62-0.21-1.69-0.97C37.45,28,39.59,7.91,57.1,5.9 c17.12-10.37,39.59-6.89,52.08,9.01c12.46,15.87,10.58,38.47-3.5,52.68c-0.52,0.52-1.18,0.37-1.58-0.04 c-0.44-0.21-0.76-0.66-0.58-1.27c0.1-0.34,0.2-0.69,0.3-1.03c-1.51,0.7-3.15,1.08-4.87,1.12c-2.12,4.88-4.42,9.05-8.19,12.21 c-0.05,1.6,0.24,3.13,0.88,4.58c2.43-0.86,5.49-1,6.45,1.37c5.64-0.65,10.82,0.06,15.9,1.63c0.38-0.1,0.76,0.05,1.03,0.33 c0.94,0.31,1.88,0.66,2.82,1.03c0.22,0.03,0.42,0.11,0.58,0.23c1.38,0.55,2.75,1.16,4.14,1.81c0.09,0.03,0.19,0.07,0.29,0.13 c0.11,0.05,0.2,0.12,0.28,0.19c11.32,7.38,21.02,16.92,28.47,28.22c2.08,3.15,4.15,6.61,6.04,10.24c4.05-0.66,8.03-1.09,11.3,2.04 c3.73,3.57,4.92,8.99,5.03,13.95c0,0.06-0.02,0.1-0.03,0.15c0.12,1.62,0.09,3.26,0.09,4.85c0,4.44-0.13,8.87-0.28,13.31 c-0.15,4.44-0.34,8.88-0.45,13.32c-0.1,3.99,0.25,8.12-0.92,11.99c-1.64,5.4-5.85,8.69-11.35,9.64c-3.1,0.53-6.24,0.37-9.37,0.51 c-3.91,0.18-7.83,0.67-11.74,1.04c1.34,23.67,2.83,47.33,4.12,71.01c0.11,0.41-0.03,0.86-0.55,1.08c-0.02,0.01-0.05,0.02-0.07,0.03 c-0.01,0.01-0.03,0.01-0.04,0.02c-2.42,1.05-4.83,1.97-7.24,2.78c1.28,29.45,16.77,55.07,33.88,78.15 c17.21,23.22,35.1,45.96,52.68,68.9c2.79,0.94,5.47,2.15,8.26,3.06c1.61,0.4,3.09,1.17,4.7,1.57c0.55,0.13,0.79,0.54,0.8,0.97 c0.01,0.04,0.03,0.07,0.03,0.11C237.26,445.39,237.76,464.05,237.26,482.63z" style="fill: rgb(255, 251, 240);"/></g><g id="__id10_s2pplbyhko"><path d="M108.56,201.55c-6.11,0.29-12.1-1.02-14.96-6.98c-2.58-5.37-2.07-11.63-1.95-17.48 c-2.25,0.62-4.91,1.16-7.02,1.12c1.48,24.47,3.6,48.9,5.39,73.35c0.03,0.13,0.04,0.26,0.03,0.38c0.54,7.41,1.05,14.83,1.49,22.25 c17.46,3.51,33.78,2.39,50.23-4.65c-1.29-23.4-2.75-46.79-4.08-70.19C128,200.18,118.26,201.1,108.56,201.55z M127.41,255.93 c0,0.05-0.02,0.08-0.03,0.13c0.01,0.45-0.22,0.87-0.8,0.96c-9.57,1.54-23.03,3.03-27.57-7.99c-2.03-4.94-1.74-10.81-2.17-16.05 c-0.5-6.14-1.07-12.28-1.5-18.43c-0.04-0.54,0.26-0.88,0.64-1.02c0.14-0.07,0.3-0.11,0.48-0.11c4.88-0.09,9.77,0.09,14.65,0 c0.27,0,0.48,0.09,0.65,0.21c0.29,0.17,0.5,0.46,0.48,0.91c-0.44,8.44,5.7,15.19,14.05,16.14c0.09,0.01,0.16,0.05,0.24,0.08 c0.47,0.09,0.89,0.43,0.89,1.05C127.34,239.85,127.47,247.89,127.41,255.93z M126.01,130.33c-5.25,0.34-10.5,0.68-15.75,1.03 c0.16-4.44,0.51-8.85,1.08-13.23C115.01,121.03,121.87,125.63,126.01,130.33z M56.77,147.63c-1.35-10.43-2.97-21.09-6.42-31.06 c0,0,0-0.01,0-0.01c-0.05-0.13-0.07-0.26-0.06-0.4c0-0.03,0-0.06,0.01-0.09c0,0,0,0,0,0c0.04-0.27,0.19-0.49,0.4-0.63 c2.31-2.08,4.58-4.15,7.12-5.92c-1.4-1.04-2.71-2.15-4.42-2.74c-0.62-0.21-1.14-1.03-0.67-1.65c1.02-1.37,2.05-2.72,3.11-4.05 c-12.26,11.62-16.92,30.15-19.28,46.46c0.86,1.21,1.71,2.41,2.57,3.62c0.84,1.18-1.11,2.31-1.94,1.14 c-3.12-4.39-6.24-8.78-9.36-13.17c-5.78,5.27-12.9,7.86-20.71,7.26c5.65,19.82,15.84,39.31,33.83,50.18 c2.82-23.12,4.63-46.35,8.06-69.4c0.21-1.43,2.38-0.82,2.17,0.6c-3.48,23.44-5.29,47.07-8.21,70.58c0,0.08-0.01,0.16-0.03,0.23 c-0.25,2.02-0.49,4.03-0.76,6.05c-3.07,22.97-9.03,46.79-3.25,69.8c5.46,3.31,11.66,3.93,17.65,1.84c1.1-12.2,1.58-24.46,1.89-36.7 c0.51-20.43,0.53-40.87,0.67-61.31c0-0.01,0-0.01-0.01-0.02C59.04,167.99,58.08,157.76,56.77,147.63z M52.74,190.16 c0.17-0.11,0.34-0.17,0.5-0.18c1.45-0.46,2.96,0.28,3.52,1.73c0.54,1.39-0.06,3.21-1.42,3.89c-1.51,0.75-3.22,0.08-3.82-1.49 C50.97,192.67,51.46,191.01,52.74,190.16z M55.87,232.25c-1.51,0.75-3.22,0.08-3.82-1.49c-0.55-1.44-0.06-3.1,1.22-3.94 c0.17-0.11,0.34-0.17,0.5-0.18c1.45-0.46,2.96,0.28,3.52,1.73C57.83,229.75,57.23,231.57,55.87,232.25z M55.87,213.93 c-1.51,0.75-3.22,0.08-3.82-1.49c-0.55-1.44-0.06-3.1,1.22-3.94c0.17-0.11,0.34-0.17,0.5-0.18c1.45-0.46,2.96,0.28,3.52,1.73 C57.83,211.43,57.23,213.25,55.87,213.93z M100.24,86.59c4.22-0.23,8.15,0.3,12.02,1.39c-1.64,2.2-2.86,4.7-3.81,7.34 c-0.05-0.1-0.1-0.19-0.18-0.27C105.59,92.17,103.14,89.2,100.24,86.59z M155.37,169.4c-0.93,0.51-1.9,0.92-2.89,1.26 c-0.08,0.02-0.16,0.05-0.24,0.08c-5.34,1.81-11.41,1.63-16.91,1.8c-11.33,0.34-22.65,0.68-33.98,1.02 c-0.03-7.32-0.41-14.63-0.4-21.95c2.94-0.63,5.88-1.26,8.8-1.94c0.07-0.01,0.14-0.02,0.21-0.05c2.56-0.6,5.11-1.24,7.66-1.96 c4.27-1.21,9.58-2.19,12.49-5.9c8.05-10.26-12.39-20.9-18.41-26.24c1.29-8.6,3.43-17.08,6.55-25.43c1.14,0.48,2.29,0.99,3.45,1.54 c10.68,6.91,19.92,15.8,27.09,26.32c2.46,3.61,4.86,7.54,6.96,11.66c0.04,0.28,0.17,0.54,0.38,0.75c0.98,1.96,1.89,3.95,2.71,5.98 c-0.09,0.44,0.09,0.97,0.48,1.25c1.85,4.83,3.16,9.81,3.6,14.77C163.54,159.12,161.72,165.95,155.37,169.4z M98.09,118.81 c1.66-2.76,6.02-6.79,5.56-10.24c-0.35-2.64-3.92-5.49-6.55-7.38c3.44-1.74,6.8-3.67,10.66-4.26c0.06-0.01,0.1-0.03,0.15-0.05 c-1.7,5.42-2.37,11.34-3.08,16.59c-0.81,6.05-1.28,12.15-1.37,18.25c-5.98,0.62-10.24,4.8-12.49,10.28 c-1.42,2.46-1.28,5.51-0.87,8.32c-1.76-0.16-3.69-0.18-5.43,0.11C87.76,139.32,92.14,128.71,98.09,118.81z" style="fill: rgb(253, 219, 187);"/></g><g id="__id11_s2pplbyhko"><path d="M69.12,133.33c-2.82-3.88-4.75-9.11-6.37-13.59c0.04-0.66,0.07-1.32,0.11-1.97 c1.94,4.01,4.16,7.9,6.33,11.78c2.31,4.11,5.13,5.88,8.37,1.26c3.85-5.49,7.14-11.72,10.03-18.09c-0.87,3.63-1.67,7.27-2.39,10.93 c-1.26,2.64-2.49,5.32-3.85,7.91C78.57,136.79,73.08,138.78,69.12,133.33z M60.67,247.2c-0.04,1.05-0.08,2.09-0.13,3.14 c8.64,3.19,18.51,4.09,27.17,0.61c-0.09-1.25-0.19-2.5-0.28-3.75C78.76,249.96,69.41,249.58,60.67,247.2z M109.98,215.68 c-4.1,0.04-8.21-0.06-12.31-0.02c0.59,8.21,1.33,16.4,1.97,24.6c0.55,6.99,2.69,13.05,10.09,15.04c4.9,1.32,10.45,0.48,15.42-0.33 c0.05-7.41-0.05-14.82-0.01-22.23C116.56,231.29,110.07,224.51,109.98,215.68z M60.86,112.99c0.38-5.35,0.87-10.69,1.49-16.02 c-2.49,2.6-4.74,5.39-6.91,8.27c1.76,0.92,3.15,2.21,4.92,3.3c0.4,0.25,0.55,0.62,0.53,0.98c0.01,0.36-0.14,0.72-0.53,0.96 c-2.8,1.75-5.19,3.94-7.63,6.14c3.21,9.52,4.77,19.63,6.1,29.55c0.21,1.56,0.41,3.13,0.6,4.69c0.2-12.59,0.53-25.21,1.43-37.77 C60.85,113.05,60.85,113.02,60.86,112.99z M155.53,171.45c-0.5,0.25-1.02,0.49-1.55,0.71c0.32,5.41,0.41,10.83,0.72,16.24 c0.65,0.11,1.32,0.12,1.98,0.03C156.19,182.77,156,177.1,155.53,171.45z M108.01,192.59c0.65,0.11,1.32,0.12,1.98,0.03 c-0.48-5.63-0.67-11.29-1.14-16.92c-0.53,0.01-1.05,0.02-1.58,0.03C107.58,181.34,107.69,186.97,108.01,192.59z M100.73,108.03 c-0.81-2.2-4.58-4.77-6.38-6.03c-0.2-0.14-0.33-0.32-0.41-0.51c-0.28-0.47-0.24-1.08,0.35-1.4c0.12-0.11,0.27-0.18,0.43-0.22 c3.49-1.68,6.86-3.74,10.62-4.72c-2.31-2.58-4.52-5.2-7.17-7.44c-0.56,2-2.04,4.1-3,5.83c-3.01,9.88-5.63,19.86-7.65,29.96 c0.04,0.22,0.02,0.47-0.1,0.71c-0.02,0.05-0.04,0.1-0.07,0.14c-1.26,6.41-2.28,12.86-3,19.36c1.86-5.74,4.08-11.35,6.75-16.77 c2.09-4.24,4.43-8.36,6.98-12.35C99.32,112.63,101.68,110.6,100.73,108.03z M108.28,147.87c-1.33-20.1,0.8-39.69,7.9-58.6 c-0.54-0.2-1.07-0.39-1.61-0.58c-6.21,7.54-7.06,20.22-8.02,29.44c-1.05,10.01-1.12,20.1-0.08,30.11 C107.07,148.12,107.67,148,108.28,147.87z M62.32,128.87c0.04-1.09,0.09-2.19,0.14-3.28c1.94,5.12,4.59,10.66,9.08,12.72 c1.13,0.52,2.17,0.78,3.14,0.83c0.25,0.3,0.5,0.6,0.75,0.9c0.35-0.35,0.7-0.69,1.05-1.04c3.1-0.68,5.38-3.57,7.19-6.86 c-0.25,1.55-0.49,3.1-0.71,4.65c-1.87,1.86-3.74,3.71-5.61,5.57c1.45,1.75,2.9,3.51,4.35,5.26c-0.12,1.33-0.24,2.66-0.34,3.99 c-0.37,0.25-0.72,0.53-1,0.86c-0.68,0.79-0.77,2.05-0.73,3.24c-0.46,0.4-0.92,0.79-1.37,1.19c0.5,0.63,1,1.25,1.5,1.88 c0.04,1.64,0.07,3.28,0.12,4.92c-1.29-1.61-2.59-3.22-3.88-4.84c-2.05,1.77-4.09,3.55-6.14,5.32c2.36,2.97,4.72,5.93,7.08,8.9 c1.05-0.98,2.11-1.96,3.16-2.94c0.02,1.14-0.01,2.59,0.17,3.94c-0.48,0.45-0.97,0.9-1.45,1.35c1.23,1.54,2.46,3.09,3.68,4.63 c0.11,1.74,0.23,3.48,0.34,5.22c-2.07-2.6-4.13-5.2-6.2-7.8c-1.87,1.77-3.72,3.55-5.57,5.34c2.41,3.2,4.83,6.4,7.24,9.61 c1.57-1.41,3.15-2.83,4.72-4.24c0.08,1.27,0.16,2.54,0.25,3.8c-1.05,0.95-2.11,1.89-3.16,2.84c1.24,1.64,2.47,3.28,3.71,4.92 c0.19,2.65,0.38,5.3,0.58,7.95c-1.14,1.08-2.27,2.16-3.41,3.24c1.36,1.82,2.71,3.65,4.07,5.47c0.14,1.86,0.29,3.71,0.43,5.57 c-2.23-2.99-4.45-5.98-6.68-8.97c-1.7,1.61-3.4,3.23-5.1,4.84c2.29,3.16,4.59,6.31,6.88,9.47c1.66-1.48,3.32-2.96,4.97-4.44 c0.1,1.25,0.19,2.51,0.29,3.76c-1.16,1.04-2.33,2.08-3.49,3.12c1.39,1.91,2.78,3.83,4.17,5.74c0.21,2.69,0.42,5.37,0.62,8.06 c-0.88,0.7-1.76,1.4-2.63,2.1c-2,0.5-4.03,0.84-6.07,1.02c0.18-0.14,0.35-0.28,0.53-0.42c-1.92-2.78-3.84-5.56-5.76-8.34 c-1.52,1.36-3.04,2.72-4.56,4.07c1.1,1.6,2.2,3.19,3.31,4.79c-1.3-0.07-2.6-0.2-3.9-0.38c-0.55-0.8-1.11-1.6-1.66-2.4 c-0.66,0.59-1.32,1.18-1.99,1.77c-1.19-0.25-2.36-0.53-3.53-0.86c1.27-1.13,2.54-2.27,3.8-3.4c-1.22-1.78-2.45-3.55-3.67-5.33 c0.05-1.69,0.09-3.39,0.13-5.08c1.93,2.8,3.86,5.6,5.8,8.4c1.52-1.36,3.04-2.72,4.56-4.07c-2.16-3.12-4.31-6.24-6.46-9.36 c-1.29,1.22-2.57,2.44-3.86,3.66c0.03-1.4,0.05-2.8,0.08-4.21c0.69-0.65,1.37-1.3,2.06-1.95c-0.66-0.96-1.32-1.92-1.99-2.87 c0.02-1.72,0.04-3.45,0.06-5.18c1.37,1.99,2.75,3.98,4.12,5.96c1.41-1.34,2.82-2.68,4.23-4.02c-1.95-2.69-3.91-5.38-5.86-8.06 c-0.82,0.74-1.64,1.47-2.46,2.21c0.01-1.35,0.02-2.7,0.03-4.05c0.22-0.2,0.44-0.4,0.66-0.6c-0.22-0.3-0.44-0.6-0.66-0.9 c0.01-1.68,0.02-3.37,0.02-5.05c0.96,1.32,1.91,2.63,2.87,3.95c1.69-1.52,3.39-3.04,5.08-4.57c-2.29-3.07-4.58-6.15-6.86-9.22 c-0.36,0.36-0.72,0.72-1.08,1.08c0-2.5,0-5.01,0.01-7.51c0.46,0.62,0.92,1.24,1.38,1.86c1.39-1.38,2.8-2.73,4.2-4.1 c-1.86-2.46-3.71-4.92-5.57-7.39c0.01-2.57,0.02-5.13,0.03-7.7c1.4-1.21,2.79-2.42,4.19-3.63c-1.37-1.73-2.75-3.45-4.12-5.18 c0.02-1.64,0.04-3.28,0.06-4.92c1.89-1.87,3.77-3.75,5.66-5.62c-1.81-2.25-3.61-4.5-5.42-6.75c0.05-2.07,0.11-4.14,0.18-6.21 c1.07-0.87,2.15-1.74,3.22-2.62C64.32,131.29,63.32,130.08,62.32,128.87z M80.13,231.76c-1.55,1.38-3.1,2.77-4.65,4.15 c1.95,2.83,3.9,5.65,5.86,8.48c1.68-1.34,3.36-2.68,5.05-4.02C84.3,237.5,82.21,234.63,80.13,231.76z M71.53,219.93 c-1.43,1.36-2.86,2.71-4.28,4.07c2.17,3.14,4.34,6.29,6.52,9.43c1.53-1.37,3.06-2.74,4.59-4.1C76.08,226.2,73.8,223.07,71.53,219.93 z M77.01,210.59c-1.93-2.59-3.85-5.18-5.78-7.77c-1.7,1.53-3.41,3.06-5.11,4.59c1.94,2.67,3.87,5.33,5.81,8 C73.63,213.81,75.32,212.2,77.01,210.59z M77.89,196.85c-1.48,1.33-2.95,2.65-4.43,3.98c1.91,2.57,3.82,5.13,5.73,7.7 c1.46-1.38,2.92-2.77,4.38-4.15C81.68,201.86,79.78,199.35,77.89,196.85z M68.91,184.94c-1.41,1.37-2.82,2.74-4.21,4.12 c2.32,3.12,4.64,6.24,6.97,9.36c1.47-1.32,2.95-2.65,4.42-3.97C73.69,191.27,71.3,188.11,68.91,184.94z M67.6,166.15 c-1.84,1.6-3.68,3.19-5.52,4.79c2.39,3.16,4.77,6.33,7.16,9.49c1.83-1.77,3.67-3.53,5.52-5.28 C72.37,172.15,69.99,169.15,67.6,166.15z M74.12,156.53c-1.63-2.03-3.26-4.07-4.89-6.1c-1.92,1.91-3.84,3.82-5.76,5.72 c1.51,1.9,3.02,3.79,4.53,5.69C70.03,160.08,72.08,158.31,74.12,156.53z M71.36,148.32c1.67,2.09,3.35,4.17,5.02,6.26 c1.39-1.21,2.79-2.42,4.18-3.63c-1.78-2.16-3.56-4.31-5.34-6.47C73.93,145.76,72.64,147.04,71.36,148.32z M67.22,134.8 c-1.35,1.1-2.71,2.2-4.06,3.3c2.1,2.62,4.21,5.24,6.31,7.86c1.28-1.27,2.55-2.54,3.83-3.81C71.27,139.71,69.25,137.26,67.22,134.8z" style="fill: rgb(27, 27, 27);"/></g><g id="__id12_s2pplbyhko"><path d="M236.49,426.83c0-0.04-0.02-0.07-0.03-0.11c-0.01-0.43-0.25-0.84-0.8-0.97c-1.61-0.4-3.09-1.17-4.7-1.57 c-2.8-0.91-5.48-2.12-8.26-3.06c-17.58-22.94-35.47-45.68-52.68-68.9c-17.11-23.08-32.6-48.69-33.88-78.15 c2.41-0.81,4.82-1.73,7.24-2.78c0.01,0,0.03-0.01,0.04-0.02c0.02-0.01,0.05-0.02,0.07-0.03c0.52-0.23,0.66-0.67,0.55-1.08 c-1.3-23.67-2.78-47.34-4.12-71.01c3.91-0.37,7.83-0.86,11.74-1.04c3.13-0.14,6.27,0.02,9.37-0.51c5.51-0.95,9.71-4.24,11.35-9.64 c1.18-3.87,0.83-8,0.92-11.99c0.11-4.44,0.3-8.88,0.45-13.32c0.15-4.43,0.28-8.87,0.28-13.31c0-1.59,0.03-3.23-0.09-4.85 c0.01-0.05,0.03-0.09,0.03-0.15c-0.11-4.97-1.3-10.39-5.03-13.95c-3.27-3.13-7.25-2.7-11.3-2.04c-1.89-3.63-3.96-7.08-6.04-10.24 c-7.45-11.29-17.15-20.84-28.47-28.22c-0.08-0.07-0.17-0.14-0.28-0.19c-0.1-0.06-0.19-0.1-0.29-0.13c-1.39-0.65-2.76-1.26-4.14-1.81 c-0.16-0.12-0.37-0.2-0.58-0.23c-0.94-0.37-1.88-0.71-2.82-1.03c-0.27-0.28-0.66-0.43-1.03-0.33c-5.08-1.57-10.26-2.28-15.9-1.63 c-0.96-2.37-4.02-2.23-6.45-1.37c-0.64-1.45-0.93-2.98-0.88-4.58c3.77-3.16,6.07-7.32,8.19-12.21c1.72-0.04,3.36-0.42,4.87-1.12 c-0.1,0.34-0.2,0.69-0.3,1.03c-0.18,0.61,0.14,1.06,0.58,1.27c0.4,0.41,1.06,0.56,1.58,0.04c14.08-14.21,15.97-36.8,3.5-52.68 C96.69-0.99,74.22-4.47,57.1,5.9C39.59,7.91,37.45,28,38.71,41.99c0.07,0.76,0.94,1.52,1.69,0.97c0.54-0.39,1.08-0.74,1.62-1.07 c0.62,1.77,1.33,3.5,1.98,5.26c-0.91,4.18,0.1,8.73,2.67,11.78c1.92,8.33,5.88,15.74,14.02,20.77c2.14,1.33,4.42,2.36,6.77,3.09 c0.17,1.72,0.22,3.44,0.06,5.16c-2.59-0.45-3.59,1.73-3.83,4.71c-19.03,9.93-25.92,32.33-29.02,52.23 c-2.44-3.44-4.89-6.88-7.33-10.31c-0.97-1.31-2.25-2.5-3.84-2.6c1.46-5.94,2.72-11.92,4.02-17.9c0.69-3.17,1.53-6.24,2.35-9.36 c0.24-0.93,0.87-2.43,0.12-3.31c-3.41-3.98-8.79,6.77-11.62,13.02c-0.29-3.81-0.58-7.62-0.89-11.43c-0.18-2.19-0.71-5.49-3.57-5.56 c-2.53-0.07-3.01,2.56-2.95,4.55c0.06,2.16,0.58,4.29,0.57,6.46c-0.01,1.49-0.13,2.99-0.25,4.48c-0.2-0.21-0.42-0.41-0.66-0.57 c-1.71-1.16-4.01-0.41-5.69,0.44c-1.65,0.84-3.94,2.14-4.7,3.95c-0.87,2.07,0.8,4.11,1.76,5.84c0.17,0.32,0.53,0.52,0.89,0.55 c-0.57,5.17,0.7,9.97,3.51,14c-0.4,0.13-0.78,0.31-1.13,0.58c-0.77,0.57-1.31,1.36-1.84,2.15c-0.26,0.38-0.24,0.75-0.07,1.04 c5.45,22.68,16.41,45.94,37.28,58.07c-0.27,2.15-0.53,4.31-0.83,6.45c-3.13,23.08-8.9,46.89-2.96,70c0.09,0.37,0.31,0.59,0.58,0.71 c2.3,1.46,4.78,2.47,7.33,3.04c-0.06,28.1,3.57,56.35,9.86,83.72c3.21,13.99,7.24,27.8,12.16,41.3c4.5,12.35,8.71,25.12,14.36,37.01 c0.02,0.22,0.12,0.43,0.32,0.59c0.17,0.21,0.39,0.31,0.62,0.33c2.61,1.23,5.2,2.17,7.77,2.83c-7.8,7.82-15.88,15.44-23.37,23.55 c-2.08,2.25-3.73,4.92-4.33,7.59c-0.24,0.18-0.41,0.45-0.42,0.84c-0.16,4.69,0.75,10.07,4.52,13.26c4.12,3.48,10.01,3.59,14.99,2.29 c6.68-1.74,13.14-5.23,19.37-8.12c7.56-3.5,14.86-7.4,21.66-12.23c0.21-0.15,0.35-0.34,0.42-0.54c0.1-0.21,0.14-0.45,0.09-0.73 c-1.85-9.89-3.43-19.82-5.26-29.71c0.66-0.36,1.33-0.73,1.99-1.13c0.24-0.14,0.39-0.33,0.47-0.54c0.09-0.21,0.12-0.45,0.05-0.73 c-9.96-37.71-18.27-76.57-22-115.49c21.78,43.83,53.84,82.82,89.65,115.59c0.16,0.32,0.47,0.53,0.95,0.48 c3.31-0.41,6.81-1.12,10.3-2.12c2.57,12.17,5.99,24.17,10.24,35.86c1.65,4.54,4.01,14.26,8.68,19.03c0.03,0.2,0.13,0.41,0.32,0.59 c3.23,3.17,8.55,4.96,12.86,2.98c5.28-2.42,6.08-7.85,6.22-13.05C237.76,464.05,237.26,445.39,236.49,426.83z M103.88,447.41 c-2.55-0.45-5.1-0.9-7.65-1.36c6.49,0.51,12.88-0.78,19.21-3.82c0.32,1.72,0.63,3.45,0.93,5.17c-4.14,3.78-9.71,5.51-15.25,5.41 c1.08-1.17,2.17-2.35,3.25-3.52C104.9,448.72,104.76,447.57,103.88,447.41z M60.54,250.34c0.05-1.05,0.09-2.09,0.13-3.14 c8.74,2.38,18.09,2.76,26.76-0.01c0.09,1.25,0.19,2.5,0.28,3.75C79.05,254.43,69.17,253.53,60.54,250.34z M141.76,269.55 c-16.45,7.03-32.77,8.16-50.23,4.65c-0.45-7.42-0.95-14.84-1.49-22.25c0.02-0.13,0.01-0.26-0.03-0.38 c-1.78-24.45-3.9-48.88-5.39-73.35c2.11,0.05,4.77-0.5,7.02-1.12c-0.12,5.85-0.63,12.11,1.95,17.48c2.86,5.95,8.85,7.26,14.96,6.98 c9.7-0.45,19.44-1.37,29.12-2.19C139,222.76,140.47,246.15,141.76,269.55z M87.54,164.67c0.08,1.35,0.16,2.69,0.24,4.04 c-1.84,0.02-3.69,0.1-5.52,0.28c-0.09-1.21-0.19-2.45-0.28-3.7C83.8,164.83,85.67,164.7,87.54,164.67z M81.85,163 c-0.07-1.34-0.09-2.67-0.06-3.97c1.79-0.27,3.6-0.24,5.4-0.44c0.08,1.28,0.15,2.55,0.23,3.83C85.54,162.46,83.67,162.59,81.85,163z M82.37,171.23c1.84-0.18,3.69-0.25,5.54-0.27c0.04,0.66,0.08,1.31,0.12,1.97c0.09,1.44,2.34,1.45,2.25,0 c-0.36-5.94-0.71-11.88-1.07-17.82c-0.09-1.44-2.34-1.45-2.25,0c0.03,0.42,0.05,0.84,0.08,1.26c-1.7,0.23-3.43,0.21-5.14,0.4 c0.01-0.11,0.01-0.23,0.03-0.34c0.44-4.27,5.37-4.32,9.28-3.76c0,0,0,0,0,0c0.53,0.08,1.05,0.16,1.53,0.25 c0.36,7.05,0.65,14.1,1,21.15c-2.22,0.72-4.65,1.15-6.94,1.41c-0.98,0.11-3.19,0.55-3.9-0.1C82.25,174.78,82.36,172.6,82.37,171.23z M103.65,108.58c-0.35-2.64-3.92-5.49-6.55-7.38c3.44-1.74,6.8-3.67,10.66-4.26c0.06-0.01,0.1-0.03,0.15-0.05 c-1.7,5.42-2.37,11.34-3.08,16.59c-0.81,6.05-1.28,12.15-1.37,18.25c-5.98,0.62-10.24,4.8-12.49,10.28 c-1.42,2.46-1.28,5.51-0.87,8.32c-1.76-0.16-3.69-0.18-5.43,0.11c3.07-11.1,7.46-21.72,13.41-31.61 C99.75,116.06,104.11,112.03,103.65,108.58z M93.82,150.85c-0.42-0.08-0.89-0.16-1.4-0.24c-0.38-2.36-0.65-5.06,0.39-7.16 c0.02-0.04,0.05-0.08,0.06-0.13c0-0.01,0.01-0.01,0.01-0.02c0.4-0.76,0.99-1.44,1.82-1.98c2.54-1.67,5.88-1.67,8.88-1.99 c0.12,3.13,0.34,6.26,0.68,9.38C100.78,149.41,97.29,150.09,93.82,150.85z M99.1,173.63c-1.04,0.03-2.08,0.06-3.12,0.09 c-0.35-6.94-0.64-13.89-0.99-20.83c1.24-0.27,2.47-0.54,3.71-0.8C98.71,159.27,99.08,166.45,99.1,173.63z M95.7,138.36 c1.95-2.34,4.57-3.98,7.78-4.37c0,1.04,0.01,2.08,0.03,3.12C100.98,137.43,98.16,137.52,95.7,138.36z M171.69,143.66 c0.01,0.22,0.03,0.45,0.03,0.67c0,0.13,0.04,0.23,0.07,0.33c0.18,2.27-0.01,4.67-0.02,6.56c-0.05,6.35-0.33,12.69-0.54,19.03 c-0.2,5.94,1.07,14-1.92,19.36c-3.54,6.35-10.65,6.05-16.96,6.22c-12.89,0.35-25.95,2.09-38.83,3.07 c-7.43,0.56-15.8,1.48-18.67-7.29c-1.56-4.77-1.04-10.19-0.96-15.2c0.44-0.14,0.83-0.28,1.16-0.4c0.02-0.01,0.03-0.02,0.05-0.02 c3.3-0.1,6.6-0.17,9.91-0.23c0.33,5.91,0.42,11.83,0.79,17.74c0,0.06,0.03,0.1,0.04,0.16c0.04,0.4,0.28,0.78,0.78,0.93 c1.55,0.45,3.3,0.46,4.85,0c0.06-0.02,0.11-0.04,0.16-0.07c0.4-0.12,0.72-0.46,0.66-1.02c-0.54-5.94-0.71-11.91-1.21-17.85 c10.82-0.19,21.66-0.39,32.4-1.18c2.91-0.21,5.71-0.7,8.27-1.51c0.3,5.45,0.38,10.91,0.72,16.35c0,0.06,0.03,0.1,0.04,0.16 c0.04,0.4,0.28,0.78,0.78,0.93c1.55,0.45,3.3,0.46,4.85,0c0.06-0.02,0.11-0.04,0.16-0.07c0.4-0.12,0.72-0.46,0.66-1.02 c-0.58-6.31-0.72-12.65-1.3-18.96c0-0.05-0.03-0.09-0.04-0.14c4.6-3.05,7.59-7.86,7.66-14.95c0.06-5.88-1.36-11.93-3.56-17.78 c3.12-0.56,6.55-0.74,8.6,2.25C171.1,140.82,171.49,142.19,171.69,143.66z M107.26,175.73c0.53-0.01,1.05-0.02,1.58-0.03 c0.47,5.63,0.66,11.29,1.14,16.92c-0.65,0.09-1.32,0.08-1.98-0.03C107.69,186.97,107.58,181.34,107.26,175.73z M153.98,172.15 c0.53-0.22,1.05-0.45,1.55-0.71c0.47,5.65,0.66,11.32,1.14,16.98c-0.65,0.09-1.32,0.08-1.98-0.03 C154.38,182.99,154.3,177.56,153.98,172.15z M167.8,132.43c1.08,1.16,1.88,2.5,2.47,3.95c-2.58-1.83-6.07-1.6-9.35-1.02 c-0.69-1.67-1.43-3.31-2.22-4.93C162.02,129.9,165.22,129.67,167.8,132.43z M118.26,90.1c1.14,0.48,2.29,0.99,3.45,1.54 c10.68,6.91,19.92,15.8,27.09,26.32c2.46,3.61,4.86,7.54,6.96,11.66c0.04,0.28,0.17,0.54,0.38,0.75c0.98,1.96,1.89,3.95,2.71,5.98 c-0.09,0.44,0.09,0.97,0.48,1.25c1.85,4.83,3.16,9.81,3.6,14.77c0.6,6.76-1.21,13.58-7.56,17.03c-0.93,0.51-1.9,0.92-2.89,1.26 c-0.08,0.02-0.16,0.05-0.24,0.08c-5.34,1.81-11.41,1.63-16.91,1.8c-11.33,0.34-22.65,0.68-33.98,1.02 c-0.03-7.32-0.41-14.63-0.4-21.95c2.94-0.63,5.88-1.26,8.8-1.94c0.07-0.01,0.14-0.02,0.21-0.05c2.56-0.6,5.11-1.24,7.66-1.96 c4.27-1.21,9.58-2.19,12.49-5.9c8.05-10.26-12.39-20.9-18.41-26.24C113,106.93,115.14,98.45,118.26,90.1z M127.69,132.47 c0.69,1.02,1.21,2.04,1.5,3.03c-6.36-0.18-12.69,0.21-19.03,0.83c0-0.91,0.01-1.82,0.03-2.72 C116.02,133.24,121.85,132.85,127.69,132.47z M110.26,131.36c0.16-4.44,0.51-8.85,1.08-13.23c3.67,2.91,10.53,7.5,14.67,12.21 C120.76,130.68,115.51,131.02,110.26,131.36z M129.4,137.76c-0.2,1.8-1.39,3.47-4,4.91c-3.57,1.97-8.3,3.05-12.25,4.05 c-0.88,0.22-1.77,0.42-2.65,0.62c-0.19-2.93-0.3-5.85-0.33-8.76C116.57,137.95,122.97,137.57,129.4,137.76z M114.56,88.69 c0.54,0.18,1.07,0.37,1.61,0.58c-7.1,18.91-9.23,38.5-7.9,58.6c-0.6,0.13-1.21,0.25-1.81,0.38c-1.04-10.01-0.97-20.1,0.08-30.11 C107.5,108.92,108.36,96.24,114.56,88.69z M112.26,87.98c-1.64,2.2-2.86,4.7-3.81,7.34c-0.05-0.1-0.1-0.19-0.18-0.27 c-2.68-2.89-5.13-5.86-8.03-8.46C104.46,86.36,108.39,86.89,112.26,87.98z M98.16,87.72c2.65,2.24,4.86,4.86,7.17,7.44 c-3.75,0.98-7.12,3.04-10.62,4.72c-0.16,0.03-0.3,0.11-0.43,0.22c-0.59,0.32-0.62,0.93-0.35,1.4c0.08,0.19,0.21,0.36,0.41,0.51 c1.79,1.26,5.57,3.83,6.38,6.03c0.95,2.57-1.41,4.6-2.67,6.58c-2.55,3.99-4.89,8.11-6.98,12.35c-2.67,5.43-4.89,11.03-6.75,16.77 c0.72-6.5,1.74-12.96,3-19.36c0.02-0.05,0.05-0.1,0.07-0.14c0.12-0.25,0.14-0.49,0.1-0.71c2.02-10.1,4.64-20.08,7.65-29.96 C96.12,91.82,97.6,89.72,98.16,87.72z M91.64,85.55c1.97-1.53,3.24-0.73,3.82,2.42c-0.28,0.55-0.56,1.11-0.85,1.66 c-0.19,0.8-0.59,1.64-1.05,2.48c-0.23,0.12-0.43,0.33-0.53,0.66c-0.06,0.18-0.11,0.36-0.16,0.55c-0.44,0.74-0.88,1.46-1.23,2.14 c-1.43,2.8-2.86,5.61-4.29,8.41c-0.98-3.34-2.17-7.48-4.73-9.02c-0.51-0.31-1.06-0.49-1.63-0.59c0.49-0.43,0.96-0.85,1.41-1.22 C85.49,90.54,88.58,88.07,91.64,85.55z M69.77,83.41c5.02,1.1,10.27,0.77,15.21-1.33c1.31-0.56,2.49-1.19,3.57-1.88 c0.14,1.41,0.52,2.78,1.11,4.09c-3.13,2.57-6.28,5.09-9.42,7.64c-2.31,1.87-4.96,4.45-7.69,2.1c-1.24-1.07-2.18-3.26-2.92-4.81 C69.88,87.27,69.92,85.35,69.77,83.41z M80.55,107.77c1.41-0.94,1.28-2.76,1.32-4.27c0.03-1,0.2-2.2-0.1-3.19 c0.07-0.06,0.14-0.12,0.21-0.18c0.27-0.21,0.55-0.4,0.82-0.6c0.03-0.02,0.07-0.05,0.1-0.07c1.43,2.2,2.28,5.36,3.13,7.65 c0.17,0.44,0.6,0.75,1.05,0.8c-1.8,3.97-3.74,7.87-5.76,11.72c-0.53-3.83-1.07-7.67-1.58-11.51 C80.03,108.04,80.3,107.94,80.55,107.77z M47.06,39.51c1.22-0.43,2.47-0.78,3.74-1.07c-0.05,0.03-0.09,0.06-0.13,0.09 c-1.43,0.7-2.63,1.6-3.61,2.66C47.06,40.63,47.06,40.07,47.06,39.51z M47.14,45.29c0.97-2.02,2.53-3.76,4.7-4.83 c0.53-0.1,1.04-0.14,1.55-0.15c-2.51,1.37-4.55,3.6-5.71,6.37c-0.56,1.33,1.62,1.92,2.17,0.6c1.39-3.32,4.4-5.49,7.79-6.07 c7.24,3.54,8.97,16.26-0.89,18.67c-3.63,0.89-6.37-0.07-8.19-1.96C47.66,53.86,47.28,49.58,47.14,45.29z M57.46,74.45 c-4.02-3.68-6.51-8.23-8.04-13.22c2.36,1.34,5.37,1.72,8.94,0.52c4.78-1.6,7.08-5.15,7.47-9.02c0.23-0.07,0.44-0.22,0.61-0.47 c1.6-2.49,4.65-2.62,6.61-0.71c0.88,6.65,6.24,12.37,14.56,9.58c13.34-4.47,7.33-24.03-5.25-23.65c-1.46-0.35-3-0.45-4.6-0.25 c-1.32,0.17-1.42,2.12-0.28,2.25c-2.87,2.36-4.3,5.76-4.52,9.2c-2.34-1.2-5.18-0.81-7.2,0.97c-0.46-3.26-2.11-6.44-4.63-8.65 c0.85-0.4,0.67-2.03-0.54-2.16c-0.99-0.1-1.96-0.08-2.9,0.04c-1.7-0.68-3.61-0.96-5.68-0.71c2.35-0.46,4.77-0.75,7.27-1.01 c0.08-0.01,0.14-0.04,0.21-0.07c0.51-0.05,0.96-0.39,0.91-1.06c-0.21-2.74,0.46-5.27,1.29-7.78c0.23,2.08,0.45,4.15,0.68,6.23 c0.01,0.07,0.04,0.11,0.05,0.17c0.01,0.04,0.03,0.09,0.04,0.13c0.03,0.08,0.06,0.16,0.11,0.23c0.23,0.39,0.66,0.66,1.22,0.55 c9.07-1.78,18.26-1.98,27.28,0.24c0.41,0.1,0.75-0.02,0.99-0.24c0.25-0.18,0.42-0.46,0.43-0.85c0.04-1.98,0.54-3.77,1.17-5.54 c1.06,5.85,2.33,11.66,3.28,17.54c0.1,0.61,0.55,0.83,1.02,0.79c0.49,0.07,1.01-0.16,1.15-0.79c1.09-4.79,6.81-4.2,8.89-0.6 c1.53,2.65,1.04,6.03-0.19,8.68c-1.78,3.83-5.19,6.4-9.17,7.58c-0.38,0.11-0.61,0.36-0.72,0.66c-0.02,0.04-0.05,0.08-0.07,0.13 C94.4,71.61,90.69,78.32,81.36,81C72.9,83.43,63.81,80.27,57.46,74.45z M91.19,45.47c-0.36-0.95-0.81-1.83-1.34-2.64 c4.55,5,4.48,14.39-3.84,16.42c-6.44,1.57-10.11-2.63-10.73-7.64c0.13-0.32,0.12-0.7-0.09-1.04c-0.16-4.19,1.76-8.69,5.91-10.73 c0.29-0.05,0.58-0.09,0.87-0.12c3.17,0.79,5.79,3,7.05,6.34C89.52,47.41,91.7,46.82,91.19,45.47z M67.7,90.36 c0.87,1.79,1.93,4.01,3.37,5.55c-0.53,0.3-1.02,0.69-1.48,1.16c-0.08,0.07-0.15,0.14-0.21,0.22c-0.13,0.14-0.27,0.29-0.4,0.44 c-1.05,1.24-1.49,3.01-2.19,4.52c-0.17-1.3-0.33-2.59-0.5-3.89C66.19,97.52,64.7,89.8,67.7,90.36z M64.19,100.71 c0.3,2.04,0.63,3.72,0.73,4.46c0.13,1.01,1.11,1.42,1.92,0.8c1.2-0.93,2.07-3.81,3.25-5.93c0.26,0.35,0.57,0.67,0.91,0.94 c-0.06,0.15-0.11,0.3-0.15,0.47c-0.35,1.58-0.63,3.33,0.33,4.76c0.19,0.28,0.41,0.5,0.64,0.7c-1.54,4.79-3.08,9.59-4.63,14.38 c-1.46-2.7-2.87-5.44-4.04-8.26C63.43,108.91,63.78,104.81,64.19,100.71z M62.86,117.77c1.94,4.01,4.16,7.9,6.33,11.78 c2.31,4.11,5.13,5.88,8.37,1.26c3.85-5.49,7.14-11.72,10.03-18.09c-0.87,3.63-1.67,7.27-2.39,10.93c-1.26,2.64-2.49,5.32-3.85,7.91 c-2.77,5.23-8.26,7.22-12.22,1.78c-2.82-3.88-4.75-9.11-6.37-13.59C62.78,119.09,62.82,118.43,62.86,117.77z M71.54,138.31 c5.81,2.66,9.47-1.34,12.13-6.16c-1.05,6.45-1.83,12.94-2.3,19.47c-0.37,0.25-0.72,0.53-1,0.86c-1.1,1.28-0.66,3.77-0.63,5.24 c0.09,3.94,0.17,7.88,0.35,11.82c0.11,2.41-0.36,7.1,2.24,8.26c0.01,0,0.02,0.01,0.03,0.01c1.35,22.38,3.23,44.72,4.91,67.07 c-8.61,2.85-17.83,2.44-26.5,0c1.44-38.23,0.04-76.64,1.52-114.84c0.06-1.48,0.12-2.97,0.18-4.45 C64.4,130.72,67.05,136.25,71.54,138.31z M60.86,112.99c0,0.03-0.01,0.07-0.01,0.1c-0.89,12.56-1.23,25.18-1.43,37.77 c-0.19-1.57-0.39-3.13-0.6-4.69c-1.33-9.93-2.89-20.03-6.1-29.55c2.43-2.2,4.83-4.39,7.63-6.14c0.39-0.24,0.54-0.6,0.53-0.96 c0.02-0.36-0.13-0.73-0.53-0.98c-1.77-1.09-3.16-2.38-4.92-3.3c2.18-2.88,4.43-5.67,6.91-8.27 C61.73,102.29,61.24,107.63,60.86,112.99z M24.45,134.68c-0.65,0.54-1.34,1.06-2.05,1.54c0.17-0.65,0.35-1.31,0.52-1.96 C23.5,134.11,24.01,134.33,24.45,134.68z M9.55,114.38c0.52,0.35,0.9,1.12,1.18,1.83c-0.79,0.35-1.54,0.81-2.26,1.3 c-0.69-0.96-1.13-2.02-1.47-3.18C7.87,114.01,8.8,113.88,9.55,114.38z M2.28,118.35c-0.07-1.32,1.54-2.33,2.69-2.99 c0.39,1.25,0.92,2.4,1.66,3.45c-1.02,0.72-2.07,1.39-3.2,1.84C2.93,119.89,2.31,118.97,2.28,118.35z M5.25,122.33 c0-0.03-0.01-0.05,0-0.08c0.14-0.08,0.29-0.15,0.44-0.23c0.61,1.86,1.47,3.52,2.87,4.94c0.89,0.91,1.88,1.71,2.78,2.57 c-0.07,0.05-0.14,0.1-0.2,0.17c-1.39,1.47-1.72,3.4-0.93,5.24c0.24,0.56,1.06,0.68,1.54,0.4c0.58-0.33,0.64-0.98,0.4-1.54 c-0.37-0.88-0.04-1.86,0.58-2.52c0.04-0.04,0.07-0.08,0.1-0.13c0.56,0.75,1.02,1.59,1.27,2.6c0.34,1.41,2.51,0.81,2.17-0.6 c-1.17-4.86-6.26-6.8-8.19-11.19c1.56-0.21,3.04,1.03,4.27,1.89c1.46,1.02,2.92,2.05,4.39,3.07c1.19,0.83,2.31-1.12,1.14-1.94 c-2.46-1.72-5.66-4.87-8.93-5.21c1.11-0.76,2.25-1.45,3.52-1.82c0.19-0.05,0.34-0.14,0.46-0.25c0.28-0.2,0.45-0.53,0.37-0.94 c0.08-2.78,0.48-5.54,0.5-8.32c0.01-1.24-1.48-8.45,0.97-7.98c1.13,0.22,1.56,16.64,1.72,18.45c0.01,0.1,0.05,0.18,0.08,0.27 c0.01,0.03,0.01,0.05,0.02,0.08c0.03,0.08,0.07,0.16,0.12,0.23c0.05,0.07,0.1,0.14,0.17,0.2c0.02,0.01,0.03,0.03,0.05,0.04 c0.41,0.37,1.04,0.47,1.46,0.04c0.16-0.12,0.27-0.29,0.32-0.51c1.53-3.07,3.09-6.12,4.55-9.22c0.77-1.63,1.47-3.47,2.58-4.91 c0.66-0.84,1.56-2.39,2.02-1.48c0.16,0.31-0.73,2.43-0.8,2.64c-3.02,10.36-4.49,21.16-7.4,31.57c-2.29,1.17-4.78,2.01-7.3,2.39 C6.77,135.87,4.03,129.37,5.25,122.33z M7.86,139.09c0.02,0,0.03-0.01,0.05-0.01c0.42,0.48,0.86,0.94,1.32,1.39 c-1.09,0-2.18-0.09-3.25-0.29C6.45,139.6,7,139.18,7.86,139.09z M6.05,142.45c1.94,0.29,3.91,0.31,5.85,0.09 c0.11,0.01,0.21,0,0.31-0.03c5-0.65,9.82-2.89,13.68-6.1c0.2,0.29,0.41,0.57,0.61,0.86c-5.61,5.22-12.4,7.55-20.03,6.81 C6.33,143.53,6.19,142.99,6.05,142.45z M38.92,274.41c-5.77-23.01,0.18-46.83,3.25-69.8c0.27-2.01,0.51-4.03,0.76-6.05 c0.02-0.08,0.03-0.16,0.03-0.23c2.92-23.51,4.72-47.14,8.21-70.58c0.21-1.42-1.96-2.03-2.17-0.6c-3.43,23.05-5.23,46.28-8.06,69.4 c-18-10.87-28.19-30.36-33.83-50.18c7.8,0.59,14.93-2,20.71-7.26c3.12,4.39,6.24,8.78,9.36,13.17c0.83,1.17,2.78,0.05,1.94-1.14 c-0.86-1.21-1.71-2.41-2.57-3.62c2.36-16.31,7.03-34.84,19.28-46.46c-1.06,1.33-2.09,2.68-3.11,4.05c-0.46,0.62,0.06,1.44,0.67,1.65 c1.71,0.59,3.02,1.7,4.42,2.74c-2.53,1.78-4.81,3.85-7.12,5.92c-0.21,0.15-0.36,0.37-0.4,0.63c0,0,0,0,0,0c0,0.03,0,0.06-0.01,0.09 c-0.01,0.14,0.01,0.27,0.06,0.4c0,0,0,0.01,0,0.01c3.45,9.97,5.07,20.63,6.42,31.06c1.31,10.13,2.27,20.36,2.35,30.59 c0,0.01,0,0.01,0.01,0.02c-0.14,20.44-0.15,40.88-0.67,61.31c-0.31,12.25-0.79,24.5-1.89,36.7 C50.57,278.34,44.37,277.72,38.92,274.41z M90.65,447.34c3.57,0.63,7.14,1.27,10.72,1.9c-1.09,1.19-2.19,2.37-3.28,3.56 c-0.14,0.09-0.25,0.2-0.32,0.35c-1.8,1.95-3.6,3.9-5.4,5.84c-2.3-2.26-5.09-4.06-8.06-5.26C86.42,451.6,88.54,449.47,90.65,447.34z M82.57,455.47c4.97,1.76,9.41,5.33,11.84,10.03c-1.22,1.29-2.55,2.47-3.8,3.72c-2.43-4.67-6.73-8.38-11.74-10.03 C80.11,457.95,81.34,456.71,82.57,455.47z M74.26,463.82c0.93-0.94,1.87-1.88,2.8-2.82c3.24,0.85,6.29,2.66,8.64,5.12 c-2.56,2.6-5.43,5.27-8.98,6.31c-2.93,0.86-7.43,0.47-7.54-3.45c0-0.08-0.03-0.13-0.05-0.2C70.83,467.06,72.66,465.44,74.26,463.82z M120.46,470.65c-9.06,6.32-19,10.95-29.08,15.41c-5.18,2.29-10.71,5.21-16.54,4.95c-4.75-0.21-7.79-2.67-9.42-6.15 c0.23,0.18,0.44,0.35,0.7,0.52c7.68,5.12,19.29,0.27,26.83-2.83c9.52-3.92,18.3-9.31,27-14.76 C120.12,468.75,120.29,469.71,120.46,470.65z M119.52,465.42c-6.69,4.19-13.39,8.38-20.46,11.9c-7.33,3.66-16.51,7.92-24.88,7.92 c-6.57,0-12.84-5.06-8.82-11.77c0.55-0.92,1.2-1.79,1.91-2.64c0.89,2.75,3.56,4.15,6.7,4.22c5.24,0.12,9.67-3.66,13.21-7.21 c0.83,1.12,1.53,2.34,2.05,3.63c0.07,0.18,0.18,0.32,0.3,0.43c0.37,0.44,1.01,0.62,1.52,0.13c0.14-0.09,0.26-0.21,0.34-0.35 c1.65-1.81,3.58-3.35,5.2-5.18c0.24-0.27,0.32-0.58,0.29-0.86c0-0.16-0.03-0.33-0.11-0.5c-0.74-1.62-1.72-3.12-2.85-4.49 c1.76-1.9,3.51-3.8,5.27-5.7c6.25,0.6,12.75-1.06,17.67-4.98C117.72,455.12,118.6,460.27,119.52,465.42z M201.09,436.57 c6.66-2.16,13.15-5.45,18.14-9.94c0.67,5.51,0.51,10.72-0.56,16.11c-0.06-0.15-0.1-0.3-0.16-0.46c-0.93-2.47-1.69-6.85-3.89-8.55 c-1.65-1.27-3.38-0.29-4.92,0.64c-2.62,1.58-5.58,2.6-8.18,4.21C201.37,437.91,201.23,437.24,201.09,436.57z M202.05,440.92 c1.7-1.13,3.55-1.85,5.43-2.71c0.93-0.42,1.88-1.18,2.84-1.5c0.68-1.01,1.48-1.08,2.39-0.21c1.2,0.14,1.85,0.82,1.94,2.04 c1.39,2.2,2.41,4.92,3.27,7.71c0.01,0.17,0.06,0.32,0.14,0.45c0.71,2.36,1.32,4.74,1.94,6.91c-5.03,0.4-9.78,2.78-12.63,7.01 C205.34,454.13,203.56,447.56,202.05,440.92z M209,465.71c-0.24-0.72-0.48-1.45-0.71-2.17c2.88-5.81,9.36-8.54,15.68-7.57 c0.26,1.18,0.61,2.33,0.92,3.49C218.89,459.05,212.94,461.16,209,465.71z M214.78,481.37c-1.78-4.33-3.41-8.72-4.93-13.14 c2.88-4.09,7.63-6.34,12.54-6.59c2.69,7.52,5.16,23.19-5.76,24.11C215.96,484.3,215.37,482.82,214.78,481.37z M222.61,492.5 c-1.61-0.14-3.53-2.49-4.35-3.74c-0.19-0.29-0.35-0.59-0.52-0.89c11.38-1.76,10.04-17.29,7.03-26.21c0.41,0.03,0.81,0.08,1.21,0.14 c0.59,0.1,1.3-0.29,1.4-0.99c0.05-0.21,0.03-0.42-0.04-0.61c-0.35-1.83-1.01-3.58-1.34-5.42c-0.01-0.19-0.07-0.38-0.19-0.53 c-0.01-0.01-0.01-0.02-0.02-0.03c-0.05-0.06-0.12-0.12-0.2-0.17c-0.16-0.11-0.33-0.18-0.53-0.18c-0.92-0.17-1.84-0.28-2.77-0.32 c-0.7-2.32-1.45-4.62-2.25-6.91c0.02-0.05,0.05-0.11,0.06-0.17c1.92-7.35,2.19-14.32,1.1-21.79c0.41-0.43,0.79-0.88,1.17-1.33 c1.87,0.58,4.14,1.18,5.71,2.21c2.38,1.55,1.86,4.91,2.04,7.58c0.4,5.92,0.68,11.85,0.83,17.78c0.16,5.93,0.19,11.87,0.11,17.8 c-0.08,5.53,0.89,13.22-1.2,18.44C228.75,489.97,225.98,492.79,222.61,492.5z M235,483.37c-0.13,4.15-0.88,8.28-5,10.22 c-0.96,0.45-2,0.65-3.05,0.64c7.84-3.27,6.26-18.1,6.36-24.51c0.24-14.31-0.26-28.62-1.4-42.89c0.78,0.28,1.56,0.59,2.36,0.84 c0.51,12.52,0.82,25.04,0.85,37.57C235.14,471.28,235.18,477.33,235,483.37z M127.41,231.81c0.01-0.62-0.41-0.96-0.89-1.05 c-0.08-0.03-0.15-0.07-0.24-0.08c-8.34-0.95-14.49-7.7-14.05-16.14c0.02-0.45-0.19-0.74-0.48-0.91c-0.17-0.13-0.37-0.22-0.65-0.21 c-4.88,0.09-9.77-0.09-14.65,0c-0.18,0-0.34,0.04-0.48,0.11c-0.39,0.13-0.68,0.47-0.64,1.02c0.43,6.15,1,12.29,1.5,18.43 c0.43,5.24,0.14,11.12,2.17,16.05c4.54,11.02,18,9.53,27.57,7.99c0.58-0.09,0.81-0.51,0.8-0.96c0.01-0.04,0.03-0.08,0.03-0.13 C127.47,247.89,127.34,239.85,127.41,231.81z M109.74,255.31c-7.41-1.99-9.55-8.05-10.09-15.04c-0.64-8.2-1.38-16.4-1.97-24.6 c4.1-0.04,8.21,0.06,12.31,0.02c0.08,8.83,6.57,15.61,15.17,17.07c-0.05,7.41,0.05,14.82,0.01,22.23 C120.19,255.78,114.64,256.62,109.74,255.31z M65.43,59.14c0.59-2.65,3.71-3.91,6.06-2.74c1.3,0.65,0.15,2.59-1.14,1.94 c-0.96-0.48-2.37,0.09-2.69,1.14c-0.38,1.25,1.02,2.51,2.23,2.28c1.42-0.28,2.02,1.89,0.6,2.17C67.76,64.47,64.77,62.07,65.43,59.14 z M89.29,52.52c-0.05,1.45-2.3,1.45-2.25,0c0.08-2.33-1.62-4.71-4.1-4.82c-2.46-0.11-4.4,2.15-4.46,4.47 c-0.04,1.45-2.29,1.45-2.25,0c0.1-3.57,3-6.8,6.71-6.72C86.63,45.53,89.41,48.98,89.29,52.52z M56.84,48.65 c-2.06,0.16-4.26,1.92-4.12,4.09c0.1,1.45-2.15,1.44-2.25,0c-0.23-3.39,3.14-6.17,6.37-6.34c3.85-0.2,6.63,3.8,6.2,7.38 c-0.17,1.42-2.42,1.43-2.25,0C61.07,51.46,59.56,48.43,56.84,48.65z M83.74,67.69c0.42-0.87-0.27-1.9-1.27-1.65 c-6.91,1.7-13.85,2.08-20.89,1.09c-0.6-0.08-1.04,0.26-1.25,0.69c-0.33,0.31-0.46,0.79-0.14,1.29 C66.1,78.08,78.99,77.48,83.74,67.69z M63.4,69.58c5.71,0.57,11.35,0.32,16.97-0.78C76.12,74.28,68.22,74.82,63.4,69.58z" style="fill: rgb(27, 27, 27);"/></g></svg>