<svg xmlns="http://www.w3.org/2000/svg" xmlns:xlink="http://www.w3.org/1999/xlink" preserveAspectRatio="xMidYMid meet" version="1.0" viewBox="-0.1 -4.2 175.6 493.3" zoomAndPan="magnify" style="fill: rgb(0, 0, 0);" original_string_length="19650"><g id="__id20_s2pplbyhko"><path d="M175.47,244.33c-0.03,0.52-0.32,0.86-0.71,1.02c-6.88,6.37-14.69,11.41-23.21,14.99 c7.45,30.9,15.59,61.71,19.87,93.26c0.02,0.12,0.02,0.24,0.01,0.35c0.04,0.5-0.15,1.01-0.7,1.34c-5.19,3.18-10.52,5.95-15.94,8.35 c-0.24,0.31-0.64,0.46-1.06,0.47c-6.59,2.85-13.34,5.15-20.19,6.94c-0.36,0.27-0.82,0.39-1.24,0.32c-7.43,1.87-14.98,3.13-22.6,3.86 c-0.59,19.58-1.57,39.14-1.74,58.73c3.1,4.65,5.7,9.59,7.8,14.74c0.16,0.17,0.27,0.4,0.32,0.7c0.01,0.05,0.01,0.1,0.02,0.14 c1.55,3.92,2.82,7.96,3.77,12.1c1.6,7.01,3.82,17.83-3.16,22.85c-6.52,4.69-13.43-2.9-16.7-8.02c-5.22-8.16-7.79-17.96-9.28-27.43 c-0.07-0.18-0.1-0.39-0.09-0.63c1.41-24.1-0.67-48.52-2.77-72.54c-4.36-0.15-8.72-0.45-13.08-0.9c0.23,15.51-0.61,31.02-0.68,46.53 c0,0.42-0.15,0.74-0.37,0.98c-0.1,0.11-0.22,0.22-0.37,0.31c-9.05,5.46-19.01,9.15-29.48,10.62c-6.46,0.91-19.47,3.18-24.38-2.9 C9.28,417.87,49.32,408.6,58.85,406.9c-0.79-11.63-1.72-23.25-3.09-34.83c-19.04-3.83-37.66-10.28-54.99-18.52 c-0.72-0.34-0.88-0.98-0.7-1.55c0-0.05,0-0.09,0.01-0.14C9.71,300,25.06,249.14,45.41,200.42c-1.33-1.13-2.34-2.47-2.62-4.35 c-0.27-1.85,0.76-3.15,0.92-4.9c0.42-4.51-1.08-4.63-3.7-6.76c-5.25-4.26-5.33-9.79-1.99-15.55c4.25-7.33,12.55-12.45,6.7-21.54 c-3.47-5.39-5.82-10.27-3.34-16.74c1.07-2.78,2.81-5.07,5.13-6.93c2.43-1.95,7.32-3.86,7.46-7.54c0.16-4.19-5.78-6.83-8.07-9.63 c-1.78-2.18-2.71-4.8-2.6-7.63c0.25-6.57,5.4-11.53,10.05-15.49c3.65-3.11,7.06-6.07,8.91-10.65c1.8-4.45,2.5-9.19,2.1-13.97 c-1.35-10.54-5.05-21.85-2.14-32.4c2.51-9.12,8.85-17.49,18.3-19.87c12.77-10.63,34.48-7.74,44.39,5.34 c11.12,14.67,11.64,34.25,25.9,46.97c2.78,2.48,6.64,5.15,7.19,9.13c0.41,2.96-1.09,5.57-2.5,8.04c-1.86,3.26-3.14,5.75-1.83,9.69 c1.01,3.04,3.1,5.5,5.31,7.72c2.6,2.61,5.37,5.14,7.49,8.18c4.52,6.48,4.13,12.62,0.12,19.12c-2.03,3.29-3.65,6.6-2.51,10.62 c0.69,2.42,2.22,4.64,3.56,6.73c2,3.12,4.18,6.18,5.54,9.66c1.25,3.2,1.93,7.06,0.79,10.4c-1.18,3.48-5.03,5.56-6,9.05 c-1.19,4.33,3.7,6.92,4.49,10.78c0.74,3.62-1.04,6.98-3.46,9.49c-0.22,0.23-0.46,0.36-0.71,0.41c0.23,1.7,0.46,3.4,0.67,5.1 c1.12,3.03,1.44,6.66,1.92,9.56c0.78,4.7,1.26,9.44,1.62,14.2c0.08,0.35,0.03,0.71-0.18,1.01c-0.01,0.01-0.02,0.03-0.03,0.04 c-0.01,0.01-0.03,0.03-0.04,0.04c-0.14,0.18-0.33,0.31-0.55,0.4c1.74,8.45,2.66,17,3.69,25.56 C175.49,243.91,175.51,244.12,175.47,244.33z" style="fill: rgb(255, 251, 240);"/></g><g id="__id21_s2pplbyhko"><path d="M103.6,26.29c1.39-1.97,2.78-3.95,4.17-5.92c-0.03-0.03-0.06-0.05-0.08-0.08c-1.84-2.24-1.43-5.59,0.76-7.43 c0.02-0.01,0.04-0.02,0.05-0.04c0.07-0.07,0.16-0.14,0.25-0.2c2.4-1.54,5.77-1.1,7.41,1.34c1.58,2.35,1.07,5.53-1.2,7.23 c-1.39,1.04-3.12,1.28-4.68,0.82c-1.39,1.97-2.78,3.95-4.17,5.92C105.26,27.42,104.43,26.86,103.6,26.29z M139.98,79.82 c-1.11-2.35-2.49-4.26-4.17-5.79c-13.78,1.2-17.23,21.52-20.16,32.02c-2.75,9.87-4.77,19.85-5.98,29.99 c4.75-10.46,8.88-21.17,9.28-32.76c0.07-1.93,3.07-1.93,3,0c-0.29,8.44-2.49,16.44-5.47,24.21c0.13,0.04,0.25,0.09,0.38,0.18 c9.96,6.53,21.66,9.12,33.41,7.27C151.22,116.08,147.68,96.77,139.98,79.82z M66.22,141.34c0.42-2.5,3.28-3.74,4.87-5.36 c0.12-0.12,0.23-0.26,0.34-0.38c-3.43-0.85-6.74-2.06-9.92-3.62c-3.73,15.64-6.91,31.57-7.05,47.66 c4.89-10.79,10.02-21.46,15.39-31.99C67.6,145.97,65.8,143.81,66.22,141.34z M98.25,152.39c1.92-16.2,4.32-32.34,8.08-48.24 c2.8-11.81,7.04-30.06,19.87-34.76c-1.22-0.38-2.31-0.86-3.35-1.73c-0.86-0.72-3.03-4.36-4.46-3.86 c-4.94,5.18-12.23,7.78-19.34,7.02c-1.36,0.31-2.1,0.56-1.99,2.11c0.04,0.6,0.26,1.04,0.18,1.67c-0.13,0.99-0.72,1.76-1.53,2.32 c-1.37,0.95-3.1,1.43-4.52,2.33c-1.45,0.92-2.71,2.02-3.88,3.25c-0.07,0.12-0.15,0.25-0.26,0.36 c-10.88,11.32-18.54,25.16-23.14,40.09c0.01,0.01,0.02,0.01,0.03,0.01c3.77,2.13,7.79,3.54,12.06,4.16c0.13-0.5,0.25-1,0.35-1.52 c-0.63-4.38-1.55-8.73-1.01-13.34c0.72-6,3.78-11.27,8.22-15.28c1.43-1.29,3.56,0.82,2.12,2.12c-6.45,5.84-8.29,13.25-6.86,21.64 c1.07,6.24,1.91,11.7,0.08,17.91c-0.55,1.85-3.44,1.06-2.89-0.8c0.46-1.56,0.7-3.09,0.8-4.6c-0.5,0.92-1.07,1.81-1.72,2.66 c-1.19,1.56-3.59,2.87-4.55,4.44c-2.12,3.47,2.89,6.32,5.75,7.44c0.07,0.03,0.12,0.06,0.18,0.09c0.06,0.02,0.12,0.03,0.18,0.06 C83.64,151.11,90.59,153.08,98.25,152.39z M118.84,188.24c11.89-12.54,21.62-26.8,28.04-42.75c-12-0.32-23.6-3.2-34.41-8.53 c-2.04,4.52-4.19,8.98-6.21,13.44c-2.29,5.05-4.54,10.22-6.53,15.51c-0.04,0.24-0.12,0.45-0.24,0.63 c-4.69,12.64-7.78,25.88-6.16,39.35c2.41,3.66,6.98,7.4,11.58,9.31c0.1,0.03,0.19,0.06,0.28,0.11c1.26,0.5,2.52,0.86,3.73,1.05 c18.71-15.74,32.87-37.34,38.52-61.24c0.48-2.02,0.88-4.07,1.24-6.13c-6.57,15.36-16.14,29.16-27.71,41.36 C119.63,191.77,117.52,189.64,118.84,188.24z" style="fill: rgb(203, 157, 240);"/></g><g id="__id22_s2pplbyhko"><path d="M129.28,199.43c-2.46,3.18-5.06,6.25-7.8,9.18c2.09,0.04,3.66,0.84,5.31,3.12c2.03,2.81,2.86,6.12,3.3,9.51 c0.3,2.33,0.36,4.67,0.65,7c0.46,3.7,1.41,5.35,5.21,3.64c4.29-1.93,8.32-4.33,12.65-6.16c-0.37-1.36-0.66-2.63-0.92-3.58 c-0.02-0.08-0.03-0.15-0.04-0.22c-0.16-0.56,0.01-1.16,0.73-1.47c2.5-1.07,4.99-2.15,7.49-3.22c0.86-0.37,1.94-0.13,2.2,0.9 c0.2,0.76,0.48,1.73,0.78,2.82c3.55-1.67,7.1-3.35,10.64-5.02c-0.52-7.09-0.96-14.95-3.35-21.66c-2.17-6.11-8.86-5.81-14.33-6.15 c-7.88,2.71-15.2,6.41-22.07,11.13C129.58,199.33,129.43,199.39,129.28,199.43z M162.4,191.65c1.78-0.75,2.55,2.16,0.8,2.89 c-11.28,4.73-21.91,11-32.72,16.7c-1.71,0.9-3.22-1.69-1.51-2.59C140,202.82,150.87,196.48,162.4,191.65z M119.44,223.86 c-1.52-3.08-2.74-6.26-3.7-9.56c0.58-0.54,1.17-1.08,1.74-1.63c1.08,4.06,2.38,8.06,4,11.94 C120.78,224.49,120.1,224.23,119.44,223.86z M105.93,143.3c-0.02,0.24,0.01,0.44,0.08,0.62c-1.66,3.52-3.3,7.04-4.8,10.57 c-0.1,0.23-0.19,0.45-0.29,0.68c1.66-14.45,3.65-28.85,6.7-43.09c2.78-12.99,6.49-39.87,24.07-40.8c0.01,0,0.01,0,0.02,0 c0.25,0.12,0.51,0.25,0.75,0.38c-10.92,3.24-14.8,17.08-17.75,26.9C110.3,113.22,107.16,128.02,105.93,143.3z M133.02,236 c1.73,8.37,3.38,16.75,4.79,25.18c-5.81-0.24-11.68-1.21-17.22-2.94c-2.44-13.43-4.46-26.94-6.86-40.38c0.92,2.67,2,5.28,3.28,7.82 c0.21,0.43,0.53,0.65,0.88,0.73c1.77,1.01,3.64,1.41,5.65,1.16c0.14,0,0.28-0.02,0.42-0.06c0.06-0.01,0.12-0.01,0.19-0.03 c0.9-0.17,1.18-0.9,1.04-1.59c-0.01-0.2-0.05-0.4-0.15-0.61c-2-4.37-3.49-8.97-4.71-13.62c9.78-0.62,4.93,17.84,9.24,22.98 C130.59,235.87,131.76,236.16,133.02,236z M162.41,186.48c-2.52-15.68-5.69-31.26-9.49-46.69c0.32-3.52,0.46-7.06,0.47-10.61 c5.3,19.36,9.2,38.79,11.94,58.74C164.44,187.31,163.45,186.84,162.41,186.48z M172.39,243.45c-9.07,8.32-19.76,14.2-31.61,17.43 c-1.43-8.61-3.11-17.17-4.88-25.72c4.69-1.85,8.96-4.61,13.61-6.58c1.16,3.04,2.95,5.68,6.06,5.23c4.86-0.7,4.85-5.52,3.97-9.9 c3.13-1.48,6.27-2.96,9.4-4.44C170.55,227.4,171.43,235.41,172.39,243.45z" style="fill: rgb(245, 185, 140);"/></g><g id="__id23_s2pplbyhko"><path d="M88.48,49.15c-1.57,2.11-4.33,2.46-6.4,0.86c-0.64-0.5-0.52-1.6,0-2.12c0.62-0.62,1.48-0.5,2.12,0 c0.42,0.32,1.35,0.19,1.68-0.25c0.48-0.65,1.29-0.98,2.05-0.54C88.59,47.48,88.96,48.5,88.48,49.15z M162.4,191.65 c-11.53,4.84-22.39,11.17-33.43,17c-1.71,0.9-0.19,3.49,1.51,2.59c10.8-5.7,21.44-11.97,32.72-16.7 C164.95,193.8,164.18,190.9,162.4,191.65z M175.47,244.33c-0.03,0.52-0.32,0.86-0.71,1.02c-6.88,6.37-14.69,11.41-23.21,14.99 c7.45,30.9,15.59,61.71,19.87,93.26c0.02,0.12,0.02,0.24,0.01,0.35c0.04,0.5-0.15,1.01-0.7,1.34c-5.19,3.18-10.52,5.95-15.94,8.35 c-0.24,0.31-0.64,0.46-1.06,0.47c-6.59,2.85-13.34,5.15-20.19,6.94c-0.36,0.27-0.82,0.39-1.24,0.32c-7.43,1.87-14.98,3.13-22.6,3.86 c-0.59,19.58-1.57,39.14-1.74,58.73c3.1,4.65,5.7,9.59,7.8,14.74c0.16,0.17,0.27,0.4,0.32,0.7c0.01,0.05,0.01,0.1,0.02,0.14 c1.55,3.92,2.82,7.96,3.77,12.1c1.6,7.01,3.82,17.83-3.16,22.85c-6.52,4.69-13.43-2.9-16.7-8.02c-5.22-8.16-7.79-17.96-9.28-27.43 c-0.07-0.18-0.1-0.39-0.09-0.63c1.41-24.1-0.67-48.52-2.77-72.54c-4.36-0.15-8.72-0.45-13.08-0.9c0.23,15.51-0.61,31.02-0.68,46.53 c0,0.42-0.15,0.74-0.37,0.98c-0.1,0.11-0.22,0.22-0.37,0.31c-9.05,5.46-19.01,9.15-29.48,10.62c-6.46,0.91-19.47,3.18-24.38-2.9 C9.28,417.87,49.32,408.6,58.85,406.9c-0.79-11.63-1.72-23.25-3.09-34.83c-19.04-3.83-37.66-10.28-54.99-18.52 c-0.72-0.34-0.88-0.98-0.7-1.55c0-0.05,0-0.09,0.01-0.14C9.71,300,25.06,249.14,45.41,200.42c-1.33-1.13-2.34-2.47-2.62-4.35 c-0.27-1.85,0.76-3.15,0.92-4.9c0.42-4.51-1.08-4.63-3.7-6.76c-5.25-4.26-5.33-9.79-1.99-15.55c4.25-7.33,12.55-12.45,6.7-21.54 c-3.47-5.39-5.82-10.27-3.34-16.74c1.07-2.78,2.81-5.07,5.13-6.93c2.43-1.95,7.32-3.86,7.46-7.54c0.16-4.19-5.78-6.83-8.07-9.63 c-1.78-2.18-2.71-4.8-2.6-7.63c0.25-6.57,5.4-11.53,10.05-15.49c3.65-3.11,7.06-6.07,8.91-10.65c1.8-4.45,2.5-9.19,2.1-13.97 c-1.35-10.54-5.05-21.85-2.14-32.4c2.51-9.12,8.85-17.49,18.3-19.87c12.77-10.63,34.48-7.74,44.39,5.34 c11.12,14.67,11.64,34.25,25.9,46.97c2.78,2.48,6.64,5.15,7.19,9.13c0.41,2.96-1.09,5.57-2.5,8.04c-1.86,3.26-3.14,5.75-1.83,9.69 c1.01,3.04,3.1,5.5,5.31,7.72c2.6,2.61,5.37,5.14,7.49,8.18c4.52,6.48,4.13,12.62,0.12,19.12c-2.03,3.29-3.65,6.6-2.51,10.62 c0.69,2.42,2.22,4.64,3.56,6.73c2,3.12,4.18,6.18,5.54,9.66c1.25,3.2,1.93,7.06,0.79,10.4c-1.18,3.48-5.03,5.56-6,9.05 c-1.19,4.33,3.7,6.92,4.49,10.78c0.74,3.62-1.04,6.98-3.46,9.49c-0.22,0.23-0.46,0.36-0.71,0.41c0.23,1.7,0.46,3.4,0.67,5.1 c1.12,3.03,1.44,6.66,1.92,9.56c0.78,4.7,1.26,9.44,1.62,14.2c0.08,0.35,0.03,0.71-0.18,1.01c-0.01,0.01-0.02,0.03-0.03,0.04 c-0.01,0.01-0.03,0.03-0.04,0.04c-0.14,0.18-0.33,0.31-0.55,0.4c1.74,8.45,2.66,17,3.69,25.56 C175.49,243.91,175.51,244.12,175.47,244.33z M166.13,194.24c-2.17-6.11-8.86-5.81-14.33-6.15c-7.88,2.71-15.2,6.41-22.07,11.13 c-0.15,0.1-0.3,0.17-0.45,0.21c-2.46,3.18-5.06,6.25-7.8,9.18c2.09,0.04,3.66,0.84,5.31,3.12c2.03,2.81,2.86,6.12,3.3,9.51 c0.3,2.33,0.36,4.67,0.65,7c0.46,3.7,1.41,5.35,5.21,3.64c4.29-1.93,8.32-4.33,12.65-6.16c-0.37-1.36-0.66-2.63-0.92-3.58 c-0.02-0.08-0.03-0.15-0.04-0.22c-0.16-0.56,0.01-1.16,0.73-1.47c2.5-1.07,4.99-2.15,7.49-3.22c0.86-0.37,1.94-0.13,2.2,0.9 c0.2,0.76,0.48,1.73,0.78,2.82c3.55-1.67,7.1-3.35,10.64-5.02C168.96,208.81,168.52,200.96,166.13,194.24z M98.23,223.47 c0.06-0.17,0.14-0.32,0.26-0.45c1.27-1.92,2.53-3.84,3.79-5.77c-2.67-1.29-5.22-3.05-7.4-5.05c-4.7,9.31-8.12,18.7-7.27,29.35 c0.01,0.1,0,0.19-0.01,0.28c0.26,1.52,0.59,3.01,1,4.48c0.09,0.15,0.15,0.34,0.16,0.55c0.76,2.6,1.77,5.11,3.09,7.51 c-0.1-0.66-0.13-1.39-0.24-1.93c-0.47-2.41-0.94-4.83-1.41-7.24c-0.22-1.06,0.6-1.78,1.43-1.87c0.65-0.07,1.3,0.24,1.46,1.07 c0.55,2.64,1.57,5.07,2.75,7.48c0.22,0.44,1.83,4.16,2.57,5.25c0.03-0.03,0.05-0.05,0.08-0.08c-0.84-2.1-3.23-12.23-3.53-13.43 c-0.34-0.92,0.23-1.57,0.96-1.76c0.75-0.27,1.68-0.04,1.93,0.96c0.71,1.92,1.73,3.66,2.8,5.39c0.19,0.31,0.56,0.8,0.96,1.34 c-0.14-0.5-0.28-1-0.42-1.5c-0.53-1.88-1.07-3.75-1.6-5.63c-0.11-0.26-0.13-0.52-0.08-0.75c0-0.01,0-0.02,0.01-0.03 c0.01-0.06,0.03-0.12,0.05-0.18c0.14-0.44,0.5-0.75,0.92-0.9c0.02-0.01,0.03-0.01,0.05-0.02c0.04-0.01,0.09-0.03,0.13-0.04 c0.34-0.09,0.69-0.08,1.02,0.08c0.03,0.01,0.05,0.03,0.08,0.04c0.04,0.02,0.08,0.05,0.12,0.08c0.16,0.11,0.29,0.25,0.4,0.43 c0,0.01,0.01,0.01,0.01,0.02c0,0.01,0.01,0.01,0.01,0.02c0.01,0.01,0.02,0.03,0.02,0.04c0.82,1.34,1.51,2.73,2.21,4.13 c-0.48-2.1-1.09-4.18-1.78-6.18c-1.48-4.87-2.97-9.74-4.45-14.61C98.13,224.27,98.07,223.88,98.23,223.47z M104.91,215.21 c0.1,0.03,0.19,0.06,0.28,0.11c1.26,0.5,2.52,0.86,3.73,1.05c18.71-15.74,32.87-37.34,38.52-61.24c0.48-2.02,0.88-4.07,1.24-6.13 c-6.57,15.36-16.14,29.16-27.71,41.36c-1.33,1.4-3.45-0.72-2.12-2.12c11.89-12.54,21.62-26.8,28.04-42.75 c-12-0.32-23.6-3.2-34.41-8.53c-2.04,4.52-4.19,8.98-6.21,13.44c-2.29,5.05-4.54,10.22-6.53,15.51c-0.04,0.24-0.12,0.45-0.24,0.63 c-4.69,12.64-7.78,25.88-6.16,39.35C95.75,209.57,100.31,213.3,104.91,215.21z M66.22,141.34c0.42-2.5,3.28-3.74,4.87-5.36 c0.12-0.12,0.23-0.26,0.34-0.38c-3.43-0.85-6.74-2.06-9.92-3.62c-3.73,15.64-6.91,31.57-7.05,47.66 c4.89-10.79,10.02-21.46,15.39-31.99C67.6,145.97,65.8,143.81,66.22,141.34z M107.77,20.37c-1.39,1.97-2.78,3.95-4.17,5.92 c0.83,0.57,1.66,1.13,2.51,1.64c1.39-1.97,2.78-3.95,4.17-5.92c1.55,0.46,3.29,0.22,4.68-0.82c2.27-1.7,2.78-4.88,1.2-7.23 c-1.64-2.44-5-2.88-7.41-1.34c-0.09,0.06-0.18,0.13-0.25,0.2c-0.02,0.01-0.04,0.02-0.05,0.04c-2.18,1.85-2.6,5.2-0.76,7.43 C107.71,20.32,107.75,20.34,107.77,20.37z M105.93,143.3c1.23-15.28,4.37-30.08,8.78-44.74c2.95-9.82,6.83-23.66,17.75-26.9 c-0.25-0.13-0.5-0.26-0.75-0.38c-0.01,0-0.01,0-0.02,0c-17.58,0.93-21.29,27.81-24.07,40.8c-3.04,14.24-5.04,28.64-6.7,43.09 c0.1-0.23,0.19-0.45,0.29-0.68c1.5-3.53,3.14-7.04,4.8-10.57C105.94,143.74,105.91,143.53,105.93,143.3z M115.74,41.67 c-0.04-0.77,0.41-1.23,0.98-1.38c0.04-0.02,0.08-0.05,0.12-0.06c2.7-1.11,5.54-3.03,6.08-6.13c0.29-1.65-0.22-3.59-1.65-4.52 c-1.92-1.26-3.94-0.37-4.36,1.87c-0.13,0.71-0.62,1.04-1.16,1.08c-2.69,0.81-5.06,0.5-7.27-0.35c0.46,1.15-0.79,2.71-2.13,1.89 c-2.01-1.23-4.34-1.26-6.37-0.06c-1.67,0.98-3.18-1.61-1.51-2.59c1.97-1.16,4.23-1.51,6.39-1.09c-3.91-2.39-7.59-5.5-12.12-5.45 c1.78,4.67,2.82,9.26,2.65,14.36c0.15,0.45,0.06,0.95-0.44,1.36c-4.25,3.44-10.16,5.11-15.69,4.93c2.62,8.07,7.13,17.26,15.93,19.33 c11.25,2.64,18.3-6.98,20.12-16.78c0.05-0.42,0.1-0.84,0.15-1.25c0.02-0.16,0.06-0.3,0.11-0.43 C115.76,44.76,115.82,43.19,115.74,41.67z M114.34,59.02c-2.99,4.63-7.44,8.06-13.24,8.92c4.9,0.05,9.68-1.55,13.45-4.66 C114.39,61.87,114.32,60.45,114.34,59.02z M76.6,46.99c-0.68,1.31,0.23,3.95,0.75,4.82c0.54,0.91,1.26,1.6,2.1,2.1 C78.32,51.64,77.38,49.28,76.6,46.99z M109.67,136.03c4.75-10.46,8.88-21.17,9.28-32.76c0.07-1.93,3.07-1.93,3,0 c-0.29,8.44-2.49,16.44-5.47,24.21c0.13,0.04,0.25,0.09,0.38,0.18c9.96,6.53,21.66,9.12,33.41,7.27 c0.96-18.85-2.58-38.16-10.28-55.11c-1.11-2.35-2.49-4.26-4.17-5.79c-13.78,1.2-17.23,21.52-20.16,32.02 C112.9,115.92,110.89,125.89,109.67,136.03z M113.68,134.23c10.78,5.35,22.36,8.13,34.35,8.29c0.55-1.48,1.07-2.97,1.57-4.48 c-12.04,1.57-23.99-1.07-34.23-7.77C114.82,131.6,114.26,132.92,113.68,134.23z M162.41,186.48c1.05,0.36,2.03,0.83,2.92,1.45 c-2.74-19.96-6.64-39.38-11.94-58.74c-0.01,3.55-0.15,7.09-0.47,10.61C156.72,155.22,159.88,170.79,162.41,186.48z M62.23,129.02 c0.03,0.01,0.07,0.02,0.1,0.04c3.54,1.8,7.23,3.08,11.1,3.94c0.62-0.96,1.15-1.96,1.59-3.01c-4.21-0.7-8.2-2.06-11.97-4.1 C62.76,126.93,62.49,127.97,62.23,129.02z M76.27,147.81c0.07,0.03,0.12,0.06,0.18,0.09c0.06,0.02,0.12,0.03,0.18,0.06 c7.01,3.14,13.95,5.12,21.61,4.43c1.92-16.2,4.32-32.34,8.08-48.24c2.8-11.81,7.04-30.06,19.87-34.76 c-1.22-0.38-2.31-0.86-3.35-1.73c-0.86-0.72-3.03-4.36-4.46-3.86c-4.94,5.18-12.23,7.78-19.34,7.02c-1.36,0.31-2.1,0.56-1.99,2.11 c0.04,0.6,0.26,1.04,0.18,1.67c-0.13,0.99-0.72,1.76-1.53,2.32c-1.37,0.95-3.1,1.43-4.52,2.33c-1.45,0.92-2.71,2.02-3.88,3.25 c-0.07,0.12-0.15,0.25-0.26,0.36c-10.88,11.32-18.54,25.16-23.14,40.09c0.01,0.01,0.02,0.01,0.03,0.01 c3.77,2.13,7.79,3.54,12.06,4.16c0.13-0.5,0.25-1,0.35-1.52c-0.63-4.38-1.55-8.73-1.01-13.34c0.72-6,3.78-11.27,8.22-15.28 c1.43-1.29,3.56,0.82,2.12,2.12c-6.45,5.84-8.29,13.25-6.86,21.64c1.07,6.24,1.91,11.7,0.08,17.91c-0.55,1.85-3.44,1.06-2.89-0.8 c0.46-1.56,0.7-3.09,0.8-4.6c-0.5,0.92-1.07,1.81-1.72,2.66c-1.19,1.56-3.59,2.87-4.55,4.44C68.41,143.84,73.42,146.7,76.27,147.81z M115.74,214.31c0.96,3.3,2.18,6.47,3.7,9.56c0.66,0.37,1.33,0.63,2.04,0.75c-1.62-3.88-2.92-7.88-4-11.94 C116.91,213.23,116.32,213.76,115.74,214.31z M113.72,217.87c2.4,13.44,4.42,26.94,6.86,40.38c5.55,1.73,11.41,2.7,17.22,2.94 c-1.41-8.43-3.06-16.81-4.79-25.18c-1.26,0.15-2.43-0.13-3.46-1.35c-4.31-5.14,0.53-23.6-9.24-22.98c1.22,4.65,2.71,9.25,4.71,13.62 c0.1,0.21,0.14,0.41,0.15,0.61c0.14,0.69-0.15,1.43-1.04,1.59c-0.06,0.01-0.12,0.02-0.19,0.03c-0.14,0.04-0.28,0.06-0.42,0.06 c-2.01,0.25-3.88-0.15-5.65-1.16c-0.35-0.08-0.66-0.3-0.88-0.73C115.73,223.15,114.64,220.54,113.72,217.87z M12.23,355.12 c10.58-70.9,31.99-139.91,63.31-204.38c-0.08-0.04-0.17-0.07-0.25-0.11c-0.83-0.33-1.84-0.79-2.89-1.37 c-6.27,12.32-12.22,24.81-17.82,37.46c-0.04,0.24-0.14,0.44-0.27,0.61C31.1,239.83,13.79,295.02,3.21,351.4 c2.96,1.39,5.96,2.74,9,4.02C12.21,355.32,12.21,355.22,12.23,355.12z M30.77,362.39c6.55-71.82,23.66-142.44,50.8-209.27 c-1.1-0.38-2.21-0.78-3.3-1.22c-0.03,0.1-0.06,0.2-0.11,0.29c-31.23,64.25-52.49,133.08-63.04,203.73 c-0.04,0.25-0.12,0.45-0.24,0.61C20.09,358.66,25.4,360.62,30.77,362.39z M87.91,154.82c-1.17-0.23-2.33-0.5-3.48-0.82 C57.3,220.83,40.14,291.48,33.68,363.32c7.14,2.24,14.39,4.14,21.7,5.64C58.98,296.7,69.87,224.9,87.91,154.82z M71.81,385.78 c-3.62,1.18-8.04,0.82-11.67-0.45c0.71,7.6,1.29,15.21,1.8,22.82c0.01,0.16-0.01,0.3-0.04,0.44c-0.07,0.49-0.4,0.91-1.07,1.01 c-7.54,1.12-14.92,2.93-22.07,5.6c-1.45,0.54-2.92,1.13-4.38,1.73c-0.01,0.08-0.02,0.16-0.04,0.24c-0.87,3.18,7.97,2.15,9.55,2.11 c2.86-0.08,5.72-0.21,8.57-0.49c6.58-0.65,12.85-2.19,18.74-5.2C71.38,404.32,71.71,395.05,71.81,385.78z M71.83,382.57 c0.01-2.64,0-5.28-0.04-7.92c-4.33-0.52-8.66-1.18-12.97-1.98c0.36,3.11,0.7,6.21,1,9.33C63.27,383.58,68.32,384.17,71.83,382.57z M82.6,372.65c-2.26-41.94-1.67-83.68,3.16-125.43c-0.45-1.59-0.81-3.2-1.08-4.84c-0.03-0.18-0.02-0.35,0-0.51 c-0.03-0.1-0.05-0.2-0.06-0.31c-0.92-11.45,2.93-21.61,8.06-31.61c-0.78-0.89-1.48-1.81-2.07-2.73c-0.21-0.33-0.27-0.65-0.22-0.95 c-1.78-14.04,1.55-27.66,6.4-40.73c0.36-3.37,0.73-6.75,1.12-10.12c-2.4,0.19-4.74,0.13-7.03-0.14c-0.01,0.09-0.02,0.19-0.04,0.29 C72.79,225.6,61.9,297.33,58.36,369.55C66.39,371.09,74.49,372.14,82.6,372.65z M106.61,372.5c-2.85-37.19-5.49-74.4-8.33-111.59 c-1.43-0.35-2.39-2-3.11-3.54c-0.34,1.19-1.23,2.11-2.68,1.87c-2.28-0.37-3.56-3.63-4.43-5.7c-4.19,39.7-4.62,79.39-2.46,119.26 C92.63,373.14,99.65,373.05,106.61,372.5z M92.47,395.1c4.25,2.62,10.04,2.81,13.58-1.21c0.23-6.13,0.45-12.27,0.63-18.4 c-5.25,0.4-10.53,0.55-15.81,0.47C91.43,382.32,91.98,388.7,92.47,395.1z M105.28,435.33c-0.09-0.11-0.17-0.23-0.22-0.37 c-0.17-0.34-0.19-0.67-0.1-0.95c0.1-12.01,0.51-24.01,0.95-36.01c-3.85,2.56-8.95,2.56-13.17,0.65c1,13.87,1.63,27.79,1.25,41.64 c0,0.01,0.01,0.01,0.01,0.02c2,7.65,5.56,14.61,9.36,21.49c1.75,3.17,4.75,9.76,9.87,2.89c1.12-1.51,0.9-4.46,0.83-6.21 c-0.11-2.7-0.44-5.52-0.85-8.18C111.1,445.04,108.43,440.06,105.28,435.33z M151.87,361.64c-4.37-32.95-11.01-65.49-18.77-97.8 c-4.81-0.5-9.6-1.47-14.14-2.96c-0.54-0.04-1.02-0.37-1.14-1.08c-2.5-13.68-4.55-27.45-6.99-41.14c-0.07,0.05-0.13,0.11-0.19,0.17 c-0.22,0.4-0.63,0.68-1.25,0.61c-1.41-0.16-2.85-0.51-4.29-1.01c-1.25,1.92-2.51,3.83-3.77,5.74c1.45,4.74,2.89,9.49,4.34,14.23 c0.84,2.45,1.5,4.97,2.03,7.5c0.32,1.56,1.08,4.02,0.4,5.58c-0.57,1.31-1.67,1.34-2.61,0.79c0.34,1.68,0.09,4-2.11,4.11 c-0.97,0.05-1.72-0.6-2.33-1.45c0.07,0.34,0.15,0.69,0.21,1.03c0.2,1.06,0.32,2.43-0.08,3.48c2.88,37.6,5.54,75.21,8.42,112.8 c7.21-0.7,14.35-1.9,21.39-3.64c-8.26-48.97-16.53-97.94-24.79-146.91c-0.32-1.89,2.57-2.7,2.89-0.8 c8.27,48.99,16.53,97.98,24.8,146.96C139.98,366.21,145.99,364.15,151.87,361.64z M148.73,261.46c-2.79,1.05-5.64,1.95-8.56,2.69 c-0.15,0.06-0.32,0.09-0.5,0.1c-0.01,0-0.02,0-0.03,0c-0.02,0-0.03,0-0.05,0c-1.11-0.02-2.22-0.07-3.34-0.14 c7.62,31.82,14.1,63.86,18.45,96.29c4.64-2.1,9.19-4.49,13.65-7.18C164.04,322.19,156.07,291.87,148.73,261.46z M172.39,243.45 c-0.96-8.03-1.85-16.05-3.45-23.98c-3.13,1.48-6.27,2.96-9.4,4.44c0.87,4.38,0.88,9.2-3.97,9.9c-3.11,0.45-4.9-2.19-6.06-5.23 c-4.64,1.97-8.92,4.73-13.61,6.58c1.77,8.55,3.45,17.11,4.88,25.72C152.63,257.65,163.33,251.77,172.39,243.45z M95.92,54.76 c1.59-1.08,0.09-3.68-1.51-2.59c-0.13,0.09-0.28,0.09-0.47-0.25c-0.31-0.54-0.15-1.42-0.07-2c0.11-0.8-0.2-1.61-1.05-1.85 c-0.7-0.19-1.73,0.24-1.85,1.05c-0.24,1.68-0.42,3.57,0.83,4.93C92.82,55.18,94.6,55.66,95.92,54.76z M98.92,56.49 c-0.94,1.37-2.89,1.83-4.35,1.07c-1.71-0.89-3.23,1.7-1.51,2.59c2.99,1.55,6.56,0.62,8.46-2.14 C102.61,56.41,100.01,54.91,98.92,56.49z M106.05,40.04c-0.95,1.68-2.86,2.48-4.72,1.95c-1.86-0.53-2.65,2.37-0.8,2.89 c3.13,0.89,6.51-0.5,8.11-3.33C109.59,39.87,107,38.36,106.05,40.04z" style="fill: rgb(0, 0, 0);"/></g></svg>