<svg xmlns="http://www.w3.org/2000/svg" xmlns:xlink="http://www.w3.org/1999/xlink" preserveAspectRatio="xMidYMid meet"
  version="1.0" viewBox="-3.0 -0.3 170.3 489.5" zoomAndPan="magnify" style="fill: rgb(0, 0, 0);"
  original_string_length="45770">
  <g id="__id16_s2pplbyhko">
    <path
      d="M157.19,479.23c-4.79,2.68-10.32,1.21-15.22-0.35c-6.24-1.99-12.41-4.2-18.47-6.69 c-10.94-4.5-21.93-9.9-30.54-18.17c-0.28-0.27-0.37-0.57-0.33-0.86c-0.27-7.73,0.35-15.46,0-23.18c-0.59-13.45-0.39-26.95-1.5-40.38 c-1.07-12.93-1.93-25.86-3.22-38.8c-2.05-20.63-4.35-41.24-8.05-61.63c-1.68,57.53-4.59,115.18-14.5,171.96 c-0.17,0.97-1.21,0.99-1.79,0.46c-10.27,6.91-19.58,15.33-30.65,20.99c-5.21,2.66-10.79,4.66-16.63,5.31 c-3.73,0.42-11.06,1.29-13.7-2.1c-5.59-7.19-1.17-17.29,4.37-22.86c4.02-4.04,8.78-7.14,13.67-10.04c0.11-0.11,0.24-0.19,0.39-0.23 c3.43-2.02,6.91-3.95,10.26-6.04c1.96-30.43,2.79-61.2,1.55-91.68c-1.18-28.97-3.37-57.83-1.52-86.82 c-1.07-1.51-1.45-3.55-0.96-5.37c-4.63-5.65-5.58-13.56-4.72-20.63c0.4-3.26,0.9-6.51,1.45-9.75c-0.06-0.11-0.12-0.23-0.14-0.38 c-4.05-27.94-6.87-56.18-5.01-84.43c0.46-6.96,1.19-13.89,2.22-20.79c0.8-5.36,1.45-11.01,3.49-16.07 c4.22-10.42,16.13-14.74,25.02-20.5c0.1-3.21,2.13-6.12,5.64-5.34c0.89-1.79,1.69-3.86,1.42-5.84c-0.03-0.23,0.01-0.43,0.09-0.61 c-6.76-3.18-10.44-9.38-12.34-16.65c-3.5-0.09-5.72-2.72-6.62-5.86c-5.47-4.48-6.83-12.99-4.04-19.39 c-1.46,0.11-2.91,0.21-4.37,0.32c-1.12,0.08-1.52-1.59-0.57-2.1c6.32-3.38,7.56-10.84,11.61-16.2c3.75-4.96,8.9-8.28,14.77-10.11 c1.2-6.14,8.48-8.76,14.22-8.4c0.96,0.06,1.47,1.15,0.82,1.89c3.22-0.58,6.58,0.05,9.84,1.31c7,2.69,13.72,6.43,20.49,9.66 c0.56,0.27,0.68,1.04,0.4,1.54c-1.1,1.95-2.92,3.34-5,3.95c9.24,7.5,5.72,23.4,10.52,33.33c0.39,0.8-0.27,2.02-1.27,1.65 c-1.02-0.38-1.96-0.89-2.92-1.36c0.02,6.51-2.94,11.11-10.07,11.87c-0.62,0.07-1.04-0.49-1.1-1.04c-0.97,0.43-1.93,0.85-2.89,1.3 c-0.85,2.26-1.96,4.38-3.3,6.29c0.01,0.08,0.04,0.15,0.04,0.24c-0.15,4.23,0.2,8.44,2.16,12.23c4.35-0.37,9.07,0.73,8.41,6.22 c-0.02,0.13-0.05,0.26-0.07,0.39c6.86,2.67,14.29,4.43,20.56,8.36c6.69,4.2,10.4,10.78,13.62,17.78 c7.34,15.94,11.22,33.15,14.22,50.36c2.77,15.9,5.31,31.14,4.82,47.33c-0.38,12.75-0.64,25.61-6.23,37.3 c-3.7,7.74-9.19,16.15-16.5,21.43c1.85,25.24,3.15,50.51,2.67,75.83c-0.56,29.71-3.3,59.34-6.58,88.86 c5.68,2.69,11.16,5.77,16.42,9.2c0.07,0.04,0.14,0.08,0.2,0.13c4.81,3.15,9.43,6.6,13.83,10.32 C162.37,462.18,167.25,473.61,157.19,479.23z"
      style="fill: rgb(251, 253, 252);" />
  </g>
  <g id="__id17_s2pplbyhko">
    <path
      d="M72.14,116.09c-0.98-1.09-0.74-2.69,0.8-2.96c0.72,0.27,1.5,0.42,2.36,0.39c0.82-0.03,1.53-0.21,2.15-0.51 c1.44,0.16,1.79,1.25,0.98,2.51c-0.61,0.96-1.76,1.59-2.87,1.71C74.35,117.36,72.98,117.02,72.14,116.09z M73.49,110.89 c0.07,0.02,0.13,0.05,0.19,0.08c1.02,0.4,2.17,0.35,3.46-0.46c1.98-1.25,2.9-4.36,4.31-6.26c-1.66-1.56-3.34-0.83-4.85,0.19 c-0.51,0.5-1.04,0.89-1.58,1.14c-0.15,0.1-0.3,0.15-0.44,0.16c-0.2,0.06-0.4,0.1-0.61,0.11c-0.65,0.03-1.26-0.18-1.83-0.53 c-0.09-0.03-0.18-0.08-0.28-0.15c-0.75-0.54-1.32-1.07-1.84-1.68c-0.39,0.61-0.74,1.24-1.08,1.88c0.01,0.02,0.02,0.03,0.04,0.05 C69.98,107.37,71.48,109.98,73.49,110.89z M74.07,129.86c2.36,0.53,4.27-0.01,5.86-1.19c-1.06-3.13-2.13-6.26-3.19-9.4 c-0.43,0.12-0.86,0.21-1.3,0.24c-0.66,0.04-1.35-0.03-2.02-0.21c-1.56,2.96-2.3,5.96-2.33,9.29 C72.04,129.18,73.02,129.63,74.07,129.86z M129.48,343.47c-2.58,0.12-5.17,0.25-7.75,0.37c0.16,4.42,0.34,8.84,0.51,13.26 c2.32-0.09,4.63-0.18,6.95-0.27c-0.02,0.75-0.04,1.5-0.06,2.25c-2.27,0.09-4.53,0.18-6.8,0.26c0.15,3.88,0.29,7.75,0.45,11.63 c1.94-0.08,3.88-0.16,5.82-0.24c-0.04,0.75-0.09,1.5-0.13,2.26c-1.87,0.08-3.73,0.15-5.6,0.23c0.22,5.09,0.47,10.19,0.7,15.28 c1.3-0.04,2.6-0.09,3.9-0.13c-0.06,0.75-0.11,1.5-0.16,2.26c-1.21,0.04-2.42,0.08-3.63,0.12c0.18,3.9,0.34,7.8,0.54,11.71 c0.71-0.03,1.42-0.06,2.13-0.09c-0.07,0.75-0.13,1.51-0.2,2.26c-0.6,0.02-1.21,0.05-1.81,0.07c0.18,3.67,0.39,7.34,0.58,11.01 c0.06,0,0.12-0.01,0.17-0.01c-0.51,5.14-1.05,10.28-1.61,15.41c-0.24-4.34-0.46-8.69-0.69-13.03c-4.69,0.26-9.39,0.52-14.08,0.79 c0.09,4.87,0.18,9.73,0.26,14.6c4.76-0.12,9.53-0.24,14.29-0.36c-0.08,0.75-0.16,1.5-0.24,2.26c-4.67,0.12-9.34,0.24-14,0.36 c0.07,3.83,0.14,7.65,0.21,11.48c0.27-0.01,0.54-0.02,0.8-0.03c-0.93,1.02-1.9,1.97-3.01,2.77c0-0.13,0-0.26-0.01-0.4 c-3.76,0.16-7.52,0.31-11.27,0.47c0.02,0.75,0.04,1.51,0.05,2.26c-0.31-0.02-0.62-0.04-0.92-0.07c-0.2-7.41,0.36-14.82,0.02-22.23 c-0.61-13.77-0.39-27.59-1.58-41.33c-0.63-7.26-1.18-14.52-1.76-21.79c-0.05-2.1-0.1-4.2-0.15-6.31c-0.12,0-0.25,0.01-0.37,0.01 c-0.06-0.75-0.12-1.5-0.19-2.24c0.17-0.01,0.34-0.01,0.5-0.02c-0.1-4.33-0.2-8.67-0.3-13c-0.48,0.02-0.95,0.05-1.43,0.07 c-0.08-0.75-0.15-1.49-0.23-2.24c0.54-0.03,1.07-0.05,1.61-0.08c-0.11-4.92-0.23-9.84-0.34-14.76c-0.95,0.05-1.91,0.09-2.86,0.14 c-0.09-0.75-0.18-1.49-0.26-2.24c1.02-0.05,2.05-0.1,3.07-0.15c-0.11-4.6-0.21-9.19-0.32-13.79c-1.49,0.08-2.99,0.16-4.48,0.24 c-0.1-0.74-0.2-1.49-0.31-2.23c1.58-0.09,3.16-0.17,4.74-0.26c-0.08-3.48-0.16-6.97-0.24-10.45c-2.02,0.07-4.04,0.13-6.05,0.2 c-0.12-0.75-0.24-1.49-0.36-2.24c2.12-0.07,4.24-0.14,6.36-0.21c-0.07-3.11-0.14-6.22-0.22-9.33c-2.59,0.05-5.17,0.11-7.76,0.16 c-0.14-0.75-0.28-1.49-0.42-2.24c2.71-0.06,5.42-0.11,8.12-0.17c-0.08-3.54-0.16-7.08-0.25-10.62c-3.13,0.08-6.25,0.17-9.38,0.25 c0.01,1,0.02,2.01,0.02,3.01c-0.65-3.13-1.33-6.26-2.05-9.38c0.67-0.29,1.34-0.61,2-0.92c0.01,1.68,0.01,3.36,0.02,5.05 c3.11-0.08,6.23-0.17,9.34-0.25c-0.07-3.2-0.15-6.4-0.22-9.61c1.81-1.05,3.61-2.13,5.4-3.23c3.01-0.03,6.02-0.06,9.03-0.09 c0-0.03,0-0.07,0-0.1c0.67,1.51,1.45,2.97,2.33,4.36c0.05,2.73,0.1,5.47,0.15,8.2c2.22-0.06,4.45-0.12,6.67-0.18 c0.85,0.76,1.73,1.48,2.64,2.18c-3.09,0.08-6.18,0.17-9.27,0.25c0.06,3.58,0.13,7.15,0.19,10.73c3.85-0.08,7.7-0.16,11.55-0.24 c-0.06-3.03-0.12-6.05-0.17-9.08c0.74,0.5,1.5,0.97,2.28,1.42c0.05,2.54,0.09,5.07,0.14,7.61c2.52-0.05,5.04-0.1,7.57-0.16 c0.05,0.75,0.09,1.5,0.14,2.25c-2.55,0.05-5.1,0.11-7.65,0.16c0.06,2.98,0.14,5.96,0.22,8.95c2.65-0.09,5.3-0.18,7.96-0.27 c0.04,0.75,0.08,1.5,0.12,2.25c-2.67,0.09-5.35,0.18-8.02,0.27c0.08,3.27,0.15,6.54,0.24,9.81c2.75-0.15,5.49-0.3,8.24-0.45 c0.03,0.75,0.07,1.5,0.1,2.24c-2.76,0.15-5.52,0.3-8.28,0.45c0.13,4.66,0.28,9.32,0.42,13.98c2.76-0.13,5.51-0.27,8.27-0.4 c0.02,0.75,0.03,1.5,0.04,2.25c-2.75,0.13-5.49,0.26-8.24,0.4c0.15,4.92,0.29,9.85,0.46,14.77c2.62-0.12,5.24-0.25,7.85-0.37 C129.5,341.96,129.49,342.71,129.48,343.47z M118.15,298.61c-3.88,0.13-7.75,0.26-11.63,0.39c0.06,3.37,0.12,6.74,0.18,10.1 c3.89-0.21,7.79-0.43,11.68-0.64C118.3,305.18,118.23,301.9,118.15,298.61z M106.32,287.63c0.03,1.86,0.07,3.71,0.1,5.57 c0.02,1.18,0.04,2.37,0.06,3.55c3.87-0.13,7.74-0.26,11.62-0.39c-0.07-2.99-0.15-5.98-0.22-8.97 C114.03,287.47,110.17,287.55,106.32,287.63z M91.61,272.8c4.06-0.11,8.13-0.22,12.19-0.33c-0.06-3.43-0.12-6.85-0.19-10.28 c-4.08,0.04-8.16,0.08-12.25,0.12C91.44,265.8,91.52,269.3,91.61,272.8z M91.91,285.68c4.04-0.08,8.08-0.17,12.12-0.25 c-0.06-3.57-0.13-7.14-0.19-10.71c-4.06,0.11-8.12,0.22-12.18,0.33C91.74,278.59,91.82,282.13,91.91,285.68z M92.17,297.23 c4.02-0.13,8.04-0.27,12.06-0.4c-0.06-3.05-0.11-6.1-0.17-9.15c-4.04,0.08-8.07,0.17-12.11,0.25 C92.03,291.03,92.1,294.13,92.17,297.23z M92.47,309.88c4-0.22,7.99-0.44,11.99-0.65c-0.06-3.38-0.12-6.77-0.18-10.15 c-4.02,0.13-8.03,0.27-12.05,0.4C92.31,302.94,92.39,306.41,92.47,309.88z M92.84,325.93c3.97-0.19,7.94-0.38,11.91-0.57 c-0.08-4.63-0.17-9.26-0.25-13.88c-3.99,0.22-7.99,0.44-11.98,0.65C92.63,316.73,92.73,321.33,92.84,325.93z M93.24,342.93 c3.94-0.19,7.88-0.37,11.82-0.56c-0.09-4.92-0.18-9.85-0.27-14.77c-3.97,0.19-7.93,0.38-11.9,0.57 C93.01,333.1,93.12,338.02,93.24,342.93z M93.59,358.21c3.92-0.15,7.83-0.31,11.75-0.46c-0.08-4.38-0.16-8.75-0.24-13.13 c-3.94,0.19-7.87,0.37-11.81,0.56C93.39,349.52,93.49,353.86,93.59,358.21z M93.92,372.15c3.89-0.16,7.78-0.32,11.67-0.48 c-0.07-3.89-0.14-7.78-0.21-11.68c-3.91,0.15-7.82,0.3-11.73,0.46C93.74,364.35,93.83,368.25,93.92,372.15z M94.32,389.5 c3.86-0.13,7.72-0.26,11.59-0.4c-0.09-5.06-0.18-10.12-0.27-15.18c-3.89,0.16-7.77,0.32-11.66,0.48 C94.09,379.43,94.2,384.47,94.32,389.5z M94.65,403.65c3.84-0.16,7.67-0.31,11.51-0.47c-0.07-3.94-0.14-7.89-0.21-11.83 c-3.86,0.13-7.72,0.26-11.57,0.4C94.46,395.71,94.56,399.68,94.65,403.65z M106.41,416.74c-0.07-3.77-0.14-7.54-0.2-11.31 c-3.83,0.16-7.67,0.31-11.5,0.47c0.09,3.83,0.18,7.65,0.27,11.48C98.78,417.17,102.59,416.95,106.41,416.74z M95.35,433.81 c3.79-0.1,7.57-0.19,11.36-0.29c-0.09-4.84-0.18-9.69-0.26-14.53c-3.81,0.21-7.62,0.43-11.43,0.64 C95.13,424.35,95.24,429.08,95.35,433.81z M106.96,447.28c-0.02-0.97-0.04-1.94-0.05-2.91c-0.05-2.87-0.1-5.73-0.16-8.6 c-3.78,0.1-7.57,0.19-11.35,0.29c0.09,3.9,0.18,7.8,0.27,11.7C99.44,447.6,103.2,447.44,106.96,447.28z M118.87,324.68 c-0.14-4.66-0.3-9.31-0.42-13.97c-3.9,0.21-7.8,0.43-11.7,0.64c0.08,4.63,0.17,9.27,0.25,13.9 C110.96,325.06,114.91,324.87,118.87,324.68z M107.31,342.27c4.03-0.19,8.06-0.38,12.09-0.57c-0.17-4.92-0.31-9.85-0.46-14.77 c-3.97,0.19-7.93,0.38-11.9,0.57C107.13,332.42,107.22,337.34,107.31,342.27z M107.59,357.66c4.13-0.16,8.27-0.32,12.4-0.48 c-0.17-4.41-0.35-8.82-0.51-13.24c-4.04,0.19-8.09,0.38-12.13,0.58C107.43,348.9,107.51,353.28,107.59,357.66z M107.84,371.58 c4.23-0.17,8.46-0.35,12.69-0.52c-0.16-3.88-0.3-7.76-0.45-11.64c-4.15,0.16-8.3,0.32-12.45,0.49 C107.7,363.8,107.77,367.69,107.84,371.58z M108.15,389.02c4.39-0.15,8.77-0.3,13.16-0.45c-0.23-5.09-0.48-10.18-0.7-15.27 c-4.25,0.17-8.49,0.35-12.74,0.52C107.97,378.89,108.06,383.96,108.15,389.02z M122.07,404.79c-4.54,0.18-9.08,0.37-13.62,0.55 c0.07,3.76,0.14,7.52,0.2,11.27c4.67-0.26,9.33-0.52,14-0.78C122.46,412.15,122.25,408.47,122.07,404.79z M121.42,390.82 c-4.41,0.15-8.81,0.3-13.22,0.45c0.07,3.94,0.14,7.88,0.21,11.82c4.51-0.18,9.03-0.37,13.54-0.55 C121.76,398.63,121.6,394.73,121.42,390.82z M77.78,283.19c0.04-1.27,0.07-2.53,0.11-3.8c0-0.08,0.03-0.13,0.05-0.2 c-0.06-0.28-0.12-0.56-0.18-0.85C77.76,279.95,77.77,281.57,77.78,283.19z M66.63,286.2c3.69-0.08,7.38-0.15,11.08-0.23 c-0.02,0.75-0.04,1.5-0.06,2.25c-3.67,0.08-7.35,0.15-11.03,0.23c-0.02,3.21-0.04,6.42-0.05,9.63c3.6-0.12,7.19-0.24,10.79-0.36 c-0.02,0.75-0.05,1.5-0.07,2.25c-3.58,0.12-7.15,0.24-10.73,0.36c-0.01,1.46-0.02,2.91-0.02,4.37c-0.01,2.2-0.02,4.4-0.04,6.6 c3.47-0.19,6.95-0.38,10.42-0.57c-0.03,0.75-0.05,1.5-0.08,2.25c-3.45,0.19-6.9,0.38-10.36,0.57c-0.02,4.55-0.05,9.1-0.07,13.65 c3.29-0.16,6.58-0.32,9.88-0.48c-0.03,0.75-0.07,1.5-0.1,2.25c-3.26,0.16-6.53,0.31-9.79,0.47c-0.03,4.92-0.05,9.84-0.08,14.76 c3.05-0.14,6.1-0.29,9.15-0.43c-0.04,0.75-0.08,1.5-0.12,2.26c-3.02,0.14-6.03,0.29-9.05,0.43c-0.02,4.27-0.05,8.54-0.07,12.81 c2.79-0.11,5.58-0.22,8.36-0.33c-0.05,0.75-0.1,1.5-0.15,2.26c-2.74,0.11-5.48,0.21-8.22,0.32c-0.02,3.92-0.04,7.85-0.06,11.77 c2.49-0.1,4.98-0.2,7.47-0.31c-0.06,0.75-0.11,1.5-0.17,2.26c-2.44,0.1-4.88,0.2-7.31,0.3c-0.03,4.97-0.05,9.95-0.08,14.92 c2.05-0.07,4.11-0.14,6.16-0.21c-0.07,0.75-0.13,1.5-0.2,2.26c-1.99,0.07-3.98,0.14-5.98,0.2c-0.02,4.03-0.04,8.07-0.07,12.1 c1.62-0.07,3.24-0.13,4.86-0.2c-0.08,0.75-0.16,1.51-0.24,2.26c-1.54,0.06-3.08,0.13-4.63,0.19c-0.02,3.98-0.04,7.96-0.07,11.94 c1.11-0.06,2.23-0.12,3.34-0.19c-0.09,0.76-0.18,1.51-0.27,2.27c-1.03,0.06-2.06,0.11-3.08,0.17c-0.02,4.44-0.05,8.87-0.07,13.31 c0.47-0.01,0.94-0.02,1.41-0.04c-0.1,0.75-0.2,1.51-0.3,2.26c-0.37,0.01-0.75,0.02-1.12,0.03c-0.01,2.59-0.03,5.18-0.04,7.77 c-0.73,4.79-1.49,9.59-2.31,14.37c-0.01,0-0.01,0.01-0.02,0.01c0.01-2.54,0.03-5.08,0.04-7.63c-3.64,0.15-7.28,0.3-10.93,0.45 c0.04,1.96,0.09,3.92,0.12,5.87c-0.78-0.27-1.54-0.58-2.29-0.92c-0.03-1.62-0.08-3.24-0.1-4.86c-2.29,0.1-4.59,0.19-6.88,0.29 c-0.01-0.01-0.02-0.02-0.03-0.03c-1.36-1.21-2.57-2.45-3.85-3.5c-0.11-3.72-0.21-7.44-0.3-11.16c-1.72,0.04-3.44,0.09-5.15,0.13 c0.04-0.75,0.09-1.5,0.13-2.25c1.65-0.04,3.31-0.08,4.96-0.13c-0.1-4.16-0.19-8.32-0.27-12.48c-1.36,0.08-2.72,0.15-4.08,0.23 c0.03-0.75,0.05-1.5,0.08-2.25c1.32-0.07,2.63-0.15,3.95-0.22c-0.08-4.11-0.14-8.23-0.2-12.34c-1.11,0.05-2.22,0.09-3.32,0.14 c0.02-0.75,0.04-1.5,0.06-2.25c1.08-0.04,2.15-0.09,3.23-0.13c-0.06-4.09-0.1-8.18-0.14-12.27c-0.95,0.03-1.91,0.07-2.86,0.1 c0.01-0.75,0.02-1.5,0.03-2.25c0.94-0.03,1.87-0.06,2.81-0.1c-0.04-4.91-0.07-9.82-0.09-14.73c-0.91,0.04-1.81,0.07-2.72,0.11 c-0.01-0.75-0.03-1.5-0.04-2.25c0.91-0.04,1.83-0.08,2.74-0.11c-0.01-3.94-0.01-7.88-0.01-11.83c-1,0.04-1.99,0.08-2.99,0.12 c-0.02-0.75-0.05-1.5-0.07-2.25c1.02-0.04,2.04-0.08,3.06-0.12c0.01-4.19,0.03-8.38,0.06-12.57c-1.2,0.06-2.4,0.11-3.6,0.17 c-0.03-0.75-0.07-1.5-0.1-2.25c1.24-0.06,2.47-0.12,3.71-0.18c0.03-4.91,0.08-9.83,0.14-14.74c-1.51,0.07-3.03,0.15-4.54,0.22 c-0.03-0.75-0.07-1.5-0.1-2.24c1.56-0.07,3.12-0.15,4.67-0.22c0.06-4.49,0.13-8.99,0.21-13.48c-1.81,0.1-3.63,0.2-5.44,0.3 c-0.03-0.75-0.06-1.5-0.08-2.25c1.85-0.1,3.7-0.2,5.56-0.3c0.07-3.85,0.16-7.71,0.24-11.56c-2.04,0.07-4.07,0.14-6.11,0.2 c-0.01-0.75-0.02-1.5-0.03-2.25c2.06-0.07,4.12-0.14,6.18-0.21c0.08-3.33,0.17-6.65,0.26-9.98c-2.16,0.04-4.32,0.09-6.48,0.13 c0-0.75,0.01-1.5,0.02-2.25c2.17-0.04,4.35-0.09,6.52-0.13c0.1-3.44,0.2-6.87,0.31-10.31c-2.19,0.06-4.38,0.12-6.58,0.18 c0.03-0.75,0.06-1.5,0.09-2.25c2.19-0.06,4.37-0.12,6.56-0.18c0.02-0.68,0.05-1.36,0.07-2.04c0.74,0.21,1.48,0.41,2.23,0.59 c-0.02,0.47-0.03,0.93-0.05,1.4c2.37-0.06,4.75-0.13,7.12-0.19c4.45,0.44,8.95,0.32,13.42-0.36c0.62-0.02,1.25-0.03,1.87-0.05 c0-0.09,0-0.18,0-0.27c0.75-0.14,1.5-0.3,2.25-0.47c0,0.23,0,0.46,0,0.69c3.32-0.09,6.64-0.18,9.95-0.27 c0.17,0.75,0.33,1.49,0.49,2.24c-3.49,0.09-6.97,0.19-10.46,0.28C66.67,279.21,66.65,282.71,66.63,286.2z M41.04,312.69 c3-0.16,6.01-0.33,9.01-0.49c0.06-3.77,0.1-7.55,0.17-11.32c-2.98,0.1-5.96,0.2-8.93,0.3C41.2,305.01,41.11,308.85,41.04,312.69z M40.79,328.43c3.02-0.15,6.03-0.29,9.05-0.44c0.05-4.52,0.12-9.03,0.18-13.55c-3.01,0.16-6.01,0.33-9.02,0.49 C40.93,319.44,40.85,323.94,40.79,328.43z M40.63,345.43c3.02-0.14,6.05-0.29,9.07-0.43c0.03-4.92,0.08-9.83,0.13-14.75 c-3.02,0.15-6.04,0.29-9.05,0.44C40.71,335.6,40.66,340.52,40.63,345.43z M40.56,360.27c3.02-0.12,6.04-0.24,9.06-0.35 c0.01-4.22,0.03-8.45,0.05-12.67c-3.02,0.14-6.04,0.29-9.06,0.43C40.59,351.88,40.57,356.08,40.56,360.27z M40.56,374.34 c3.01-0.12,6.01-0.25,9.02-0.37c0-3.93,0.02-7.87,0.03-11.8c-3.02,0.12-6.04,0.24-9.06,0.35C40.55,366.46,40.55,370.4,40.56,374.34z M40.67,391.33c2.99-0.1,5.97-0.2,8.96-0.31c-0.02-4.94-0.04-9.87-0.05-14.81c-3,0.12-6,0.25-9,0.37 C40.59,381.51,40.63,386.42,40.67,391.33z M40.83,405.84c2.95-0.12,5.91-0.24,8.86-0.36c-0.03-4.07-0.05-8.13-0.07-12.2 c-2.98,0.1-5.96,0.2-8.94,0.31C40.73,397.67,40.78,401.75,40.83,405.84z M41.07,420.39c2.92-0.16,5.84-0.33,8.76-0.49 c-0.04-4.06-0.08-8.12-0.11-12.17c-2.95,0.12-5.9,0.24-8.85,0.36C40.93,412.19,41,416.29,41.07,420.39z M41.4,435.18 c2.87-0.07,5.75-0.15,8.62-0.22c-0.06-4.27-0.12-8.54-0.17-12.81c-2.91,0.16-5.82,0.33-8.73,0.49 C41.21,426.82,41.29,431,41.4,435.18z M50.24,449.64c-0.07-4.14-0.13-8.28-0.19-12.43c-2.87,0.07-5.73,0.15-8.6,0.22 c0.11,4.19,0.21,8.37,0.34,12.56C44.61,449.87,47.42,449.76,50.24,449.64z M50.46,288.78c-2.96,0.06-5.91,0.12-8.87,0.18 c-0.09,3.32-0.18,6.64-0.26,9.95c2.97-0.1,5.95-0.2,8.92-0.3C50.32,295.34,50.39,292.06,50.46,288.78z M50.72,276.16 c-2.92,0.08-5.84,0.16-8.76,0.24c-0.11,3.44-0.21,6.88-0.31,10.32c2.95-0.06,5.9-0.12,8.86-0.18 C50.58,283.07,50.64,279.61,50.72,276.16z M63.55,436.87c-3.75,0.1-7.5,0.19-11.25,0.29c0.06,4.13,0.13,8.26,0.21,12.39 c3.66-0.15,7.32-0.3,10.98-0.46C63.51,445.02,63.53,440.94,63.55,436.87z M63.64,421.38c-3.84,0.21-7.68,0.43-11.52,0.64 c0.05,4.29,0.09,8.59,0.15,12.88c3.77-0.1,7.53-0.19,11.3-0.29C63.59,430.21,63.61,425.79,63.64,421.38z M63.71,407.16 c-3.92,0.16-7.84,0.32-11.76,0.48c0.03,4.05,0.09,8.09,0.13,12.14c3.85-0.22,7.71-0.43,11.56-0.65 C63.67,415.14,63.69,411.15,63.71,407.16z M63.79,392.79c-3.97,0.14-7.94,0.27-11.91,0.41c0.02,4.06,0.03,8.12,0.06,12.19 c3.93-0.16,7.85-0.32,11.78-0.48C63.75,400.87,63.77,396.83,63.79,392.79z M63.89,375.64c-4.02,0.16-8.03,0.33-12.05,0.49 c0,4.94,0.02,9.88,0.04,14.82c3.98-0.14,7.95-0.27,11.93-0.41C63.83,385.57,63.86,380.6,63.89,375.64z M63.96,361.61 c-4.04,0.16-8.07,0.31-12.11,0.47c-0.01,3.93-0.01,7.87-0.01,11.8c4.02-0.16,8.04-0.33,12.06-0.49 C63.92,369.46,63.94,365.53,63.96,361.61z M64.05,346.57c-4.04,0.19-8.08,0.38-12.12,0.57c-0.03,4.23-0.06,8.46-0.07,12.69 c4.04-0.16,8.08-0.31,12.12-0.47C64,355.1,64.02,350.83,64.05,346.57z M64.14,329.56c-4.03,0.19-8.05,0.39-12.08,0.58 c-0.05,4.92-0.08,9.83-0.11,14.75c4.04-0.19,8.07-0.38,12.11-0.57C64.09,339.4,64.11,334.48,64.14,329.56z M64.23,313.67 c-3.99,0.22-7.97,0.44-11.96,0.65c-0.06,4.52-0.13,9.04-0.18,13.56c4.02-0.19,8.04-0.39,12.06-0.58 C64.18,322.76,64.2,318.22,64.23,313.67z M64.3,300.41c-3.94,0.13-7.88,0.26-11.82,0.39c-0.03,1.86-0.08,3.71-0.11,5.57 c-0.03,1.9-0.05,3.8-0.07,5.7c3.98-0.22,7.96-0.43,11.94-0.65C64.26,307.75,64.28,304.08,64.3,300.41z M64.36,288.5 c-3.88,0.08-7.77,0.16-11.65,0.24c-0.07,3.27-0.13,6.54-0.19,9.81c3.93-0.13,7.86-0.26,11.79-0.39 C64.33,294.94,64.35,291.72,64.36,288.5z M64.43,275.78c-3.82,0.1-7.64,0.21-11.47,0.31c-0.08,3.46-0.14,6.93-0.21,10.39 c3.87-0.08,7.75-0.16,11.62-0.24C64.4,282.76,64.41,279.27,64.43,275.78z M126.86,273.49c-0.36,0.22-0.73,0.43-1.11,0.63 c0.38-0.01,0.77-0.02,1.15-0.03C126.89,273.89,126.88,273.69,126.86,273.49z"
      style="fill: rgb(247, 247, 247);" />
  </g>
  <g id="__id18_s2pplbyhko">
    <path
      d="M149.59,204.12c0.08,6.84-0.2,13.69-0.67,20.51c-0.39,5.67-0.6,11.51-2.26,16.99 c-3.06,10.09-9.73,22.26-19.13,28.79c-0.29,0.05-0.54,0.21-0.69,0.47c-2.21,1.45-4.56,2.58-7.04,3.31 c-0.19,0.06-0.35,0.15-0.47,0.26c-6.91-4.51-12.51-10.89-15-18.85c-1.13-6.64,3.92-14.62,6.77-20.31 c3.13-6.24,7.02-12.06,9.44-18.64c4.74-12.91,6.67-27.78,5.15-41.46c-0.16-1.42-2.41-1.44-2.25,0c0.59,5.29,0.68,10.84,0.29,16.41 c-1.85-20.48-4.5-40.98-8.54-61.12c-0.28-1.42-2.45-0.82-2.17,0.6c4.62,23.1,7.43,46.67,9.27,70.15c0.02,0.19,0.07,0.35,0.15,0.49 c-1.23,6.66-3.22,13.12-6.01,18.98c-3.14,6.59-7.08,12.76-10.15,19.42c-0.79,1.73-1.67,3.57-2.42,5.47 c-0.16,0.01-0.33,0.06-0.5,0.16c-11.17,6.49-22.05,14.49-34.39,18.62c-11.87,3.97-25.58,2.96-36.71-2.78 c-7.4-8.47-4.24-20.55-2.51-30.45c1.53-8.74,2.69-17.55,3.48-26.39c1.71-19.12,1.61-38.33-0.13-57.44c-0.13-1.43-2.38-1.44-2.25,0 c1.92,21.05,1.83,42.24-0.44,63.26c-0.54,4.97-1.35,9.89-2.2,14.81c-3.29-23.86-5.47-47.92-4.41-72.01 c0.55-12.55,1.5-25.61,4.58-37.82c1.66-6.6,5.01-10.73,10.72-14.34c2.52-1.59,5.07-3.12,7.61-4.67c1.77,9.31,5.22,18.1,10.29,26.14 c4.26,6.75,9.94,15.49,18.7,16.28c7.76,0.7,11.76-5.57,14.45-11.85c4.73-11.03,9.31-22.13,13.96-33.2c3.75,1.29,7.5,2.58,11.03,4.35 c6.77,3.41,10.79,8.8,14.12,15.47c7.18,14.38,11.2,30.2,14.19,45.92C146.28,174.29,149.43,189.18,149.59,204.12z"
      style="fill: rgb(240, 193, 225);" />
  </g>
  <g id="__id19_s2pplbyhko">
    <path
      d="M58.13,52.15c-2.86-0.85-2.69-4.39-1.6-6.74c-1.87,0.05-3.78,1.53-4.12,3.73c-0.22,1.43-2.39,0.82-2.17-0.6 c0.84-5.5,8.52-7.5,11.3-2.46c0.06,0.07,0.11,0.16,0.16,0.26c0.61,1.43,0.73,3.01-0.11,4.38C60.87,51.87,59.45,52.55,58.13,52.15z M157.19,479.23c-4.79,2.68-10.32,1.21-15.22-0.35c-6.24-1.99-12.41-4.2-18.47-6.69c-10.94-4.5-21.93-9.9-30.54-18.17 c-0.28-0.27-0.37-0.57-0.33-0.86c-0.27-7.73,0.35-15.46,0-23.18c-0.59-13.45-0.39-26.95-1.5-40.38c-1.07-12.93-1.93-25.86-3.22-38.8 c-2.05-20.63-4.35-41.24-8.05-61.63c-1.68,57.53-4.59,115.18-14.5,171.96c-0.17,0.97-1.21,0.99-1.79,0.46 c-10.27,6.91-19.58,15.33-30.65,20.99c-5.21,2.66-10.79,4.66-16.63,5.31c-3.73,0.42-11.06,1.29-13.7-2.1 c-5.59-7.19-1.17-17.29,4.37-22.86c4.02-4.04,8.78-7.14,13.67-10.04c0.11-0.11,0.24-0.19,0.39-0.23c3.43-2.02,6.91-3.95,10.26-6.04 c1.96-30.43,2.79-61.2,1.55-91.68c-1.18-28.97-3.37-57.83-1.52-86.82c-1.07-1.51-1.45-3.55-0.96-5.37 c-4.63-5.65-5.58-13.56-4.72-20.63c0.4-3.26,0.9-6.51,1.45-9.75c-0.06-0.11-0.12-0.23-0.14-0.38c-4.05-27.94-6.87-56.18-5.01-84.43 c0.46-6.96,1.19-13.89,2.22-20.79c0.8-5.36,1.45-11.01,3.49-16.07c4.22-10.42,16.13-14.74,25.02-20.5c0.1-3.21,2.13-6.12,5.64-5.34 c0.89-1.79,1.69-3.86,1.42-5.84c-0.03-0.23,0.01-0.43,0.09-0.61c-6.76-3.18-10.44-9.38-12.34-16.65c-3.5-0.09-5.72-2.72-6.62-5.86 c-5.47-4.48-6.83-12.99-4.04-19.39c-1.46,0.11-2.91,0.21-4.37,0.32c-1.12,0.08-1.52-1.59-0.57-2.1c6.32-3.38,7.56-10.84,11.61-16.2 c3.75-4.96,8.9-8.28,14.77-10.11c1.2-6.14,8.48-8.76,14.22-8.4c0.96,0.06,1.47,1.15,0.82,1.89c3.22-0.58,6.58,0.05,9.84,1.31 c7,2.69,13.72,6.43,20.49,9.66c0.56,0.27,0.68,1.04,0.4,1.54c-1.1,1.95-2.92,3.34-5,3.95c9.24,7.5,5.72,23.4,10.52,33.33 c0.39,0.8-0.27,2.02-1.27,1.65c-1.02-0.38-1.96-0.89-2.92-1.36c0.02,6.51-2.94,11.11-10.07,11.87c-0.62,0.07-1.04-0.49-1.1-1.04 c-0.97,0.43-1.93,0.85-2.89,1.3c-0.85,2.26-1.96,4.38-3.3,6.29c0.01,0.08,0.04,0.15,0.04,0.24c-0.15,4.23,0.2,8.44,2.16,12.23 c4.35-0.37,9.07,0.73,8.41,6.22c-0.02,0.13-0.05,0.26-0.07,0.39c6.86,2.67,14.29,4.43,20.56,8.36c6.69,4.2,10.4,10.78,13.62,17.78 c7.34,15.94,11.22,33.15,14.22,50.36c2.77,15.9,5.31,31.14,4.82,47.33c-0.38,12.75-0.64,25.61-6.23,37.3 c-3.7,7.74-9.19,16.15-16.5,21.43c1.85,25.24,3.15,50.51,2.67,75.83c-0.56,29.71-3.3,59.34-6.58,88.86 c5.68,2.69,11.16,5.77,16.42,9.2c0.07,0.04,0.14,0.08,0.2,0.13c4.81,3.15,9.43,6.6,13.83,10.32 C162.37,462.18,167.25,473.61,157.19,479.23z M140.78,448.2c-4.98,1.5-9.76,6.3-11.64,11.12c8.42,2.67,16.77,2.9,20.58-4.72 c-0.89-0.65-1.77-1.29-2.61-1.92C145.03,451.12,142.92,449.63,140.78,448.2z M136.6,445.52c-6.5-0.09-11.4,5.87-12.84,11.79 c1.08,0.45,2.17,0.89,3.26,1.29c1.93-4.92,6.39-9.78,11.41-11.94C137.82,446.27,137.21,445.9,136.6,445.52z M123.72,438.56 c-5.94,0.57-9.37,7.59-13.6,11.82c2.92,1.64,7.03,3.96,11.56,6.02c1.5-5.77,5.93-11.31,11.77-12.75 C130.29,441.82,127.05,440.13,123.72,438.56z M129.43,326.42c0.04,2.3,0.06,4.6,0.08,6.9C129.49,331.02,129.46,328.72,129.43,326.42 z M128.97,310.14c0.06,1.58,0.11,3.16,0.16,4.73C129.08,313.29,129.04,311.72,128.97,310.14z M129.22,317.5 c0.06,2.22,0.12,4.44,0.16,6.67C129.34,321.95,129.29,319.73,129.22,317.5z M90.15,85.13c-3.1,4.25-6.07,8.59-9.1,12.9 c-0.44,0.63-1.01,1.63-1.67,2.7c1.02-0.15,2.05,0.01,3.08,0.69c3.15,2.09,2.45,6.24,3.91,9.32c1.93-3.47,3.75-7,5.43-10.6 C93.7,96.05,100.3,83.99,90.15,85.13z M72.14,116.09c0.85,0.94,2.21,1.28,3.42,1.15c1.12-0.12,2.26-0.75,2.87-1.71 c0.81-1.27,0.45-2.35-0.98-2.51c-0.62,0.3-1.33,0.48-2.15,0.51c-0.86,0.03-1.64-0.12-2.36-0.39C71.39,113.39,71.15,115,72.14,116.09 z M73.49,110.89c0.07,0.02,0.13,0.05,0.19,0.08c1.02,0.4,2.17,0.35,3.46-0.46c1.98-1.25,2.9-4.36,4.31-6.26 c-1.66-1.56-3.34-0.83-4.85,0.19c-0.51,0.5-1.04,0.89-1.58,1.14c-0.15,0.1-0.3,0.15-0.44,0.16c-0.2,0.06-0.4,0.1-0.61,0.11 c-0.65,0.03-1.26-0.18-1.83-0.53c-0.09-0.03-0.18-0.08-0.28-0.15c-0.75-0.54-1.32-1.07-1.84-1.68c-0.39,0.61-0.74,1.24-1.08,1.88 c0.01,0.02,0.02,0.03,0.04,0.05C69.98,107.37,71.48,109.98,73.49,110.89z M71.1,128.59c0.94,0.59,1.93,1.04,2.97,1.27 c2.36,0.53,4.27-0.01,5.86-1.19c-1.06-3.13-2.13-6.26-3.19-9.4c-0.43,0.12-0.86,0.21-1.3,0.24c-0.66,0.04-1.35-0.03-2.02-0.21 C71.86,122.27,71.12,125.26,71.1,128.59z M81.71,126.93c3.06-3.76,4.64-10.05,6.01-14c-0.1,0.18-0.2,0.36-0.3,0.55 c-0.34,0.6-1.29,0.78-1.77,0.23c-1.16-1.35-1.71-2.57-2.14-4.29c-0.23-0.93-0.14-2.24-0.59-3.09c-0.04-0.07-0.07-0.12-0.11-0.18 c-1.15,1.63-2.04,3.68-3.33,5.21c1.24,0.7,2,1.97,1.6,3.71c-0.31,1.35-1.18,2.47-2.31,3.25C79.76,121.19,80.74,124.06,81.71,126.93z M85.77,73.18c-5.82,6.35-14.45,9.39-23.82,6.1c0.1,2.39-0.7,4.66-1.77,6.8c2.19,2.9,4.36,5.82,6.52,8.74c2,2.7,5.37,9.88,9.48,6.19 c2.59-2.33,4.53-6.42,6.52-9.27c1.82-2.6,3.64-5.2,5.52-7.77C86.48,80.61,85.85,76.93,85.77,73.18z M46.91,59.45 c-0.72-3.46-1.09-7.09-1.24-10.72c-1.61-0.45-2.51,0.01-2.68,1.39c-0.16,0.49-0.26,0.99-0.3,1.5c-0.14,1.04-0.13,2.05,0.1,3.07 c0.09,0.16,0.14,0.32,0.13,0.48C43.51,57.22,44.83,59.07,46.91,59.45z M78.43,76.41c7.15-3.34,10.77-10.67,12.14-18.08 c0.1-0.53,0.47-0.78,0.87-0.81c3.2-0.8,6.29-2.2,7.45-5.56c0.61-1.77,0.68-3.8,0.12-5.59c-0.72-2.27-4.18-5.6-5.93-2.04 c-0.23,0.47-0.63,0.62-1.01,0.56c-2.6,0.29-5.24-0.27-7.69-1.37c0.53,0.43,1.01,0.99,1.39,1.68c0.06,0.07,0.11,0.16,0.16,0.26 c0.61,1.43,0.73,3.01-0.11,4.38c-0.71,1.15-2.13,1.83-3.45,1.43c-2.86-0.85-2.69-4.39-1.6-6.74c-1.87,0.05-3.78,1.53-4.12,3.73 c-0.22,1.43-2.39,0.82-2.17-0.6c0.6-3.92,4.68-6.06,7.98-5.14c-2.61-1.55-4.9-3.72-6.58-6.16c0.02,0.83,0.03,1.66,0.05,2.48 c0.47,1.02-0.49,2.07-1.54,1.54c-5.43-2.75-9.14-7.6-10.42-13.26c-1.52,3.1-3.15,6.16-5.09,8.93c0.66,0.16,1.31,0.4,1.96,0.72 c1.3,0.65,0.16,2.59-1.14,1.94c-0.76-0.38-1.55-0.59-2.33-0.67c-2.49,3.1-5.49,5.72-9.31,7.45c0.1,3.13,0.34,6.26,0.79,9.39 c1.08,7.6,2.91,15.98,9.85,20.39C64.46,78.94,72.26,79.29,78.43,76.41z M56.11,94.26c0.54,0.87,1.06,1.74,1.58,2.62 c0.99,1.77,1.85,3.6,2.69,5.45c1.3,2.85,2.52,5.71,3.96,8.48c0.95-3.33,2.42-6.55,4.37-9.38c-0.4-0.61-0.76-1.17-1.08-1.6 c-3.09-4.15-6.15-8.31-9.27-12.44C54.71,89.25,53.96,91.54,56.11,94.26z M54.76,96.7c1.12,5.49,2.8,10.83,5.2,15.93 c1.95,4.14,4.92,10.49,8.96,14.27c0.23-3,1.05-5.8,2.46-8.53c-1.08-0.74-1.91-1.81-2.14-3.13c-0.26-1.48,0.4-2.7,1.45-3.48 c-1.19-1.06-2.15-2.46-2.95-3.87c-0.85,2.03-1.49,4.15-1.9,6.3c-0.19,0.98-1.59,1.05-2.06,0.27c-2.22-3.74-3.85-7.76-5.67-11.7 C57.17,100.7,55.88,98.73,54.76,96.7z M48.78,95.29c1.39,7.72,3.91,15.07,7.68,21.98c3.84,7.03,9.61,17.44,18.09,19.24 c10.82,2.29,14.16-11.65,17.29-19.07c3.4-8.08,6.8-16.17,10.2-24.25c-1.25-0.44-2.5-0.89-3.73-1.36c-0.06,0.01-0.12,0.04-0.19,0.04 c-0.05,0-0.09-0.02-0.14-0.03c-0.02,0.07-0.04,0.14-0.06,0.21c0.01,0.15,0,0.31-0.07,0.49c-3.7,9.78-7.28,19.61-11.11,29.34 c-2.02,5.12-4.9,10.9-11.33,10.5c-7.26-0.46-11.84-8.4-14.99-13.99c-4.33-7.66-7.1-16.01-8.47-24.68c-0.02-0.14,0-0.26,0.02-0.39 C50.89,93.98,49.84,94.64,48.78,95.29z M32.29,261.59c11.13,5.74,24.84,6.75,36.71,2.78c12.34-4.13,23.22-12.13,34.39-18.62 c0.17-0.1,0.34-0.15,0.5-0.16c0.75-1.9,1.63-3.75,2.42-5.47c3.06-6.65,7-12.83,10.15-19.42c2.79-5.86,4.78-12.32,6.01-18.98 c-0.08-0.14-0.14-0.3-0.15-0.49c-1.84-23.48-4.64-47.05-9.27-70.15c-0.28-1.42,1.89-2.02,2.17-0.6c4.03,20.14,6.69,40.64,8.54,61.12 c0.4-5.56,0.3-11.11-0.29-16.41c-0.16-1.44,2.09-1.42,2.25,0c1.52,13.68-0.41,28.55-5.15,41.46c-2.42,6.58-6.31,12.4-9.44,18.64 c-2.85,5.69-7.9,13.67-6.77,20.31c2.5,7.96,8.09,14.34,15,18.85c0.12-0.11,0.27-0.21,0.47-0.26c2.49-0.73,4.83-1.86,7.04-3.31 c0.14-0.26,0.4-0.42,0.69-0.47c9.4-6.53,16.07-18.7,19.13-28.79c1.66-5.47,1.87-11.31,2.26-16.99c0.47-6.82,0.74-13.67,0.67-20.51 c-0.17-14.94-3.32-29.83-6.1-44.47c-2.99-15.72-7.01-31.54-14.19-45.92c-3.33-6.66-7.35-12.06-14.12-15.47 c-3.53-1.78-7.28-3.07-11.03-4.35c-4.65,11.07-9.23,22.17-13.96,33.2c-2.7,6.28-6.7,12.55-14.45,11.85 c-8.76-0.79-14.44-9.53-18.7-16.28c-5.07-8.04-8.52-16.83-10.29-26.14c-2.54,1.54-5.1,3.08-7.61,4.67 c-5.71,3.61-9.05,7.75-10.72,14.34c-3.08,12.21-4.03,25.27-4.58,37.82c-1.06,24.1,1.12,48.16,4.41,72.01 c0.84-4.91,1.66-9.84,2.2-14.81c2.28-21.02,2.37-42.21,0.44-63.26c-0.13-1.44,2.12-1.43,2.25,0c1.75,19.11,1.84,38.33,0.13,57.44 c-0.79,8.84-1.95,17.65-3.48,26.39C28.05,241.04,24.89,253.13,32.29,261.59z M122.28,278.77c0.14,0.07,0.29,0.15,0.43,0.22 C122.57,278.92,122.42,278.85,122.28,278.77z M126.91,274.09c-0.01-0.2-0.03-0.4-0.04-0.6c-0.36,0.22-0.74,0.43-1.11,0.63 c0,0,0,0,0,0C126.14,274.11,126.52,274.1,126.91,274.09z M123.93,275.02c-0.11,0.05-0.23,0.1-0.34,0.15 C123.7,275.12,123.82,275.07,123.93,275.02z M126.91,274.1c0.26,3.61,0.5,7.22,0.74,10.83C127.41,281.32,127.17,277.71,126.91,274.1 z M110.62,270.19c0.11,0.11,0.21,0.22,0.32,0.33C110.83,270.41,110.72,270.3,110.62,270.19z M108.93,268.33 c0.08,0.1,0.17,0.19,0.25,0.29C109.1,268.52,109.01,268.42,108.93,268.33z M34.17,267.77c0.05,0.02,0.09,0.05,0.13,0.07 c0.05,0.01,0.09,0.02,0.14,0.04c12.13,5.24,25.46,5.28,37.87,0.93c10.72-3.76,20.09-10.2,29.71-16.08c0.11-1.35,0.39-2.7,0.77-4.03 c-11.66,6.95-23.26,15.42-36.52,18.81c-11.13,2.85-23.51,1.59-33.88-3.37C32.33,265.6,32.84,267.23,34.17,267.77z M102.46,257.07 c0.18,0.52,0.37,1.03,0.58,1.53C102.84,258.09,102.64,257.59,102.46,257.07z M36.45,271.05c0.19,0.07,0.38,0.13,0.57,0.2 C36.83,271.19,36.64,271.12,36.45,271.05z M28.95,450.63c5.2,3.51,10.01,8.53,11.74,14.6c3.22-1.79,6.24-3.99,9.17-6.2 c-0.4-0.17-0.79-0.34-1.19-0.54c-5.18-2.56-10.14-10.26-16-10.12C31.44,449.15,30.2,449.9,28.95,450.63z M34.21,335.99 c-0.08-1.65-0.16-3.31-0.23-4.96C34.05,332.68,34.13,334.33,34.21,335.99z M23.79,453.64c5.61,2.8,10.27,7.86,12.08,13.87 c0.94-0.36,1.87-0.76,2.78-1.21c-1.58-6.12-6.63-11.09-11.86-14.4C25.79,452.48,24.79,453.06,23.79,453.64z M11.8,461.61 c2.95,6.98,11.86,8.51,18.69,7.39c1.11-0.18,2.19-0.44,3.25-0.76c-1.74-5.88-6.63-10.92-12.3-13.21 C18.09,457.02,14.82,459.13,11.8,461.61z M59.83,461.43c-2.57-0.17-5.09-0.63-7.53-1.44c-7.66,5.82-16.03,11.66-26.06,11.56 c-6.57-0.06-13.26-2.45-16.22-8.43c-2.56,2.29-4.92,4.92-6.31,8.07c-2.19,4.94-2.07,12.74,3.98,14.39 c10.49,2.86,23.11-3.86,31.55-9.31C46.35,471.67,52.91,466.3,59.83,461.43z M61.68,459.24c-0.29,0-0.58-0.02-0.87-0.03 C61.1,459.22,61.39,459.24,61.68,459.24z M60.34,459.19c-0.38-0.02-0.76-0.06-1.13-0.09C59.59,459.13,59.96,459.17,60.34,459.19z M73.45,375.25c-0.38,4.97-0.78,9.95-1.22,14.92C72.67,385.2,73.07,380.22,73.45,375.25z M75.34,346.03 c-0.23,4.31-0.48,8.61-0.76,12.91C74.86,354.64,75.11,350.34,75.34,346.03z M76.18,328.99c-0.22,4.93-0.46,9.86-0.72,14.78 C75.72,338.84,75.96,333.92,76.18,328.99z M77.94,279.18c-0.07-0.35-0.15-0.69-0.22-1.04c0.01,0.06,0.03,0.13,0.04,0.19 c0.01,1.62,0.02,3.23,0.03,4.85c-0.03,0.93-0.05,1.86-0.08,2.78c-3.69,0.08-7.38,0.15-11.08,0.23c0.02-3.49,0.04-6.98,0.06-10.48 c3.49-0.09,6.97-0.19,10.46-0.28c-0.16-0.75-0.33-1.49-0.49-2.24c-3.32,0.09-6.64,0.18-9.95,0.27c0-0.23,0-0.46,0-0.69c0,0,0,0,0,0 c-0.75,0.17-1.5,0.33-2.25,0.47c0,0.09,0,0.18,0,0.27c-0.62,0.02-1.25,0.03-1.87,0.05c-4.47,0.68-8.97,0.81-13.42,0.36c0,0,0,0,0,0 c-2.37,0.06-4.75,0.13-7.12,0.19c0.01-0.47,0.03-0.93,0.05-1.4c-0.75-0.18-1.49-0.38-2.23-0.59c-0.02,0.68-0.05,1.36-0.07,2.04 c-2.19,0.06-4.37,0.12-6.56,0.18c-0.19,4.17-0.29,8.35-0.34,12.52c0.04-3.42,0.12-6.84,0.25-10.26c2.19-0.06,4.38-0.12,6.58-0.18 c-0.11,3.44-0.21,6.87-0.31,10.31c-2.17,0.04-4.35,0.09-6.52,0.13c-0.05,4.1-0.04,8.2,0.02,12.3c-0.05-3.35-0.06-6.7-0.04-10.05 c2.16-0.04,4.32-0.09,6.48-0.13c-0.09,3.33-0.18,6.65-0.26,9.98c-2.06,0.07-4.12,0.14-6.18,0.21c0.01,0.75,0.02,1.5,0.03,2.25 c2.04-0.07,4.07-0.14,6.11-0.2c-0.09,3.85-0.17,7.71-0.24,11.56c-1.85,0.1-3.7,0.2-5.56,0.3c-0.13-3.89-0.24-7.77-0.31-11.66 c0.16,9.1,0.52,18.21,0.94,27.31c-0.2-4.47-0.39-8.94-0.56-13.4c1.81-0.1,3.63-0.2,5.44-0.3c-0.08,4.49-0.15,8.99-0.21,13.48 c-1.56,0.07-3.12,0.15-4.67,0.22c0.03,0.75,0.07,1.5,0.1,2.24c1.51-0.07,3.03-0.15,4.54-0.22c-0.06,4.91-0.11,9.83-0.14,14.74 c-1.24,0.06-2.47,0.12-3.71,0.18c0,0,0,0,0,0c0.03,0.75,0.07,1.5,0.1,2.25c1.2-0.06,2.4-0.11,3.6-0.17 c-0.03,4.19-0.05,8.38-0.06,12.57c-1.02,0.04-2.04,0.08-3.06,0.12c-0.06-1.85-0.1-3.7-0.18-5.55c0.11,2.6,0.18,5.2,0.25,7.8 c0,0,0,0,0,0c1-0.04,1.99-0.08,2.99-0.12c0,3.94-0.01,7.88,0.01,11.83c-0.91,0.04-1.83,0.08-2.74,0.11c0.01,0.75,0.03,1.5,0.04,2.25 c0.91-0.04,1.81-0.07,2.72-0.11c0.02,4.91,0.05,9.82,0.09,14.73c-0.94,0.03-1.87,0.06-2.81,0.1c0,0,0,0,0,0 c-0.01,0.75-0.02,1.5-0.03,2.25c0.95-0.03,1.91-0.07,2.86-0.1c0.04,4.09,0.08,8.18,0.14,12.27c-1.08,0.04-2.15,0.09-3.23,0.13 c-0.02,0.75-0.04,1.5-0.06,2.25c0,0,0,0,0,0c1.11-0.05,2.22-0.09,3.32-0.14c0.06,4.11,0.13,8.23,0.2,12.34 c-1.32,0.07-2.63,0.15-3.95,0.22c0,0,0-0.01,0-0.01c-0.03,0.75-0.05,1.51-0.09,2.26c0,0,0,0,0,0c1.36-0.08,2.72-0.15,4.08-0.23 c0.08,4.16,0.17,8.32,0.27,12.48c-1.65,0.04-3.31,0.08-4.96,0.13c-0.04,0.75-0.09,1.5-0.13,2.25c1.72-0.04,3.44-0.09,5.15-0.13 c0.09,3.72,0.19,7.44,0.3,11.16c0,0,0,0,0,0c1.28,1.04,2.5,2.29,3.85,3.5c0.5,0.45,1.02,0.87,1.54,1.27 c-0.51-0.4-1.01-0.81-1.5-1.24c2.29-0.1,4.59-0.19,6.88-0.29c0.03,1.62,0.07,3.24,0.1,4.86c-0.61-0.28-1.22-0.58-1.81-0.91 c2.85,1.57,5.92,2.59,9.15,3.08c-1.73-0.26-3.42-0.68-5.05-1.25c-0.04-1.96-0.09-3.92-0.12-5.87c3.64-0.15,7.28-0.3,10.93-0.45 c-0.01,2.54-0.03,5.08-0.04,7.63c-0.13,0.09-0.26,0.18-0.39,0.27c0.14-0.09,0.27-0.19,0.41-0.28c0.82-4.78,1.58-9.57,2.31-14.37 c0.01-2.59,0.03-5.18,0.04-7.77c0.37-0.01,0.75-0.02,1.12-0.03c-0.17,1.2-0.35,2.39-0.53,3.58c0.28-1.95,0.57-3.89,0.84-5.84 c-0.47,0.01-0.94,0.02-1.41,0.04c0.02-4.44,0.05-8.87,0.07-13.31c1.03-0.06,2.06-0.11,3.08-0.17c-0.54,4.46-1.12,8.91-1.73,13.35 c0.72-5.2,1.38-10.41,2.01-15.62c-1.11,0.06-2.23,0.12-3.34,0.19c0.02-3.98,0.04-7.96,0.07-11.94c1.54-0.06,3.08-0.13,4.63-0.19 c-0.42,3.98-0.87,7.96-1.35,11.94c1.13-9.5,2.12-19.02,2.98-28.56c-2.05,0.07-4.11,0.14-6.16,0.21c0.03-4.97,0.05-9.95,0.08-14.92 c2.44-0.1,4.88-0.2,7.31-0.3c0.41-5.43,0.8-10.86,1.14-16.3c-2.79,0.11-5.58,0.22-8.36,0.33c0.02-4.27,0.05-8.54,0.07-12.81 c3.02-0.14,6.03-0.29,9.05-0.43c0.04-0.75,0.08-1.5,0.12-2.26c-3.05,0.14-6.1,0.29-9.15,0.43c0.03-4.92,0.05-9.84,0.08-14.76 c3.26-0.16,6.53-0.31,9.79-0.47c0.24-5.33,0.46-10.66,0.66-16c-0.17,4.58-0.36,9.16-0.55,13.74c-3.29,0.16-6.58,0.32-9.88,0.48 c0.02-4.55,0.05-9.1,0.07-13.65c3.45-0.19,6.9-0.38,10.36-0.57c0.03-0.75,0.05-1.5,0.08-2.25c-3.47,0.19-6.95,0.38-10.42,0.57 c0.01-2.2,0.02-4.4,0.04-6.6c0.01-1.46,0.02-2.91,0.02-4.37c3.58-0.12,7.15-0.24,10.73-0.36c-0.12,3.58-0.24,7.15-0.37,10.73 c0.38-10.44,0.69-20.88,0.98-31.32C77.89,279.31,77.92,279.25,77.94,279.18z M57.75,458.92c0.42,0.06,0.84,0.12,1.27,0.16 C58.6,459.04,58.17,458.98,57.75,458.92z M46.78,454.76c0.56,0.37,1.13,0.71,1.71,1.03C47.91,455.47,47.34,455.13,46.78,454.76z M45.16,453.62c0.52,0.4,1.05,0.77,1.59,1.13C46.21,454.39,45.68,454.01,45.16,453.62z M34.64,446.24 c-0.08-0.01-0.17-0.03-0.25-0.04C34.47,446.21,34.55,446.23,34.64,446.24z M35.46,446.43c-0.09-0.03-0.19-0.05-0.28-0.08 C35.27,446.37,35.36,446.4,35.46,446.43z M36.21,446.67c-0.09-0.03-0.18-0.07-0.27-0.1C36.03,446.6,36.12,446.63,36.21,446.67z M36.91,446.96c-0.08-0.04-0.16-0.07-0.25-0.11C36.74,446.89,36.83,446.92,36.91,446.96z M37.38,447.2c0.07,0.04,0.14,0.07,0.2,0.11 C37.51,447.27,37.44,447.24,37.38,447.2z M38.22,447.7c-0.04-0.03-0.08-0.05-0.12-0.07C38.14,447.65,38.18,447.68,38.22,447.7z M35.63,380.93c0.01,1.67,0.01,3.33,0.01,5C35.64,384.26,35.63,382.6,35.63,380.93z M44.1,273.19c-0.27-0.05-0.55-0.11-0.82-0.17 C43.55,273.07,43.82,273.13,44.1,273.19z M46.22,273.56c-0.35-0.05-0.7-0.11-1.05-0.17C45.53,273.45,45.87,273.51,46.22,273.56z M48.7,273.9c-0.52-0.06-1.04-0.12-1.56-0.19C47.66,273.78,48.18,273.84,48.7,273.9z M94.86,452.2c0.55,0.05,1.12,0.08,1.69,0.1 c-0.26-0.01-0.51-0.02-0.77-0.04c-0.02-0.75-0.04-1.51-0.05-2.26c3.76-0.16,7.52-0.31,11.27-0.47c0,0.13,0,0.26,0.01,0.4 c-0.38,0.27-0.78,0.52-1.19,0.76c2.38-1.34,4.11-3.41,5.95-5.52c-0.59,0.68-1.17,1.35-1.75,2c-0.27,0.01-0.54,0.02-0.8,0.03 c-0.07-3.83-0.14-7.65-0.21-11.48c4.67-0.12,9.34-0.24,14-0.36c-0.04,0.35-0.08,0.7-0.11,1.05c0.16-1.45,0.31-2.89,0.47-4.34 c-0.04,0.34-0.07,0.69-0.11,1.03c-4.76,0.12-9.53,0.24-14.29,0.36c-0.09-4.87-0.18-9.73-0.26-14.6c4.69-0.26,9.39-0.52,14.08-0.79 c0.23,4.34,0.45,8.69,0.69,13.03c1.04-9.57,2.01-19.15,2.86-28.74c-0.71,0.03-1.42,0.06-2.13,0.09c-0.19-3.9-0.35-7.8-0.54-11.71 c1.21-0.04,2.42-0.08,3.63-0.12c-0.3,3.91-0.62,7.83-0.97,11.74c0.86-9.77,1.59-19.56,2.13-29.35c-0.29,5.12-0.62,10.24-1,15.36 c-1.3,0.04-2.6,0.09-3.9,0.13c-0.23-5.09-0.48-10.19-0.7-15.28c1.87-0.08,3.73-0.15,5.6-0.23c0.3-5.39,0.55-10.77,0.72-16.17 c-2.32,0.09-4.63,0.18-6.95,0.27c-0.17-4.42-0.36-8.84-0.51-13.26c2.58-0.12,5.17-0.25,7.75-0.37c0.03-3.05,0.04-6.11,0.03-9.16 c0.01,2.3,0.01,4.61-0.01,6.91c-2.62,0.12-5.24,0.25-7.85,0.37c-0.17-4.92-0.31-9.85-0.46-14.77c2.75-0.13,5.49-0.26,8.24-0.4 c-0.01-0.75-0.03-1.5-0.04-2.25c-2.76,0.13-5.51,0.27-8.27,0.4c-0.14-4.66-0.3-9.32-0.42-13.98c2.76-0.15,5.52-0.3,8.28-0.45 c-0.03-0.75-0.07-1.5-0.1-2.24c-2.75,0.15-5.49,0.3-8.24,0.45c-0.09-3.27-0.16-6.54-0.24-9.81c2.67-0.09,5.35-0.18,8.02-0.27 c0.17,3.2,0.32,6.41,0.45,9.61c-0.29-6.9-0.66-13.8-1.09-20.7c0.18,2.95,0.36,5.89,0.52,8.84c-2.65,0.09-5.3,0.18-7.96,0.27 c-0.07-2.98-0.15-5.96-0.22-8.95c2.55-0.05,5.1-0.11,7.65-0.16c-0.05-0.75-0.09-1.5-0.14-2.25c-2.52,0.05-5.04,0.1-7.57,0.16 c-0.05-2.54-0.1-5.07-0.14-7.61c-0.77-0.45-1.53-0.93-2.28-1.43c0,0,0,0,0,0c0.05,3.03,0.11,6.05,0.17,9.08 c-3.85,0.08-7.7,0.16-11.55,0.24c-0.06-3.58-0.13-7.15-0.19-10.73c3.09-0.08,6.18-0.17,9.27-0.25c-0.91-0.69-1.79-1.42-2.64-2.18 c0,0,0,0,0,0c-2.22,0.06-4.45,0.12-6.67,0.18c-0.05-2.73-0.1-5.47-0.15-8.2c-0.88-1.39-1.66-2.85-2.33-4.36c0,0.03,0,0.07,0,0.1 c-3.01,0.03-6.02,0.06-9.03,0.09c-1.79,1.1-3.59,2.18-5.4,3.23c0.07,3.2,0.15,6.4,0.22,9.61c-3.11,0.08-6.23,0.17-9.34,0.25 c-0.01-1.68-0.01-3.36-0.02-5.05c-0.67,0.31-1.33,0.63-2,0.92c0.73,3.12,1.41,6.25,2.05,9.38c0,0,0,0,0,0 c-0.01-1-0.02-2.01-0.02-3.01c3.13-0.08,6.25-0.17,9.38-0.25c0.08,3.54,0.16,7.08,0.25,10.62c-2.71,0.06-5.42,0.11-8.12,0.17 c0.14,0.75,0.28,1.49,0.42,2.24c2.59-0.05,5.17-0.11,7.76-0.16c0.07,3.11,0.14,6.22,0.22,9.33c-2.12,0.07-4.24,0.14-6.36,0.21 c0.12,0.75,0.24,1.5,0.36,2.24c0,0,0,0,0-0.01c2.02-0.07,4.04-0.13,6.05-0.2c0.08,3.48,0.16,6.97,0.24,10.45 c-1.58,0.09-3.16,0.17-4.74,0.26c0.1,0.74,0.21,1.49,0.31,2.23c1.49-0.08,2.99-0.16,4.48-0.24c0.11,4.6,0.21,9.19,0.32,13.79 c-1.02,0.05-2.05,0.1-3.07,0.15c0.09,0.75,0.18,1.49,0.26,2.24c0,0,0,0,0,0c0.95-0.05,1.91-0.09,2.86-0.14 c0.11,4.92,0.23,9.84,0.34,14.76c-0.54,0.03-1.07,0.05-1.61,0.08c0,0,0,0,0,0c0.08,0.75,0.15,1.5,0.23,2.24 c0.48-0.02,0.95-0.05,1.43-0.07c0.1,4.33,0.2,8.67,0.3,13c-0.17,0.01-0.34,0.01-0.5,0.02c0.87,10.11,1.58,20.23,2.46,30.33 c1.2,13.74,0.98,27.56,1.58,41.33C95.22,437.38,94.66,444.79,94.86,452.2z M104.83,451.18c0.13-0.06,0.26-0.12,0.39-0.18 C105.09,451.06,104.96,451.12,104.83,451.18z M102.37,451.94c0.12-0.02,0.24-0.04,0.35-0.07 C102.61,451.9,102.49,451.92,102.37,451.94z M101.26,452.13c0.15-0.02,0.3-0.04,0.44-0.06C101.55,452.09,101.4,452.11,101.26,452.13 z M100.15,452.25c0.17-0.01,0.33-0.03,0.5-0.04C100.49,452.23,100.32,452.24,100.15,452.25z M99.05,452.32 c0.18-0.01,0.36-0.01,0.54-0.03C99.41,452.3,99.23,452.31,99.05,452.32z M97.95,452.34c0.2,0,0.39,0,0.59-0.01 C98.34,452.34,98.15,452.34,97.95,452.34z M96.85,452.32c0.22,0.01,0.44,0.01,0.66,0.02C97.29,452.33,97.07,452.33,96.85,452.32z M159,463.49c-1.8-2.97-4.59-5.36-7.46-7.54c-8.17,15.76-32.96,1.74-43.19-3.99c-0.01-0.01-0.02-0.02-0.04-0.03 c-0.19,0.14-0.38,0.29-0.58,0.41c-3.05,1.91-7.06,2.34-10.79,2.22c6.78,5.81,14.82,10.05,22.94,13.65c8.76,3.89,18.68,8.37,28.19,10 C156.99,479.74,164.05,471.83,159,463.49z M70.83,61.19c1.39-0.39,0.8-2.56-0.6-2.17c-2.17,0.6-3.42-2.22-1.49-3.39 c1.24-0.75,0.11-2.69-1.14-1.94c-1.7,1.03-2.58,3.17-1.85,5.08C66.53,60.77,68.81,61.74,70.83,61.19z M58.81,66.18 c-0.19-0.13-0.31-0.32-0.37-0.53c-0.24-0.53,0.02-1.01,0.44-1.27c0.24-0.19,0.55-0.28,0.93-0.2c6.95,1.5,13.8,1.5,20.7-0.23 c0.91-0.23,1.83,0.8,1.27,1.65C76.19,74.11,64.73,74.3,58.81,66.18z M77.88,66.8c-5.13,0.91-10.28,0.92-15.44,0.14 C66.91,70.97,73.49,70.9,77.88,66.8z M103.83,274.71c-4.06,0.11-8.12,0.22-12.18,0.33c0.08,3.54,0.16,7.09,0.25,10.63 c4.04-0.08,8.08-0.17,12.12-0.25C103.96,281.86,103.9,278.28,103.83,274.71z M128.6,370.73c0.21-3.88,0.38-7.77,0.53-11.66 c-2.27,0.09-4.53,0.18-6.8,0.26c0.15,3.88,0.29,7.75,0.45,11.63C124.71,370.89,126.65,370.81,128.6,370.73z M103.61,262.19 c-4.08,0.04-8.16,0.08-12.25,0.12c0.08,3.5,0.16,7,0.24,10.49c4.06-0.11,8.13-0.22,12.19-0.33 C103.73,269.04,103.67,265.61,103.61,262.19z M104.28,299.07c-4.02,0.13-8.03,0.27-12.05,0.4c0.08,3.47,0.16,6.94,0.24,10.4 c4-0.22,7.99-0.44,11.99-0.65C104.4,305.84,104.34,302.46,104.28,299.07z M104.5,311.47c-3.99,0.22-7.99,0.44-11.98,0.65 c0.11,4.6,0.21,9.2,0.32,13.8c3.97-0.19,7.94-0.38,11.91-0.57C104.67,320.73,104.58,316.1,104.5,311.47z M104.07,287.68 c-4.04,0.08-8.07,0.17-12.11,0.25c0.07,3.1,0.14,6.2,0.22,9.3c4.02-0.13,8.04-0.27,12.06-0.4 C104.18,293.78,104.12,290.73,104.07,287.68z M105.1,344.62c-3.94,0.19-7.87,0.37-11.81,0.56c0.1,4.34,0.2,8.68,0.3,13.02 c3.92-0.15,7.83-0.31,11.75-0.46C105.26,353.37,105.18,349,105.1,344.62z M104.79,327.6c-3.97,0.19-7.93,0.38-11.9,0.57 c0.11,4.92,0.23,9.84,0.34,14.76c3.94-0.19,7.88-0.37,11.82-0.56C104.97,337.45,104.88,332.53,104.79,327.6z M105.38,360 c-3.91,0.15-7.82,0.3-11.73,0.46c0.09,3.9,0.18,7.8,0.27,11.7c3.89-0.16,7.78-0.32,11.67-0.48 C105.52,367.78,105.45,363.89,105.38,360z M106.71,309.1c3.89-0.21,7.79-0.43,11.68-0.64c-0.09-3.28-0.16-6.57-0.24-9.85 c-3.88,0.13-7.75,0.26-11.63,0.39C106.59,302.37,106.65,305.74,106.71,309.1z M106.48,296.75c3.87-0.13,7.74-0.26,11.62-0.39 c-0.07-2.99-0.15-5.98-0.22-8.97c-3.85,0.08-7.71,0.16-11.56,0.24c0.03,1.86,0.07,3.71,0.1,5.57 C106.44,294.38,106.46,295.57,106.48,296.75z M51.86,359.83c4.04-0.16,8.08-0.31,12.12-0.47c0.02-4.26,0.05-8.53,0.07-12.79 c-4.04,0.19-8.08,0.38-12.12,0.57C51.9,351.37,51.87,355.6,51.86,359.83z M49.62,362.17c-3.02,0.12-6.04,0.24-9.06,0.35 c0,3.94-0.01,7.88,0,11.82c3.01-0.12,6.01-0.25,9.02-0.37C49.58,370.04,49.6,366.1,49.62,362.17z M49.67,347.25 c-3.02,0.14-6.04,0.29-9.06,0.43c-0.03,4.2-0.05,8.39-0.06,12.59c3.02-0.12,6.04-0.24,9.06-0.35 C49.64,355.7,49.65,351.47,49.67,347.25z M50.02,314.45c-3.01,0.16-6.01,0.33-9.02,0.49c-0.08,4.5-0.15,9-0.21,13.49 c3.02-0.15,6.03-0.29,9.05-0.44C49.89,323.48,49.96,318.96,50.02,314.45z M49.82,330.25c-3.02,0.15-6.04,0.29-9.05,0.44 c-0.06,4.92-0.11,9.83-0.14,14.75c3.02-0.14,6.05-0.29,9.07-0.43C49.73,340.08,49.77,335.17,49.82,330.25z M108.65,416.61 c4.67-0.26,9.33-0.52,14-0.78c-0.19-3.68-0.4-7.36-0.59-11.05c-4.54,0.18-9.08,0.37-13.62,0.55 C108.52,409.1,108.59,412.86,108.65,416.61z M108.41,403.09c4.51-0.18,9.03-0.37,13.54-0.55c-0.19-3.91-0.35-7.81-0.54-11.72 c-4.41,0.15-8.81,0.3-13.22,0.45C108.27,395.21,108.34,399.15,108.41,403.09z M107.59,357.66c4.13-0.16,8.27-0.32,12.4-0.48 c-0.17-4.41-0.35-8.82-0.51-13.24c-4.04,0.19-8.09,0.38-12.13,0.58C107.43,348.9,107.51,353.28,107.59,357.66z M108.15,389.02 c4.39-0.15,8.77-0.3,13.16-0.45c-0.23-5.09-0.48-10.18-0.7-15.27c-4.25,0.17-8.49,0.35-12.74,0.52 C107.97,378.89,108.06,383.96,108.15,389.02z M107.31,342.27c4.03-0.19,8.06-0.38,12.09-0.57c-0.17-4.92-0.31-9.85-0.46-14.77 c-3.97,0.19-7.93,0.38-11.9,0.57C107.13,332.42,107.22,337.34,107.31,342.27z M106.2,405.43c-3.83,0.16-7.67,0.31-11.5,0.47 c0.09,3.83,0.18,7.65,0.27,11.48c3.81-0.21,7.63-0.43,11.44-0.64C106.34,412.97,106.27,409.2,106.2,405.43z M105.95,391.35 c-3.86,0.13-7.72,0.26-11.57,0.4c0.09,3.97,0.18,7.94,0.28,11.9c3.84-0.16,7.67-0.31,11.51-0.47 C106.09,399.24,106.02,395.29,105.95,391.35z M106.45,418.99c-3.81,0.21-7.62,0.43-11.43,0.64c0.11,4.73,0.22,9.46,0.33,14.18 c3.79-0.1,7.57-0.19,11.36-0.29C106.62,428.67,106.53,423.83,106.45,418.99z M107.84,371.58c4.23-0.17,8.46-0.35,12.69-0.52 c-0.16-3.88-0.3-7.76-0.45-11.64c-4.15,0.16-8.3,0.32-12.45,0.49C107.7,363.8,107.77,367.69,107.84,371.58z M107,325.25 c3.96-0.19,7.91-0.38,11.87-0.57c-0.14-4.66-0.3-9.31-0.42-13.97c-3.9,0.21-7.8,0.43-11.7,0.64 C106.83,315.98,106.92,320.62,107,325.25z M106.91,444.37c-0.05-2.87-0.1-5.73-0.16-8.6c-3.78,0.1-7.57,0.19-11.35,0.29 c0.09,3.9,0.18,7.8,0.27,11.7c3.76-0.16,7.52-0.31,11.29-0.47C106.94,446.31,106.92,445.34,106.91,444.37z M125.07,415.7 c0.37-3.69,0.72-7.38,1.05-11.07c-0.6,0.02-1.21,0.05-1.81,0.07c0.18,3.67,0.39,7.34,0.58,11.01 C124.96,415.7,125.01,415.7,125.07,415.7z M105.63,373.92c-3.89,0.16-7.77,0.32-11.66,0.48c0.12,5.03,0.23,10.07,0.35,15.1 c3.86-0.13,7.72-0.26,11.59-0.4C105.81,384.04,105.72,378.98,105.63,373.92z M91.03,360.56c0.18,2.1,0.35,4.2,0.51,6.29 c-0.05-2.1-0.1-4.2-0.15-6.31C91.27,360.55,91.15,360.55,91.03,360.56z M66.56,298.08c3.6-0.12,7.19-0.24,10.79-0.36 c0.1-3.17,0.2-6.33,0.29-9.5c-3.67,0.08-7.35,0.15-11.03,0.23C66.6,291.66,66.58,294.87,66.56,298.08z M41.46,437.43 c0.11,4.19,0.21,8.37,0.34,12.56c2.82-0.12,5.63-0.23,8.45-0.35c-0.07-4.14-0.13-8.28-0.19-12.43 C47.19,437.29,44.32,437.36,41.46,437.43z M41.33,298.92c2.97-0.1,5.95-0.2,8.92-0.3c0.06-3.28,0.14-6.56,0.2-9.84 c-2.96,0.06-5.91,0.12-8.87,0.18C41.5,292.29,41.41,295.6,41.33,298.92z M49.72,407.73c-2.95,0.12-5.9,0.24-8.85,0.36 c0.06,4.1,0.13,8.2,0.2,12.3c2.92-0.16,5.84-0.33,8.76-0.49C49.79,415.84,49.75,411.78,49.72,407.73z M41.65,286.72 c2.95-0.06,5.9-0.12,8.86-0.18c0.07-3.46,0.13-6.92,0.21-10.38c-2.92,0.08-5.84,0.16-8.76,0.24 C41.85,279.83,41.75,283.28,41.65,286.72z M49.85,422.15c-2.91,0.16-5.82,0.33-8.73,0.49c0.08,4.18,0.17,8.36,0.27,12.55 c2.87-0.07,5.75-0.15,8.62-0.22C49.96,430.69,49.9,426.42,49.85,422.15z M51.88,390.95c3.98-0.14,7.95-0.27,11.93-0.41 c0.03-4.97,0.05-9.94,0.08-14.91c-4.02,0.16-8.03,0.33-12.05,0.49C51.84,381.07,51.86,386.01,51.88,390.95z M52.26,434.91 c3.77-0.1,7.53-0.19,11.3-0.29c0.02-4.41,0.05-8.83,0.07-13.24c-3.84,0.21-7.68,0.43-11.52,0.64 C52.16,426.32,52.2,430.61,52.26,434.91z M49.63,393.28c-2.98,0.1-5.96,0.2-8.94,0.31c0.04,4.08,0.08,8.17,0.14,12.25 c2.95-0.12,5.91-0.24,8.86-0.36C49.67,401.41,49.65,397.34,49.63,393.28z M52.51,449.55c3.66-0.15,7.32-0.3,10.98-0.46 c0.02-4.07,0.04-8.15,0.07-12.22c-3.75,0.1-7.5,0.19-11.25,0.29C52.36,441.29,52.44,445.42,52.51,449.55z M52.09,419.77 c3.85-0.22,7.71-0.43,11.56-0.65c0.02-3.99,0.04-7.98,0.07-11.97c-3.92,0.16-7.84,0.32-11.76,0.48 C51.99,411.68,52.05,415.73,52.09,419.77z M52.09,327.89c4.02-0.19,8.04-0.39,12.06-0.58c0.02-4.55,0.05-9.09,0.07-13.64 c-3.99,0.22-7.97,0.44-11.96,0.65C52.2,318.85,52.14,323.37,52.09,327.89z M51.95,405.39c3.93-0.16,7.85-0.32,11.78-0.48 c0.02-4.04,0.04-8.08,0.07-12.11c-3.97,0.14-7.94,0.27-11.91,0.41C51.91,397.26,51.92,401.32,51.95,405.39z M51.95,344.89 c4.04-0.19,8.07-0.38,12.11-0.57c0.03-4.92,0.05-9.84,0.08-14.76c-4.03,0.19-8.05,0.39-12.08,0.58 C52.01,335.06,51.98,339.98,51.95,344.89z M51.84,373.88c4.02-0.16,8.04-0.33,12.06-0.49c0.02-3.92,0.04-7.85,0.06-11.77 c-4.04,0.16-8.07,0.31-12.11,0.47C51.85,366.01,51.84,369.95,51.84,373.88z M49.58,376.22c-3,0.12-6,0.25-9,0.37 c0.02,4.91,0.05,9.83,0.09,14.74c2.99-0.1,5.97-0.2,8.96-0.31C49.61,386.09,49.58,381.16,49.58,376.22z M50.22,300.88 c-2.98,0.1-5.96,0.2-8.93,0.3c-0.09,3.84-0.17,7.68-0.24,11.51c3-0.16,6.01-0.33,9.01-0.49C50.11,308.42,50.16,304.65,50.22,300.88z M52.37,306.37c-0.03,1.9-0.05,3.8-0.07,5.7c3.98-0.22,7.96-0.43,11.94-0.65c0.02-3.67,0.04-7.34,0.06-11.02 c-3.94,0.13-7.88,0.26-11.82,0.39C52.44,302.66,52.4,304.51,52.37,306.37z M52.76,286.49c3.87-0.08,7.75-0.16,11.62-0.24 c0.02-3.49,0.04-6.98,0.06-10.46c-3.82,0.1-7.64,0.21-11.47,0.31C52.89,279.56,52.83,283.02,52.76,286.49z M52.52,298.55 c3.93-0.13,7.86-0.26,11.79-0.39c0.02-3.22,0.04-6.44,0.05-9.66c-3.88,0.08-7.77,0.16-11.65,0.24 C52.65,292.01,52.58,295.28,52.52,298.55z M66.15,373.29c2.49-0.1,4.98-0.2,7.47-0.31c0.29-3.93,0.56-7.85,0.82-11.78 c-2.74,0.11-5.48,0.21-8.22,0.32C66.19,365.45,66.17,369.37,66.15,373.29z M65.98,404.82c1.62-0.07,3.24-0.13,4.86-0.2 c0.42-4.03,0.82-8.07,1.18-12.11c-1.99,0.07-3.98,0.14-5.98,0.2C66.02,396.75,66,400.78,65.98,404.82z"
      style="fill: rgb(0, 0, 0);" />
  </g>
</svg>