<svg xmlns="http://www.w3.org/2000/svg" xmlns:xlink="http://www.w3.org/1999/xlink" preserveAspectRatio="xMidYMid meet" version="1.0" viewBox="-0.3 -1.7 141.8 493.2" zoomAndPan="magnify" style="fill: rgb(0, 0, 0);" original_string_length="21544"><g id="__id32_s2pplbyhko"><path d="M132.49,296.12c-4.7-15.09-10.54-29.78-15.81-44.67c2.29-2.87,3.49-6.28,1.79-10.26 c-1.57-3.65-4.4-6.85-6.22-10.42c-2.74-5.37-4.69-11.13-6.17-17.04c0.01-0.07,0.04-0.13,0.05-0.21c0.4-26.5,3.41-52.87,9.23-78.72 c2.39-10.6,4.42-21.57,0.14-31.98c-3.52-8.58-10.25-15.4-18.66-19.19c0.18-1.6,0.45-3.18,0.64-4.78c2.87-0.15,5.85-1.06,8.89-2.95 c6.7-4.16,10.1-10.57,11.69-17.71c0.02-0.01,0.04-0.02,0.07-0.03c2.81-1.76,4.66-4.65,4.86-8c0.12-2.09-0.59-4.65-2.41-5.57 c2.83-2.54,4.99-6.57,5.67-10.39c0.15,0.18,0.3,0.36,0.45,0.55c0.5,0.62,1.77,0.31,1.88-0.5c1.35-9.94-3.15-20.56-10.6-27.19 C109.8-0.2,97.82-1.7,87.68,1.82C75.95,1.81,64.74,8.26,60.03,19.19c-4.27,9.9-3.59,21.17,3.66,29.36c-0.11,0.32-0.2,0.66-0.27,1.01 c-1.1,6,3.23,10.94,8.58,12.45c0.3,4.4-0.29,8.69-1.01,13.03c-0.4,0.02-0.81,0.03-1.21,0.05c-0.14-0.02-0.29-0.01-0.42,0.03 c-1.65,0.12-3.26,0.32-4.84,0.6c-0.03,0-0.06,0.01-0.1,0.02c-21.87,3.9-37.69,22.67-47.73,41.79c-5.89,11.21-10.81,23.2-13.75,35.54 c-2.76,11.58-3.24,23.81-2.77,35.71c0,0.01,0,0.01,0,0.02c0.5,17.78,2.88,35.11,7.4,52.32c0.09,0.36,0.3,0.58,0.56,0.7 c1.71,1.14,3.5,2.16,5.35,3.06c-0.45,1.14-0.9,2.31-1.18,3.5c-0.07,0.3-0.02,0.56,0.09,0.77c0.05,0.11,0.11,0.22,0.2,0.32 c2.27,2.6,5.23,4.53,8.47,5.71c0.29,3.68,0.74,7.35,0.99,11.04c0,0.01,0.01,0.02,0.01,0.03c-0.02,0.36,0.14,0.72,0.55,0.94 c4.72,2.62,9.79,4.35,14.97,5.23c-1.24,61.73,0.34,123.55-0.21,185.3c0,0.26,0.08,0.45,0.2,0.61c0.03,0.05,0.07,0.1,0.11,0.15 c0.02,0.02,0.04,0.05,0.06,0.07c0.1,0.09,0.22,0.17,0.37,0.22c-0.51,6.58-1.2,13.2-1.43,19.79c-0.01,0.35-0.01,0.69-0.01,1.01 c-0.02,0.08-0.05,0.16-0.06,0.26c-0.06,3.69-0.91,8.54,3.21,10.12c3.18,1.22,7.39,0.7,10.71,0.73c4.81,0.05,9.62,0.11,14.43,0.16 c9.46,0.1,19.02,0.61,28.47,0.19c5.18-0.23,8.72-2.16,9.1-7.1c5.45,2.31,17.13,5.02,17.51-2.55c2.61-3.53,2.47-7.19,0.96-10.55 c-0.03-0.19-0.11-0.35-0.23-0.5c-1.29-2.59-3.37-4.98-5.6-6.96c-0.06-0.09-0.14-0.17-0.23-0.24c-0.1-0.08-0.21-0.15-0.31-0.23 c-0.29-0.24-0.57-0.48-0.86-0.71c-9.5-7.52-16.22-16.1-17.42-28.41c2.8,1.47,5.76,2.64,8.84,3.47c0.49,0.13,0.88-0.05,1.12-0.36 c0.01-0.01,0.02-0.02,0.03-0.03c0.01-0.01,0.02-0.02,0.03-0.03c0.08-0.1,0.16-0.22,0.21-0.36c5.81-16.04,12.16-31.87,18.25-47.8 c5.65-14.77,12.94-30.37,14.8-46.18C141.47,326.68,137.16,311.1,132.49,296.12z M84.04,377.7c1.55-22.86,2.51-45.75,2.89-68.66 C98.68,330.84,92.42,355.51,84.04,377.7z" style="fill: rgb(247, 247, 247);"/></g><g id="__id33_s2pplbyhko"><path d="M73.73,199.61c-13.34,2.03-25.64,13.74-39.45,10.06c-0.61-5.36-1-10.74-1.15-16.14 c6.21,0.7,12.43,1.36,18.65,2.01c3.14,0.33,6.28,0.65,9.41,0.99c1.58,0.17,3.15,0.34,4.73,0.52 C66.84,197.16,74.09,198.26,73.73,199.61z M102.56,89.67c-0.15,1.05-0.3,2.1-0.46,3.15c0.01,0.13-0.01,0.28-0.06,0.42 c-2.84,19.03-7.13,37.86-12.49,56.39c0,0.15,0,0.3,0,0.45c0,0.37-0.15,0.65-0.37,0.83c-4.5,15.42-9.74,30.62-15.46,45.55 c0.85,0.54,1.56,1.23,2.05,2.13c15.66-34.05,25.03-70.14,28.56-107.49C103.76,90.6,103.17,90.13,102.56,89.67z M34.59,212.07 c0.79,6.18,1.87,12.33,3.31,18.41c0.58,2.47,1.89,6.01,2.48,9.33c4.87,1.2,9.72,1.84,14.76,1.64c5.99-0.23,14.58,0.07,16.74-6.85 c1.6-5.12,0.91-11.28,1.02-16.58c0.11-5.35,0.23-10.71,0.34-16.06C60.14,204.42,48.27,215.16,34.59,212.07z M133.83,308.63 c0.93,12.85,1.85,25.7,2.78,38.55c0.24-1.3,0.46-2.6,0.63-3.91C138.8,331.58,136.85,319.96,133.83,308.63z M40.74,457.16 c1,0.26,1.99,0.49,2.99,0.7c0.66-61.59,1.33-123.17,1.99-184.76c-1,0-2-0.02-3-0.08C42.06,334.39,41.4,395.77,40.74,457.16z M51.71,446.69c-0.01,4.08-0.01,8.17-0.02,12.25c1,0.07,2,0.12,3,0.14c0.07-51.83,0.14-103.65,0.21-155.48 c0.01-10.48,0.03-20.96,0.04-31.45c-1,0.2-2,0.37-3,0.51C51.87,330.68,51.79,388.68,51.71,446.69z M60.26,270.76 c0.08,62.71,0.15,125.43,0.23,188.14c1-0.08,2-0.18,3-0.31c-0.08-62.98-0.15-125.96-0.23-188.94 C62.27,270.06,61.27,270.43,60.26,270.76z M69.52,447.5c-0.01,3.33-0.02,6.66-0.02,9.99c1-0.24,2-0.5,3-0.79 c0.12-51.59,0.24-103.17,0.36-154.76c0.03-14.62,0.07-29.23,0.1-43.85c-1,0.07-2,0.13-3,0.18C69.81,321.35,69.67,384.42,69.52,447.5 z M81.3,384.8c0.69-9.51,1.27-19.02,1.76-28.54c-0.14-18.18-0.28-36.36-0.42-54.54c-0.11-14.92-0.23-29.83-0.34-44.75 c-1,0.17-1.99,0.33-3,0.47c0.35,46.42,0.71,92.84,1.06,139.25c0.32-3.88,0.62-7.76,0.91-11.63C81.27,384.98,81.28,384.89,81.3,384.8 z M80.89,416.08c0.81,1.38,1.7,2.7,2.66,3.97c-0.08-10.71-0.16-21.42-0.25-32.13C82.59,397.31,81.8,406.7,80.89,416.08z M88.95,308.03c1.15,2.13,2.14,4.29,2.97,6.47c0.09-19.91,0.18-39.82,0.27-59.72c-1,0.27-2,0.53-3,0.77 C89.11,273.05,89.03,290.54,88.95,308.03z M88.43,425.47c0.96,0.89,1.95,1.73,2.99,2.52c0.1-22.11,0.2-44.22,0.3-66.34 c-0.91,3.29-1.94,6.56-3.04,9.8C88.59,389.45,88.51,407.46,88.43,425.47z M97.77,261.58c-0.43,0.05-0.73-0.12-0.9-0.38c0,0,0,0,0,0 c-0.02-0.02-0.03-0.05-0.04-0.08c-0.06-0.1-0.11-0.22-0.14-0.36c-0.02-0.11-0.04-0.23-0.06-0.34c0.36,57.19,0.72,114.37,1.08,171.56 c0.98,0.5,1.99,0.96,3.01,1.39c-0.36-57.35-0.72-114.71-1.08-172.06C99.01,261.41,98.39,261.5,97.77,261.58z M108.54,361.36 c-0.41-34.2-0.83-68.4-1.24-102.59c-0.97,0.47-1.97,0.88-2.98,1.24c0.42,34.44,0.83,68.89,1.25,103.33 c0.24,20.14,0.49,40.29,0.73,60.43c0.03,2.25,0.05,4.51,0.08,6.76c0.96-2.6,1.92-5.21,2.91-7.8c0-0.31-0.01-0.63-0.01-0.94 C109.03,401.65,108.78,381.51,108.54,361.36z M114.97,253.33c-0.3,0.29-0.61,0.57-0.92,0.85c1.47,48.24,2.95,96.47,4.42,144.71 c0.93-2.4,1.86-4.79,2.78-7.19c-1.35-44.05-2.69-88.09-4.04-132.14C116.46,257.48,115.71,255.41,114.97,253.33z M122.54,274.06 c1.89,33.35,3.79,66.71,5.68,100.06c0.89-2.27,1.77-4.55,2.61-6.84c-1.58-27.75-3.15-55.5-4.73-83.26 C124.94,280.69,123.75,277.37,122.54,274.06z" style="fill: rgb(34, 23, 22);"/></g><g id="__id34_s2pplbyhko"><path d="M77.73,99.62c-6.43,31.27-10.3,63-12.43,94.85c-1.88-0.11-3.68-0.14-5.06-0.29 c-9.05-0.97-18.11-1.87-27.15-2.9c-0.02-1.07-0.05-2.13-0.05-3.2c0-0.04-0.02-0.07-0.02-0.11c0-0.04,0.02-0.06,0.02-0.1 c0.18-23.09,8.31-43.54,19.58-63.35c0.72-1.26-1.23-2.4-1.94-1.14c-11.46,20.15-19.7,41.01-19.89,64.49c0,0.04,0.02,0.07,0.02,0.11 c0,0.04-0.02,0.06-0.02,0.1c0.02,9.79,0.73,19.54,2.24,29.21c0.77,4.93,1.74,9.84,2.91,14.69c0.46,1.91,1.85,5.49,2.32,8.64 c-0.02,0.2,0,0.4,0.08,0.59c0.31,2.72-0.19,5-2.76,5.39c-0.13-0.04-0.29-0.06-0.47-0.04c-9.03,1.15-17.95-1.56-25.5-6.47 c-4.13-15.84-6.41-31.76-7.09-48.07c0-0.03,0.02-0.06,0.01-0.09c-0.64-12.01-0.43-24.47,2.09-36.26 c2.52-11.82,7.09-23.33,12.49-34.12c9.56-19.11,24.61-38.78,46.17-43.34C62.53,88.39,67.22,97.89,77.73,99.62z M116.89,243.29 c-0.54-2.43-2.71-4.76-4.04-6.9c-1.78-2.85-3.3-5.83-4.59-8.93c-5.09-12.22-7.04-25.64-8.64-38.68c-0.01-0.1-0.01-0.19,0-0.28 c-0.05-22.98,1.11-46.05,7.72-68.2c0.41-1.39,2.58-0.79,2.17,0.6c-6.58,22.06-7.7,45.01-7.64,67.88c0.63,5.14,1.31,10.4,2.23,15.64 c0.74-20,2.92-39.98,6.8-59.61c2.37-12.01,7.12-24.9,3.86-37.16c-1.49-5.61-4.44-10.6-8.39-14.63 c-2.59,25.98-7.98,51.35-16.33,75.84c0.02,0.08,0.06,0.15,0.06,0.24c1.39,27.66,2.82,55.4,7.3,82.75c0.08,0.19,0.12,0.41,0.1,0.62 c0.37,2.24,0.76,4.47,1.17,6.71c4.36-0.69,8.7-2.57,12.18-5.24C114.17,251.35,117.99,248.22,116.89,243.29z M56.65,243.63 c-5.48,0.32-10.7-0.21-15.99-1.44c0.16,3.43-0.96,6.22-5.27,6.7c-0.05,0.01-0.09-0.01-0.14-0.01c-0.59,2.23-1.37,4.38-2.33,6.48 c-0.03,0.25-0.15,0.48-0.38,0.63c-0.21,0.19-0.48,0.26-0.74,0.22c-1.63,0.28-3.3,0.35-4.95,0.23c-0.28,0.07-0.58,0.03-0.84-0.09 c-0.9-0.1-1.79-0.26-2.67-0.47c0.27,3.21,0.63,6.42,0.88,9.63c12.63,6.79,27.85,7.18,40.76,0.92c-0.31-7.79-0.83-15.57-0.96-23.37 C61.52,243.45,58.92,243.49,56.65,243.63z M91.81,100.34c-1.17,13.53-1.94,27.09-2.17,40.67c3.95-14.57,7.21-29.31,9.59-44.17 C97.18,98.67,94.61,99.83,91.81,100.34z" style="fill: rgb(229, 182, 137);"/></g><g id="__id35_s2pplbyhko"><path d="M74.13,56.75c0.13,0.46-0.09,1.03-0.51,1.27c-0.15,0.14-0.33,0.26-0.54,0.32c-0.85,0.27-1.75-0.32-1.8-1.21 c-0.08-0.37,0.05-0.74,0.29-1.05c0.52-0.67,1.62-0.59,2.16,0c0.08,0.08,0.13,0.17,0.18,0.26c0.01,0.01,0.01,0.01,0.01,0.02 c0.01,0.01,0.02,0.03,0.02,0.04C74.03,56.51,74.09,56.62,74.13,56.75z M139.61,342.5c-1.86,15.81-9.15,31.41-14.8,46.18 c-6.09,15.93-12.44,31.76-18.25,47.8c-0.05,0.14-0.12,0.26-0.21,0.36c-0.01,0.01-0.02,0.02-0.03,0.03 c-0.01,0.01-0.02,0.02-0.03,0.03c-0.24,0.31-0.63,0.49-1.12,0.36c-3.08-0.83-6.04-2.01-8.84-3.47c1.19,12.31,7.92,20.89,17.42,28.41 c0.29,0.23,0.58,0.47,0.86,0.71c0.1,0.08,0.21,0.15,0.31,0.23c0.09,0.07,0.17,0.15,0.23,0.24c2.23,1.98,4.32,4.37,5.6,6.96 c0.12,0.14,0.2,0.31,0.23,0.5c1.52,3.36,1.65,7.02-0.96,10.55c-0.38,7.56-12.06,4.85-17.51,2.55c-0.39,4.94-3.93,6.87-9.1,7.1 c-9.45,0.42-19.01-0.09-28.47-0.19c-4.81-0.05-9.62-0.11-14.43-0.16c-3.31-0.04-7.53,0.49-10.71-0.73 c-4.13-1.58-3.27-6.43-3.21-10.12c0-0.1,0.04-0.17,0.06-0.26c-0.01-0.33-0.01-0.66,0.01-1.01c0.23-6.59,0.92-13.21,1.43-19.79 c-0.15-0.06-0.27-0.13-0.37-0.22c-0.02-0.02-0.04-0.05-0.06-0.07c-0.04-0.05-0.08-0.09-0.11-0.15c-0.11-0.17-0.2-0.36-0.2-0.61 c0.55-61.74-1.03-123.57,0.21-185.3c-5.18-0.88-10.25-2.62-14.97-5.23c-0.41-0.23-0.57-0.59-0.55-0.94c0-0.01-0.01-0.02-0.01-0.03 c-0.26-3.69-0.7-7.36-0.99-11.04c-3.24-1.18-6.2-3.12-8.47-5.71c-0.09-0.1-0.15-0.21-0.2-0.32c-0.11-0.21-0.16-0.48-0.09-0.77 c0.28-1.19,0.73-2.36,1.18-3.5c-1.85-0.9-3.64-1.93-5.35-3.06c-0.25-0.12-0.46-0.34-0.56-0.7c-4.52-17.21-6.9-34.54-7.4-52.32 c0-0.01,0-0.01,0-0.02c-0.47-11.9,0.01-24.13,2.77-35.71c2.94-12.33,7.86-24.33,13.75-35.54C26.73,98.4,42.54,79.63,64.41,75.73 c0.03-0.01,0.06-0.01,0.1-0.02c1.58-0.28,3.19-0.48,4.84-0.6c0.14-0.04,0.28-0.04,0.42-0.03c0.4-0.03,0.81-0.04,1.21-0.05 C71.7,70.69,72.3,66.4,72,62c-5.35-1.51-9.67-6.45-8.58-12.45c0.06-0.35,0.16-0.68,0.27-1.01c-7.25-8.19-7.93-19.46-3.66-29.36 C64.74,8.26,75.95,1.81,87.68,1.82C97.82-1.7,109.8-0.2,117.99,7.08c7.45,6.63,11.94,17.25,10.6,27.19 c-0.11,0.81-1.38,1.11-1.88,0.5c-0.15-0.18-0.3-0.36-0.45-0.55c-0.69,3.82-2.84,7.85-5.67,10.39c1.82,0.92,2.53,3.48,2.41,5.57 c-0.2,3.35-2.05,6.23-4.86,8c-0.02,0.01-0.04,0.02-0.07,0.03c-1.59,7.13-4.99,13.55-11.69,17.71c-3.04,1.89-6.03,2.79-8.89,2.95 c-0.2,1.59-0.46,3.18-0.64,4.78c8.41,3.79,15.14,10.61,18.66,19.19c4.28,10.41,2.24,21.37-0.14,31.98 c-5.82,25.86-8.84,52.22-9.23,78.72c0,0.08-0.03,0.14-0.05,0.21c1.48,5.91,3.43,11.67,6.17,17.04c1.82,3.57,4.65,6.77,6.22,10.42 c1.71,3.98,0.5,7.38-1.79,10.26c5.27,14.89,11.11,29.59,15.81,44.67C137.16,311.1,141.47,326.68,139.61,342.5z M106.38,93.02 c-2.59,25.98-7.98,51.35-16.33,75.84c0.02,0.08,0.06,0.15,0.06,0.24c1.39,27.66,2.82,55.4,7.3,82.75c0.08,0.19,0.12,0.41,0.1,0.62 c0.37,2.24,0.76,4.47,1.17,6.71c4.36-0.69,8.7-2.57,12.18-5.24c3.31-2.6,7.12-5.73,6.02-10.65c-0.54-2.43-2.71-4.76-4.04-6.9 c-1.78-2.85-3.3-5.83-4.59-8.93c-5.09-12.22-7.04-25.64-8.64-38.68c-0.01-0.1-0.01-0.19,0-0.28c-0.05-22.98,1.11-46.05,7.72-68.2 c0.41-1.39,2.58-0.79,2.17,0.6c-6.58,22.06-7.7,45.01-7.64,67.88c0.63,5.14,1.31,10.4,2.23,15.64c0.74-20,2.92-39.98,6.8-59.61 c2.37-12.01,7.12-24.9,3.86-37.16C113.28,102.05,110.33,97.06,106.38,93.02z M84.58,256.59c-5.82,1.12-11.71,1.71-17.71,1.8 c0.15,2.9,0.29,5.79,0.4,8.69c0.04,0.31-0.04,0.62-0.31,0.85c0,0-0.01,0.01-0.01,0.01c-0.07,0.06-0.14,0.11-0.23,0.15 c-8.42,4.24-17.79,5.77-26.9,4.66c-1.22,61.33,0.33,122.76-0.19,184.11c11.45,3.18,23.19,2.95,34.51-0.65 c3.03-23.65,5.4-47.38,7.14-71.15c-0.01-0.08,0-0.17,0.02-0.26C84.41,342.15,85.48,299.35,84.58,256.59z M84.04,377.7 c8.38-22.19,14.64-46.86,2.89-68.66C86.55,331.95,85.59,354.84,84.04,377.7z M60.22,471.7c0.12-0.92,0.31-1.82,0.58-2.68 c-3.34-2.21-6.44-4.78-9.22-7.82c-3.77-0.26-7.54-0.86-11.27-1.82c-0.31,4.13-0.6,8.25-0.89,12.38c-0.15,2.08-0.79,4.73-0.5,6.8 c0.63,4.43,3.87,4.88,7.51,5.1c9.93,0.6,19.87,1.37,29.81,1.74c4.97,0.19,9.96,0.22,14.91-0.21c1.76-0.15,3.51-0.36,5.25-0.64 c2.63-0.13,3.44-2.12,2.43-5.96c-0.41-0.54-1.06-1.04-1.79-1.5c-0.04-0.02-0.07-0.04-0.1-0.07c-0.52-0.31-1.07-0.61-1.62-0.89 c0,0.72-0.25,1.49-0.83,2.26c-2.57,3.39-7.68,1.48-10.89,0.54c-1.36-0.39-2.7-0.81-4.05-1.25c-0.05,0.46-0.08,0.92-0.06,1.38 c0.05,1.45-2.2,1.44-2.25,0c-0.02-0.7,0.03-1.4,0.15-2.11c-2.25-0.78-4.46-1.63-6.62-2.58c-0.29,0.68-0.54,1.38-0.71,2.12 c-0.32,1.41-2.49,0.81-2.17-0.6c0.2-0.85,0.47-1.67,0.81-2.46c-2.03-0.96-4.01-2.02-5.92-3.17c-0.12,0.47-0.23,0.95-0.29,1.44 C62.3,473.12,60.05,473.14,60.22,471.7z M91.38,474.08c-0.06-0.04-0.12-0.09-0.17-0.13c-1.96-1.12-3.91-2.25-5.86-3.39 c-2.57,0.54-4.42,2.54-5.3,4.94c1.65,0.53,3.32,1.04,4.99,1.51c0.81,0.24,1.63,0.46,2.45,0.67C89.41,478.4,90.71,477.2,91.38,474.08 z M82.79,469.06c-1.14-0.66-2.27-1.33-3.41-1.99c-0.11,0.08-0.24,0.15-0.4,0.19c-3.04,0.79-5.55,2.66-7.19,5.18 c2.02,0.87,4.07,1.64,6.15,2.35C78.82,472.35,80.51,470.19,82.79,469.06z M76.84,465.6c-1.34-0.78-2.69-1.57-4.04-2.34 c-2.6-0.45-4.63-0.21-6.7,1.57c-1.09,0.93-1.94,2.07-2.56,3.34c1.86,1.16,3.78,2.22,5.78,3.17c0.12,0.06,0.25,0.11,0.37,0.17 C71.35,468.83,73.86,466.74,76.84,465.6z M68.87,461c-0.45-0.26-0.9-0.52-1.35-0.77c-4.2,0.81-8.44,1.19-12.68,1.12 c2.11,2.08,4.4,3.93,6.83,5.59c0.81-1.59,1.94-3.01,3.42-4.17C66.33,461.79,67.57,461.25,68.87,461z M95.1,251.6 c-4.14-25.55-5.67-51.43-6.98-77.27c-3.7,10.25-7.91,20.35-12.68,30.27c-0.15,7.05-0.29,14.1-0.45,21.15 c-0.11,4.5,0.08,10.01-3.13,13.63c-1.48,1.67-3.45,2.62-5.6,3.2c0.07,4.52,0.26,9.04,0.49,13.55 C76.44,256.01,85.85,254.51,95.1,251.6z M65.91,197.05c-1.58-0.18-3.15-0.35-4.73-0.52c-3.14-0.34-6.28-0.66-9.41-0.99 c-6.22-0.65-12.44-1.3-18.65-2.01c0.16,5.4,0.54,10.78,1.15,16.14c13.81,3.68,26.11-8.04,39.45-10.06 C74.09,198.26,66.84,197.16,65.91,197.05z M71.69,195.51c5.8-15.14,11.09-30.55,15.62-46.19c-0.01-15.63,0.77-31.23,2.06-46.8 c-3.23,0.6-6.69,0.37-9.8-0.66c-6.2,30.61-9.96,61.64-12.03,92.8C68.99,194.82,70.41,195.07,71.69,195.51z M34.59,212.07 c0.79,6.18,1.87,12.33,3.31,18.41c0.58,2.47,1.89,6.01,2.48,9.33c4.87,1.2,9.72,1.84,14.76,1.64c5.99-0.23,14.58,0.07,16.74-6.85 c1.6-5.12,0.91-11.28,1.02-16.58c0.11-5.35,0.23-10.71,0.34-16.06C60.14,204.42,48.27,215.16,34.59,212.07z M102.05,93.24 c-2.84,19.03-7.13,37.86-12.49,56.39c0,0.15,0,0.3,0,0.45c0,0.37-0.15,0.65-0.37,0.83c-4.5,15.42-9.74,30.62-15.46,45.55 c0.85,0.54,1.56,1.23,2.05,2.13c15.66-34.05,25.03-70.14,28.56-107.49c-0.57-0.5-1.16-0.97-1.76-1.43c-0.15,1.05-0.3,2.1-0.46,3.15 C102.12,92.96,102.1,93.1,102.05,93.24z M99.23,96.83c-2.05,1.84-4.62,2.99-7.42,3.5c-1.17,13.53-1.94,27.09-2.17,40.67 C93.58,126.44,96.84,111.7,99.23,96.83z M92.3,94.86c-0.1,1.05-0.19,2.11-0.28,3.16c3.29-0.76,6.13-2.5,7.89-5.53 c0.21-1.42,0.42-2.84,0.62-4.27c-0.59-0.39-1.19-0.76-1.81-1.11C98.21,90.7,95.66,93.34,92.3,94.86z M119.3,46.59 c-0.04,2.76-0.23,5.53-0.62,8.23c0.77-0.82,1.37-1.78,1.72-2.91C120.81,50.62,121.23,47.06,119.3,46.59z M75.99,60.22 c0.74-0.04,1.1,0.53,1.08,1.11c0.06,0.07,0.11,0.14,0.15,0.23c2.76,5.29,6.4,10.58,11.84,13.39c6.45,3.33,14.02,1.52,19.19-3.28 c8.8-8.17,9.35-20.62,8.69-32.02c-4.61-0.4-8.91-1.85-12.87-4.3c0.18,0.51,0.35,1.02,0.53,1.53c0.65,0.84,0.09,2.18-1.09,1.88 C96.73,37,91.33,32.83,87.95,26.96c-1.14,4.93-3.64,9.3-6.33,13.72c-0.51,0.84-1.76,0.65-2.06-0.27c-0.02-0.07-0.05-0.14-0.07-0.21 c-0.96,2.78-2.28,5.37-4.04,7.86c-0.18,0.25-0.4,0.39-0.64,0.45c-0.56,0.38-1.52,0.29-1.83-0.55c-1.48-3.96-6.09-1.9-7.13,1.08 c-0.72,2.06-0.22,4.46,0.79,6.32C68.54,58.84,72.14,60.42,75.99,60.22z M80.31,91.74c0.06,0.01,0.1,0.04,0.15,0.05 c0.1,0.02,0.19,0.05,0.28,0.09c0.02,0.01,0.03,0.02,0.05,0.03c0.42,0.22,0.72,0.66,0.59,1.25c-0.47,2.15-0.93,4.31-1.37,6.47 c3.04,1.03,6.42,1.24,9.55,0.53c0.17-1.99,0.35-3.97,0.53-5.96c0.02-0.2,0.08-0.36,0.17-0.51c0.1-0.3,0.32-0.56,0.68-0.7 c3.18-1.24,5.47-3.64,5.58-7.03c-0.45-0.22-0.91-0.43-1.38-0.63c-0.08-0.02-0.14-0.07-0.21-0.11c-0.04-0.02-0.09-0.05-0.13-0.07 c-0.02-0.02-0.05-0.04-0.07-0.06c-0.28-0.25-0.33-0.6-0.23-0.93c0.18-1.79,0.49-3.56,0.71-5.34c-8.46-0.72-15.69-7.96-19.96-16.14 c-0.04-0.08-0.07-0.15-0.09-0.22c-0.31-0.01-0.61-0.02-0.91-0.05c0.26,4.72-0.46,9.33-1.25,13.99c-0.1,0.58-0.52,0.81-0.97,0.8 c-0.04,0.01-0.07,0.03-0.12,0.03c-0.44,0.01-0.87,0.04-1.31,0.06C69.38,84.05,73.02,90.89,80.31,91.74z M78.19,97.44 c0.26-1.23,0.52-2.45,0.78-3.67c-7.67-1.59-11.81-8.69-10.66-16.3c-0.92,0.09-1.83,0.2-2.73,0.35 C64.78,86.85,68.46,95.99,78.19,97.44z M35.12,246.57c0.18-0.02,0.33-0.01,0.47,0.04c2.57-0.39,3.07-2.67,2.76-5.39 c-0.08-0.18-0.1-0.39-0.08-0.59c-0.47-3.15-1.86-6.74-2.32-8.64c-1.17-4.86-2.14-9.76-2.91-14.69c-1.51-9.67-2.23-19.43-2.24-29.21 c0-0.04,0.02-0.07,0.02-0.1c0-0.04-0.02-0.07-0.02-0.11c0.19-23.48,8.43-44.34,19.89-64.49c0.72-1.26,2.66-0.12,1.94,1.14 c-11.27,19.82-19.4,40.26-19.58,63.35c0,0.04-0.02,0.07-0.02,0.1c0,0.04,0.02,0.07,0.02,0.11c0,1.07,0.03,2.13,0.05,3.2 c9.05,1.03,18.1,1.93,27.15,2.9c1.39,0.15,3.18,0.18,5.06,0.29c2.13-31.85,6-63.58,12.43-94.85c-10.51-1.73-15.2-11.23-14.43-21.39 c-21.56,4.56-36.61,24.22-46.17,43.34c-5.39,10.79-9.96,22.29-12.49,34.12c-2.52,11.8-2.73,24.26-2.09,36.26 c0,0.03-0.01,0.06-0.01,0.09c0.67,16.31,2.96,32.23,7.09,48.07C17.17,245.01,26.09,247.73,35.12,246.57z M29.62,249.07 c-0.52,1.73-1.05,3.47-1.57,5.2c1.01,0.02,2.01-0.06,3.01-0.21c0.74-1.64,1.34-3.31,1.83-5.03 C31.79,249.09,30.7,249.11,29.62,249.07z M25.33,248.66c-0.62,1.65-1.24,3.3-1.86,4.95c0.75,0.2,1.51,0.36,2.28,0.47 c0.52-1.72,1.04-3.45,1.56-5.17C26.65,248.84,25.99,248.76,25.33,248.66z M18.79,247.06c-1.11-0.37-2.21-0.79-3.29-1.25 c-0.33,0.84-0.64,1.69-0.88,2.55c0.85,0.9,1.79,1.71,2.81,2.42c0.44-1.22,0.89-2.45,1.33-3.67 C18.77,247.09,18.78,247.08,18.79,247.06z M23.09,248.24c-0.72-0.16-1.45-0.33-2.16-0.53c-0.52,1.42-1.03,2.84-1.55,4.26 c0.64,0.34,1.29,0.65,1.96,0.92C21.93,251.34,22.51,249.79,23.09,248.24z M64.99,266.42c-0.31-7.79-0.83-15.57-0.96-23.37 c-2.5,0.39-5.1,0.44-7.37,0.57c-5.48,0.32-10.7-0.21-15.99-1.44c0.16,3.43-0.96,6.22-5.27,6.7c-0.05,0.01-0.09-0.01-0.14-0.01 c-0.59,2.23-1.37,4.38-2.33,6.48c-0.03,0.25-0.15,0.48-0.38,0.63c-0.21,0.19-0.48,0.26-0.74,0.22c-1.63,0.28-3.3,0.35-4.95,0.23 c-0.28,0.07-0.58,0.03-0.84-0.09c-0.9-0.1-1.79-0.26-2.67-0.47c0.27,3.21,0.63,6.42,0.88,9.63 C36.86,272.3,52.08,272.69,64.99,266.42z M99.58,485.72c-4.74,2.13-13.25,2.03-15.87,2.06c-7.47,0.08-14.94-0.51-22.39-0.96 c-6.42-0.39-13.9,0.18-20.16-1.28c-1.04-0.24-1.86-0.6-2.49-1.07c0.04,0.56,0.14,1.08,0.32,1.54c1.15,2.81,5.17,2.34,7.69,2.39 c5.77,0.11,11.54,0.13,17.31,0.19c6.09,0.07,12.18,0.13,18.27,0.2C86.83,488.83,96.8,490.4,99.58,485.72z M117.48,482.25 c-5.23,0.28-10.45-1.16-15.39-3.05c0.49,0.91,0.72,1.72,0.75,2.44c2.42,1.23,4.87,1.99,7.64,2.2 C112.33,483.99,116.32,484.2,117.48,482.25z M119.65,472.9c-4.03,2.97-12.24-2.66-17.44-7c-0.19,0.42-0.36,0.87-0.5,1.38 c-0.36,1.4-2.53,0.81-2.17-0.6c0.21-0.81,0.53-1.57,0.93-2.29c-0.97-0.86-1.75-1.61-2.25-2.12c-1.31-1.32-2.52-2.73-3.64-4.2 c-0.16,0.26-0.3,0.53-0.44,0.8c-0.61,1.31-2.55,0.17-1.94-1.14c0.27-0.58,0.61-1.11,0.98-1.61c-1.13-1.68-2.13-3.43-2.99-5.24 c-0.37,0.31-0.73,0.66-1.08,1.05c-0.96,1.09-2.55-0.51-1.59-1.59c0.55-0.62,1.13-1.16,1.72-1.61c-0.69-1.72-1.26-3.49-1.69-5.3 c-3.28,0.01-6.42-0.63-9.38-2.01c-0.61,5.22-1.24,10.44-1.91,15.65c-0.02,0.12-0.05,0.23-0.1,0.33c-0.09,0.33-0.32,0.62-0.73,0.75 c-1.54,0.51-3.1,0.96-4.66,1.35c0.95,0.54,1.89,1.09,2.83,1.63c0.19,0.05,0.34,0.14,0.45,0.26c4.48,2.59,8.94,5.19,13.41,7.79 c3.22,1.88,7.89,3.64,11.24,6.21c6.1,2.65,12.89,5.13,19.62,4.53C120.13,477.55,120.38,475.19,119.65,472.9z M103.5,464.04 c0.95,0.78,1.93,1.52,2.93,2.22c2.06,1.45,9.91,7.04,12.23,4.46c-1.08-1.88-2.7-3.71-4.54-5.46c-0.11-0.04-0.21-0.09-0.32-0.17 C110.63,462.65,106.13,461.53,103.5,464.04z M99.99,454.97c-1.53-0.05-2.85,0.49-3.91,1.38c0.04,0.05,0.08,0.11,0.12,0.16 c1.68,2.21,3.57,4.24,5.63,6.08c0.93-0.95,2.06-1.69,3.39-2.1c1.01-0.31,2.02-0.39,3.01-0.31c-0.31-0.26-0.62-0.51-0.93-0.77 c-0.32,0.08-0.68,0.01-0.99-0.3C104.46,457.24,102.86,455.06,99.99,454.97z M100.06,451.58c-2.3-2.61-5.29-3.17-7.99-1.91 c0.77,1.66,1.67,3.26,2.7,4.82c1.22-0.97,2.7-1.61,4.35-1.74c0.63-0.05,1.21-0.02,1.76,0.06 C100.6,452.4,100.32,451.99,100.06,451.58z M94.38,436.22c-1.83-1.01-3.65-2.05-5.47-3.08c-0.31,5,0.49,9.87,2.26,14.43 c2.14-0.98,4.42-1.04,6.55-0.24C96.07,443.82,94.96,440.08,94.38,436.22z M129.79,295.02c-4.46-14.06-9.87-27.8-14.82-41.69 c-0.85,0.83-1.76,1.62-2.69,2.34c-0.04,0.03-0.08,0.05-0.13,0.08c-0.03,0.03-0.06,0.07-0.1,0.1c-4.06,3.13-9.21,5.12-14.28,5.72 c-0.43,0.05-0.73-0.12-0.9-0.38c0,0,0,0,0,0c-0.02-0.02-0.03-0.05-0.04-0.08c-0.06-0.1-0.11-0.22-0.14-0.36 c-0.43-2.3-0.84-4.61-1.22-6.91c-2.86,0.89-5.75,1.65-8.64,2.28c0.35,16.18,0.41,32.37,0.19,48.55 c16.01,25.34,6.74,54.98-3.48,80.51c0,0.01-0.01,0.02-0.01,0.03c-0.76,10.3-1.63,20.59-2.63,30.87c5.28,9.04,13.88,15.76,23.9,18.73 c5.49-15.07,11.42-29.98,17.17-44.95c5.72-14.9,13.17-30.67,15.28-46.58C139.43,326.85,134.72,310.55,129.79,295.02z M103.04,57.86 c1.99,0.18,3.92-1.39,4.04-3.41c0.13-2.09-1.62-3.71-3.6-3.88c-1.44-0.12-1.43,2.13,0,2.25c0.75,0.06,1.46,0.83,1.35,1.6 c-0.13,0.86-1.02,1.26-1.79,1.19C101.6,55.48,101.61,57.73,103.04,57.86z M106.55,47.68c0.37-1.63,1.32-2.98,2.88-3.67 c0.95-0.42,2.17-0.5,3.12-0.11c-1.1,0.7-1.91,1.75-2.13,3.1c-0.23,1.39,0.35,2.98,1.6,3.73c1.34,0.8,3.01,0.25,3.83-1.03 c0.92-1.43,0.74-3.54,0.2-5.07c-0.05-0.13-0.11-0.23-0.18-0.33c-0.86-2.04-3.06-3.17-5.44-2.89c-3.02,0.36-5.38,2.76-6.04,5.66 C104.05,48.49,106.22,49.09,106.55,47.68z M88.51,43.56c-3.02,0.36-5.38,2.76-6.04,5.66c-0.32,1.41,1.84,2.01,2.17,0.6 c0.37-1.63,1.32-2.98,2.88-3.67c0.95-0.42,2.17-0.5,3.12-0.11c-1.1,0.7-1.91,1.75-2.13,3.1c-0.23,1.39,0.35,2.98,1.6,3.73 c1.34,0.8,3.01,0.25,3.83-1.03c0.92-1.43,0.74-3.54,0.2-5.07c-0.05-0.13-0.11-0.23-0.18-0.33C93.08,44.4,90.89,43.28,88.51,43.56z M83.87,42.48c2.48-2.59,5.55-4.18,9.08-4.76c1.43-0.23,0.82-2.4-0.6-2.17c-3.89,0.64-7.36,2.49-10.08,5.34 C81.28,41.94,82.87,43.53,83.87,42.48z M97.41,66.76c3,1.96,6.78,1.49,9.25-1.1c1-1.05-0.59-2.64-1.59-1.59 c-1.8,1.89-4.34,2.17-6.52,0.75C97.33,64.03,96.2,65.97,97.41,66.76z" style="fill: rgb(34, 23, 22);"/></g></svg>