<svg xmlns="http://www.w3.org/2000/svg" xmlns:xlink="http://www.w3.org/1999/xlink" preserveAspectRatio="xMidYMid meet" version="1.0" viewBox="-0.8 0.0 125.2 490.5" zoomAndPan="magnify" style="fill: rgb(0, 0, 0);" original_string_length="13564"><g id="__id13_s2pplbyhko"><path d="M114.27,166.67c-5.83,3.93-12.29,6.22-19.03,7.39c2.23,25.4,2.52,50.77,2.52,76.26c0,0.44-0.21,0.72-0.5,0.9 c-0.09,0.07-0.2,0.14-0.33,0.19c-1.87,0.68-3.75,1.3-5.66,1.88c10.09,62.98,14.23,127.22,12.55,190.98 c-0.01,0.38-0.18,0.66-0.41,0.84c-0.04,0.05-0.09,0.09-0.15,0.14c-2.04,1.55-4.29,2.67-6.64,3.39c3.9,11.95,16.82,14.52,24.3,23.42 c2.21,2.64,3.33,6.35,2.09,9.68c-1.74,4.65-7.21,6.13-11.66,6.77c-14.27,2.02-23.23-7.58-34.77-13.92 c-4.87-2.68-5.43-5.14-4.75-10.85c0.78-6.52,3.39-12.65,4.49-19.12c-0.6-0.5-1.19-1.03-1.75-1.6c-0.1-0.1-0.16-0.21-0.22-0.32 c0,0,0-0.01,0-0.01c-0.06-0.14-0.09-0.27-0.1-0.41c0-0.02-0.01-0.04-0.01-0.06c-1.23-43.99-11.36-86.9-19.32-130.08 c1.55,37.71,6.02,75.24,12.36,112.44c0,0.01,0,0.01,0,0.02c0.08,0.25,0.06,0.55-0.11,0.84c-0.26,0.45-0.55,0.88-0.86,1.29 c1.03,5.68,2.52,11.49,3.01,17.23c0.36,4.25-1.3,6.6-5.03,8.48c-5.96,3.01-12.21,5.63-18.34,8.29c-4.74,2.06-9.63,3.92-14.82,4.39 c-7.46,0.68-17.07-4.08-11.42-12.7c2.21-3.37,6.13-5.47,9.49-7.63c0.08-0.06,0.16-0.12,0.25-0.16c0.22-0.14,0.45-0.29,0.66-0.43 c4.95-3.34,9.79-6.79,13.18-11.74c-0.61-0.24-1.21-0.51-1.78-0.81c-0.02-0.01-0.03-0.01-0.05-0.02c0,0-0.01,0-0.01-0.01 c-0.01-0.01-0.02-0.01-0.03-0.02c-0.05-0.03-0.09-0.06-0.14-0.09c-0.24-0.19-0.36-0.43-0.38-0.68 c-15.51-57.01-25.25-115.52-29.34-174.46c-0.01-0.08,0.02-0.14,0.03-0.21c-1.64-0.29-3.28-0.6-4.91-0.95 c-0.58-0.12-0.82-0.56-0.8-1.01c0-0.03-0.02-0.04-0.02-0.07c-1.95-17.97-1.47-36,0.3-53.95c-0.11,0.05-0.21,0.09-0.33,0.13 c-0.38,0.12-0.82-0.02-1.09-0.29c-2.38-2.35-0.49-7.35,0.12-10.16c1.05-4.84,2.48-10.19,1.4-15.02c-1.47-0.02-2.5-0.48-3.1-1.24 c-0.16-0.12-0.3-0.28-0.39-0.5c-3.6-8.72-3.12-18.06-1.88-27.23C2.4,134.9,3,123.77,5.06,112.9c1.63-8.59,5.07-16.38,12.25-21.71 c3.6-2.67,7.72-4.62,11.98-6.01c6.43-2.11,14.62-3.27,13.18-12.29c-0.02-0.13,0-0.24,0.01-0.35c-0.33-0.07-0.66-0.14-1-0.22 c-5.17-1.33-9.37-4.21-12.76-7.99c-5.14-0.17-10.08-2.45-12.06-7.47c-0.71-1.8-0.93-4.98-0.14-7.18 C4.81,42.53,4.08,26.23,11.56,15.66C21.89,1.06,40.84,0.09,57.09,0c0.56,0,1.18,0.52,1.13,1.13c-0.17,1.79-0.6,3.25-1.48,4.54 c7.21,0.54,13.82,6.49,17.72,12.13c5.89,8.53,6.85,19.63,3.82,29.38c-0.31,1-1.94,1.14-2.17,0c-0.14-0.68-0.28-1.36-0.42-2.04 c-2.06,4.52-5.62,8.25-9.66,11.2c0.01,2.91,0.08,5.9,0.98,8.66c0.57,1.74,1.52,3.22,2.66,4.56c0.2,0.13,0.36,0.32,0.47,0.54 c0.72,0.79,1.5,1.53,2.3,2.26c6.32,3.68,13.36,3.66,20.38,4.91c5.05,0.9,9.61,2.86,13.7,5.98c9.63,7.38,14.51,18.97,16.3,30.69 c1.58,10.27,1.5,21.11,0.96,31.49C123.35,153.47,121.61,162.13,114.27,166.67z" style="fill: rgb(247, 247, 247);"/></g><g id="__id14_s2pplbyhko"><path d="M38.68,56.35c-0.82-1.41-0.29-3.07,0.94-4.01c0.49-0.37,1.26-0.07,1.54,0.4c0.33,0.57,0.08,1.17-0.4,1.54 c-0.63,0.48,0.06,1.54,0.76,1.22c0.55-0.25,1.21-0.16,1.54,0.4c0.28,0.49,0.15,1.29-0.4,1.54C41.26,58.08,39.49,57.75,38.68,56.35z M49.04,64.6c-3.86,1.75-7.89-0.07-11.38-1.8c-1.19-0.59-0.33-2.27,0.82-2.05c5.55,0.52,10.64-1.46,14.35-5.62 c0.75-0.84,2.2,0.04,1.88,1.09C53.72,59.51,52.38,63.09,49.04,64.6z M48.88,62.1c0.88-0.59,1.52-1.39,2.04-2.29 c-2.22,1.52-4.72,2.53-7.36,2.99C45.37,63.25,47.21,63.23,48.88,62.1z M47,43.96c-0.46,1.38,1.71,1.97,2.17,0.6 c0.81-2.43,3.66-2.93,5.38-1.12c1,1.05,2.59-0.54,1.59-1.59C53.2,38.76,48.32,39.98,47,43.96z M25.68,51.71 c-0.68,1.28,1.26,2.42,1.94,1.14c1.25-2.35,4.06-2.5,5.7-0.44c0.9,1.13,2.48-0.47,1.59-1.59C32.4,47.65,27.56,48.17,25.68,51.71z M46.31,34.13c2.23-0.81,4.63-0.51,6.47,1.04c1.1,0.92,2.7-0.66,1.59-1.59c-2.43-2.04-5.65-2.71-8.66-1.61 C44.36,32.45,44.94,34.63,46.31,34.13z M28.69,40.66c1.41-0.33,0.81-2.5-0.6-2.17c-2.96,0.7-5.33,3.18-5.8,6.2 c-0.22,1.42,1.95,2.03,2.17,0.6C24.82,42.99,26.41,41.19,28.69,40.66z M114.27,166.67c-5.83,3.93-12.29,6.22-19.03,7.39 c2.23,25.4,2.52,50.77,2.52,76.26c0,0.44-0.21,0.72-0.5,0.9c-0.09,0.07-0.2,0.14-0.33,0.19c-1.87,0.68-3.75,1.3-5.66,1.88 c10.09,62.98,14.23,127.22,12.55,190.98c-0.01,0.38-0.18,0.66-0.41,0.84c-0.04,0.05-0.09,0.09-0.15,0.14 c-2.04,1.55-4.29,2.67-6.64,3.39c3.9,11.95,16.82,14.52,24.3,23.42c2.21,2.64,3.33,6.35,2.09,9.68c-1.74,4.65-7.21,6.13-11.66,6.77 c-14.27,2.02-23.23-7.58-34.77-13.92c-4.87-2.68-5.43-5.14-4.75-10.85c0.78-6.52,3.39-12.65,4.49-19.12c-0.6-0.5-1.19-1.03-1.75-1.6 c-0.1-0.1-0.16-0.21-0.22-0.32c0,0,0-0.01,0-0.01c-0.06-0.14-0.09-0.27-0.1-0.41c0-0.02-0.01-0.04-0.01-0.06 c-1.23-43.99-11.36-86.9-19.32-130.08c1.55,37.71,6.02,75.24,12.36,112.44c0,0.01,0,0.01,0,0.02c0.08,0.25,0.06,0.55-0.11,0.84 c-0.26,0.45-0.55,0.88-0.86,1.29c1.03,5.68,2.52,11.49,3.01,17.23c0.36,4.25-1.3,6.6-5.03,8.48c-5.96,3.01-12.21,5.63-18.34,8.29 c-4.74,2.06-9.63,3.92-14.82,4.39c-7.46,0.68-17.07-4.08-11.42-12.7c2.21-3.37,6.13-5.47,9.49-7.63c0.08-0.06,0.16-0.12,0.25-0.16 c0.22-0.14,0.45-0.29,0.66-0.43c4.95-3.34,9.79-6.79,13.18-11.74c-0.61-0.24-1.21-0.51-1.78-0.81c-0.02-0.01-0.03-0.01-0.05-0.02 c0,0-0.01,0-0.01-0.01c-0.01-0.01-0.02-0.01-0.03-0.02c-0.05-0.03-0.09-0.06-0.14-0.09c-0.24-0.19-0.36-0.43-0.38-0.68 c-15.51-57.01-25.25-115.52-29.34-174.46c-0.01-0.08,0.02-0.14,0.03-0.21c-1.64-0.29-3.28-0.6-4.91-0.95 c-0.58-0.12-0.82-0.56-0.8-1.01c0-0.03-0.02-0.04-0.02-0.07c-1.95-17.97-1.47-36,0.3-53.95c-0.11,0.05-0.21,0.09-0.33,0.13 c-0.38,0.12-0.82-0.02-1.09-0.29c-2.38-2.35-0.49-7.35,0.12-10.16c1.05-4.84,2.48-10.19,1.4-15.02c-1.47-0.02-2.5-0.48-3.1-1.24 c-0.16-0.12-0.3-0.28-0.39-0.5c-3.6-8.72-3.12-18.06-1.88-27.23C2.4,134.9,3,123.77,5.06,112.9c1.63-8.59,5.07-16.38,12.25-21.71 c3.6-2.67,7.72-4.62,11.98-6.01c6.43-2.11,14.62-3.27,13.18-12.29c-0.02-0.13,0-0.24,0.01-0.35c-0.33-0.07-0.66-0.14-1-0.22 c-5.17-1.33-9.37-4.21-12.76-7.99c-5.14-0.17-10.08-2.45-12.06-7.47c-0.71-1.8-0.93-4.98-0.14-7.18 C4.81,42.53,4.08,26.23,11.56,15.66C21.89,1.06,40.84,0.09,57.09,0c0.56,0,1.18,0.52,1.13,1.13c-0.17,1.79-0.6,3.25-1.48,4.54 c7.21,0.54,13.82,6.49,17.72,12.13c5.89,8.53,6.85,19.63,3.82,29.38c-0.31,1-1.94,1.14-2.17,0c-0.14-0.68-0.28-1.36-0.42-2.04 c-2.06,4.52-5.62,8.25-9.66,11.2c0.01,2.91,0.08,5.9,0.98,8.66c0.57,1.74,1.52,3.22,2.66,4.56c0.2,0.13,0.36,0.32,0.47,0.54 c0.72,0.79,1.5,1.53,2.3,2.26c6.32,3.68,13.36,3.66,20.38,4.91c5.05,0.9,9.61,2.86,13.7,5.98c9.63,7.38,14.51,18.97,16.3,30.69 c1.58,10.27,1.5,21.11,0.96,31.49C123.35,153.47,121.61,162.13,114.27,166.67z M21.62,167.69c-0.33,0.24-0.64,0.49-0.95,0.75 c0.32-0.07,0.64-0.12,0.95-0.21c1.61-0.42,3.18-1.03,4.73-1.63c3.35-1.3,6.66-2.78,9.83-4.49c0.43-0.23,0.84-0.16,1.15,0.06 c0.4,0.23,0.67,0.68,0.52,1.17c-0.03,0.18-0.12,0.35-0.26,0.5c-1.34,2.08-2.68,4.16-4.03,6.23c-0.84,1.3-5.2,5.82-1.35,4.31 c1-0.39,1.96-1.03,2.88-1.79c0.07-0.07,0.14-0.13,0.22-0.18c2.26-1.9,4.35-4.49,6.5-6.05c0.15-0.11,0.3-0.21,0.45-0.31 c0.05-0.04,0.1-0.07,0.15-0.1c3.35-2.28,7.38-3.74,11.45-4.01c0.15-0.04,0.3-0.04,0.46-0.02c1.29-0.06,2.58,0,3.85,0.2 c-0.01-0.49-0.01-0.88-0.01-1.09c0.11-4.81-0.33-9.54-1.17-14.27c-6.72-0.25-10.48-5.46-16.57-7.66c-0.89-0.32-8.32-2.56-8.76-1.62 c-1.15,2.49,8.27,5.97,9.42,6.43c0.61,0.08,0.86,0.64,0.77,1.19c-0.02,0.63-0.47,1.21-1.17,1.04c-6.64,0.66-13.31,1.05-19.93,1.82 c-2.38,0.28-4.06,1.23-1.5,2.51c1.27,0.63,3.87,0.3,5.27,0.41c3.24,0.25,6.48,0.58,9.73,0.73c0.59-0.15,1.01,0.24,1.14,0.74 c0.21,0.58-0.03,1.3-0.69,1.46c-0.01,0-0.01,0.01-0.02,0.01c-3.51,1.41-7.03,2.8-10.56,4.18c-1.51,0.59-3.03,1.17-4.54,1.75 c-0.84,0.32-5.01,1.11-2.66,3.09c0.85,0.72,7.88-1.75,8.83-2.01c2.91-0.8,5.77-1.76,8.59-2.85c0.65-0.25,1.12,0.12,1.28,0.63 c0.26,0.48,0.21,1.11-0.42,1.43c-3.23,1.66-6.46,3.34-9.6,5.17C24.27,165.99,22.91,166.79,21.62,167.69z M23.78,163.67 c0,0,0.01,0,0.01-0.01C23.79,163.67,23.78,163.67,23.78,163.67C23.78,163.67,23.78,163.67,23.78,163.67z M38.33,178.77 c-0.44-1.54-1.47-2.77-2.55-3.91c-1.08,0.91-2.19,1.7-3.31,2.15c1.1,1.04,2.19,2.1,3.49,2.92c0.39,0.25,1.91,1.28,2.3,1.03 C38.9,180.56,38.49,179.31,38.33,178.77z M49.25,182.18c-2.23,1.4-0.25,4.86,2,3.49C53.42,184.36,51.49,181.16,49.25,182.18z M51.25,208.94c2.17-1.32,0.24-4.52-2-3.49C47.02,206.84,49.01,210.3,51.25,208.94z M52.58,133.45c2.17-1.32,0.24-4.52-2-3.49 C48.35,131.36,50.33,134.81,52.58,133.45z M50.58,110.23c-2.23,1.4-0.25,4.86,2,3.49C54.75,112.4,52.82,109.2,50.58,110.23z M57.64,168.36c0.41-0.25,0.53-2.15,0.55-3.97c-0.98-0.18-1.97-0.27-2.94-0.27C54.96,166.02,54.59,170.24,57.64,168.36z M44.46,77.61c-0.22,0.84-0.54,1.61-0.95,2.32c0.52,0.04,1.07,0,1.5-0.01c0.83-0.03,1.68-0.09,2.49-0.27 c0.08-0.02,0.15-0.03,0.23-0.04c0.47-0.06,0.84,0.16,1.05,0.49c0.18,0.24,0.27,0.55,0.19,0.92c-0.92,4.27-1.51,8.58-1.91,12.9 c1.37-5.11,3.2-10.08,5.63-14.81c0.05-0.23,0.18-0.43,0.39-0.57c0.17-0.14,0.37-0.21,0.58-0.21c5.45-1.18,10.2-3.86,14.02-7.88 c-0.31-0.44-0.61-0.88-0.87-1.32C61.01,74.7,52.58,78.33,44.46,77.61z M64.18,61.23C60.9,68.59,53.41,73.68,44.7,72.87 c0.11,0.9,0.15,1.75,0.11,2.54c7.61,0.71,15.68-3.09,20.93-8.39C64.95,65.2,64.46,63.29,64.18,61.23z M26.74,61.89 c-2.67-3.59-4.74-7.76-6.32-12.06c-0.06-0.02-0.12-0.03-0.17-0.06c-0.66-0.31-1.11-0.22-1.43,0.1c-0.04,0.05-0.08,0.1-0.13,0.14 c-0.89,1.22-0.37,4.66-0.19,5.29c0.48,1.65,1.45,3.19,2.75,4.31C22.74,60.88,24.74,61.58,26.74,61.89z M63.19,48.61 c-0.01-0.05-0.01-0.1-0.02-0.15c-0.11-0.42,0.01-0.88,0.54-1.12c2.14-1.01,2.88-2.48,3.61-4.67c0.49-1.47,0.86-3.08,0.41-4.62 c-0.57-1.96-3.88-4.44-5.14-1.34c-0.2,0.75-1.24,1.06-1.83,0.57c-0.27-0.17-0.44-0.44-0.42-0.79c-1.64-5.44-7.46-9.19-11.85-12.34 C37.2,22.65,25.68,28,19.42,37.44c2,10.94,6.47,23.38,16.07,29.75C49.18,76.28,67.21,65.2,63.19,48.61z M5.56,172.56 c-0.22-0.52-0.47-1.03-0.77-1.53C4.58,172.06,4.93,172.44,5.56,172.56z M8.82,192.73c1.29-2.19,2.59-4.39,3.88-6.58 c0.32-0.54,0.86-0.63,1.32-0.46c0.33,0.09,0.6,0.31,0.71,0.66c0.07,0.16,0.09,0.34,0.06,0.52c-0.08,3.94-0.5,7.86-0.56,11.79 c-0.02,1.38-0.23,3.38,0.36,4.66c0.01,0.02,0.05,0.09,0.11,0.18c0.13-0.91,0.68-2.2,0.81-2.87c0.28-1.42,0.51-2.85,0.72-4.28 c0.46-3.17,0.8-6.37,0.86-9.58c-0.07-0.74,0.48-1.09,1.06-1.07c0.59-0.04,1.21,0.31,1.19,1.07c0.33,3.42,0.85,6.81,1.57,10.17 c0.21,0.96,1.68,9.63,3.83,7.71c0.91-0.81-0.77-8.07-0.91-9.57c-0.32-3.38-0.61-6.75-0.89-10.13c-0.01-0.14,0.01-0.26,0.05-0.38 c-0.17-1.08,1.44-1.86,2.08-0.73c1.56,2.75,3.36,5.32,5.09,7.96c0.67,1.02,1.22,2.56,2.08,3.36c0.36,1.08,1.23,1.39,2.61,0.94 c-0.22-0.58-0.44-1.16-0.66-1.74c-0.41-3.07-2.52-6.65-3.62-9.55c-1.16-3.07-2.33-6.14-3.49-9.21c-0.11-0.15-0.16-0.32-0.17-0.49 c-0.14-0.57,0.2-0.97,0.66-1.13c0.29-0.16,0.66-0.19,1.03,0.01c0.01,0.01,0.02,0.01,0.03,0.02c0.36-1.09,1-2.35,1.75-3.63 c-1.06-0.57-2.13-1.12-3.19-1.67c-0.97,0.37-1.94,0.73-2.92,1.06c-1.85,0.63-5.29,1.97-6.37,0.16c-1.12-1.89,1.88-3.7,3.5-4.76 c0.16-0.1,0.32-0.19,0.48-0.3c-0.18-0.21-0.34-0.43-0.5-0.65c-0.6,0.13-1.2,0.28-1.81,0.4c-2.09,0.42-5.87,1.45-6.88-1.39 c-0.15-0.43-0.2-0.82-0.18-1.18c-2.87,0.83-4.9,3.72-6.37,6.18c-0.08,0.13-0.16,0.26-0.24,0.4c1.04,1.44,1.77,2.94,2.26,4.51 c0.01,0.02,0.02,0.05,0.02,0.07c0.93,3.08,0.91,6.39,0.42,9.83c-0.17,1.18-2.74,14.53-2.65,14.52 C6.33,197.54,8.61,193.09,8.82,192.73z M38.14,441.16c3.1,0.78,5.78,2.63,7.6,5.34c0.83-0.39,1.63-0.78,2.38-1.15 c-1.67-3.13-4.75-5.17-8.37-5.28c-0.1,0-0.18-0.04-0.27-0.06C39.04,440.4,38.6,440.78,38.14,441.16z M31.36,446.05 c2.63,4.3,7.66,3.28,12.29,1.37c-1.86-2.57-4.7-4.2-7.92-4.41c-1.05,0.77-2.11,1.53-3.19,2.26 C32.16,445.53,31.76,445.79,31.36,446.05z M66.33,439.53c-7.54,3.52-15.1,7.24-22.82,10.29c-4.92,1.95-11.14,2.28-14.08-2.59 c-2.92,1.78-6.01,3.68-7.74,6.31c-2.31,3.51-0.28,8.02,3.64,9.11c2.79,0.77,6.23,0.28,8.98-0.29c8.57-1.77,16.66-6.34,24.59-9.93 c3.03-1.37,4.67-1.86,6.64-4.63C67.68,444.77,66.95,442.88,66.33,439.53z M65.93,437.24c-0.5-2.8-0.99-5.61-1.49-8.41 c-4.81,4.47-12.47,5.95-18.88,4.32c-1.16,1.78-2.48,3.4-3.94,4.87c3.66,0.67,6.84,2.97,8.54,6.34c0.13-0.06,0.25-0.12,0.37-0.17 C55.66,441.87,60.81,439.6,65.93,437.24z M96.48,472.8c-8.23-2.22-15.71-6.86-21.62-12.96c-0.01,0.06-0.03,0.12-0.04,0.18 c-0.57,2.46-1.5,5.96-0.87,8.53c0.85,3.46,5.34,4.82,8.02,6.53c9.66,6.16,18.18,13.46,30.54,10.94c3.84-0.78,8.67-2.47,8.8-7.16 c0.08-2.87-1.75-5.15-3.74-6.96c-1.08-0.98-2.25-1.88-3.45-2.74C111.14,475.59,102.35,474.38,96.48,472.8z M107.54,464.93 c-4.61,0.19-8.71,2.09-11.85,5.34c6.25,2.06,14.34,3.3,16.54-2.42c-1.48-1-2.98-1.97-4.42-2.98 C107.72,464.89,107.64,464.93,107.54,464.93z M89.29,467.65c0.21,0.1,0.4,0.21,0.61,0.31c0.93,0.44,2.13,0.97,3.51,1.49 c3.07-3.55,7.18-5.81,11.75-6.53c-0.74-0.57-1.47-1.16-2.17-1.76C97.63,460.69,92.33,463.24,89.29,467.65z M94.46,449.17 c-5.5,1.07-11.32-0.02-16.1-3.11c-0.72,3.79-1.87,7.46-2.86,11.19c3.43,3.73,7.38,6.89,11.79,9.36c2.96-4.42,7.95-7.37,13.25-7.71 C97.85,456.15,95.69,453.01,94.46,449.17z" style="fill: rgb(0, 0, 0);"/></g><g id="__id15_s2pplbyhko"><path d="M51.25,208.94c-2.24,1.36-4.23-2.1-2-3.49C51.49,204.42,53.42,207.62,51.25,208.94z M66.82,69.11 c-5.81,5.6-14.24,9.23-22.36,8.5c-0.22,0.84-0.54,1.61-0.95,2.32c0.52,0.04,1.07,0,1.5-0.01c0.83-0.03,1.68-0.09,2.49-0.27 c0.08-0.02,0.15-0.03,0.23-0.04c0.47-0.06,0.84,0.16,1.05,0.49c0.18,0.24,0.27,0.55,0.19,0.92c-0.92,4.27-1.51,8.58-1.91,12.9 c1.37-5.11,3.2-10.08,5.63-14.81c0.05-0.23,0.18-0.43,0.39-0.57c0.17-0.14,0.37-0.21,0.58-0.21c5.45-1.18,10.2-3.86,14.02-7.88 C67.38,69.99,67.09,69.55,66.82,69.11z M57.64,168.36c0.41-0.25,0.53-2.15,0.55-3.97c-0.98-0.18-1.97-0.27-2.94-0.27 C54.96,166.02,54.59,170.24,57.64,168.36z M5.56,172.56c-0.22-0.52-0.47-1.03-0.77-1.53C4.58,172.06,4.93,172.44,5.56,172.56z M50.58,129.96c-2.23,1.4-0.25,4.86,2,3.49C54.75,132.14,52.82,128.93,50.58,129.96z M49.25,182.18c-2.23,1.4-0.25,4.86,2,3.49 C53.42,184.36,51.49,181.16,49.25,182.18z M50.58,110.23c-2.23,1.4-0.25,4.86,2,3.49C54.75,112.4,52.82,109.2,50.58,110.23z" style="fill: rgb(255, 251, 240);"/></g></svg>