<svg xmlns="http://www.w3.org/2000/svg" xmlns:xlink="http://www.w3.org/1999/xlink" preserveAspectRatio="xMidYMid meet"
  version="1.0" viewBox="7.6 9.4 669.5 743.7" zoomAndPan="magnify" style="fill: rgb(0, 0, 0);"
  original_string_length="37760">
  <g id="__id279_ss9twpl4nl">
    <path
      d="M96.4,648.6c3-5.6,3.6-11.2,4.7-16.7c7.9-39.2,15.7-78.3,23.5-117.5c3.9-19.7,7.6-39.5,11.6-59.3 c2-10.2,4.5-20.3,7.5-30.2c1.1-3.7,2.4-7.3,4.2-10.7c2.3-4.2,5.5-7.4,10-9.3c5.3-2.2,10.7-4.1,16.2-5.8c2.1-0.7,4-0.4,6,0.3 c8.5,2.9,17,5.7,25.5,8.5c8.3,2.8,16.6,5.6,25,8.3c2.2,0.7,3.5,1.8,4.2,4c3.2,10.4,4.6,20.9,3.3,31.7c-0.3,2.9-0.4,2.9-3.2,2.9 c-11.5,0-23,0-34.5,0c-1.1,0-2.2,0-3.4,0c-1.7,0.1-2.4,0.7-2.4,2.3c-0.1,1.3,0,2.6,0,3.8c0.2,12,0.1,24-1.2,35.9 c-2.3,22.5-8.5,43.9-18.9,64c-3.1,6-6.4,11.8-9.6,17.7c-6.7,12.1-11.6,24.9-15.8,38c-2.6,8.1-5,16.2-7.5,24.3 c-1.7,5.4-2.8,10.8-2.7,16.5c0,1.9-0.6,3.4-1.6,4.9c-4,5.9-9.4,10.5-14.8,14.9c-0.8,0.6-1.7,0.8-2.7,0.6c-2.2-0.5-4.4-1-6.5-1.5 c-0.7-0.2-1-0.9-0.6-1.5c0.7-1.2,1.6-2.4,2.3-3.6c1.6-2.6,3.3-5.1,4.2-8c1.3-4.3,0.2-7.1-3.8-9.1c-2.3-1.2-4.8-1.8-7.3-2.4 C104.4,650.7,100.7,649.7,96.4,648.6z M132.2,362.4c2.2-0.4,4.4-0.9,6.6-1.3c3.6-0.5,7.2-1.4,10.9-1.3c6.7,0,9.6,2.6,10.3,9.3 c0,0.3,0.1,0.6,0.1,1c0.1,5,0.3,9.9,0.2,14.9c-0.1,4.8-0.3,3.9,3.6,5.4c0.4,0.2,0.9,0.2,1.4,0.4C215,407.5,265,423.8,315,440.2 c7.8,2.5,15.6,4.9,23.6,6.5c4.7,0.9,9.4,1.6,14.3,1.5c7-0.2,12.6-3.2,16.7-8.9c6.3-8.7,9.1-23.1-0.7-34.7c-2-2.3-4.1-4.5-6.3-6.5 c-4-3.5-8.2-6.6-12.7-9.4c-10.2-6.2-21.2-10.5-32.7-13.5c-10.1-2.6-20.3-4.3-30.6-6c-19.4-3.3-39-5.5-58.5-7.2 c-16.1-1.5-32.2-2.9-48.1-6c-7-1.4-14.3-1.8-20.7-5.7c-1.2-0.7-2.4-0.7-3.7-0.2c-1.6,0.6-3.4,1.1-5,1.8c-6.3,2.7-12.4,5.8-18.3,9.4 C132.2,361.5,132.2,362,132.2,362.4z M437.7,387.4c-0.6-1.5-1.2-3-1.7-4.4c-0.3-0.7-0.6-1.5-0.7-2.3c-0.1-0.7,0.2-1.3,0.9-1.5 c0.6-0.3,1.3-0.2,1.8,0.3c0.6,0.7,1.1,1.6,1.5,2.4c1.7,4.1,3.5,8.2,5,12.4c2,5.5,4.2,11.1,3,17.2c0,0.2,0.3,0.7,0.5,0.7 c0.4,0.2,0.9,0,1.2-0.4c0.9-1.3,0.8-2.7,0.9-4.1c0.1-9.9-2-19.3-6.2-28.3c-0.7-1.4-1.3-2.9-1.9-4.4c-0.3-0.7,0.1-1.3,0.6-1.7 c0.7-0.5,1.6-0.5,2.1,0.2c0.6,0.7,1.1,1.6,1.5,2.4c2.5,4.9,4.3,10,5.7,15.2c0.2,0.8-0.3,1.9,1.2,2.4c0-2.5-0.1-4.8-0.5-7.2 c-1.2-6.5-3.8-12.5-7.1-18.2c-0.6-1.1-1.4-2.2-1.9-3.3c-0.6-1.3,0.5-2.4,2.1-2.1c0.2,0,0.3,0.2,0.4,0.2c1,0.2,1.4-0.1,1.1-0.9 c-2.6-7.4-7.1-13.1-14.3-16.7c-3.9-1.9-8-3.4-12.1-4.5c-10.8-2.8-21.6-5.8-32.5-8.1c-7.2-1.5-14.3-3.6-21-6.5 c-7.8-3.3-15.5-6.7-23.3-10.2c-10.6-4.8-21.4-9.3-32.6-12.5c-2.9-0.8-5.9-1.6-8.8-2.4c-0.8-0.2-1.5-0.5-2.2-0.9 c-0.6-0.3-0.8-1-0.6-1.6c0.2-0.7,0.7-1.1,1.4-1.1c0.8,0,1.6,0.1,2.4,0.3c1.7,0.4,3.4,0.9,5.1,1.4c1.1,0.3,1.8-0.1,2.2-1.2 c2.6-7.6,4.8-15.2,6.8-23c0.9-3.2,1.7-6.5,2.5-9.7c0.3-1.1-0.1-1.8-1.1-2.3c-4.2-2.1-8.3-4.1-12.5-6.2c-0.9-0.4-1.5-0.2-2,0.5 c-0.4,0.5-0.7,1.1-1,1.7c-9.3,17.4-19.1,34.3-29.5,51c-1,1.6-1.9,3.4-2.6,5.1c-3.1,7.7-1,14.8,5.8,19.4c2,1.3,4.1,2.4,6.3,3.4 c5.3,2.2,10.9,3.6,16.6,4.7c12.9,2.6,25.9,3.9,38.9,5.6c14.9,2,29.6,4.9,44.2,8.8c8.3,2.2,15.6,6,21.6,11.8 c9.4,8.9,19.1,17.5,26.7,28.1c0.7,1,1.6,2,2.5,2.9c0.3,0.3,0.8,0.5,1.2,0.7c0.7,0.3,1.7-0.3,1.7-1.1c0-0.6,0-1.3-0.2-1.9 c-2.3-5.3-4.2-10.7-8.3-15c-0.6-0.6-1.1-1.2-1.6-1.8c-0.5-0.7-0.6-1.5,0.2-2.1c0.7-0.6,1.5-0.6,2.2-0.1c0.9,0.7,1.7,1.5,2.4,2.3 c2.3,2.3,3.7,5.2,5.3,8C437,388.2,437.4,387.8,437.7,387.4z M598.9,437.5c-2.5-1.1-5.3-1.3-7.9-1.7c-4-0.7-6.4-2.6-8-6.5 c-5.7-14.1-10.6-28.5-14.9-43c-5.4-17.8-11.8-35.1-21.1-51.3c-4.1-7.1-7-14.7-9.5-22.5c-1.7-5.3-3.3-10.7-5-16 c-0.6-1.9-1-2.1-2.7-1.3c-10.9,4.8-20.9,11.1-30.4,18.2c-1.5,1.1-1.5,1.4-0.7,3.2c3,6.4,6.1,12.7,9.1,19c9.4,19.8,18.8,39.6,30.7,58 c1.1,1.7,2.2,3.5,3.3,5.3c9.5,15.4,17.5,31.6,24,48.5c0.3,0.7,0.6,1.5,0.9,2.2c1.1,2.8,3.3,4.3,6.3,4.4c1.8,0.1,3.5,0.1,5.3,0 c10.1-0.8,20.1-0.4,30.2,0.1c4.8,0.2,9.6,0.4,14.4,0.5c2.1,0,4.1-0.3,6.2-0.6c0.6-0.1,1.2-0.4,1.7-0.7c0.8-0.4,1.2-1.9,0.9-2.5 c-0.4-0.7-1-0.7-1.6-0.7c-2.3,0.1-4.5-0.1-6.6-0.8c-7.4-2.5-14.9-5-22.3-7.4c-0.3-0.1-0.6-0.2-0.9-0.4c-1.3-0.5-1.4-1.6-1.2-2.8 C598.9,438.3,598.9,437.9,598.9,437.5z M527.5,337.3c2.1,2.2,4.1,4.3,6.1,6.6c0.5,0.6,0.6,1.5-0.2,2.1c-0.7,0.6-1.5,0.7-2.1,0.1 c-2.4-2.1-4.6-4.3-6.4-6.9c-0.4-0.5-0.3-1.2,0.1-1.8c0.3-0.3,0.8-0.5,1.1-0.7C526.6,336.9,527.2,336.9,527.5,337.3z M410.4,116.7 c2,0.5,4.1,0.2,6.2,0c3.2-0.3,3.9,0.5,3.6,3.8c0,0.5,0,0.9,0,1.4c1-1,2-2,3-3c0.6-0.6,1.4-0.7,2.1,0c0.7,0.6,0.7,1.5,0.3,2.1 c-2.2,3.3-4.9,6.3-7.7,9.1c-0.9,0.9-1.8,1.7-2.8,2.6c-1.1,1-1.1,2.3-0.5,3.5c0.7,1.3,1.6,2.4,2.2,3.6c0.2,0.3-0.1,0.9-0.3,1.3 c-0.3,0.6-1.1,0.8-1.7,0.6c-4.1-1.7-5.6-8.1-2.6-11.2c1.2-1.3,2.6-2.3,3.8-3.6c1.5-1.6,3.2-3,4.1-5.2c-1-0.6-1.8,0-2.7,0.3 c-3.1,0.8-6.2,0.7-9.3,0c-2.8-0.6-3-1-3.2-4.2c0-0.3-0.1-0.6-0.2-0.9c-1.4-0.1-1.3,1.2-1.6,1.9c-3.6,10.1-6,20.6-6.8,31.3 c-0.4,5.6-0.4,11.2,0.7,16.7c1.4,6.8,5.1,11.6,11.4,14.4c5.5,2.5,11.3,3.3,17.3,2.1c1.1-0.2,2.4-0.2,3.2-0.8 c1.1-0.8,0.1-2.1,0.1-3.1c0-2.1,0.5-4.1,1-6.1c0.9-3.7,1.5-7.5,0.2-11.5c-1.8,0.5-3.4,1-5.1,1.4c-3.2,0.9-6.3,0.9-9.5,0 c-6.8-2-10.1-7.6-8.4-14.4c0.6-2.5,1.6-3.2,4.1-2.8c3.2,0.5,6.3,1.1,9.5,1.6c4.3,0.7,8.5,1.4,12.8,2.1c2.7,0.5,3.2,1,3.7,3.6 c0.4,2.2,0.7,4.4,1,6.6c0.7,6.2,1.3,12.4,1.9,18.6c1,0.4,1.9-0.1,2.7-0.5c3.6-1.7,7.2-3.5,10.4-6c1.5-1.1,3-1.7,4.9-1.7 c1,0,1.9,0.1,2.9,0c8.3-0.4,14.6-4.3,18.8-11.5c1.1-1.8,1.8-3.8,1.9-5.9c0.2-3.8-2.4-6.4-6.2-6.3c-0.9,0-1.9,0.4-2.8,0.6 c-1.6,0.4-3.1,0.7-4.7,0.4c-1.4-0.2-2.2-1.3-2.1-2.7c0.1-1.5,0.8-2.7,1.4-4.1c1.2-3,2.6-5.9,3.6-8.9c5.4-17-6.7-33.8-21.3-35.7 c-6-0.8-12-2.1-17.7-4c-0.5-0.1-0.9-0.3-1.4-0.4c-3.2-0.5-6.4-0.6-9.5,0.3c-4.6,1.3-7.8,4.3-10.1,8.3c-2.7,4.7-4.8,9.7-6.6,14.9 c-0.2,0.5,0.1,0.9,0.4,1.2C406.6,116.7,408.4,116.3,410.4,116.7z M443.7,128.3c-1.4-0.7-2.8-1.5-4.2-2.3c-0.7-0.4-1.3-1-1.7-1.6 c-0.5-0.8-0.5-1.8,0.1-2.7c0.5-0.7,1.2-1,2-1.1c1,0,1.8,0.4,2.7,0.9c3.8,2.3,8,3.9,12.4,4.8c0.6,0.1,1.2,0.3,1.8,0.6 c1,0.5,1.6,1.8,1.4,2.8c-0.2,1-1.3,2-2.3,2.1c-0.3,0-0.6,0-0.8,0.1C451.1,131.3,447.3,130,443.7,128.3z M457.6,104.9 c2.5,1.5,4.7,3.2,6.8,5.2c0.5,0.5,1,1.3,1.2,2c0.3,0.8-0.1,1.5-0.7,2.1c-0.5,0.4-1.2,0.6-1.8,0.3c-0.7-0.4-1.4-0.8-1.9-1.3 c-4.1-4-8.9-6.5-14.6-7.6c-0.6-0.1-1.3-0.3-1.8-0.5c-0.7-0.4-1.2-1.1-1.2-1.9c0-0.8,1-1.8,1.9-1.9c0.3,0,0.6,0,0.9-0.1 C450.4,101.7,454.1,102.8,457.6,104.9z M418.3,102.3c-0.9,0.3-1.9,0.4-2.8,0.4c-0.8,0-1.5-0.6-1.7-1.5c-0.1-0.6,0.1-1.3,0.5-1.8 c0.3-0.3,0.7-0.6,1.1-0.8c4.3-1.7,8.6-2.4,13.1-1.1c0.5,0.1,0.9,0.3,1.3,0.5c0.7,0.5,1,1.2,0.9,2.1c-0.1,0.9-0.7,1.4-1.6,1.5 c-1.1,0.1-2.2,0-3.3,0C423.3,101.4,420.8,101.5,418.3,102.3z M463.4,161.3c-0.2-0.4-0.1-0.9,0-1.3c0.1-0.3,0.3-0.6,0.6-0.7 c2.9-1.6,5.8-3.2,8.7-4.8c0.4-0.2,1-0.2,1.4-0.1c0.4,0.1,0.9,0.4,1.1,0.8c0.2,0.4,0.1,0.9,0,1.3c-0.2,0.4-0.5,0.8-0.9,1 c-2.8,1.5-5.6,3-8.4,4.5c-0.4,0.2-0.9,0.1-1.5,0.2C464,161.9,463.6,161.6,463.4,161.3z M445.2,181.1c-5.1,2.3-10.3,4.3-15.8,5.4 c-9.1,1.7-17.8,1.3-25.8-3.9c-0.1-0.1-0.3-0.2-0.4-0.2c-1.1-0.6-1.6-0.3-2,1c-0.4,1.2-0.7,2.5-1.1,3.7c-1.7,5.3-3.9,10.5-7,15.2 c-0.6,0.9-1.3,1.8-2.1,2.6c-0.5,0.5-1.2,0.4-1.8,0.1c-0.5-0.4-0.9-1.1-0.6-1.7c0.5-1.2,1.2-2.2,1.8-3.3c1.1-2.1,2.7-3.9,3-6.4 c-2.6-1.4-4.6-0.8-6.6,1c-3.8,3.4-7.3,7.1-10,11.5c-1.3,2.2-2.5,4.5-3.1,7c-2.1,9,0.8,14.4,7.1,18.1c2.4,1.4,4.9,2.4,7.5,3 c8.7,2,17.4,1.7,26.1-0.5c15.6-4,29.1-12.1,41.6-22c0.4-0.3,0.5-0.8,0.2-1.3c-0.7-0.1-1.5-0.2-2.3-0.3c-1.4-0.2-2.9-0.4-4.2-0.7 c-3.3-0.8-4.6-2.4-4.5-5.8c0-1.6,0.1-3.2,0.4-4.8c1-5.3,2-10.7,3.1-16c0.2-0.9,0.6-1.8,0.1-2.8C447.4,179.8,446.3,180.6,445.2,181.1 z M55.3,735.8c5.4-1.6,10.4-4.1,15.2-6.9c1.7-0.9,1.8-1.2,1.4-3.1c-1-4.4-2.5-8.6-4.8-12.5c-3.8-6.7-9.3-11.2-16.9-13.2 c-7.2-1.9-8-1.9-14.6,1.5c-0.1,0.1-0.3,0.1-0.4,0.2c-9.6,5.3-16.5,13-21,22.9c-0.9,1.9-0.7,2.4,1.2,3.4c4.8,2.6,9.7,4.9,14.8,6.6 c4.7,1.6,9.6,2.6,14.7,2.4C48.4,737.4,51.9,736.8,55.3,735.8z M78.5,431.4c1.7,0.4,3.1,0.1,4.6-0.6c3.1-1.6,5.9-3.8,8.6-6 c4-3.1,5.1-7.2,4.6-11.9c-0.6-5.7-2.6-10.8-5.8-15.6c-3-4.5-7.2-7.7-12.3-9.6c-2.3-0.9-2.6-0.9-4.1,0.9c-3.2,3.6-5.8,7.6-7.7,12.1 c-1.5,3.7-2.4,7.6-2.4,11.7C64,423.4,68.5,429.2,78.5,431.4z M121.8,380.6c0.1,1,0.3,1.9,0.9,2.7c2.8,3.3,5.1,6.9,7.3,10.6 c0.5,0.8,1.1,1.1,2,0.7c0.9-0.4,1.8-0.7,2.6-1.2c3.2-1.9,6.6-2.3,10.1-1.9c2.4,0.3,4.8,0.6,7.1,0.7c3.3,0.2,4.1-1.1,4.5-3.7 c1-7,0.5-14-0.3-21c0-0.2-0.1-0.3-0.1-0.5c-0.5-2.1-1.8-3.4-4-3.5c-1.6-0.1-3.2-0.1-4.8,0c-5.4,0.4-10.7,1.6-16,2.8 c-3.7,0.9-7.4,1.8-11.2,3.4C120.7,373.6,121.3,377.1,121.8,380.6z M81,722.9c18.7-11.3,35.9-24.4,53-37.9c1.7-1.4,3.8-2.6,5-4.4 c1.3-2.1,0.1-4.7,0.1-7.1c0-1.4-0.1-2.9-0.2-4.3c0-0.6,0.2-1.3-1-1.7c-3.3,3.7-6.9,7.2-10.8,10.5c-1,0.8-0.6,1.6-0.1,2.5 c0.9,1.5-0.6,2.5-1.8,2.3c-0.8-0.1-1.6-0.4-2.4-0.4c-0.6,0-1.3,0.1-1.8,0.4c-3.5,2.5-6.9,5-10.4,7.6c0.8,0.8,1.3,1.4,1.9,2 c0.5,0.5,0.5,1.2,0.1,1.8c-0.3,0.6-1,0.9-1.6,0.8c-1.3-0.2-2.5-0.6-3.7-0.9c-1-0.2-1.9-0.3-2.8,0.2c-1.8,1.1-3.5,2.2-5.2,3.4 c-1.7,1.1-3.6,1.9-5,3.5c0.3,0.8,0.6,1.4,0.8,1.9c0.4,0.8,0.4,1.5-0.1,2.2c-0.7,0.9-1.7,1.2-2.6,0.6c-3.3-2.1-6-0.8-8.8,1.2 c-0.6,0.5-1.4,0.8-2.1,1.2c-2.6,1.6-2.6,1.6-1.1,4.2c0.2,0.4,0.5,0.8,0.6,1.3c0.2,0.7-0.2,1.3-0.8,1.6c-0.4,0.2-1,0.3-1.3,0.1 c-0.7-0.4-1.3-1-1.8-1.6c-1.7-2.2-2.1-1.8-4.4-0.5c-0.6,0.3-0.9,0.9-0.7,1.6c1.2,3.4,2.5,6.9,3.8,10.4C77.8,725,79.3,723.8,81,722.9 z M89.5,673.1c0.9-0.1,1.9,0.1,2.9,0.2c4.4,0.5,8.9,1,13.3,1.6c1.2,0.1,2.2,0,2.9-1.1c2.2-3.1,4.5-6.2,6.2-9.7 c2.2-4.6,1.6-6.4-3.3-7.8c-6.1-1.8-12.4-3.2-18.6-4.7c-0.6-0.2-1.3-0.2-1.9-0.2c-3.2-0.4-5.7,0.8-7.2,3.6c-2.2,4.1-4.4,8.2-6.6,12.3 C80.9,670.6,84.4,673.6,89.5,673.1z M86.2,379.1c1.3-0.4,2.5-0.5,3.6,0.4c1.2,1,2.3,0.7,3.5-0.2c1.7-1.2,3.4-2.3,5.3-3.3 c1.7-0.9,2.6-1.9,2.4-4.1c-0.2-2.1,1.2-2.8,3.2-2.1c0.4,0.2,0.9,0.3,1.3,0.6c1.2,0.8,2.4,0.6,3.6-0.1c0.5-0.3,1.1-0.6,1.7-0.9 c2.5-1.4,5.3-2.5,4.2-6.3c-0.1-0.3,0.4-0.9,0.7-1.1c0.6-0.3,1.3-0.2,1.7,0.3c0.3,0.3,0.6,0.8,0.8,1.1c0.4,0.6,0.9,0.9,1.6,0.5 c0.9-0.4,1.7-0.9,2.5-1.4c9.3-5.3,18.6-10.6,28.5-14.8c0.4-0.2,0.8-0.5,1.3-0.9c-2.4-1.7-5.2-2.5-7.7-3.8c-2.3-1.3-4.2-1.2-6.6,0.3 c-12.7,8.3-25.6,16.3-38.3,24.6c-3.9,2.5-7.5,5.4-11.3,8.1c-0.9,0.7-1.9,1.2-2.4,2.3C85.9,378.6,86,378.8,86.2,379.1z M603.6,438.5 c0.2,0.7,0.8,0.8,1.4,1.1c4.5,1.5,9.1,3.1,13.6,4.6c3.9,1.3,7.8,2.9,12.1,2.3c0.2,0,0.3,0,0.5,0c2.4,0.2,3.8,1.6,4,4 c0.1,1.3,0,2.5,0,3.9c0.6,0.1,1.2,0.3,1.8,0.3c11.5,0.1,23,0.1,34.5,0.2c0.3,0,0.6,0,1,0c0.4-0.1,0.9-0.1,1.1-0.7 c0.2-0.8-0.3-1.2-0.8-1.5c-1.7-0.9-3.6-1.3-5.5-1.5c-10-1.1-19.8-3.4-29.4-6.4c-5.8-1.8-11.7-3.3-17.7-4.1 c-3.6-0.5-7.2-1.2-10.9-1.7C607.4,438.6,605.5,438,603.6,438.5C603.6,438.6,603.6,438.5,603.6,438.5z M105,411.2 c1.4-1,1.5-2.3,1.2-3.8c-0.8-4.1-1.5-8.2-2.2-12.2c-0.2-1.3-0.8-2.3-2-3.1c-3.1-2-6.1-4.1-9.1-6.2c-1.1-0.7-2-0.8-3,0.1 c-0.8,0.7-1.9,1.1-2.5,2.5c7.5,7.1,11.9,15.8,12.5,27.1C102.1,413.7,103.5,412.4,105,411.2z M118.8,391.5c0-1.9,0-3.8,0-5.7 c0-1-0.3-1.9-1.1-2.6c-3-2.8-6.3-5.4-10-7.3c-1.3-0.7-2.7,0.1-2.6,1.6c0.2,2.2,0.8,4.4,0.7,6.6c-0.2,5.5,2.5,8.9,7.2,11.2 c1.8,0.9,3,2.9,5.3,2.7c0.9-1.8,0.3-3.7,0.5-5.6c0-0.3,0-0.6,0-1C118.9,391.5,118.8,391.5,118.8,391.5z M67.1,687.9 c-1-0.1-1.9-0.2-2.9-0.2c-1.4-0.1-2.9-0.1-4.3-0.1c-0.4,0-1-0.1-1.2,0.5c-0.2,0.5,0,0.9,0.4,1.2c0.9,0.9,2,1.6,2.8,2.6 c1.8,2.2,4.1,3.3,6.9,3.7c5,0.8,9.9,2.2,14.8,3.7c1.1,0.3,2.1,0.5,3.2,0.7c0.2,0,0.6-0.2,0.8-0.4c0.1-0.2,0.1-0.7,0-0.9 c-2.4-3.4-5.2-6.4-8.3-9.2c-1-0.9-2.3-1.1-3.6-1.2C72.8,688.2,69.9,688,67.1,687.9C67.1,687.8,67.1,687.8,67.1,687.9z M434.5,158.2 c0-0.6,0.1-1.3,0-1.9c-0.4-2.7-0.4-2.7-3.2-3.3c-4.8-0.9-9.7-1.7-14.6-2.5c-1.6-0.3-3.1-0.6-4.7-0.7c-0.7-0.1-1.2,0.4-1.3,1.1 c-0.7,4.4,1.9,8.2,6.4,9.1c4.3,0.8,8.5,0.5,12.2-2.4c1.9-1.5,2-1.4,4.3,0.7C434,158.2,434.3,158.2,434.5,158.2z M77.8,676.6 c-1,0-1.9,0-2.9,0c-1.1,0-2.2,0-3.3,0.2c-0.6,0.1-1.2,0.6-1.5,1c-0.3,0.6,0.2,1.1,0.8,1.5c2.4,1.5,4.9,3,7.2,4.7 c1.2,0.9,2.5,1.3,3.9,1.5c4.7,0.8,9.4,1.6,14.1,2.4c0.5,0.1,1,0.1,1.4,0c0.2,0,0.5-0.3,0.6-0.5c0.1-0.3,0-0.6-0.2-0.9 c-0.3-0.4-0.7-0.6-1.1-0.9c-3.7-2.6-7.4-5-10.9-7.7c-1.6-1.2-3.3-1.7-5.3-1.6C79.7,676.6,78.8,676.5,77.8,676.6 C77.8,676.6,77.8,676.6,77.8,676.6z M393.9,142.3c0.7-4.1,1.6-8.1,2.3-12.2c0.2-0.9,0.6-1.9-0.3-2.6c-1-0.8-2.1-0.7-3.2-0.3 c-2.3,0.9-3.4,2.8-4,5c-1.3,4.8,0.4,13,4.2,18.3C393.3,147.3,393.5,144.8,393.9,142.3z M54.7,698c5.6,2.2,10.1,5.8,13.6,10.8 c0.4,0.5,0.7,1.1,1.2,1.5c1,0.8,1.8,0.1,2.5-0.4c0.6-0.4,0.7-1.1,0.2-1.6c-2.7-3.1-5.5-6.2-8.3-9.2c-0.5-0.5-1.3-1-2-1.1 c-2.8-0.4-5.6-1.4-9.3-0.8C53.9,697.6,54.3,697.8,54.7,698z M439.7,396.1c0.9,2.2,1.1,4.4-0.5,6.3c-1,1.2-1,2.3-0.4,3.5 c0.7,1.3,1.4,2.5,2.2,3.6c0.5,0.6,1.2,1.1,2.1,0.9c0.9-0.2,1.1-1.1,1.1-1.9c0-1.1,0.1-2.3-0.2-3.3c-1.4-6.2-3.2-12.3-6.3-17.9 c-0.3,0.4-0.7,0.8-1,1.2C437.7,391.1,438.7,393.6,439.7,396.1z M110.6,679.4c-0.8-0.2-1.6,0-2.2,0.7c-1.3,1.8-2.6,3.6-3.9,5.4 c-0.3,0.4-0.2,0.9,0,1.3c0.7,1.1,2.3,1.7,3.3,1.1c1.2-0.7,2.4-1.5,3.5-2.4c1.8-1.3,3.7-2.3,5.8-4.7 C114.6,680.2,112.6,679.8,110.6,679.4z M94.5,676.9c-1-0.2-2.1-0.4-3.3,0.3c1.7,1.9,3.7,3,5.5,4.2c4.9,3.4,4.1,3.7,7.7-1.6 c0.2-0.2,0.2-0.6,0.3-1.1C101.5,677.1,97.9,677.6,94.5,676.9z M71.7,699.7c-0.5-0.1-1.3-0.4-1.5,0.8c1.6,1.9,3.4,3.9,5.1,5.9 c0.5,0.5,1.1,0.9,1.7,0.5c2-1.1,4.3-2,6.5-4.3C79,701.6,75.4,700.6,71.7,699.7z M434.7,164.8c0.2,3.5-0.2,7-1.3,10.3 c-0.5,1.7-0.9,3.4-0.5,5.1c0.1,0.4,0.5,0.8,0.9,0.9c0.4,0.1,0.9-0.1,1.3-0.3c1.3-0.9,1.6-2.3,1.5-3.8c-0.2-6.3-0.9-12.6-2.1-18.9 c-0.3,0-0.5,0-0.8,0C434.1,160.4,434.5,162.6,434.7,164.8z M109.5,406c0.1,0.9,1,0.9,1.5,0.5c2-1.3,4-2.4,6.2-4.3 c-3.2-1.8-5.4-4.3-9-5.3C107.9,400.2,109,403.1,109.5,406z M102.6,385.6c-0.4-2.3,0.2-4.7-1.5-6.7c-2.4,0.5-4.1,2.1-6.2,3.7 c2.3,2.2,4.6,3.9,7.6,5.1C102.5,386.8,102.7,386.2,102.6,385.6z M88.1,693.7c2.9,3.5,2.4,4.2,6-0.2c0.5-0.6,1-1.3,0.5-2.4 c-2.9-0.1-5.8-1.7-9.4-0.9C86.2,691.7,87.2,692.7,88.1,693.7z M85.7,378.3c-2.4,1.1-4.1,3-6,4.7c-0.4,0.4-0.6,1.2,0.2,1.6 c0.9,0.4,1.7,0.8,2.6,1.2c0.8,0.4,1.6,0.2,2.2-0.3c0.9-0.8,2.5-1.2,2.6-2.6c0.1-0.7-0.9-1.6-1.2-2.4c-0.2-0.4-0.1-0.9-0.1-1.4 C86,378.8,85.9,378.6,85.7,378.3z M122.5,398.9c2-0.1,3.4-1.1,4.9-2.2c-0.9-2.6-2.4-4.8-4.9-6.5 C122.5,393.1,122.5,395.9,122.5,398.9z M111.1,373.8c2.4,1.3,4.1,3.2,6.6,4.2c0.4-2.5-0.5-4.5-1.1-6.6 C114.4,371.4,112.7,372.1,111.1,373.8z M69.9,684.4c0.6,0,1.3,0,1.2-1c-0.8-0.4-1.6-0.9-2.4-1.3c-0.8-0.4-1.7-1-2.6-0.6 c-1,0.4-2,1-2.4,2.8C65.9,684.3,67.9,684.4,69.9,684.4z M57.8,693.5c-2.7-3.5-2.7-3.5-6.2-0.7C54.1,693.1,55.9,693.9,57.8,693.5z M603.6,438.5C603.6,438.5,603.6,438.6,603.6,438.5c-0.3-0.6-0.9-0.7-1.5-0.8c-1.1-0.1-2.2-0.2-3.2-0.3c0,0.4,0,0.8,0,1.2 C600.4,438,602,438.6,603.6,438.5z M77.1,672.6c0.1-0.7-0.5-1.1-1.1-1.3c-0.6-0.2-1.4,0.5-1.2,1c0.2,0.5,0.6,0.7,1.3,0.7 C76.3,672.9,77.1,672.8,77.1,672.6z M130.6,361.8c-0.1,0.1-0.2,0.2-0.3,0.3c0.2,0.2,0.4,0.5,0.6,0.5c0.4,0,0.8-0.2,1.3-0.3 c0-0.4,0-0.9,0-1.3C131.7,361.3,131.2,361.6,130.6,361.8z"
      style="fill: rgb(255, 255, 255);" />
  </g>
  <g id="__id280_ss9twpl4nl">
    <path
      d="M527.8,114.4c-0.1-1.3,0.5-2.4,1.1-3.5c1.9-3.5,3.8-7,5.7-10.5c0.6-1.2,2.2-2.7,1.3-3.8 c-1.3-1.6-2.8,0.3-4.3,0.7c-1.7,0.5-3.3,1.2-5,1.4c-2.5,0.4-4.4-0.7-5.2-2.5c-0.8-1.8,0.3-4.6,2.2-5.9c0.9-0.6,2-1.1,3-1.5 c5.8-2.2,11.6-4.4,17.4-6.5c0.9-0.3,1.8-0.7,2.7-0.8c2.2-0.3,4.9,1.3,5.7,3.5c0.3,0.8,0.1,1.6-0.3,2.3c-1.7,3.3-3.4,6.5-5.1,9.8 c-0.5,1-1.3,1.9-1.7,2.9c-0.6,1.7-2.5,3-1.6,5.1c1.9,0.7,3.2-1,4.9-1.4c0.5-0.1,1-0.2,1.4-0.4c1.4-0.6,2.7-1,4,0.2 c1.5,1.3,2.7,2.7,2.4,4.9c-0.1,1-0.5,1.9-1.3,2.5c-0.9,0.7-1.8,1.4-2.8,1.7c-6.1,2.2-12.3,4.4-18.5,6.5 C530.9,120.1,527.7,117.6,527.8,114.4z M584.7,60.7c1.7-2.5,3.5-5,5.2-7.4c1.7-2.3,3.3-4.7,4.5-7.3c0.6-1.3,0.3-2.4-0.6-3.5 c-1.8-2.5-4.3-2.6-6.9-2.1c-5.2,0.8-10.3,1.8-15.5,2.8c-3.5,0.7-4.5,2-4.4,5.6c0.1,3.6,2.8,5.4,6.2,4.1c1.3-0.5,2.5-1.4,4.1-1.1 c0.6,0.1,1.2,0.9,0.8,1.4c-0.6,1.1-1.3,2.2-2,3.2c-1.9,2.7-4,5.4-5.8,8.2c-2.1,3-1.6,5.4,1.3,7.4c1,0.7,2.1,0.8,3.2,0.8 c4.8,0,9.6,0.1,14.4-0.1c1.9-0.1,3.8-0.5,5.6-1c2.8-0.8,4-4.6,2.4-7.2c-0.7-1.1-1.8-1.3-2.9-1.3c-3.3,0-6.7,0-10.6,0 C584.2,61.8,584.4,61.2,584.7,60.7z M653.8,22.3c2.7-1.6,4.6-3.9,6.8-6.1c2.2-2.2,1.7-3.9-1-5.1c-0.4-0.2-0.9-0.5-1.3-0.5 c-4.5,0-8.9-0.6-13.3-1.1c-1.2-0.1-2.2,0.5-2.7,1.6c-0.4,1.1-0.3,2.2,0.4,3.2c0.8,1.1,1.9,1.7,3.2,1.8c1.3,0.1,2.8-0.2,4,0.4 c-0.5,1.6-1.6,2.3-2.6,3.1c-2,1.6-4.1,3.1-6,4.7c-1.9,1.5-1.6,4,0.4,5.2c0.4,0.2,0.8,0.5,1.3,0.6c4.5,1.1,9,2.1,13.5,3.1 c0.6,0.1,1.3-0.1,1.8-0.6c1.8-1.7,1-5.1-1.3-5.8c-1.8-0.5-3.7-0.9-5.8-1.4C651.7,23.7,652.8,22.9,653.8,22.3z M497.2,310.3 c0.7-0.4,1.3-0.9,2-1.3c9-6.5,18.3-12.2,28.4-16.8c2.9-1.3,2.9-1.4,2-4.3c-0.3-0.9-0.6-1.8-0.9-2.7c-5.4-15.4-10.3-30.9-13.7-46.9 c-0.9-4.1-2.2-8-3.9-11.8c-2.6-5.8-6.8-9.4-13.2-10.7c-7.5-1.5-15.1-2.7-22.7-3.7c-3-0.4-6.1-0.6-9.1-1c-2.5-0.4-4.8-0.1-6.5,2 c-0.3,0.4-0.7,0.6-1.1,0.9c-10,8-20.8,14.9-32.8,19.6c-9.3,3.7-18.9,5.9-29,5.3c-6.5-0.4-12.7-1.7-18.3-5.1 c-7.1-4.3-10.3-11.6-8.7-19.7c0.6-3,1.7-5.8,3.2-8.5c2.1-3.6,4.6-6.9,7.5-9.9c1.1-1.1,2.5-2,3.1-3.6c-0.4-0.3-0.8-0.6-1.2-0.7 c-7.4-1.3-14.7-3.1-22-4.8c-5.9-1.3-11.4-0.1-16.4,3.4c-3.2,2.2-5.9,4.9-8.4,7.9c-4.1,5-7.1,10.6-9.8,16.4 c-5.6,11.9-11.3,23.7-17.4,35.3c-0.4,0.7-0.7,1.4-1.1,2.1c-0.4,0.9-0.2,1.5,0.7,2c4.3,2.1,8.5,4.3,12.8,6.4c1.1-1.5,1.3-2.9,1.6-4.3 c1.9-7.9,3.8-15.8,5.7-23.8c0.3-1.1,0.6-2.2,0.9-3.2c0.3-0.9,0.9-1.3,1.8-1.2c1,0.1,1.4,0.9,1.3,1.7c-0.1,1.3-0.3,2.5-0.6,3.8 c-0.8,3.4-1.6,6.8-2.4,10.3c-4.6,18.6-8.7,37.4-15,55.5c-0.6,1.7-0.4,2,1.6,2.7c4.1,1.4,8.2,2.8,12.2,4.3 c9.7,3.7,19.1,8.2,28.6,12.4c9.6,4.3,19.3,8.5,29.7,10.8c10.9,2.4,21.8,5.2,32.6,8c4.6,1.2,9.2,2.6,13.6,4.5 c5.2,2.3,9.7,5.5,13.1,10.1c0.5,0.7,0.9,1.7,2.1,1.9c1-0.6,1.3-1.7,1.8-2.7c9.4-18.6,20.3-36.2,32.3-53.3c2.8-3.9,2.5-3,0.6-7.2 c-0.7-1.6-1.5-3.2-2.2-4.8c-0.3-0.8-0.1-1.6,0.7-2.1c0.8-0.4,1.6-0.2,2.1,0.5c0.7,1.1,1.3,2.2,1.8,3.4c3.3,6.8,6.5,13.6,9.7,20.3 c0.5,1.1,0.8,2.5,2.1,3.1C496.7,310.4,497,310.4,497.2,310.3z M480.6,237.6c0-0.2,0.1-0.3,0.2-0.5c0.4-1,1.1-1.6,2.2-1.5 c0.8,0.1,1.4,1.3,1.2,2.3c-0.2,1.1-0.6,2.2-0.9,3.2c-1.8,6-3.1,12.1-4,18.3c-0.7,4.9-0.9,9.9,0.5,14.8c0.6,2.3,0.2,3.5-1,3.6 c-1,0.1-1.8-0.7-2.4-2.6c-0.9-3.1-1.3-6.3-1.2-9.5C475.6,256.1,477.6,246.8,480.6,237.6z M421.9,445.9c1.2-3,1.7-6.1,2.2-9.3 c1.5-11.2,3-22.5,4.6-33.7c0.3-2.2,0-4-1.4-5.7c-8.3-10.4-18-19.5-27.9-28.3c-0.7-0.6-1.5-1.2-2.3-1.7c-3.5-2.2-7-4.5-11.1-5.6 c-12.4-3.6-25-6.6-37.9-8.4c-8.5-1.2-17.1-2.4-25.6-3.6c-7.3-1-14.5-2.1-21.8-3.2c-2-0.3-2.7-0.1-3.5,2.1c-1.9,5.6-1.2,7.4-9.6,7.6 c-1.7,0-2.6,0.9-3.1,2.5c-0.5,2-1.1,3.9-1.6,5.9c1,1.2,2.3,1,3.6,1.2c10.3,1.6,20.5,3.2,30.6,6c14.2,3.9,28.6,6.9,43,9.6 c15.7,3,29.1,10.3,40.2,21.8c7.3,7.6,12.7,16.5,15,26.9c1.5,7,2.7,14.1,2.1,22.5C420,450.2,421.1,448.1,421.9,445.9z"
      style="fill: rgb(153, 188, 133);" />
  </g>
  <g id="__id281_ss9twpl4nl">
    <path
      d="M307.1,458.5c-34.6,0-69.1,0-103.7,0c-5.9,0-5.2-0.5-5.1,5.1c0.2,13.1-0.3,26.2-2,39.3 c-2.9,22.3-9.7,43.3-20.3,63.1c-1.4,2.5-2.7,5.1-4.2,7.5c-8.2,14-14.5,28.8-19.3,44.3c-2.4,7.5-4.6,15-7,22.4 c-2.9,8.8-3.6,17.8-3.1,27c0.3,5.1,0.4,10.2,0.5,15.3c0.1,2.6-0.2,5.1-0.9,7.6c-0.8,2.7-2.1,5-4.4,6.7 c-19.6,14.4-38.6,29.6-59.4,42.3c-2.7,1.7-5.5,3.3-8.2,5c-11.9,7.5-24.8,9-38.3,6.1c-4.1-0.9-8.1-2-11.9-3.6c-2-0.9-4.1-1.9-5.9-3.1 c-4.5-2.9-6.3-7.1-5.3-12.4c0.3-1.7,0.8-3.4,1.4-5.1c4.9-12.6,13.1-22.4,25.3-28.2c12.7-6.1,23.5-14.8,33.9-24.1 c1.2-1.1,2-2.4,2.8-3.9c2.3-4.5,4.7-9.1,7.1-13.6c0.4-0.9,0.8-1.7,1.3-2.5c2.3-3.8,5.4-6.3,10.1-6c1.7,0.1,2.7-0.5,3.4-2 c1-2,1.7-4.1,2.1-6.3c3.1-15.5,6.2-31,9.3-46.6c4.6-23.2,9.3-46.4,13.9-69.6c3.4-17.4,6.8-34.8,10.2-52.2c3-15.4,6.1-30.7,10.5-45.8 c1.1-3.7,2.3-7.3,3.9-10.8c2.9-6.2,7.3-10.8,13.8-13.2c2.8-1.1,5.7-2.1,8.5-3.2c0.7-0.3,1.4-0.7,2.1-1.1c0.4-0.3,0.3-1,0-1.2 c-2.7-1-5.4-2-8.1-2.9c-0.7-0.2-1.3,0.2-1.7,0.7c-1.6,1.9-3.8,2.2-6.1,2.1c-2.9-0.2-5.7-0.4-8.6-0.6c-2.1-0.2-4.1,0-6.1,1 c-6.5,3.1-13,6.1-19.2,9.9c-7,4.3-13.4,9.3-18.7,15.7c-3.2,3.8-6.8,7.2-11,10c-8.5,5.7-17.6,7.3-27.4,4.4c-5.1-1.5-8.6-4.7-10.7-9.5 c-2.3-5.4-3.1-11.1-2.6-16.9c1-11.3,5.4-20.9,13.5-28.9c4.7-4.6,10-8.5,15.7-11.8c4.9-2.9,10-5.8,15.1-8.4c8.7-4.5,16.9-9.7,24-16.5 c2.3-2.2,4.9-4.1,7.5-5.9c3.9-2.7,8.1-3.3,12.8-1.6c7.7,2.7,15.1,6.1,22.3,9.9c5,2.6,10.3,4.2,15.8,5.2c16.3,3.2,32.8,5.2,49.4,6.6 c15.6,1.3,31.2,2.9,46.7,5.2c2.9,0.4,5.3-0.5,7.9-1.2c0.6-0.2,1.1-0.6,1.3-1.3c0.2-0.6,0.4-1.2,0.6-1.8c1.6-5.7,2.2-6.1,8.3-6.7 c0.3,0,0.6-0.1,1-0.1c1.4,0,2.3-0.7,2.9-2c2-4.9,2-5-3-6.4c-4.3-1.2-8.5-2.8-12.5-4.9c-12.6-7-13-18.7-8.2-27.8 c1.2-2.3,2.6-4.4,3.9-6.6c17.5-28.3,33.4-57.5,47.5-87.7c1.8-3.8,3.6-7.5,5.5-11.2c2.8-5.3,6.2-10.1,10.5-14.2 c2.1-2,4.3-3.9,6.8-5.3c5.1-3.1,10.6-4.5,16.5-3.1c5.5,1.2,10.9,2.5,16.4,3.6c5.5,1.1,11,1.9,16.5,2.8c2.3,0.4,2.6,0.2,3.4-2.2 c0.4-1.1,0.6-2.1,1-3.2c1.2-3.3,1.5-6.2-0.9-9.4c-2.1-2.8-2.9-6.4-3-10c-0.2-4-1.4-7.4-3.3-10.8c-2.5-4.5-4.2-9.3-4.9-14.4 c-0.4-2.7-0.2-5.4,0.4-8.1c1-4.2,5-8.6,10.1-7.6c0.5,0.1,1,0.1,1.4,0.1c0.7-0.1,1.1-0.5,1.2-1.3c0.3-2.9-0.1-5.7-1.4-8.4 c-1.1-2.2-2-4.3-2.6-6.7c-2-9,0-17.2,5.6-24.4c5.3-6.8,12.4-11,20.8-12.8c3.1-0.7,5.7-1.8,7.9-4c3.5-3.4,7.9-4.6,12.7-4.8 c6.3-0.2,12.4,0.9,18.4,2.8c17.9,5.7,32.2,16.2,41.7,32.6c3.9,6.7,6.4,14,7,21.7c0.8,9.2-1.8,17.7-6.1,25.8 c-4.9,9.2-11.7,16.7-19.8,23.2c-4.6,3.7-9.6,6.9-14.7,9.9c-2.1,1.2-4.1,2.5-6.2,3.6c-2.3,1.3-4.2,2.8-5.3,5.3 c-0.8,1.8-1.3,1.9-3.5,1.2c-1.2-0.4-1.7-0.2-2,1c-1,4.7-1.9,9.4-2.3,14.2c-0.1,1.9,0.3,2.7,2.3,3c4,0.6,7.9,1,11.9,1.4 c11.5,1.2,22.9,2.3,34.2,4.8c0.5,0.1,0.9,0.2,1.4,0.2c7.9,1.5,13.2,6.1,16.2,13.5c1.7,4.2,3.1,8.4,4,12.8c3.2,15.2,8.1,29.9,13,44.6 c3.3,9.7,6.3,19.5,9.4,29.2c2.3,7.2,5,14.2,8.8,20.7c9.8,17,16.5,35.3,22.1,54c4,13.3,8.4,26.5,13.7,39.4c0.3,0.7,0.7,1.5,0.9,2.2 c0.6,2.3,2.1,3.1,4.4,3.5c12.9,2.4,25.8,4.7,38.8,6.4c12.2,1.6,24.4,3.2,36.6,4.9c2.5,0.3,5.1,0.8,7.4,1.8c2.2,1,3.7,2.4,3.3,5.2 c-0.1,1.1,0.3,2.2,0.3,3.3c0.1,2.6-1.3,4.3-3.9,4.6c-1.1,0.1-2.2,0.1-3.4,0.1c-17-0.1-33.9-0.2-50.9-0.3c-6.6,0-13.1-0.3-19.7-0.8 c-5.9-0.4-11.8-0.3-17.7,0.2c-2.9,0.2-5.8,0.4-8.6,0.3c-5-0.3-8.5-2.6-10.4-7.7c-6.2-16.7-14.1-32.6-23.3-47.8 c-8-13.3-16.4-26.3-23.1-40.4c-4.3-8.9-8.6-17.9-12.9-26.8c-5.2-10.8-10.4-21.6-15.5-32.4c-0.6-1.2-1.1-2.3-1.8-3.4 c-0.4-0.8-1.1-0.6-1.5-0.1c-0.7,0.8-1.4,1.7-2,2.7c-11.4,16.6-22,33.7-31,51.8c-0.4,0.9-0.8,1.7-1.3,2.6c-0.9,1.5-0.8,3-0.2,4.6 c1.6,3.9,2.6,7.9,3,12.1c0.5,5.1,2.2,10,2.9,15c0.7,4.8,0.7,9.6,0.6,14.4c0,1-0.1,2-0.4,2.8c-1.2,3.1-3,5.9-4.4,8.9 c-1.2,2.7-3.8,3-6.4,1.4c-0.8-0.5-1.5-1-2.6-1.1c-2.8-0.3-4.6-2.1-5.9-4.4c-0.6-1-1-2-1.5-3c-0.3-0.7-0.6-1.5-1-2.2 c-0.3-0.6-1-0.9-1.6-0.8c-0.7,0-1,0.6-1.1,1.3c-0.7,4.9-1.3,9.8-2,14.7c-0.9,7-1.8,13.9-2.9,20.9c-0.9,5.9-3.3,11-7.8,15 c-1.8,1.6-3.6,2.6-6,2.4c-0.9-0.1-1.9,0-2.9,0c-34.4,0-68.8,0-103.2,0C307.1,458.2,307.1,458.4,307.1,458.5z M434.5,158.2 c0-0.6,0.1-1.3,0-1.9c-0.4-2.7-0.4-2.7-3.2-3.3c-4.8-0.9-9.7-1.7-14.6-2.5c-1.6-0.3-3.1-0.6-4.7-0.7c-0.7-0.1-1.2,0.4-1.3,1.1 c-0.7,4.4,1.9,8.2,6.4,9.1c4.3,0.8,8.5,0.5,12.2-2.4c1.9-1.5,2-1.4,4.3,0.7c0.3,2.2,0.8,4.4,0.9,6.6c0.2,3.5-0.2,7-1.3,10.3 c-0.5,1.7-0.9,3.4-0.5,5.1c0.1,0.4,0.5,0.8,0.9,0.9c0.4,0.1,0.9-0.1,1.3-0.3c1.3-0.9,1.6-2.3,1.5-3.8 C436.4,170.8,435.7,164.5,434.5,158.2z M603.6,438.6c-0.3-0.7-0.8-0.8-1.5-0.8c-1.1-0.1-2.2-0.2-3.2-0.3c-2.5-1.1-5.3-1.3-7.9-1.7 c-4-0.7-6.4-2.6-8-6.5c-5.7-14.1-10.6-28.5-14.9-43c-5.4-17.8-11.8-35.1-21.1-51.3c-4.1-7.1-7-14.7-9.5-22.5c-1.7-5.3-3.3-10.7-5-16 c-0.6-1.9-1-2.1-2.7-1.3c-10.9,4.8-20.9,11.1-30.4,18.2c-1.5,1.1-1.5,1.4-0.7,3.2c3,6.4,6.1,12.7,9.1,19c9.4,19.8,18.8,39.6,30.7,58 c1.1,1.7,2.2,3.5,3.3,5.3c9.5,15.4,17.5,31.6,24,48.5c0.3,0.7,0.6,1.5,0.9,2.2c1.1,2.8,3.3,4.3,6.3,4.4c1.8,0.1,3.5,0.1,5.3,0 c10.1-0.8,20.1-0.4,30.2,0.1c4.8,0.2,9.6,0.4,14.4,0.5c2.1,0,4.1-0.3,6.2-0.6c0.6-0.1,1.2-0.4,1.7-0.7c0.8-0.4,1.2-1.9,0.9-2.5 c-0.4-0.7-1-0.7-1.6-0.7c-2.3,0.1-4.5-0.1-6.6-0.8c-7.4-2.5-14.9-5-22.3-7.4c-0.3-0.1-0.6-0.2-0.9-0.4c-1.3-0.5-1.4-1.6-1.2-2.8 C600.4,438,602,438.6,603.6,438.6c0.3,0.6,0.9,0.8,1.5,1c4.5,1.5,9.1,3.1,13.6,4.6c3.9,1.3,7.8,2.9,12.1,2.3c0.2,0,0.3,0,0.5,0 c2.4,0.2,3.8,1.6,4,4c0.1,1.3,0,2.5,0,3.9c0.6,0.1,1.2,0.3,1.8,0.3c11.5,0.1,23,0.1,34.5,0.2c0.3,0,0.6,0,1,0 c0.4-0.1,0.9-0.1,1.1-0.7c0.2-0.8-0.3-1.2-0.8-1.5c-1.7-0.9-3.6-1.3-5.5-1.5c-10-1.1-19.8-3.4-29.4-6.4c-5.8-1.8-11.7-3.3-17.7-4.1 c-3.6-0.5-7.2-1.2-10.9-1.7C607.4,438.6,605.5,438,603.6,438.6z M86.2,379.1c1.3-0.4,2.5-0.5,3.6,0.4c1.2,1,2.3,0.7,3.5-0.2 c1.7-1.2,3.4-2.3,5.3-3.3c1.7-0.9,2.6-1.9,2.4-4.1c-0.2-2.1,1.2-2.8,3.2-2.1c0.4,0.2,0.9,0.3,1.3,0.6c1.2,0.8,2.4,0.6,3.6-0.1 c0.5-0.3,1.1-0.6,1.7-0.9c2.5-1.4,5.3-2.5,4.2-6.3c-0.1-0.3,0.4-0.9,0.7-1.1c0.6-0.3,1.3-0.2,1.7,0.3c0.3,0.3,0.6,0.8,0.8,1.1 c0.4,0.6,0.9,0.9,1.6,0.5c0.9-0.4,1.7-0.9,2.5-1.4c9.3-5.3,18.6-10.6,28.5-14.8c0.4-0.2,0.8-0.5,1.3-0.9c-2.4-1.7-5.2-2.5-7.7-3.8 c-2.3-1.3-4.2-1.2-6.6,0.3c-12.7,8.3-25.6,16.3-38.3,24.6c-3.9,2.5-7.5,5.4-11.3,8.1c-0.9,0.7-1.9,1.2-2.4,2.3c-2.4,1.1-4.1,3-6,4.7 c-0.4,0.4-0.6,1.2,0.2,1.6c0.9,0.4,1.7,0.8,2.6,1.2c0.8,0.4,1.6,0.2,2.2-0.3c0.9-0.8,2.5-1.2,2.6-2.6c0.1-0.7-0.9-1.6-1.2-2.4 C86.1,380.1,86.2,379.5,86.2,379.1z M404.9,116.9c-1.4-0.1-1.3,1.2-1.6,1.9c-3.6,10.1-6,20.6-6.8,31.3c-0.4,5.6-0.4,11.2,0.7,16.7 c1.4,6.8,5.1,11.6,11.4,14.4c5.5,2.5,11.3,3.3,17.3,2.1c1.1-0.2,2.4-0.2,3.2-0.8c1.1-0.8,0.1-2.1,0.1-3.1c0-2.1,0.5-4.1,1-6.1 c0.9-3.7,1.5-7.5,0.2-11.5c-1.8,0.5-3.4,1-5.1,1.4c-3.2,0.9-6.3,0.9-9.5,0c-6.8-2-10.1-7.6-8.4-14.4c0.6-2.5,1.6-3.2,4.1-2.8 c3.2,0.5,6.3,1.1,9.5,1.6c4.3,0.7,8.5,1.4,12.8,2.1c2.7,0.5,3.2,1,3.7,3.6c0.4,2.2,0.7,4.4,1,6.6c0.7,6.2,1.3,12.4,1.9,18.6 c1,0.4,1.9-0.1,2.7-0.5c3.6-1.7,7.2-3.5,10.4-6c1.5-1.1,3-1.7,4.9-1.7c1,0,1.9,0.1,2.9,0c8.3-0.4,14.6-4.3,18.8-11.5 c1.1-1.8,1.8-3.8,1.9-5.9c0.2-3.8-2.4-6.4-6.2-6.3c-0.9,0-1.9,0.4-2.8,0.6c-1.6,0.4-3.1,0.7-4.7,0.4c-1.4-0.2-2.2-1.3-2.1-2.7 c0.1-1.5,0.8-2.7,1.4-4.1c1.2-3,2.6-5.9,3.6-8.9c5.4-17-6.7-33.8-21.3-35.7c-6-0.8-12-2.1-17.7-4c-0.5-0.1-0.9-0.3-1.4-0.4 c-3.2-0.5-6.4-0.6-9.5,0.3c-4.6,1.3-7.8,4.3-10.1,8.3c-2.7,4.7-4.8,9.7-6.6,14.9c-0.2,0.5,0.1,0.9,0.4,1.2L404.9,116.9z M436.7,388.6c1,2.5,2,5,3,7.5c0.9,2.2,1.1,4.4-0.5,6.3c-1,1.2-1,2.3-0.4,3.5c0.7,1.3,1.4,2.5,2.2,3.6c0.5,0.6,1.2,1.1,2.1,0.9 c0.9-0.2,1.1-1.1,1.1-1.9c0-1.1,0.1-2.3-0.2-3.3c-1.4-6.2-3.2-12.3-6.3-17.9c-0.6-1.5-1.2-3-1.7-4.4c-0.3-0.7-0.6-1.5-0.7-2.3 c-0.1-0.7,0.2-1.3,0.9-1.5c0.6-0.3,1.3-0.2,1.8,0.3c0.6,0.7,1.1,1.6,1.5,2.4c1.7,4.1,3.5,8.2,5,12.4c2,5.5,4.2,11.1,3,17.2 c0,0.2,0.3,0.7,0.5,0.7c0.4,0.2,0.9,0,1.2-0.4c0.9-1.3,0.8-2.7,0.9-4.1c0.1-9.9-2-19.3-6.2-28.3c-0.7-1.4-1.3-2.9-1.9-4.4 c-0.3-0.7,0.1-1.3,0.6-1.7c0.7-0.5,1.6-0.5,2.1,0.2c0.6,0.7,1.1,1.6,1.5,2.4c2.5,4.9,4.3,10,5.7,15.2c0.2,0.8-0.3,1.9,1.2,2.4 c0-2.5-0.1-4.8-0.5-7.2c-1.2-6.5-3.8-12.5-7.1-18.2c-0.6-1.1-1.4-2.2-1.9-3.3c-0.6-1.3,0.5-2.4,2.1-2.1c0.2,0,0.3,0.2,0.4,0.2 c1,0.2,1.4-0.1,1.1-0.9c-2.6-7.4-7.1-13.1-14.3-16.7c-3.9-1.9-8-3.4-12.1-4.5c-10.8-2.8-21.6-5.8-32.5-8.1c-7.2-1.5-14.3-3.6-21-6.5 c-7.8-3.3-15.5-6.7-23.3-10.2c-10.6-4.8-21.4-9.3-32.6-12.5c-2.9-0.8-5.9-1.6-8.8-2.4c-0.8-0.2-1.5-0.5-2.2-0.9 c-0.6-0.3-0.8-1-0.6-1.6c0.2-0.7,0.7-1.1,1.4-1.1c0.8,0,1.6,0.1,2.4,0.3c1.7,0.4,3.4,0.9,5.1,1.4c1.1,0.3,1.8-0.1,2.2-1.2 c2.6-7.6,4.8-15.2,6.8-23c0.9-3.2,1.7-6.5,2.5-9.7c0.3-1.1-0.1-1.8-1.1-2.3c-4.2-2.1-8.3-4.1-12.5-6.2c-0.9-0.4-1.5-0.2-2,0.5 c-0.4,0.5-0.7,1.1-1,1.7c-9.3,17.4-19.1,34.3-29.5,51c-1,1.6-1.9,3.4-2.6,5.1c-3.1,7.7-1,14.8,5.8,19.4c2,1.3,4.1,2.4,6.3,3.4 c5.3,2.2,10.9,3.6,16.6,4.7c12.9,2.6,25.9,3.9,38.9,5.6c14.9,2,29.6,4.9,44.2,8.8c8.3,2.2,15.6,6,21.6,11.8 c9.4,8.9,19.1,17.5,26.7,28.1c0.7,1,1.6,2,2.5,2.9c0.3,0.3,0.8,0.5,1.2,0.7c0.7,0.3,1.7-0.3,1.7-1.1c0-0.6,0-1.3-0.2-1.9 c-2.3-5.3-4.2-10.7-8.3-15c-0.6-0.6-1.1-1.2-1.6-1.8c-0.5-0.7-0.6-1.5,0.2-2.1c0.7-0.6,1.5-0.6,2.2-0.1c0.9,0.7,1.7,1.5,2.4,2.3 C433.7,383,435.1,385.9,436.7,388.6z M132.2,361.1c-0.5,0.2-1.1,0.5-1.6,0.7c-0.1,0.1-0.2,0.2-0.3,0.3c0.2,0.2,0.4,0.5,0.6,0.5 c0.4,0,0.8-0.2,1.3-0.3c2.2-0.4,4.4-0.9,6.6-1.3c3.6-0.5,7.2-1.4,10.9-1.3c6.7,0,9.6,2.6,10.3,9.3c0,0.3,0.1,0.6,0.1,1 c0.1,5,0.3,9.9,0.2,14.9c-0.1,4.8-0.3,3.9,3.6,5.4c0.4,0.2,0.9,0.2,1.4,0.4C215,407.5,265,423.8,315,440.2 c7.8,2.5,15.6,4.9,23.6,6.5c4.7,0.9,9.4,1.6,14.3,1.5c7-0.2,12.6-3.2,16.7-8.9c6.3-8.7,9.1-23.1-0.7-34.7c-2-2.3-4.1-4.5-6.3-6.5 c-4-3.5-8.2-6.6-12.7-9.4c-10.2-6.2-21.2-10.5-32.7-13.5c-10.1-2.6-20.3-4.3-30.6-6c-19.4-3.3-39-5.5-58.5-7.2 c-16.1-1.5-32.2-2.9-48.1-6c-7-1.4-14.3-1.8-20.7-5.7c-1.2-0.7-2.4-0.7-3.7-0.2c-1.6,0.6-3.4,1.1-5,1.8 C144.3,354.5,138.1,357.6,132.2,361.1z M496.3,310.5c0.3-0.1,0.6-0.1,0.9-0.3c0.7-0.4,1.3-0.9,2-1.3c9-6.5,18.3-12.2,28.4-16.8 c2.9-1.3,2.9-1.4,2-4.3c-0.3-0.9-0.6-1.8-0.9-2.7c-5.4-15.4-10.3-30.9-13.7-46.9c-0.9-4.1-2.2-8-3.9-11.8 c-2.6-5.8-6.8-9.4-13.2-10.7c-7.5-1.5-15.1-2.7-22.7-3.7c-3-0.4-6.1-0.6-9.1-1c-2.5-0.4-4.8-0.1-6.5,2c-0.3,0.4-0.7,0.6-1.1,0.9 c-10,8-20.8,14.9-32.8,19.6c-9.3,3.7-18.9,5.9-29,5.3c-6.5-0.4-12.7-1.7-18.3-5.1c-7.1-4.3-10.3-11.6-8.7-19.7 c0.6-3,1.7-5.8,3.2-8.5c2.1-3.6,4.6-6.9,7.5-9.9c1.1-1.1,2.5-2,3.1-3.6c-0.4-0.3-0.8-0.6-1.2-0.7c-7.4-1.3-14.7-3.1-22-4.8 c-5.9-1.3-11.4-0.1-16.4,3.4c-3.2,2.2-5.9,4.9-8.4,7.9c-4.1,5-7.1,10.6-9.8,16.4c-5.6,11.9-11.3,23.7-17.4,35.3 c-0.4,0.7-0.7,1.4-1.1,2.1c-0.4,0.9-0.2,1.5,0.7,2c4.3,2.1,8.5,4.3,12.8,6.4c1.1-1.5,1.3-2.9,1.6-4.3c1.9-7.9,3.8-15.8,5.7-23.8 c0.3-1.1,0.6-2.2,0.9-3.2c0.3-0.9,0.9-1.3,1.8-1.2c1,0.1,1.4,0.9,1.3,1.7c-0.1,1.3-0.3,2.5-0.6,3.8c-0.8,3.4-1.6,6.8-2.4,10.3 c-4.6,18.6-8.7,37.4-15,55.5c-0.6,1.7-0.4,2,1.6,2.7c4.1,1.4,8.2,2.8,12.2,4.3c9.7,3.7,19.1,8.2,28.6,12.4 c9.6,4.3,19.3,8.5,29.7,10.8c10.9,2.4,21.8,5.2,32.6,8c4.6,1.2,9.2,2.6,13.6,4.5c5.2,2.3,9.7,5.5,13.1,10.1c0.5,0.7,0.9,1.7,2.1,1.9 c1-0.6,1.3-1.7,1.8-2.7c9.4-18.6,20.3-36.2,32.3-53.3c2.8-3.9,2.5-3,0.6-7.2c-0.7-1.6-1.5-3.2-2.2-4.8c-0.3-0.8-0.1-1.6,0.7-2.1 c0.8-0.4,1.6-0.2,2.1,0.5c0.7,1.1,1.3,2.2,1.8,3.4c3.3,6.8,6.5,13.6,9.7,20.3C494.8,308.6,495.1,309.9,496.3,310.5z M96.4,648.6 c4.3,1.1,8,2,11.7,2.9c2.5,0.6,5,1.2,7.3,2.4c4,2.1,5.1,4.9,3.8,9.1c-0.9,2.9-2.6,5.5-4.2,8c-0.8,1.2-1.6,2.4-2.3,3.6 c-0.4,0.6-0.1,1.3,0.6,1.5c2.2,0.6,4.4,1,6.5,1.5c1,0.2,1.9,0.1,2.7-0.6c5.5-4.4,10.8-9,14.8-14.9c1-1.5,1.6-3,1.6-4.9 c0-5.6,1.1-11.1,2.7-16.5c2.5-8.1,4.9-16.2,7.5-24.3c4.2-13.1,9.1-25.9,15.8-38c3.2-5.9,6.6-11.7,9.6-17.7 c10.4-20.1,16.6-41.5,18.9-64c1.2-11.9,1.4-23.9,1.2-35.9c0-1.3-0.1-2.6,0-3.8c0.1-1.6,0.7-2.2,2.4-2.3c1.1-0.1,2.2,0,3.4,0 c11.5,0,23,0,34.5,0c2.8,0,2.8-0.1,3.2-2.9c1.3-10.8-0.1-21.4-3.3-31.7c-0.7-2.2-2-3.3-4.2-4c-8.4-2.6-16.7-5.5-25-8.3 c-8.5-2.8-17-5.6-25.5-8.5c-2-0.7-3.9-0.9-6-0.3c-5.5,1.7-10.9,3.6-16.2,5.8c-4.5,1.9-7.7,5-10,9.3c-1.8,3.4-3.1,7-4.2,10.7 c-3,10-5.5,20-7.5,30.2c-3.9,19.7-7.7,39.5-11.6,59.3c-7.8,39.2-15.6,78.4-23.5,117.5C99.9,637.4,99.4,643,96.4,648.6z M417.2,452.3 c2.8-2.1,3.8-4.2,4.7-6.3c1.2-3,1.7-6.1,2.2-9.3c1.5-11.2,3-22.5,4.6-33.7c0.3-2.2,0-4-1.4-5.7c-8.3-10.4-18-19.5-27.9-28.3 c-0.7-0.6-1.5-1.2-2.3-1.7c-3.5-2.2-7-4.5-11.1-5.6c-12.4-3.6-25-6.6-37.9-8.4c-8.5-1.2-17.1-2.4-25.6-3.6c-7.3-1-14.5-2.1-21.8-3.2 c-2-0.3-2.7-0.1-3.5,2.1c-1.9,5.6-1.2,7.4-9.6,7.6c-1.7,0-2.6,0.9-3.1,2.5c-0.5,2-1.1,3.9-1.6,5.9c1,1.2,2.3,1,3.6,1.2 c10.3,1.6,20.5,3.2,30.6,6c14.2,3.9,28.6,6.9,43,9.6c15.7,3,29.1,10.3,40.2,21.8c7.3,7.6,12.7,16.5,15,26.9 C416.7,436.9,417.8,444,417.2,452.3z M448.7,179.7c-1.3,0-2.3,0.8-3.5,1.4c-5.1,2.3-10.3,4.3-15.8,5.4c-9.1,1.7-17.8,1.3-25.8-3.9 c-0.1-0.1-0.3-0.2-0.4-0.2c-1.1-0.6-1.6-0.3-2,1c-0.4,1.2-0.7,2.5-1.1,3.7c-1.7,5.3-3.9,10.5-7,15.2c-0.6,0.9-1.3,1.8-2.1,2.6 c-0.5,0.5-1.2,0.4-1.8,0.1c-0.5-0.4-0.9-1.1-0.6-1.7c0.5-1.2,1.2-2.2,1.8-3.3c1.1-2.1,2.7-3.9,3-6.4c-2.6-1.4-4.6-0.8-6.6,1 c-3.8,3.4-7.3,7.1-10,11.5c-1.3,2.2-2.5,4.5-3.1,7c-2.1,9,0.8,14.4,7.1,18.1c2.4,1.4,4.9,2.4,7.5,3c8.7,2,17.4,1.7,26.1-0.5 c15.6-4,29.1-12.1,41.6-22c0.4-0.3,0.5-0.8,0.2-1.3c-0.7-0.1-1.5-0.2-2.3-0.3c-1.4-0.2-2.9-0.4-4.2-0.7c-3.3-0.8-4.6-2.4-4.5-5.8 c0-1.6,0.1-3.2,0.4-4.8c1-5.3,2-10.7,3.1-16C448.8,181.6,449.2,180.7,448.7,179.7z M45,737.2c3.4,0.2,6.9-0.4,10.3-1.4 c5.4-1.6,10.4-4.1,15.2-6.9c1.7-0.9,1.8-1.2,1.4-3.1c-1-4.4-2.5-8.6-4.8-12.5c-3.8-6.7-9.3-11.2-16.9-13.2c-7.2-1.9-8-1.9-14.6,1.5 c-0.1,0.1-0.3,0.1-0.4,0.2c-9.6,5.3-16.5,13-21,22.9c-0.9,1.9-0.7,2.4,1.2,3.4c4.8,2.6,9.7,4.9,14.8,6.6 C35,736.4,39.9,737.4,45,737.2z M64.1,412.4c-0.1,11,4.4,16.8,14.4,19c1.7,0.4,3.1,0.1,4.6-0.6c3.1-1.6,5.9-3.8,8.6-6 c4-3.1,5.1-7.2,4.6-11.9c-0.6-5.7-2.6-10.8-5.8-15.6c-3-4.5-7.2-7.7-12.3-9.6c-2.3-0.9-2.6-0.9-4.1,0.9c-3.2,3.6-5.8,7.6-7.7,12.1 C64.9,404.5,64,408.3,64.1,412.4z M120.1,369.8c0.6,3.9,1.2,7.3,1.7,10.8c0.1,1,0.3,1.9,0.9,2.7c2.8,3.3,5.1,6.9,7.3,10.6 c0.5,0.8,1.1,1.1,2,0.7c0.9-0.4,1.8-0.7,2.6-1.2c3.2-1.9,6.6-2.3,10.1-1.9c2.4,0.3,4.8,0.6,7.1,0.7c3.3,0.2,4.1-1.1,4.5-3.7 c1-7,0.5-14-0.3-21c0-0.2-0.1-0.3-0.1-0.5c-0.5-2.1-1.8-3.4-4-3.5c-1.6-0.1-3.2-0.1-4.8,0c-5.4,0.4-10.7,1.6-16,2.8 C127.6,367.3,123.9,368.2,120.1,369.8z M75.8,725.6c2-0.6,3.5-1.7,5.1-2.7c18.7-11.3,35.9-24.4,53-37.9c1.7-1.4,3.8-2.6,5-4.4 c1.3-2.1,0.1-4.7,0.1-7.1c0-1.4-0.1-2.9-0.2-4.3c0-0.6,0.2-1.3-1-1.7c-3.3,3.7-6.9,7.2-10.8,10.5c-1,0.8-0.6,1.6-0.1,2.5 c0.9,1.5-0.6,2.5-1.8,2.3c-0.8-0.1-1.6-0.4-2.4-0.4c-0.6,0-1.3,0.1-1.8,0.4c-3.5,2.5-6.9,5-10.4,7.6c0.8,0.8,1.3,1.4,1.9,2 c0.5,0.5,0.5,1.2,0.1,1.8c-0.3,0.6-1,0.9-1.6,0.8c-1.3-0.2-2.5-0.6-3.7-0.9c-1-0.2-1.9-0.3-2.8,0.2c-1.8,1.1-3.5,2.2-5.2,3.4 c-1.7,1.1-3.6,1.9-5,3.5c0.3,0.8,0.6,1.4,0.8,1.9c0.4,0.8,0.4,1.5-0.1,2.2c-0.7,0.9-1.7,1.2-2.6,0.6c-3.3-2.1-6-0.8-8.8,1.2 c-0.6,0.5-1.4,0.8-2.1,1.2c-2.6,1.6-2.6,1.6-1.1,4.2c0.2,0.4,0.5,0.8,0.6,1.3c0.2,0.7-0.2,1.3-0.8,1.6c-0.4,0.2-1,0.3-1.3,0.1 c-0.7-0.4-1.3-1-1.8-1.6c-1.7-2.2-2.1-1.8-4.4-0.5c-0.6,0.3-0.9,0.9-0.7,1.6C73.3,718.6,74.5,722,75.8,725.6z M77.2,667.4 c3.7,3.2,7.1,6.2,12.3,5.7c0.9-0.1,1.9,0.1,2.9,0.2c4.4,0.5,8.9,1,13.3,1.6c1.2,0.1,2.2,0,2.9-1.1c2.2-3.1,4.5-6.2,6.2-9.7 c2.2-4.6,1.6-6.4-3.3-7.8c-6.1-1.8-12.4-3.2-18.6-4.7c-0.6-0.2-1.3-0.2-1.9-0.2c-3.2-0.4-5.7,0.8-7.2,3.6 C81.6,659.1,79.5,663.2,77.2,667.4z M100,415.6c2.1-1.9,3.5-3.2,5-4.3c1.4-1,1.5-2.3,1.2-3.8c-0.8-4.1-1.5-8.2-2.2-12.2 c-0.2-1.3-0.8-2.3-2-3.1c-3.1-2-6.1-4.1-9.1-6.2c-1.1-0.7-2-0.8-3,0.1c-0.8,0.7-1.9,1.1-2.5,2.5C95,395.6,99.4,404.3,100,415.6z M118.9,391.5c0,0-0.1,0-0.1,0c0-1.9,0-3.8,0-5.7c0-1-0.3-1.9-1.1-2.6c-3-2.8-6.3-5.4-10-7.3c-1.3-0.7-2.7,0.1-2.6,1.6 c0.2,2.2,0.8,4.4,0.7,6.6c-0.2,5.5,2.5,8.9,7.2,11.2c1.8,0.9,3,2.9,5.3,2.7c0.9-1.8,0.3-3.7,0.5-5.6 C118.9,392.1,118.9,391.8,118.9,391.5z M67.1,687.8C67.1,687.8,67.1,687.8,67.1,687.8c-1,0-1.9-0.1-2.9-0.2 c-1.4-0.1-2.9-0.1-4.3-0.1c-0.4,0-1-0.1-1.2,0.5c-0.2,0.5,0,0.9,0.4,1.2c0.9,0.9,2,1.6,2.8,2.6c1.8,2.2,4.1,3.3,6.9,3.7 c5,0.8,9.9,2.2,14.8,3.7c1.1,0.3,2.1,0.5,3.2,0.7c0.2,0,0.6-0.2,0.8-0.4c0.1-0.2,0.1-0.7,0-0.9c-2.4-3.4-5.2-6.4-8.3-9.2 c-1-0.9-2.3-1.1-3.6-1.2C72.8,688.2,69.9,688,67.1,687.8z M77.8,676.5C77.8,676.6,77.8,676.6,77.8,676.5c-1,0.1-1.9,0.1-2.9,0.1 c-1.1,0-2.2,0-3.3,0.2c-0.6,0.1-1.2,0.6-1.5,1c-0.3,0.6,0.2,1.1,0.8,1.5c2.4,1.5,4.9,3,7.2,4.7c1.2,0.9,2.5,1.3,3.9,1.5 c4.7,0.8,9.4,1.6,14.1,2.4c0.5,0.1,1,0.1,1.4,0c0.2,0,0.5-0.3,0.6-0.5c0.1-0.3,0-0.6-0.2-0.9c-0.3-0.4-0.7-0.6-1.1-0.9 c-3.7-2.6-7.4-5-10.9-7.7c-1.6-1.2-3.3-1.7-5.3-1.6C79.7,676.6,78.8,676.5,77.8,676.5z M392.9,150.5c0.4-3.2,0.6-5.7,1-8.2 c0.7-4.1,1.6-8.1,2.3-12.2c0.2-0.9,0.6-1.9-0.3-2.6c-1-0.8-2.1-0.7-3.2-0.3c-2.3,0.9-3.4,2.8-4,5C387.4,137,389.2,145.2,392.9,150.5 z M52.7,697c1.2,0.6,1.6,0.8,2,0.9c5.6,2.2,10.1,5.8,13.6,10.8c0.4,0.5,0.7,1.1,1.2,1.5c1,0.8,1.8,0.1,2.5-0.4 c0.6-0.4,0.7-1.1,0.2-1.6c-2.7-3.1-5.5-6.2-8.3-9.2c-0.5-0.5-1.3-1-2-1.1C59.2,697.5,56.4,696.4,52.7,697z M117.3,680.8 c-2.7-0.6-4.7-1-6.6-1.4c-0.8-0.2-1.6,0-2.2,0.7c-1.3,1.8-2.6,3.6-3.9,5.4c-0.3,0.4-0.2,0.9,0,1.3c0.7,1.1,2.3,1.7,3.3,1.1 c1.2-0.7,2.4-1.5,3.5-2.4C113.2,684.2,115.2,683.1,117.3,680.8z M104.7,678.7c-3.2-1.6-6.8-1.1-10.2-1.8c-1-0.2-2.1-0.4-3.3,0.3 c1.7,1.9,3.7,3,5.5,4.2c4.9,3.4,4.1,3.7,7.7-1.6C104.6,679.5,104.6,679.2,104.7,678.7z M83.5,702.7c-4.5-1.2-8.1-2.1-11.8-3 c-0.5-0.1-1.3-0.4-1.5,0.8c1.6,1.9,3.4,3.9,5.1,5.9c0.5,0.5,1.1,0.9,1.7,0.5C79,705.9,81.3,705,83.5,702.7z M108.2,396.9 c-0.3,3.3,0.8,6.2,1.3,9.1c0.1,0.9,1,0.9,1.5,0.5c2-1.3,4-2.4,6.2-4.3C114,400.4,111.8,397.9,108.2,396.9z M102.4,387.7 c0.1-0.9,0.2-1.6,0.1-2.1c-0.4-2.3,0.2-4.7-1.5-6.7c-2.4,0.5-4.1,2.1-6.2,3.7C97.1,384.8,99.5,386.5,102.4,387.7z M85.2,690.2 c0.9,1.5,2,2.5,2.8,3.5c2.9,3.5,2.4,4.2,6-0.2c0.5-0.6,1-1.3,0.5-2.4C91.7,691,88.9,689.4,85.2,690.2z M122.5,390.2 c0,2.8,0,5.7,0,8.7c2-0.1,3.4-1.1,4.9-2.2C126.4,394.1,125,391.9,122.5,390.2z M116.5,371.3c-2.1,0.1-3.8,0.8-5.4,2.5 c2.4,1.3,4.1,3.2,6.6,4.2C118,375.5,117.1,373.5,116.5,371.3z M63.6,684.3c2.2,0.1,4.3,0.1,6.3,0.2c0.6,0,1.3,0,1.2-1 c-0.8-0.4-1.6-0.9-2.4-1.3c-0.8-0.4-1.7-1-2.6-0.6C65.1,681.9,64.1,682.4,63.6,684.3z M51.6,692.8c2.5,0.3,4.2,1.1,6.2,0.7 C55.2,690,55.2,690,51.6,692.8z M76.1,673c0.2-0.1,1-0.2,1-0.4c0.1-0.7-0.5-1.1-1.1-1.3c-0.6-0.2-1.4,0.5-1.2,1 C75,672.8,75.4,673,76.1,673z M476.3,275.3c0.5,1.9,1.3,2.7,2.4,2.6c1.2-0.1,1.6-1.3,1-3.6c-1.3-4.9-1.1-9.8-0.5-14.8 c0.8-6.2,2.1-12.3,4-18.3c0.3-1.1,0.6-2.1,0.9-3.2c0.2-1-0.4-2.2-1.2-2.3c-1.1-0.1-1.8,0.5-2.2,1.5c-0.1,0.1-0.1,0.3-0.2,0.5 c-2.9,9.2-4.9,18.5-5.5,28.2C475,269,475.5,272.2,476.3,275.3z M525,337.4c-0.4,0.5-0.5,1.2-0.1,1.8c1.8,2.6,4.1,4.8,6.4,6.9 c0.6,0.6,1.5,0.5,2.1-0.1c0.7-0.6,0.7-1.5,0.2-2.1c-2-2.2-4-4.4-6.1-6.6c-0.3-0.3-0.8-0.4-1.4-0.6 C525.8,336.9,525.3,337.1,525,337.4z M456,131.8c1.1-0.1,2.1-1.1,2.3-2.1c0.2-1-0.4-2.3-1.4-2.8c-0.6-0.3-1.2-0.4-1.8-0.6 c-4.4-1-8.5-2.5-12.4-4.8c-0.8-0.5-1.7-0.9-2.7-0.9c-0.8,0-1.6,0.4-2,1.1c-0.6,0.9-0.6,1.9-0.1,2.7c0.4,0.6,1,1.2,1.7,1.6 c1.3,0.8,2.7,1.6,4.2,2.3c3.6,1.7,7.3,3,11.4,3.6C455.3,131.8,455.7,131.8,456,131.8z M445.4,101.2c-0.9,0.1-1.9,1.1-1.9,1.9 c0,0.9,0.4,1.5,1.2,1.9c0.5,0.3,1.2,0.4,1.8,0.5c5.6,1,10.4,3.6,14.6,7.6c0.6,0.5,1.2,1,1.9,1.3c0.6,0.3,1.2,0.2,1.8-0.3 c0.7-0.5,1-1.3,0.7-2.1c-0.3-0.7-0.7-1.4-1.2-2c-2-2-4.3-3.8-6.8-5.2c-3.5-2-7.2-3.2-11.2-3.8C446.1,101.2,445.8,101.2,445.4,101.2z M420.2,121.8c-0.9,2.1-2.6,3.5-4.1,5.2c-1.2,1.3-2.6,2.4-3.8,3.6c-3,3.2-1.5,9.5,2.6,11.2c0.6,0.2,1.3,0,1.7-0.6 c0.2-0.4,0.4-1,0.3-1.3c-0.7-1.3-1.6-2.4-2.2-3.6c-0.6-1.2-0.6-2.5,0.5-3.5c0.9-0.9,1.9-1.7,2.8-2.6c2.8-2.8,5.4-5.8,7.7-9.1 c0.5-0.7,0.4-1.5-0.3-2.1c-0.7-0.7-1.5-0.6-2.1,0c-1.1,0.9-2,2-3,3L420.2,121.8z M420.1,121.9c0-0.5,0-0.9,0-1.4 c0.3-3.3-0.4-4.1-3.6-3.8c-2.1,0.2-4.2,0.5-6.2,0c-1.9-0.4-3.7,0-5.6,0.3c0,0,0.1-0.1,0.1-0.1c0.1,0.3,0.1,0.6,0.2,0.9 c0.1,3.2,0.4,3.5,3.2,4.2c3.1,0.7,6.2,0.8,9.3,0c0.9-0.2,1.7-0.8,2.7-0.3C420.2,121.8,420.1,121.9,420.1,121.9z M429.2,101.7 c0.9-0.1,1.5-0.6,1.6-1.5c0.1-0.9-0.2-1.6-0.9-2.1c-0.4-0.3-0.9-0.4-1.3-0.5c-4.5-1.3-8.9-0.7-13.1,1.1c-0.4,0.2-0.8,0.5-1.1,0.8 c-0.5,0.5-0.7,1.1-0.5,1.8c0.2,0.8,0.8,1.5,1.7,1.5c0.9,0,1.9-0.1,2.8-0.4c2.5-0.9,5-0.9,7.6-0.6C427,101.7,428.1,101.8,429.2,101.7 z M465.8,161.9c2.8-1.5,5.6-2.9,8.4-4.5c0.4-0.2,0.8-0.6,0.9-1c0.2-0.4,0.2-1,0-1.3c-0.2-0.4-0.7-0.7-1.1-0.8 c-0.4-0.1-1-0.1-1.4,0.1c-2.9,1.5-5.8,3.1-8.7,4.8c-0.2,0.1-0.5,0.5-0.6,0.7c-0.1,0.4-0.2,1,0,1.3c0.2,0.4,0.6,0.6,1,0.9 C464.9,162.1,465.4,162.1,465.8,161.9z"
      style="fill: rgb(27, 27, 27);" />
  </g>
</svg>