<svg xmlns="http://www.w3.org/2000/svg" xmlns:xlink="http://www.w3.org/1999/xlink" preserveAspectRatio="xMidYMid meet"
  version="1.0" viewBox="-0.0 -0.9 158.0 480.5" zoomAndPan="magnify" style="fill: rgb(0, 0, 0);"
  original_string_length="16878">
  <g id="__id276_ss9twpl4nl">
    <path
      d="M157.86,249.39c-1.09,3.68-1.87,7.68-3.32,11.22c-0.44,1.08-0.82,2.11-2.06,2.5 c-1.73,0.54-3.71-0.96-5.19-1.96c1.81,2.48,2.69,4.94-0.14,5.72c-2.3,0.64-5.94-2.47-7.55-3.71c-1.36-1.05-2.65-2.17-3.94-3.3 c0.09,3,0.06,7.73-3.23,6.47c-1.63-0.62-2.71-2.8-3.51-4.21c-1.48-2.61-2.78-5.32-4.08-8.03c6.34,16.29,13.07,32.5,18.29,49.19 c0.14,0.46,0,0.83-0.27,1.07c-0.01,0.01-0.01,0.02-0.02,0.02c-11.55,12.67-27.96,20.24-44.86,24.33c0.9,5.29,2.8,10.16,5.8,14.64 c14.22,22.62,23.81,46.85,29.36,72.96c5.27,10.15,9.18,20.52,12.14,31.57c2.44,9.09,3.99,20.98-5.49,26.66 c-8.41,5.04-15.69-2.09-17.78-10.07c-3.56-13.57-3.97-28.29-6.08-42.13c-10.83-16.3-21.65-32.61-32.48-48.91 c3.1,17.97,5.63,36.04,8.62,54.03c0.09,0.17,0.12,0.36,0.09,0.55c0.59,3.52,1.19,7.03,1.82,10.54c0,0.02,0,0.04,0,0.06 c0.1,0.34,0.04,0.72-0.29,1.04c-8.88,8.66-18.86,16.1-29.8,21.96c-5.39,2.89-18.51,11.4-24.67,6.02c-6.65-5.81-0.99-15.3,3.66-19.98 c7.55-7.58,17.61-11.91,26.61-17.46c-5.84-17.62-10.74-35.52-16-53.32c-4.65-15.76-9.75-31.44-13.76-47.38 c-13.98-3.17-27.4-8.77-39.17-16.69c0,0,0,0-0.01-0.01c-0.34-0.15-0.59-0.47-0.55-0.97c2.1-26.12,6.94-52.73,15.15-77.75 c-0.01-0.3,0.09-0.59,0.26-0.81c0.62-1.88,1.26-3.75,1.92-5.6c-3.85-2.41-4.54-7.05-3.21-11.3c2.33-7.45,7.85-14.59,11.7-21.32 c2.26-3.76,4.32-7.69,6.13-11.74c-10.33-5.46-11.62-22.87-12.47-32.89c-1.28-15.08-0.97-31.11,2.58-45.91 c-0.02-0.23,0.05-0.46,0.23-0.68c0.04-0.06,0.09-0.12,0.14-0.17c-0.19-0.42-0.37-0.84-0.54-1.27c-0.03,0.02-0.06,0.04-0.08,0.05 c-3.34,1.83-4.92-1.43-6-4.08c-1.66-4.07,1.03-6.66,3.94-9.49c1.48-1.44,3.1-2.78,4.8-3.98c0.14-0.17,0.33-0.3,0.55-0.38 c1.39-0.94,2.85-1.78,4.36-2.5c0.13-0.12,0.31-0.19,0.49-0.23c0.61-0.28,1.22-0.53,1.85-0.77c0.02-0.41,0.07-0.81,0.13-1.21 c0-0.02,0-0.03,0.01-0.05c0.01-0.06,0.02-0.12,0.03-0.18c0.1-0.6,0.54-0.82,1-0.8c0.2-0.02,0.43,0.01,0.65,0.12 c2.64,1.35,7.11,2.58,8.33,5.58c1.12,2.76,0.89,6.53,0.98,9.68c0.28,0.04,0.55,0.21,0.74,0.53c4.62,8.09,9.94,15.77,9.74,25.25 c1.94-2.12,3.96-4.25,6-6.48c0.8-1.72,1.92-3.11,3.55-3.75c1.58-2.63,3.09-5.46,5.02-7.78c0.71-0.86,1.85-1.7,3.05-2.09 c-0.78-1.68-2.04-3.2-3.24-4.54c-1.51-0.62-3-1.4-4.44-2.37c-4.38-2.92-7.7-6.77-10.25-11.14c-1.8,4.56-1.81,9.75,1.16,13.86 c0.15,0.16,0.25,0.33,0.28,0.51c0.14,0.48-0.16,0.9-0.59,1.11c-0.4,0.24-0.92,0.27-1.36-0.11c-7.52-6.54-9.39-17.12-4.12-25.58 c-11.51-7.5-15.74-18.31-9.88-31.1c4.74-10.35,13.57-17.85,24.27-19.83c-3.14-4.55-0.41-10.91,3.41-14.72 C71,1.25,78.17-0.94,84.7,0.38c5.37,1.09,10.86,4.33,13.93,8.92c3.4,5.08,2.96,10.81,0.93,16.23c6.18,4.09,11.11,10.02,14.03,17.18 c4.91,12.04,2.74,29.03-7.77,37.42c-0.02,0.02-0.05,0.03-0.07,0.05c1.92,4.17,2.08,8.17-1.69,11.44c-0.26,0.43-0.76,0.52-1.21,0.36 c-0.64-0.19-1.1-0.88-0.8-1.48c0.45-2.93-1.04-5.87-2.99-8.76c-0.37,0.92-0.79,1.81-1.26,2.66c-0.53,2.75-0.51,5.48,0.04,8.2 c3.14-0.82,5.94-0.44,9.16,0.51c19.92,0.45,23.29,24.33,24.54,39.71c1.5,18.43-0.25,36.89,0.76,55.31 c2.36,7.06,4.97,14.03,7.64,20.97c2.15,5.6,4.81,11.56,4.78,17.67c-0.02,4.07-1.54,7.81-3.4,11.34c5.36,3.3,10.76,6.54,16.03,9.99 c0.09,0.06,0.16,0.12,0.22,0.19C157.84,248.55,158,248.92,157.86,249.39z"
      style="fill: rgb(253, 250, 246);" />
  </g>
  <g id="__id277_ss9twpl4nl">
    <path
      d="M21.48,146.78c-0.83-13.75-0.46-28.22,2.76-41.68c5.21-4.42,11.22-7.25,17.89-8.56 c4.77,8.26,10.18,16.09,8.83,26.18c-4.85,5.64-8.82,11.59-10.47,19.77c-0.71,3.54-1.02,7.13-0.9,10.68 c-0.01,0.04-0.03,0.07-0.03,0.12c-0.5,9.6-2.97,19.05-6.71,27.94c-4.4-2.54-6.51-7.9-7.92-12.54 C22.79,161.6,21.92,154.15,21.48,146.78z M141.45,220.29c-1.38-5.39-3.72-10.55-5.64-15.76c-4.04-10.96-8.03-21.93-10.87-33.27 c-0.35-1.41,1.82-2,2.17-0.6c0.81,3.24,1.71,6.47,2.68,9.67c-0.21-13.01,0.55-26.06,0.01-39.07c-0.64-15.23-1.56-45.09-22.5-45.87 c-5.23,6.3-11.38,11.78-16.95,17.78c0.54,4.98,0.15,10.2-1.28,15c-0.78,2.62-2.18,6.78-5.16,7.7c-4.76,1.47-7.71-3.48-9.81-8.52 c0.73,7.14,1.01,14.32,0.89,21.51c-0.07,4.01,0.55,9.33-0.71,13.18c-0.44,1.34-1.15,2.41-2.65,2.48 c-5.27,0.25-4.04-18.44-2.54-32.17c-1.35,4.51-2.73,9.02-4.07,13.54c-0.96,3.24-1.96,14.58-7.16,13.94 c-6.39-0.78,1.21-18.56,7.26-30.76c-1.75,2.02-4.18,5.2-6.76,5.62c-5.77,0.94-1.92-9.28-1.44-11.33c0.31-1.32,0.57-3.1,0.96-4.95 c-6.48,6.87-12.55,13.28-14.88,23.12c-2.68,11.34-0.9,23.31,5.96,32.83c0.85,1.18-1.1,2.3-1.94,1.14c-2.96-4.11-5-8.66-6.19-13.42 c-2.04,12.05-6.81,23.67-13.06,34.09c-2.63,4.6-5.27,9.19-7.9,13.79c-2.51,4.4-7.12,11.93-1.56,15.64c0.23-0.15,0.52-0.19,0.87-0.06 c26.46,10.1,55.05,10.44,81.71,1.02c-0.17-3.94-0.22-7.85-0.48-11.47c-1.95-26.48-3.05-52.96-2.02-79.51c0.06-1.45,2.31-1.45,2.25,0 c-0.89,22.85-0.27,45.69,1.24,68.49c0.57,8.55,1.26,17.1,1.85,25.65c0.38,5.5,0.61,10.88,3.28,15.86c2.8,5.24,9.62,9.45,15.36,5.77 c0.12-0.08,0.25-0.12,0.37-0.15c6.75-2.37,11.33-6.55,15.54-12.23C141.78,232.78,143.26,227.34,141.45,220.29z"
      style="fill: rgb(203, 157, 240);" />
  </g>
  <g id="__id278_ss9twpl4nl">
    <path
      d="M69.99,79.94c-0.87-1.58-0.13-3.74,1.48-4.51c1.3-0.62,2.44,1.32,1.14,1.94c-0.51,0.24-0.93,0.84-0.67,1.43 c0.25,0.57,1.02,0.69,1.51,0.41c1.26-0.72,2.39,1.23,1.14,1.94C73.01,82.05,70.88,81.55,69.99,79.94z M61.59,71.01 c-0.63,1.8-3.11,1.88-3.79,0.06c-0.5-1.35-2.68-0.76-2.17,0.6c1.45,3.91,6.74,3.9,8.13-0.06C64.24,70.24,62.06,69.65,61.59,71.01z M61,57.76c1.33-0.54,0.75-2.71-0.6-2.17c-4.49,1.82-7.8,5.62-8.76,10.41c-0.28,1.41,1.88,2.02,2.17,0.6 C54.61,62.64,57.23,59.29,61,57.76z M77.3,54.49c4.11-0.54,7.94,0.88,10.65,4.01c0.95,1.1,2.54-0.5,1.59-1.59 c-3.05-3.52-7.62-5.29-12.24-4.67C75.89,52.43,75.87,54.68,77.3,54.49z M80.77,85.94c-1.93,1.66-4.45,2.17-6.89,1.49 c-1.4-0.39-1.99,1.78-0.6,2.17c3.24,0.91,6.54,0.12,9.08-2.06C83.46,86.59,81.86,85,80.77,85.94z M88.31,64.47 c-0.59,3.05-3.76,4.24-6.26,2.42c-1.17-0.85-2.3,1.1-1.14,1.94c3.63,2.64,8.71,0.63,9.57-3.77C90.76,63.66,88.59,63.05,88.31,64.47z M157.86,249.39c-1.09,3.68-1.87,7.68-3.32,11.22c-0.44,1.08-0.82,2.11-2.06,2.5c-1.73,0.54-3.71-0.96-5.19-1.96 c1.81,2.48,2.69,4.94-0.14,5.72c-2.3,0.64-5.94-2.47-7.55-3.71c-1.36-1.05-2.65-2.17-3.94-3.3c0.09,3,0.06,7.73-3.23,6.47 c-1.63-0.62-2.71-2.8-3.51-4.21c-1.48-2.61-2.78-5.32-4.08-8.03c6.34,16.29,13.07,32.5,18.29,49.19c0.14,0.46,0,0.83-0.27,1.07 c-0.01,0.01-0.01,0.02-0.02,0.02c-11.55,12.67-27.96,20.24-44.86,24.33c0.9,5.29,2.8,10.16,5.8,14.64 c14.22,22.62,23.81,46.85,29.36,72.96c5.27,10.15,9.18,20.52,12.14,31.57c2.44,9.09,3.99,20.98-5.49,26.66 c-8.41,5.04-15.69-2.09-17.78-10.07c-3.56-13.57-3.97-28.29-6.08-42.13c-10.83-16.3-21.65-32.61-32.48-48.91 c3.1,17.97,5.63,36.04,8.62,54.03c0.09,0.17,0.12,0.36,0.09,0.55c0.59,3.52,1.19,7.03,1.82,10.54c0,0.02,0,0.04,0,0.06 c0.1,0.34,0.04,0.72-0.29,1.04c-8.88,8.66-18.86,16.1-29.8,21.96c-5.39,2.89-18.51,11.4-24.67,6.02c-6.65-5.81-0.99-15.3,3.66-19.98 c7.55-7.58,17.61-11.91,26.61-17.46c-5.84-17.62-10.74-35.52-16-53.32c-4.65-15.76-9.75-31.44-13.76-47.38 c-13.98-3.17-27.4-8.77-39.17-16.69c0,0,0,0-0.01-0.01c-0.34-0.15-0.59-0.47-0.55-0.97c2.1-26.12,6.94-52.73,15.15-77.75 c-0.01-0.3,0.09-0.59,0.26-0.81c0.62-1.88,1.26-3.75,1.92-5.6c-3.85-2.41-4.54-7.05-3.21-11.3c2.33-7.45,7.85-14.59,11.7-21.32 c2.26-3.76,4.32-7.69,6.13-11.74c-10.33-5.46-11.62-22.87-12.47-32.89c-1.28-15.08-0.97-31.11,2.58-45.91 c-0.02-0.23,0.05-0.46,0.23-0.68c0.04-0.06,0.09-0.12,0.14-0.17c-0.19-0.42-0.37-0.84-0.54-1.27c-0.03,0.02-0.06,0.04-0.08,0.05 c-3.34,1.83-4.92-1.43-6-4.08c-1.66-4.07,1.03-6.66,3.94-9.49c1.48-1.44,3.1-2.78,4.8-3.98c0.14-0.17,0.33-0.3,0.55-0.38 c1.39-0.94,2.85-1.78,4.36-2.5c0.13-0.12,0.31-0.19,0.49-0.23c0.61-0.28,1.22-0.53,1.85-0.77c0.02-0.41,0.07-0.81,0.13-1.21 c0-0.02,0-0.03,0.01-0.05c0.01-0.06,0.02-0.12,0.03-0.18c0.1-0.6,0.54-0.82,1-0.8c0.2-0.02,0.43,0.01,0.65,0.12 c2.64,1.35,7.11,2.58,8.33,5.58c1.12,2.76,0.89,6.53,0.98,9.68c0.28,0.04,0.55,0.21,0.74,0.53c4.62,8.09,9.94,15.77,9.74,25.25 c1.94-2.12,3.96-4.25,6-6.48c0.8-1.72,1.92-3.11,3.55-3.75c1.58-2.63,3.09-5.46,5.02-7.78c0.71-0.86,1.85-1.7,3.05-2.09 c-0.78-1.68-2.04-3.2-3.24-4.54c-1.51-0.62-3-1.4-4.44-2.37c-4.38-2.92-7.7-6.77-10.25-11.14c-1.8,4.56-1.81,9.75,1.16,13.86 c0.15,0.16,0.25,0.33,0.28,0.51c0.14,0.48-0.16,0.9-0.59,1.11c-0.4,0.24-0.92,0.27-1.36-0.11c-7.52-6.54-9.39-17.12-4.12-25.58 c-11.51-7.5-15.74-18.31-9.88-31.1c4.74-10.35,13.57-17.85,24.27-19.83c-3.14-4.55-0.41-10.91,3.41-14.72 C71,1.25,78.17-0.94,84.7,0.38c5.37,1.09,10.86,4.33,13.93,8.92c3.4,5.08,2.96,10.81,0.93,16.23c6.18,4.09,11.11,10.02,14.03,17.18 c4.91,12.04,2.74,29.03-7.77,37.42c-0.02,0.02-0.05,0.03-0.07,0.05c1.92,4.17,2.08,8.17-1.69,11.44c-0.26,0.43-0.76,0.52-1.21,0.36 c-0.64-0.19-1.1-0.88-0.8-1.48c0.45-2.93-1.04-5.87-2.99-8.76c-0.37,0.92-0.79,1.81-1.26,2.66c-0.53,2.75-0.51,5.48,0.04,8.2 c3.14-0.82,5.94-0.44,9.16,0.51c19.92,0.45,23.29,24.33,24.54,39.71c1.5,18.43-0.25,36.89,0.76,55.31 c2.36,7.06,4.97,14.03,7.64,20.97c2.15,5.6,4.81,11.56,4.78,17.67c-0.02,4.07-1.54,7.81-3.4,11.34c5.36,3.3,10.76,6.54,16.03,9.99 c0.09,0.06,0.16,0.12,0.22,0.19C157.84,248.55,158,248.92,157.86,249.39z M21.72,99.84c-0.85-2.72-1.37-5.49-1.57-8.31 c-1.71,1.7-3.07,3.69-2.26,5.96c0.57,1.6,1.16,3.34,3.29,2.61C21.35,100.04,21.53,99.95,21.72,99.84z M83.53,104.91 c2.12,1.74,2.94,5.77,3.21,8.9c0.46-0.52,0.92-1.04,1.39-1.56c0.08-0.19,0.21-0.32,0.38-0.41c5.31-5.76,11.16-11.03,16.27-16.97 c-2.43-0.56-4.73-0.65-7.29,0.19C92.84,98.34,88.19,101.62,83.53,104.91z M73.6,100.27c0.01,0.02,0.01,0.04,0.02,0.07 c0.01,0.04,0.03,0.08,0.04,0.13c0.05,0.18,0.06,0.34,0.04,0.49c-0.01,4.03,0.09,8.06,0.12,12.09c0.77-1.74,1.65-3.44,2.69-5.05 c0.98-1.53,2.28-3.62,4.27-3.89c0,0,0.01-0.01,0.01-0.01c4.98-3.51,9.96-7.03,14.95-10.55c-0.39-1.74-0.57-3.49-0.56-5.24 c-5.71,7.01-14.73,10.24-23.52,8.25C72.49,97.71,73.18,98.95,73.6,100.27z M72.74,142.1c-0.07-4.48-0.33-8.95-0.76-13.4 c-0.35,3.54-0.68,7.08-0.95,10.62c-0.45,5.84-1.75,13.22-0.6,19.01c0.41,2.08,1.56,5.42,1.92,0.27c0.14-1.95,0.21-3.9,0.28-5.85 C72.76,149.21,72.8,145.66,72.74,142.1z M79.82,107.24c-1.33,1.08-2.33,3.39-3.11,4.9c-0.64,1.23-1.18,2.5-1.66,3.79 c2.82-1.3,5.68-2.49,8.65-3.42c0.19-0.06,0.36-0.07,0.51-0.04C83.65,109.01,82.36,105.17,79.82,107.24z M73.33,119.25 c1.9,4.63,4.9,16.16,10.15,14.36c2.78-0.95,3.77-6.99,4.22-9.39c0.54-2.89,0.73-5.82,0.59-8.74c-0.59,0.68-1.18,1.35-1.75,2.04 c-0.41,0.5-0.96,0.46-1.35,0.15c-0.33-0.16-0.58-0.47-0.57-0.95c0.01-0.42-0.02-1.18-0.11-2.1c-0.06,0.03-0.12,0.06-0.19,0.08 C80.51,115.87,76.89,117.49,73.33,119.25z M96.83,56.27c0.65,5.84,2.43,10.73,4.74,15.62c2.51-2.42,4.56-5.44,4.64-9.06 C106.32,58.05,101.47,52.76,96.83,56.27z M80.78,94.8c6.49-1.32,11.75-5.49,14.87-11.09c0.01-0.04,0.01-0.09,0.02-0.13 c0.06-0.28,0.19-0.48,0.37-0.61c0.56-1.09,1.05-2.23,1.45-3.42c-1.95-2.65-3.98-5.24-4.89-7.69c-1.91-5.1-2.18-10.43-1.23-15.76 c-5.98-2.43-10-7.42-11.88-13.87c-7.73,3.24-16.36,3.85-24.64,2.89c-0.83,6.47-2.77,12.61-5.88,18.38c0.47,2.51,1.07,5,1.83,7.43 c0.15,0.19,0.23,0.41,0.21,0.66c2.01,6.21,5.09,12,9.85,16.49c2.32,2.19,5.01,4.03,7.91,5.29c0.14,0.02,0.28,0.07,0.42,0.17 C72.81,95.03,76.78,95.61,80.78,94.8z M67.55,106.71c0.62-0.13,1.28-0.05,1.98,0.37c0.92,0.55,1.53,1.52,2.01,2.51 c-0.04-2.51-0.07-5.03-0.08-7.54c-1.51,0.56-2.52,2.46-3.29,3.67C67.97,106.05,67.76,106.38,67.55,106.71z M67.09,109.68 c1.31,0.49,2.36,1.44,3.21,2.61c-0.26-0.63-0.54-1.24-0.87-1.84c-0.58-1.05-1.33-1.91-2.29-0.83 C67.12,109.64,67.1,109.66,67.09,109.68z M57.92,128.95c-0.93,1.54-0.6,2.11,0.98,1.71c2.06,0.29,3.31-1.8,4.61-3.18 c2.62-2.8,4.97-5.81,7.13-8.98c-0.37-1.45-0.78-3.1-1.67-4.25c-2.18-2.82-6.46-2.51-7.72,0.85c-1.24,3.32-1.75,7.07-2.56,10.52 C58.44,126.74,58.18,127.84,57.92,128.95z M34.06,81.59c0.11,1.32,0.78,2.27,1.82,3.37c0.57,0.6,1,1.17,1.16,1.99 c0.47,2.4-1.18,5.58-1.85,7.83c-0.41,1.39-2.58,0.79-2.17-0.6c0.09-0.31,0.2-0.64,0.32-0.97c-1.68,1.37-3.4,2.69-5.11,4.03 c-1.35,1.06-2.72,2.43-4.15,3.6c-0.06,0.12-0.15,0.21-0.26,0.3c0.13,0.37,0.27,0.73,0.41,1.08c4.89-3.77,10.4-6.36,16.45-7.68 c-0.11-2.51-0.02-5.25-0.55-7.64C39.49,83.98,36.64,82.75,34.06,81.59z M31.53,83.53c0.26,2.32,0.87,4.69,1.73,6.84 c0.29-0.25,0.59-0.49,0.88-0.74c0.13-0.12,0.27-0.19,0.41-0.24c0.04-0.21,0.07-0.42,0.09-0.63c0.18-2.02-1.03-2.45-1.95-3.83 c-0.33-0.5-0.54-1.04-0.69-1.6C31.85,83.41,31.68,83.47,31.53,83.53z M26.72,86.15c0.6,2.68,1.2,5.36,1.8,8.04 c1.02-0.79,2.03-1.59,3.04-2.4c-0.14-0.12-0.25-0.26-0.33-0.45c-0.89-2.13-1.49-4.46-1.83-6.78C28.48,85.04,27.58,85.57,26.72,86.15 z M23.63,98.31c0.75-0.7,1.47-1.44,2.02-1.87c0.38-0.3,0.77-0.6,1.15-0.9c-0.2-0.13-0.36-0.34-0.43-0.64 c-0.55-2.44-1.1-4.89-1.64-7.33c-0.72,0.55-1.43,1.13-2.1,1.72c-0.1,0.09-0.21,0.18-0.31,0.27C22.37,92.55,22.82,95.45,23.63,98.31z M32.86,181.23c3.74-8.9,6.21-18.34,6.71-27.94c0-0.04,0.02-0.07,0.03-0.12c-0.12-3.55,0.19-7.14,0.9-10.68 c1.64-8.18,5.62-14.13,10.47-19.77c1.35-10.09-4.06-17.92-8.83-26.18c-6.68,1.31-12.69,4.15-17.89,8.56 c-3.22,13.46-3.59,27.92-2.76,41.68c0.44,7.37,1.31,14.83,3.46,21.91C26.35,173.33,28.45,178.69,32.86,181.23z M101.52,234.43 c-0.23-1.82-0.39-3.67-0.5-5.53c-26.53,9.26-55.09,8.98-81.45-0.82c-0.63,1.77-1.24,3.55-1.84,5.34 C44.77,243.1,74.26,243.46,101.52,234.43z M45.76,343.06c5.96,1.52,11.87,1.66,17.83,0.46c-0.27-0.41-0.55-0.83-0.82-1.24 c-1.92-3.09-3.05-6.41-3.52-9.98c-5.71-0.36-11.42-1.1-17.05-2.26c1.11,4.36,2.3,8.69,3.54,13.02 C45.74,343.06,45.75,343.06,45.76,343.06z M61.71,437.27c2.81,1.01,4.86,3.38,5.48,6.42c0.63-0.39,1.27-0.79,1.9-1.19 c-0.81-3.02-3.16-5.7-6.46-5.75C62.32,436.93,62.01,437.1,61.71,437.27z M90.21,429.92c-9.8,8.06-20.32,15.49-31.56,21.4 c-4.8,2.53-11.77,1.39-12.14-4.04c-2.8,2.37-5.46,5.15-6.89,8.31c-2.02,4.46-1.03,11.18,4.82,11.25c4.75,0.06,9.7-2.9,13.84-4.91 c4.02-1.95,7.94-4.11,11.73-6.47c7.84-4.88,15.05-10.62,21.68-17.03C91.18,435.61,90.69,432.77,90.21,429.92z M134.53,424.23 c0.64,4.14,1.2,8.29,1.97,12.41c0.83,4.48,2.1,9.44-0.25,13.73c-1.97,3.6-5.93,4.65-9.7,3.2c-1.93-0.74-3.42-1.94-4.62-3.39 c0.1,0.74,0.2,1.48,0.3,2.22c0.65,4.56,1,9.51,2.66,13.85c2.64,6.89,9.77,10.34,15.76,4.84c8.39-7.72,2.95-21.5,0.16-30.63 C139.1,434.86,136.97,429.49,134.53,424.23z M133.71,433.62c-4.49-1.65-10.38-1.54-13.64,2.37c0.07,0.57,0.15,1.13,0.22,1.7 c4.36-2.76,8.93-3.65,13.77-1.97C133.94,435.02,133.82,434.32,133.71,433.62z M95.79,329.21c-5.98,1.34-11.99,2.25-17.85,2.81 c-5.43,0.52-10.93,0.63-16.42,0.39c0.45,3.12,1.51,6.02,3.2,8.72c0.51,0.77,1.02,1.53,1.53,2.3c0.12,0.12,0.21,0.26,0.28,0.42 c1.01,1.53,2.03,3.05,3.04,4.58c11.28,0.56,20.47-2.03,29.75-8.35C97.61,336.67,96.43,333.03,95.79,329.21z M138.28,238.99 c3.5-6.21,4.98-11.65,3.17-18.7c-1.38-5.39-3.72-10.55-5.64-15.76c-4.04-10.96-8.03-21.93-10.87-33.27c-0.35-1.41,1.82-2,2.17-0.6 c0.81,3.24,1.71,6.47,2.68,9.67c-0.21-13.01,0.55-26.06,0.01-39.07c-0.64-15.23-1.56-45.09-22.5-45.87 c-5.23,6.3-11.38,11.78-16.95,17.78c0.54,4.98,0.15,10.2-1.28,15c-0.78,2.62-2.18,6.78-5.16,7.7c-4.76,1.47-7.71-3.48-9.81-8.52 c0.73,7.14,1.01,14.32,0.89,21.51c-0.07,4.01,0.55,9.33-0.71,13.18c-0.44,1.34-1.15,2.41-2.65,2.48 c-5.27,0.25-4.04-18.44-2.54-32.17c-1.35,4.51-2.73,9.02-4.07,13.54c-0.96,3.24-1.96,14.58-7.16,13.94 c-6.39-0.78,1.21-18.56,7.26-30.76c-1.75,2.02-4.18,5.2-6.76,5.62c-5.77,0.94-1.92-9.28-1.44-11.33c0.31-1.32,0.57-3.1,0.96-4.95 c-6.48,6.87-12.55,13.28-14.88,23.12c-2.68,11.34-0.9,23.31,5.96,32.83c0.85,1.18-1.1,2.3-1.94,1.14c-2.96-4.11-5-8.66-6.19-13.42 c-2.04,12.05-6.81,23.67-13.06,34.09c-2.63,4.6-5.27,9.19-7.9,13.79c-2.51,4.4-7.12,11.93-1.56,15.64c0.23-0.15,0.52-0.19,0.87-0.06 c26.46,10.1,55.05,10.44,81.71,1.02c-0.17-3.94-0.22-7.85-0.48-11.47c-1.95-26.48-3.05-52.96-2.02-79.51c0.06-1.45,2.31-1.45,2.25,0 c-0.89,22.85-0.27,45.69,1.24,68.49c0.57,8.55,1.26,17.1,1.85,25.65c0.38,5.5,0.61,10.88,3.28,15.86c2.8,5.24,9.62,9.45,15.36,5.77 c0.12-0.08,0.25-0.12,0.37-0.15C129.49,248.85,134.07,244.66,138.28,238.99z M62.58,139.88c-1.24,3.06-2.37,6.16-3.35,9.31 c-0.35,1.13-1.33,2.99-1.21,4.2c-1.06,1.99-0.35,2.46,2.11,1.41c0.13-0.46,0.25-0.91,0.38-1.37c1.32-2.61,1.74-6.08,2.57-8.9 c0.86-2.91,1.74-5.82,2.62-8.72c0.77-2.55,1.53-5.09,2.29-7.65C66.02,131.99,64.2,135.89,62.58,139.88z M155.45,249.58 c-5.01-3.26-10.13-6.34-15.22-9.47c0,0.01-0.01,0.01-0.01,0.02c-0.06,0.1-0.13,0.19-0.2,0.26c-3.87,5.16-8.02,9.12-13.65,11.75 c1.66,3.47,3.22,7.1,5.35,10.29c0.31,0.46,0.71,1.35,1.23,1.59c0.61,0.28,0.29-0.39,0.34-1.24c0.1-1.62-0.03-3.25,0.05-4.87 c0-0.01,0.01-0.02,0.01-0.04c-0.76-0.65-1.52-1.28-2.31-1.89c-1.14-0.89,0.46-2.47,1.59-1.59c3.34,2.58,6.28,5.71,9.78,8.07 c0.35,0.23,2.09,1.56,2.53,1.51c2.2-0.3-0.11-2.49-0.51-2.95c-1.33-1.52-2.9-2.85-4.35-4.26c-1.49-0.91-2.99-1.81-4.48-2.72 c-1.24-0.75-0.11-2.7,1.14-1.94c1.54,0.93,3.08,1.86,4.61,2.8c0.01,0,0.01,0.01,0.02,0.01c0.76,0.46,1.52,0.92,2.27,1.38 c1.84,1.11,4.14,3.15,6.22,3.77c2.01,0.59,2.76-0.52,3.22-2.04c-4.5-2.07-8.79-4.5-12.88-7.29c-1.19-0.81-0.06-2.76,1.14-1.94 c3.91,2.67,8.01,5,12.29,7.01c0.06-0.23,0.12-0.46,0.18-0.68c0.18-0.61,0.36-1.22,0.54-1.83c-3.81-1.87-7.61-3.75-11.42-5.62 c-1.3-0.64-0.16-2.58,1.14-1.94c3.64,1.79,7.29,3.59,10.93,5.38C155.16,250.58,155.31,250.08,155.45,249.58z"
      style="fill: rgb(27, 24, 23);" />
  </g>
</svg>