<svg xmlns="http://www.w3.org/2000/svg" xmlns:xlink="http://www.w3.org/1999/xlink" preserveAspectRatio="xMidYMid meet" version="1.0" viewBox="-5.1 -1.5 260.5 491.9" zoomAndPan="magnify" style="fill: rgb(0, 0, 0);" original_string_length="21032"><g id="__id24_s2pplbyhko"><path d="M252.36,411.32c-1.87,4.91-7.06,8.33-10.97,11.48c-5.16,4.16-10.51,8.08-16.04,11.72 c-11,7.24-22.7,13.39-35.12,17.8c-0.48,0.17-0.85,0.01-1.09-0.28c-0.06-0.07-0.13-0.14-0.18-0.24 c-8.08-14.37-17.27-28.07-25.38-42.42c-3.86,1.32-7.74,2.21-11.41,2.62c-0.2,0.05-0.41,0.05-0.6-0.02 c-0.02-0.01-0.04-0.01-0.05-0.02c-0.07-0.03-0.14-0.08-0.2-0.13c-0.15-0.12-0.26-0.27-0.32-0.46c-11.73-24.52-22.56-49.45-34.22-74 c-5.11,32.34-13.6,64.47-26.22,94.45c-0.03,0.07-0.07,0.13-0.1,0.19c-0.12,0.26-0.34,0.48-0.68,0.59c-1.96,0.63-3.89,1.11-5.8,1.45 c-0.95,3.29-1.9,6.58-2.85,9.87c-0.01,0.16-0.06,0.31-0.13,0.45c-1.62,5.6-3.24,11.2-4.85,16.8c0.34-0.18,0.68-0.37,1.02-0.55 c0.2-0.1,0.39-0.14,0.57-0.14c0.1,0,0.2,0,0.3,0.02c6.93,1.48,13.88,2.84,20.83,4.24c0.4,0.08,0.81,0.16,1.23,0.23 c0.17-0.02,0.33,0.01,0.47,0.08c5.1,0.89,11.03,1.48,15.38,4.07c7.3,4.35,7.54,15.35-0.4,19.02c-4.21,1.95-9.4,1.8-13.93,2 c-6.85,0.3-13.73,0.19-20.57-0.26c-13.23-0.87-26.41-2.99-39.13-6.75c-0.38-0.11-0.61-0.36-0.71-0.64c-0.1-0.21-0.14-0.46-0.07-0.74 c4.24-18.14,8.37-36.3,12.6-54.43c0.03-0.13,0.08-0.24,0.14-0.34c-2.08-1.43-4.11-3.04-6.06-4.82c-0.37-0.33-0.42-0.73-0.29-1.08 c0,0,0-0.01,0-0.01c7.39-33.55,11.79-67.65,13.18-101.97c-5.58-0.08-11.16-0.37-16.73-0.9c-0.07-0.01-0.12-0.04-0.18-0.06 c-0.39-0.05-0.75-0.29-0.9-0.77c-3.81-12.36-3.37-26.44-3.5-39.22c-0.22-21.21,1.02-42.4,1.42-63.6 c-9.7,2.07-17.24-7.83-20.91-15.68c-2.29-4.89-3.69-10.06-4.27-15.33c-0.98,6.66-1.24,13.52,0.74,19.53 c0.13,0.21,0.16,0.42,0.13,0.63c-0.01,0.55-0.49,0.92-1.01,0.97c-0.31,0.05-0.64-0.01-0.93-0.27 c-19.59-17.08-16.97-46.04-6.22-67.18C22.2,109.9,47.68,89.81,57.64,60.29c0.25-0.97,0.47-1.93,0.64-2.88 c-4.69,1.63-9.64-0.51-12.24-4.94c-3.85-6.56-1.76-14.91,0.22-21.73C49.77,18.66,56.74,8.35,68.78,3.69 c12.38-4.8,26.99-5.2,39.19,0.47c8.78,4.08,13.45,12.4,16.13,21.42c1.48,4.99,2.84,13.62-3.68,14.88c0.01,0.65,0.01,1.3-0.01,1.96 c0.55-0.1,1.15-0.03,1.75,0.28c1.6,0.8,2.04,2.79,2.1,4.42c0.15,4.05-2.32,7.85-5.93,9.57c-0.08,0.04-0.17,0.07-0.25,0.09 c-0.5,1.6-1.09,3.17-1.76,4.68c0.04,0.1,0.08,0.21,0.08,0.33c1.14,27.41,8.1,53.54,20.08,78.15c7.82,16.06,16.59,41-2.69,53.04 c-0.01,0.01-0.03,0.01-0.04,0.02c-0.76,4.57-2.45,9.03-5.18,13.21c9.54,29.83,19.07,59.66,28.61,89.49c0.06,0.2,0.07,0.38,0.04,0.55 c-0.01,0.04-0.02,0.09-0.03,0.13c0,0,0,0.01,0,0.01c-0.07,0.23-0.23,0.43-0.52,0.58c-0.9,0.46-1.8,0.91-2.7,1.35 c0.05,0.08,0.1,0.16,0.14,0.26c11.71,30.8,22.99,61.76,33.84,92.88c0.14,0.2,0.21,0.45,0.15,0.72c-0.03,0.26-0.16,0.47-0.36,0.63 c-0.02,0.03-0.05,0.07-0.08,0.1c4.11,8.87,9.82,16.86,14.09,25.64c0.84-1.73,1.68-3.47,2.52-5.2c0.02-0.25,0.13-0.48,0.38-0.65 c0.16-0.17,0.36-0.26,0.56-0.28c4.85-2.16,9.68-4.38,14.51-6.6c0.03-0.02,0.07-0.03,0.11-0.05c1.19-0.55,2.38-1.09,3.57-1.64 c5.14-2.36,10.7-5.82,16.33-6.76C247.62,396.07,255.42,403.3,252.36,411.32z" style="fill: rgb(255, 255, 255);"/></g><g id="__id25_s2pplbyhko"><path d="M78.43,445.1c-1.69,5.85-3.38,11.7-5.07,17.55c-2.9,1.55-5.8,3.1-8.7,4.66c-0.7,0.37-0.77,1.59,0,1.94 c2.61,1.18,5.25,2.26,7.92,3.25c-8.69,4-18.49,3.54-26.6-1.82c2.49-10.74,4.97-21.48,7.46-32.21 C61.02,443.19,69.54,445.46,78.43,445.1z M88.07,2.21C75.64,1.86,61.86,6.98,54.69,17.46c-3.6,5.27-5.75,11.39-7.22,17.55 c-1.01,4.22-1.95,8.75-0.82,13.05c1.4,5.31,6.53,9.65,12,6.74c0.29-3.09,0-6.13-1.3-9.2c-0.22-0.53-0.01-0.94,0.36-1.16 c9.47-9.11,21.11-14.02,34.09-15.67c11.06-1.41,21.07,0.16,27.94,9.54c8.23-1.09-0.04-18.5-2.08-22.09 C111.64,5.65,99.66,2.53,88.07,2.21z M199.56,427.42c-0.99,0.21-1.71-0.75-1.27-1.65c0.74-1.54,1.49-3.08,2.24-4.61 c-2.57-5.55-5.76-10.76-8.85-16.02c-5.1,6.78-11.85,11.33-20.08,13.51c4.21,6.98,8.56,13.89,12.77,20.87 c9.82-0.35,18.47-5.66,23.3-14.07C204.99,426.19,202.29,426.85,199.56,427.42z" style="fill: rgb(130, 168, 178);"/></g><g id="__id26_s2pplbyhko"><path d="M82.78,111.65c6.13,23.46,12.26,46.91,18.4,70.37c-0.02,3.42-0.16,6.83-0.42,10.24 c-7.33-28.05-14.67-56.1-22-84.15C80.23,109.02,81.57,110.23,82.78,111.65z M89.97,275.66c-11.7-32.57-22.09-65.59-31.14-99 c-0.85-2.09-1.64-4.21-2.33-6.36c0.39,4.8,0.86,9.58,1.42,14.36c8.53,30.81,18.21,61.29,29.01,91.38 C87.95,275.93,88.96,275.81,89.97,275.66z M55.11,138.71c3.37,11.53,6.75,23.05,10.12,34.58c1.17,1.2,2.53,2.38,4.04,3.12 c-4.62-15.78-9.24-31.56-13.86-47.35C55.12,132.34,55.09,135.63,55.11,138.71z M97.9,274.24c-9.26-31.62-18.51-63.25-27.77-94.87 c-1.24-0.27-2.44-0.83-3.59-1.59c1.62,5.53,3.24,11.06,4.86,16.59c0.27,0.92,0.54,1.84,0.81,2.76 c7.58,25.91,15.16,51.81,22.75,77.72C95.93,274.66,96.92,274.46,97.9,274.24z M77.68,171.23c-5.45-19.91-10.53-39.91-15.25-60.01 c-0.91,0.88-1.71,1.83-2.41,2.84c4.34,18.39,8.99,36.7,13.94,54.93C75.51,169.11,76.85,169.99,77.68,171.23z M108.43,271.38 c-10.91-32-20.87-64.32-29.86-96.91c-0.1,1.29-0.75,2.58-2.13,3.59c8.79,31.67,18.51,63.09,29.12,94.2 C106.52,271.98,107.47,271.69,108.43,271.38z M74.54,171.11c0.37,1.34,0.73,2.68,1.1,4.02c0.87-1.51,0.95-3.4-1.05-4.01 C74.58,171.11,74.56,171.11,74.54,171.11z M115.4,268.93c-15.96-53.75-30.51-107.91-43.63-162.42c-0.94,0.11-1.91,0.33-2.92,0.69 C82,161.83,96.58,216.11,112.57,269.98C113.52,269.64,114.46,269.29,115.4,268.93z M123.07,265.75 c-6.64-25.39-13.28-50.78-19.91-76.17c-0.17,2.98-0.42,5.95-0.77,8.92c5.97,22.82,11.93,45.64,17.9,68.46 C121.22,266.56,122.14,266.16,123.07,265.75z M154.13,293.49c-37.13,3.98-74.27,7.96-111.4,11.94c0.12,0.99,0.26,1.98,0.41,2.96 c36.35-3.9,72.69-7.79,109.04-11.69c0.86-0.42,1.72-0.82,2.58-1.25C154.55,294.8,154.34,294.15,154.13,293.49z M53.04,128.14 c-2.56,0.23-5.12,0.47-7.68,0.7c-0.19,1.01-0.36,2.03-0.53,3.05c2.64-0.24,5.28-0.48,7.91-0.72 C52.82,130.15,52.91,129.14,53.04,128.14z M97.45,141.09c4.48-0.29,8.97-0.57,13.45-0.86c-0.21-0.99-0.42-1.97-0.63-2.96 c-4.55,0.29-9.1,0.58-13.66,0.87C96.9,139.12,97.18,140.1,97.45,141.09z M52.58,140.95c-3,0.19-5.99,0.38-8.99,0.57 c-0.04,0.38-0.08,0.76-0.11,1.13c-0.05,0.63-0.08,1.25-0.13,1.88c3.11-0.2,6.23-0.4,9.34-0.6 C52.64,142.95,52.61,141.95,52.58,140.95z M113.67,154.27c-0.18-0.99-0.37-1.98-0.56-2.97c-0.68,0.04-1.37,0.07-2.05,0.11 c0.31,0.98,0.63,1.97,0.94,2.95C112.56,154.33,113.12,154.3,113.67,154.27z M53.39,157.21c-0.04-0.71-0.09-1.41-0.12-2.12 c-0.01-0.19-0.02-0.39-0.03-0.59c-3.49,0.19-6.97,0.37-10.46,0.56c-0.03,1-0.04,2-0.05,3c3.55-0.19,7.09-0.38,10.64-0.57 C53.37,157.4,53.37,157.3,53.39,157.21z M109.69,154.48c-0.31-0.98-0.63-1.97-0.94-2.95c-2.78,0.15-5.56,0.3-8.34,0.45 c0.06,0.22,0.12,0.43,0.17,0.65c0.21,0.77,0.41,1.54,0.61,2.31C104.02,154.79,106.86,154.63,109.69,154.48z M104.13,165.98 c0.26,0.97,0.52,1.94,0.77,2.91c3.02-0.34,6.04-0.68,9.06-1.01c-0.31-0.97-0.62-1.93-0.93-2.9 C110.07,165.32,107.1,165.65,104.13,165.98z M42.75,172.85c0.02,1,0.03,2,0.05,2.99c3.94-0.44,7.87-0.88,11.81-1.32 c-0.09-0.99-0.16-1.98-0.24-2.97C50.49,171.98,46.62,172.42,42.75,172.85z M115.58,164.7c-0.08,0.01-0.17,0.02-0.25,0.03 c0.2,0.62,0.4,1.24,0.59,1.86C115.8,165.96,115.69,165.33,115.58,164.7z M56.25,189.7c-0.12-0.99-0.25-1.98-0.36-2.97 c-4.28,0.41-8.57,0.79-12.85,1.15c0.02,1,0.04,2,0.05,3C47.48,190.51,51.86,190.12,56.25,189.7z M108.74,183.51 c3.26-0.46,6.51-0.94,9.77-1.43c-0.31-0.96-0.61-1.92-0.92-2.88c-3.2,0.48-6.4,0.95-9.61,1.4 C108.23,181.57,108.49,182.54,108.74,183.51z M58.69,206.51c-0.16-0.98-0.33-1.97-0.49-2.95c-4.66,0.47-9.33,0.93-13.99,1.4 c0.11,0.99,0.24,1.98,0.37,2.96C49.29,207.45,53.99,206.98,58.69,206.51z M113.33,201.05c3.63-0.36,7.27-0.73,10.9-1.09 c-0.31-0.97-0.62-1.94-0.93-2.91c-3.58,0.36-7.16,0.72-10.73,1.07C112.82,199.1,113.07,200.07,113.33,201.05z M116.79,214.31 c3.88-0.41,7.75-0.82,11.63-1.23c-0.31-0.97-0.62-1.93-0.93-2.9c-3.82,0.4-7.64,0.81-11.47,1.21 C116.28,212.37,116.54,213.34,116.79,214.31z M61.19,220.19c-0.2-0.98-0.38-1.96-0.57-2.94c-4.78,0.51-9.56,1.01-14.34,1.52 c0.18,0.98,0.36,1.96,0.55,2.94C51.62,221.21,56.4,220.7,61.19,220.19z M44.05,219.01c-0.44,0.05-0.88,0.09-1.31,0.14 c-0.03,1-0.06,2.01-0.09,3.01c0.66-0.07,1.31-0.14,1.97-0.21C44.42,220.97,44.22,219.99,44.05,219.01z M64.94,237.15 c-0.24-0.97-0.47-1.95-0.69-2.92c-4.72,0.53-9.44,1.06-14.15,1.59c0.26,0.97,0.52,1.94,0.79,2.91 C55.57,238.2,60.25,237.68,64.94,237.15z M121.11,230.83c4.18-0.47,8.36-0.94,12.54-1.41c-0.31-0.97-0.62-1.93-0.93-2.9 c-4.13,0.46-8.25,0.93-12.38,1.39C120.6,228.89,120.86,229.86,121.11,230.83z M47.83,236.07c-1.88,0.21-3.76,0.42-5.64,0.63 c-0.02,0.81-0.05,1.62-0.08,2.43c-0.01,0.19-0.01,0.38-0.02,0.58c2.18-0.25,4.36-0.49,6.54-0.74 C48.37,238.01,48.09,237.05,47.83,236.07z M69.78,255.43c-0.28-0.97-0.56-1.94-0.83-2.91c-4.4,0.46-8.8,0.93-13.19,1.39 c0.35,0.96,0.71,1.93,1.07,2.89C61.15,256.34,65.47,255.88,69.78,255.43z M53.45,254.15c-3.91,0.41-7.82,0.83-11.72,1.24 c-0.02,1-0.03,2-0.05,3.01c4.28-0.45,8.57-0.91,12.85-1.36C54.18,256.08,53.8,255.12,53.45,254.15z M126.01,249.49 c4.53-0.48,9.06-0.96,13.59-1.44c-0.31-0.97-0.62-1.93-0.93-2.9c-4.48,0.47-8.95,0.95-13.43,1.42 C125.5,247.54,125.76,248.52,126.01,249.49z M74.4,270.44c-10.94,1.4-21.88,2.79-32.81,4.19c0.01,1,0.01,2,0.02,3 c11.25-1.44,22.49-2.87,33.74-4.31C75.03,272.36,74.72,271.4,74.4,270.44z M129.83,264.04c0.02,0.06,0.02,0.12,0.03,0.18 c0.09,0.41-0.05,0.85-0.55,1.09c-1.08,0.53-2.16,1.03-3.25,1.54c6.26-0.8,12.52-1.6,18.78-2.4c-0.31-0.96-0.61-1.92-0.92-2.88 c-4.75,0.61-9.51,1.21-14.26,1.82C129.72,263.61,129.78,263.82,129.83,264.04z M99.08,284.3c-19.08,2.15-38.16,4.3-57.25,6.45 c0.02,0.99,0.05,1.99,0.08,2.99c19.51-2.2,39.02-4.39,58.53-6.59C99.74,286.35,99.25,285.41,99.08,284.3z M123.42,284.56 c8.96-1.01,17.93-2.02,26.89-3.03c-0.31-0.97-0.62-1.93-0.93-2.9c-8.76,0.99-17.52,1.97-26.29,2.96 C123.2,282.59,123.31,283.57,123.42,284.56z M93.96,88.77c-0.12,0-0.24,0-0.37,0.01c-3.01,1.82-6.65,1.54-10.26,0.18 c-7.41,0.13-14.82,0.26-22.23,0.39c-0.68,1-1.34,2.01-1.98,3.03c12.1-0.21,24.2-0.42,36.29-0.63 C94.94,90.75,94.46,89.75,93.96,88.77z M98.56,98.68c-14.69,0.68-29.39,1.36-44.08,2.04c-0.5,1.01-0.96,2.04-1.42,3.07 c15.57-0.72,31.14-1.44,46.71-2.16C99.37,100.64,98.97,99.66,98.56,98.68z M57.86,113.4c-2.92,0.22-5.83,0.44-8.75,0.67 c-0.33,1.02-0.66,2.04-0.96,3.07c2.65-0.2,5.3-0.4,7.95-0.61C56.62,115.46,57.2,114.41,57.86,113.4z M87.56,114.14 c5.42-0.41,10.84-0.83,16.26-1.24c-0.32-0.98-0.65-1.95-0.98-2.93c-5.73,0.44-11.46,0.87-17.19,1.31 C86.33,112.2,86.97,113.15,87.56,114.14z M93.25,127.46c4.79-0.44,9.59-0.88,14.38-1.32c-0.25-0.98-0.51-1.95-0.78-2.93 c-4.89,0.45-9.77,0.89-14.66,1.34C92.55,125.52,92.91,126.48,93.25,127.46z" style="fill: rgb(124, 64, 66);"/></g><g id="__id27_s2pplbyhko"><path d="M239.76,397.39c-5.63,0.94-11.19,4.41-16.33,6.76c-1.19,0.55-2.38,1.09-3.57,1.64 c-0.04,0.01-0.07,0.03-0.11,0.05c-4.83,2.22-9.66,4.44-14.51,6.6c-0.2,0.02-0.4,0.11-0.56,0.28c-0.25,0.17-0.36,0.41-0.38,0.65 c-0.84,1.73-1.68,3.47-2.52,5.2c-4.27-8.78-9.97-16.77-14.09-25.64c0.02-0.03,0.05-0.07,0.08-0.1c0.19-0.15,0.33-0.36,0.36-0.63 c0.06-0.27-0.01-0.51-0.15-0.72c-10.85-31.11-22.13-62.08-33.84-92.88c-0.04-0.1-0.09-0.18-0.14-0.26c0.9-0.44,1.81-0.89,2.7-1.35 c0.28-0.14,0.44-0.35,0.52-0.58c0,0,0-0.01,0-0.01c0.01-0.04,0.02-0.09,0.03-0.13c0.03-0.16,0.03-0.35-0.04-0.55 c-9.54-29.83-19.08-59.66-28.61-89.49c2.73-4.18,4.42-8.65,5.18-13.21c0.01-0.01,0.03-0.01,0.04-0.02 c19.28-12.04,10.5-36.98,2.69-53.04c-11.98-24.62-18.95-50.74-20.08-78.15c-0.01-0.13-0.05-0.23-0.08-0.33 c0.68-1.52,1.26-3.08,1.76-4.68c0.08-0.02,0.17-0.05,0.25-0.09c3.61-1.73,6.08-5.52,5.93-9.57c-0.06-1.63-0.51-3.62-2.1-4.42 c-0.61-0.3-1.2-0.38-1.75-0.28c0.02-0.66,0.01-1.31,0.01-1.96c6.52-1.26,5.16-9.89,3.68-14.88c-2.68-9.02-7.36-17.35-16.13-21.42 c-12.2-5.67-26.81-5.27-39.19-0.47C56.74,8.35,49.77,18.66,46.27,30.74c-1.98,6.82-4.08,15.17-0.22,21.73 c2.6,4.43,7.55,6.57,12.24,4.94c-0.18,0.95-0.39,1.91-0.64,2.88C47.68,89.81,22.2,109.9,8.31,137.22 c-10.75,21.14-13.37,50.1,6.22,67.18c0.3,0.26,0.63,0.32,0.93,0.27c0.52-0.05,0.99-0.42,1.01-0.97c0.03-0.21,0-0.43-0.13-0.63 c-1.98-6.01-1.72-12.87-0.74-19.53c0.58,5.26,1.98,10.44,4.27,15.33c3.67,7.85,11.21,17.75,20.91,15.68 c-0.39,21.19-1.63,42.39-1.42,63.6c0.13,12.78-0.31,26.86,3.5,39.22c0.15,0.48,0.51,0.72,0.9,0.77c0.06,0.02,0.11,0.05,0.18,0.06 c5.57,0.53,11.15,0.82,16.73,0.9c-1.39,34.32-5.79,68.43-13.18,101.97c0,0,0,0.01,0,0.01c-0.13,0.35-0.07,0.75,0.29,1.08 c1.96,1.78,3.98,3.39,6.06,4.82c-0.06,0.1-0.11,0.21-0.14,0.34c-4.24,18.14-8.37,36.3-12.6,54.43c-0.07,0.28-0.03,0.53,0.07,0.74 c0.11,0.29,0.33,0.53,0.71,0.64c12.72,3.77,25.9,5.89,39.13,6.75c6.84,0.45,13.72,0.56,20.57,0.26c4.53-0.2,9.72-0.05,13.93-2 c7.93-3.67,7.7-14.67,0.4-19.02c-4.35-2.59-10.28-3.18-15.38-4.07c-0.14-0.07-0.3-0.1-0.47-0.08c-0.42-0.07-0.83-0.15-1.23-0.23 c-6.94-1.4-13.9-2.77-20.83-4.24c-0.11-0.02-0.21-0.03-0.3-0.02c-0.18,0-0.37,0.03-0.57,0.14c-0.34,0.18-0.68,0.37-1.02,0.55 c1.62-5.6,3.24-11.2,4.85-16.8c0.07-0.14,0.11-0.29,0.13-0.45c0.95-3.29,1.9-6.58,2.85-9.87c1.91-0.34,3.85-0.82,5.8-1.45 c0.35-0.11,0.57-0.33,0.68-0.59c0.04-0.06,0.07-0.12,0.1-0.19c12.62-29.98,21.12-62.11,26.22-94.45 c11.66,24.55,22.49,49.48,34.22,74c0.06,0.19,0.17,0.34,0.32,0.46c0.06,0.06,0.13,0.1,0.2,0.13c0.02,0.01,0.03,0.01,0.05,0.02 c0.19,0.07,0.4,0.08,0.6,0.02c3.67-0.4,7.56-1.3,11.41-2.62c8.11,14.35,17.31,28.05,25.38,42.42c0.05,0.09,0.11,0.17,0.18,0.24 c0.24,0.29,0.62,0.45,1.09,0.28c12.42-4.41,24.12-10.57,35.12-17.8c5.53-3.64,10.88-7.56,16.04-11.72 c3.91-3.15,9.1-6.58,10.97-11.48C255.42,403.3,247.62,396.07,239.76,397.39z M227.1,404.94c1.47-0.67,2.94-1.34,4.42-2.01 c3.15-1.42,6.71-3.14,10.13-3.32c0.03,0,0.05,0.02,0.09,0.02c2.77,0.03,2.53,3.96,1.6,5.57c-0.49,0.85-1.33,1.49-2.08,2.1 c-1.6,1.3-3.41,2.38-5.2,3.41c-2.81,1.61-5.72,3.03-8.61,4.47C226.26,411.95,226.11,408.48,227.1,404.94z M221.29,407.59 c1.07-0.49,2.14-0.99,3.22-1.48c-0.99,5.35,0.38,10.48,3.6,14.96c-1.43,1.21-3.32,2.41-4.99,0.8c-0.86-0.84-1.39-3.11-1.72-4.2 C220.4,414.25,220.46,411,221.29,407.59z M206.27,414.43c4.18-1.86,8.33-3.76,12.49-5.67c-0.56,3.37-0.47,7.06,0.58,10.36 c-5.89,2.34-11.89,4.21-18.06,5.62C202.94,421.3,204.61,417.86,206.27,414.43z M96.04,75.48c-16.9,2.38-20.7-18.74-20.88-31.19 c3.79-2.99,6.1-7.27,8.36-11.48c0.04-0.07,0.07-0.15,0.09-0.22c1.75-0.45,3.53-0.84,5.35-1.14c10.94-1.83,21.98-1.58,29.01,8.2 c0.06,0.09,0.13,0.16,0.21,0.22C118.55,54.39,112.91,73.1,96.04,75.48z M93.16,86.38c-0.03,0.02-0.06,0.04-0.09,0.06 c-3.79,3.11-10.61-0.35-14.15-2.43c-3.07-1.8-5.68-4.13-8.01-6.79c2.48-3.65,4.14-7.96,4.48-12.37c0-0.06-0.02-0.1-0.02-0.15 c0-0.01,0-0.01,0-0.02c0.11-0.83,0.22-1.66,0.33-2.48c2.96,8.89,8.68,16.24,19.04,15.67C93.48,80.54,92.94,83.42,93.16,86.38z M67.1,50.31c-0.32-1.42-0.47-3.14,0.09-4.53c0.71-1.77,4.32-3.7,5.72-1.65c0.05,4.02,0.47,8.75,1.51,13.37 C70.75,56.74,67.96,54.11,67.1,50.31z M120.49,44.81c1.08,0.3,1.59,0.97,1.53,2c0.03,0.43,0.03,0.87,0,1.3 c-0.09,1-0.39,1.96-0.83,2.86c-0.55,1.1-1.31,1.97-2.22,2.69c0.69-2.87,1.12-5.79,1.33-8.64C120.36,44.95,120.43,44.89,120.49,44.81 z M46.64,48.06c-1.13-4.3-0.18-8.83,0.82-13.05c1.47-6.17,3.61-12.29,7.22-17.55C61.86,6.98,75.64,1.86,88.07,2.21 c11.59,0.32,23.57,3.44,29.59,14.01c2.04,3.59,10.32,21,2.08,22.09c-6.87-9.38-16.89-10.94-27.94-9.54 c-12.98,1.65-24.62,6.55-34.09,15.67c-0.37,0.22-0.58,0.63-0.36,1.16c1.29,3.08,1.58,6.11,1.3,9.2 C53.17,57.71,48.04,53.38,46.64,48.06z M44.82,316.01c-3.02-10.36-2.9-21.9-3.12-32.56c-0.3-14.77,0.01-29.54,0.42-44.3 c0.25-8.93,0.6-17.87,0.82-26.8c2.42,16.24,6.65,32.18,12.65,47.51c0.52,1.33,2.7,0.75,2.17-0.6 c-8.42-21.51-13.38-44.23-14.66-67.28c-0.21-16.45-1.04-32.87,0.37-49.32c2.02-23.42,9.56-46.38,25.99-63.65 c5.26,5.82,16.9,14.54,24.42,9.6c12.51,24.35,17.22,51.26,22.04,77.98c-2.03-6.36-4.07-12.72-6.1-19.08 c-0.44-1.37-2.61-0.79-2.17,0.6c6.19,19.35,12.37,38.69,18.56,58.04c0.01,0.15,0.06,0.28,0.13,0.4 c9.47,29.63,18.95,59.27,28.42,88.9c-28.6,14.45-60.43,21.59-92.36,21.41c-0.31-0.14-0.67-0.14-0.99-0.01 C55.87,316.79,50.34,316.51,44.82,316.01z M118.34,475.23c1.2,2.49,1.41,5.47-0.14,7.89c-2.76,4.31-8.81,4.32-13.32,4.6 c-20.52,1.3-41.58-0.75-61.35-6.46c0.64-2.75,1.27-5.5,1.91-8.25c9.24,5.8,20.48,5.73,30.07,0.54c0,0,0,0,0,0 c3.21,1.1,6.47,2.08,9.78,2.91c-0.03,0.18-0.08,0.35-0.11,0.52c-0.8,5.13,3.2,6.59,7.6,6.15c0.58-0.06,1.16-0.47,1.13-1.13 c-0.06-1.28,0-2.53,0.17-3.74c6.27,1.09,15.01,3.42,20.97,0.61C116.66,478.14,117.84,476.76,118.34,475.23z M100.42,467.35 c2.28,0.47,4.57,0.94,6.85,1.42c2.6,0.55,5.35,0.99,7.6,2.44c0.06,0.11,0.15,0.22,0.27,0.31c6.17,4.86-4.09,5.99-5.26,6.06 c-1.58,0.09-3.2,0.02-4.78-0.08c-3.55-0.23-7.07-0.84-10.57-1.43C95.47,472.67,97.43,469.66,100.42,467.35z M94.07,466.07 c1.19,0.24,2.39,0.48,3.58,0.72c-3.95,3.72-6.03,8.68-6.01,14.21c-0.4,0.03-0.8,0.04-1.2,0.04c-2.61-1.35-3.52-3.04-2.73-5.06 c0.2-1.35,0.91-2.82,1.52-4.01C90.41,469.62,92.08,467.73,94.07,466.07z M77.89,462.77c4.47,0.95,8.94,1.85,13.42,2.74 c-2.5,2.42-4.43,5.43-5.48,8.76c-6.18-1.57-12.19-3.59-18.05-6.1C71.16,466.38,74.52,464.58,77.89,462.77z M73.36,462.65 c-2.9,1.55-5.8,3.1-8.7,4.66c-0.7,0.37-0.77,1.59,0,1.94c2.61,1.18,5.25,2.26,7.92,3.25c-8.69,4-18.49,3.54-26.6-1.82 c2.49-10.74,4.97-21.48,7.46-32.21c7.59,4.72,16.11,6.98,25,6.63C76.74,450.95,75.05,456.8,73.36,462.65z M79.09,442.81 c-8.95,0.48-17.36-1.71-24.97-6.55c-0.05-0.03-0.11-0.06-0.16-0.08c0.61-2.64,1.22-5.29,1.84-7.93c7.85,4.88,16.51,7.19,25.72,6.15 C80.71,437.21,79.9,440.01,79.09,442.81z M165.73,408.61c7.84-3.01,15.35-7.75,20.42-13.72c1.32,2.76,2.78,5.45,4.31,8.11 c-4.98,7.01-11.72,11.55-20.05,13.61C168.81,413.96,167.25,411.3,165.73,408.61z M171.6,418.63c8.23-2.17,14.98-6.73,20.08-13.51 c3.09,5.26,6.28,10.47,8.85,16.02c-0.74,1.54-1.49,3.08-2.24,4.61c-0.44,0.9,0.28,1.86,1.27,1.65c2.73-0.57,5.43-1.23,8.11-1.98 c-4.83,8.41-13.47,13.72-23.3,14.07C180.16,432.52,175.81,425.62,171.6,418.63z M248.26,413.74c-1.48,1.78-3.39,3.25-5.15,4.73 c-15.62,13.18-33.41,24.4-52.67,31.39c-1.56-2.75-3.15-5.47-4.77-8.19c10.76-0.83,20.24-7.18,24.95-17.01 c0.02-0.04,0.03-0.07,0.04-0.11c3.2-0.99,6.37-2.11,9.5-3.35c0.3,0.63,0.64,1.23,1.03,1.81c2.54,3.79,6.53,1.44,9.24-0.97 c0.49-0.44,0.36-1.14,0-1.59c-0.82-1.03-1.51-2.1-2.08-3.2c5.6-2.75,12.23-5.39,16.36-10.12c1.59-1.82,2.17-4.48,1.53-6.57 c0.77,0.4,1.51,0.94,2.22,1.65C251.67,405.45,250.97,410.48,248.26,413.74z M116.54,46.54c0.32,1.41-1.85,2.01-2.17,0.6 c-0.46-2.06-1.32-4.58-3.61-5.2c-0.59-0.16-1.11-0.12-1.54,0.05c0.7,0.35,1.28,0.91,1.63,1.67c0.58,1.25,0.35,2.69-0.74,3.58 c-1.14,0.93-2.86,0.98-3.91-0.12c-0.5-0.52-0.78-1.2-0.84-1.89c0-0.02-0.01-0.03-0.01-0.05c-0.17-2.8,1.67-5.63,4.7-5.61 C113.84,39.62,115.81,43.31,116.54,46.54z M90.4,47.14c-0.46-2.06-1.32-4.58-3.61-5.2c-0.59-0.16-1.11-0.12-1.54,0.05 c0.7,0.35,1.28,0.91,1.63,1.67c0.58,1.25,0.35,2.69-0.74,3.58c-1.14,0.93-2.86,0.98-3.91-0.12c-0.5-0.52-0.78-1.2-0.84-1.89 c0-0.02-0.01-0.03-0.01-0.05c-0.17-2.8,1.67-5.63,4.7-5.61c3.8,0.03,5.77,3.73,6.5,6.96C92.89,47.96,90.72,48.55,90.4,47.14z M99.46,58.52c1.39-0.78,1.84-2.82,0.75-4.05c-0.96-1.08,0.63-2.68,1.59-1.59c2.03,2.29,1.5,6.06-1.21,7.58 C99.33,61.18,98.2,59.23,99.46,58.52z M104.9,66.13c-3.18,4.28-9.21,4.74-12.73,0.57c-0.93-1.1,0.66-2.7,1.59-1.59 c2.5,2.96,6.81,3.1,9.2-0.11C103.81,63.85,105.76,64.97,104.9,66.13z M77.14,278.37c0.17,0.28,0.46,0.5,0.9,0.49 c6.52-0.08,12.95-0.87,19.26-2.19c0.5,1.69,1.47,3.23,1.95,4.93c-1.25,4.97,2.59,7.5,6.99,8.67c5.75,1.53,11.62,1.24,16.88-1.65 c0.32-0.1,0.55-0.35,0.61-0.72c0.02-0.08,0.02-0.15,0.02-0.23c0-0.02,0.01-0.03,0.01-0.06c-0.67-6.11-1.33-12.21-2-18.32 c-0.02-0.17-0.07-0.32-0.14-0.45c2.6-1.11,5.17-2.28,7.7-3.52c0.5-0.24,0.64-0.68,0.55-1.09c-0.01-0.06-0.01-0.12-0.03-0.18 c-6.6-24.94-13.08-49.91-19.61-74.87c-3.19-12.19-6.36-24.38-9.65-36.54c-3.12-11.55-6.11-23.52-10.97-34.48 c-3.23-7.27-8.85-14.62-17.71-13.85c-8.43,0.73-14.61,7.8-17.07,15.44c-3.56,11.03-2.06,23.99-1.56,35.36 c0.03,0.71,0.08,1.41,0.12,2.12c-0.04,0.16-0.03,0.35,0.03,0.55c0.6,11.75,1.67,23.48,3.22,35.15c3.87,28.99,10.72,57.5,20.31,85.12 C77,278.17,77.06,278.27,77.14,278.37z M118.09,288.27c-0.07-3.38-0.14-6.76-0.21-10.14c-0.03-1.45-2.28-1.45-2.25,0 c0.07,3.54,0.15,7.08,0.22,10.63c-1.38,0.2-2.79,0.25-4.26,0.15c-0.08-0.01-0.18-0.02-0.27-0.02c0.18-2.85,0.36-5.69,0.54-8.54 c0.09-1.45-2.16-1.44-2.25,0c-0.18,2.76-0.35,5.52-0.53,8.27c-1.42-0.23-2.96-0.6-4.3-1.18c0.51-2.35,1.03-4.7,1.54-7.06 c0.31-1.41-1.86-2.01-2.17-0.6c-0.47,2.14-0.94,4.28-1.4,6.42c-1.2-1.03-1.83-2.43-1.27-4.35c0.01-0.03,0.01-0.07,0.02-0.1 c0-0.01,0-0.01,0-0.02c0.05-0.24,0.02-0.45-0.07-0.63c-0.46-1.71-1.43-3.25-1.95-4.94c6.84-1.58,13.53-3.8,20.05-6.48 c0.63,5.75,1.25,11.5,1.88,17.25C120.34,287.51,119.23,287.95,118.09,288.27z M56.5,170.3c3.08,9.59,7.77,18.53,13.98,26.6 c0.87,1.13,2.83,0.01,1.94-1.14c-6.47-8.41-11.26-17.75-14.28-27.8c4.12,7.04,10.23,13.79,16.87,10.89c8-3.5,1-14.14-5.5-8.07 c-1.06,0.99,0.53,2.58,1.59,1.59c0.85-0.79,2.24-1.66,3.49-1.27c3.41,1.05,0.78,5.81-1.51,6.05c-3.62,0.38-6.74-2.55-8.92-5.03 c-3.74-4.25-6.72-9.5-8.53-14.85c-0.31-6.1-0.49-12.21-0.53-18.33c-0.07-10.96,0.34-24.72,11.34-30.68 c12.56-6.8,19.8,6.62,23.31,16.45c3.08,8.63,5.74,17.41,8.19,26.26c-0.04,0.16-0.05,0.34,0,0.54c4.04,17.95,4.18,36.72,1.05,54.82 c-0.24,1.42,1.92,2.02,2.17,0.6c2.11-12.21,2.77-24.69,1.79-37.03c1.7,6.63,3.36,13.26,5.09,19.85 c6.45,24.65,12.85,49.32,19.37,73.96c-15.24,7.35-31.58,12.49-48.59,12.86C66.99,242.24,59.44,206.49,56.5,170.3z" style="fill: rgb(0, 0, 0);"/></g></svg>