<svg xmlns="http://www.w3.org/2000/svg" xmlns:xlink="http://www.w3.org/1999/xlink" preserveAspectRatio="xMidYMid meet" version="1.0" viewBox="-2.0 -4.4 189.0 489.9" zoomAndPan="magnify" style="fill: rgb(0, 0, 0);" original_string_length="29779"><g id="__id40_s2pplbyhko"><path d="M184.95,461.19c-0.01,0.06-0.03,0.11-0.05,0.17c0,0.05,0.01,0.08,0.01,0.13c-0.6,4.22-0.14,8.53-0.22,12.77 c-0.01,0.41-0.2,0.69-0.46,0.87c-0.1,0.09-0.22,0.16-0.36,0.21c-14.98,5.56-31.33,10.18-45.46-0.11c-0.04-0.03-0.07-0.06-0.11-0.1 c-0.26-0.18-0.45-0.46-0.45-0.87c0.02-1.94,0.13-3.81-0.5-5.69c-0.35-1.04-1.11-2.63-2.44-2.02c-0.54,0.25-1.14,1-1.31,1.54 c-0.11,0.35-0.33,0.58-0.6,0.69c-0.39,0.23-0.88,0.24-1.28-0.19c-0.02-0.02-0.03-0.03-0.05-0.05c-0.01-0.01-0.02-0.02-0.03-0.03 c-2.63-2.86-5.43-5.56-8.06-8.43c0,0,0,0-0.01-0.01c0,0-0.01-0.01-0.01-0.01c-0.07-0.07-0.12-0.15-0.16-0.22 c-0.05-0.08-0.09-0.18-0.11-0.29c-0.01-0.05-0.02-0.09-0.03-0.14c-0.01-0.05-0.03-0.09-0.03-0.15c0.03-4.96,0.18-9.94-0.63-14.86 c-1.73-7.74-3.47-15.48-5.2-23.23c-0.08-0.11-0.14-0.25-0.17-0.42c-0.2-1.1-0.44-2.2-0.67-3.3c-0.19-0.86-0.39-1.73-0.58-2.59 c0-0.01,0-0.02,0-0.04c-2.24-9.56-5.63-18.85-10.2-27.54c-0.39-0.47-0.64-0.98-0.78-1.5c-0.02-0.03-0.03-0.06-0.05-0.09 c-0.19-0.35-0.18-0.68-0.06-0.96c0.08-1.38,1.04-2.64,2.81-3.11c0.14-0.04,0.27-0.04,0.39-0.03 c-12.85-35.98-24.64-72.35-33.13-109.64c-2.64,0.17-5.29,0.26-7.93,0.29c-0.99,38.65,0.92,77.26,3.66,115.8 c1.92,0.36,3.25,1.04,4.71,2.27c0.23,0.11,0.4,0.3,0.47,0.58c0.03,0.11,0.04,0.22,0.04,0.33c0,0.01,0,0.02,0,0.03 c-1.83,20.62-1.21,41.45,0.95,62.02c0.43,3.51,0.87,7.02,1.3,10.54c0.07,0.56-0.23,0.9-0.63,1.02 c-10.92,6.66-23.75,9.85-36.48,10.12c-0.04,0-0.07-0.02-0.11-0.02c-0.44,0.01-0.86-0.23-0.98-0.81c-0.32-1.65-1.2-4.13-3.18-4.33 c-1.94-0.19-4.9,1.76-4.22,3.96c0.07,0.23,0.06,0.44,0.01,0.62c0.06,0.49-0.17,0.99-0.8,1.13c-8.94,1.97-18.05,1.89-26.99,0 c-0.01,0-0.02-0.01-0.03-0.01c-0.07-0.01-0.13-0.03-0.19-0.06c-0.01,0-0.02-0.01-0.03-0.01c-0.02-0.01-0.05-0.03-0.07-0.04 c-0.29-0.16-0.44-0.42-0.48-0.71c-1.03-4.44-1.98-8.93-2.63-13.44c-2.07-9.94-3.38-23.09,7.99-27.84 c5.39-2.25,11.76-2.53,17.51-3.28c5.63-0.73,11.27-1.4,16.89-2.2c0.12-0.04,0.24-0.08,0.4-0.07c0.03,0,0.05,0,0.08,0.01 c0.61-0.09,1.23-0.17,1.84-0.26c-1.62-10.65-4.27-21.03-8.03-31.14c-0.19-0.51,0-0.91,0.33-1.14c1.55-1.83,3.18-3.12,5.28-4.16 C32.88,359.49,23.89,327.19,19,294.1c-0.07-0.17-0.09-0.35-0.08-0.53c-0.46-3.17-0.9-6.34-1.29-9.52c-0.16-0.01-0.31-0.08-0.43-0.16 c-4.88-1.49-10.66-4.7-12.56-9.69c-1.82-4.76-0.79-11.12,0.84-15.8c1.22-6.09,2.3-12.18,4.23-18.1c2.51-14.61,4.55-29.29,6.54-43.97 c-2-0.55-3.27-2.11-2.84-5.44c0.38-2.94,1.16-5.78,1.41-8.76c0.17-2.05,0.02-4.2,0.4-6.24c0.34-1.77,1.07-3.21,2.27-4.19 c-6.46-4.74-4.58-13.95-1.23-20.39c3.33-6.4,6.72-12.53,9.35-19.28c2.47-6.35,4.63-12.82,6.94-19.23c0.99-2.73,2.34-5.46,4.11-7.83 c-2.57,0.07-5.12,0.29-7.67,0.7c-0.3,0.05-0.56-0.03-0.78-0.16c-0.16-0.01-0.33-0.06-0.51-0.18c-3.44-2.22-5.44-5.93-5.5-9.86 c-2.05,2.77-2.81,6.77-1.23,9.75c0.25,0.46,0.15,0.9-0.1,1.22c-0.12,0.18-0.3,0.32-0.54,0.4c-0.09,0.04-0.19,0.06-0.29,0.07 c-0.01,0-0.02,0.01-0.04,0.01c-0.01,0-0.03,0-0.04,0c-0.04,0-0.07,0-0.11,0c-9.38,0.23-16.31-8.16-16.6-17.22 c-0.23-7.04,2.68-13.71,3.82-20.55c1.38-8.27-0.63-16.5-0.88-24.78C5.65,26.64,14.99,6.37,33.85,2.91 c22.47-7.32,47.37-1.19,56.26,22.45c2.03,5.4,3.04,11.13,3.38,16.88c0.4,6.64-0.44,13.04,1.31,19.55c2.11,7.8,6.77,15.89,7,24.16 c48.54,14.44,45.71,82.62,10.8,110.45c0.91,2.35,1.8,4.71,2.68,7.07c0.01,0.03,0.02,0.06,0.03,0.09 c6.39,17.23,11.85,34.67,14.6,52.94c0,0.03-0.01,0.04,0,0.07c0.14,0.44,0.03,0.93-0.51,1.2c-1.71,0.84-3.45,1.64-5.2,2.41 c4.68,38.89,7.56,77.96,9.61,117.07c3.06,0.1,9.25,0.93,8.05,4.83c-0.06,0.19-0.15,0.37-0.25,0.54 c-1.85,10.95-3.41,24.99,3.99,33.96c4.17,3.46,9.36,3.91,14.61,4.18c1.24-0.14,2.52-0.11,3.79,0.1c0.14,0.02,0.24,0.08,0.35,0.13 c4.84,0.35,9.52,1.2,13.29,4.82C186.98,434.76,185.9,449.48,184.95,461.19z" style="fill: rgb(252, 248, 239);"/></g><g id="__id41_s2pplbyhko"><path d="M24.52,245.33c0.36-1.92,0.76-3.82,1.19-5.73c-0.11,2-0.2,4.01-0.26,6.01 C25.14,245.51,24.83,245.42,24.52,245.33z M110.08,195.53c0.65-4.52-1.72-9.58-3.57-13.45c-3.69-7.69-8.63-14.78-13.72-21.59 c-0.02-0.03-0.05-0.06-0.08-0.09c2.77-4.09,5.01-8.26,6.64-12.66c3.38,1.41,6.5,3.22,9.3,5.61c1.07,0.91,4.46,3.56,4.09,5.16 c-0.43,1.8-2.78,0.57-3.63,0.05c-1.18-0.73-2.11-1.71-2.91-2.83c-0.83-1.17-2.78-0.05-1.94,1.14c1.7,2.39,4.41,4.84,7.5,5.07 c2.46,0.19,3.65-1.76,3.14-4.02c-0.69-3.05-3.65-5.4-5.97-7.22c-2.62-2.05-5.46-3.63-8.49-4.92c2.24-0.08,4.46,0.11,6.66,0.61 c1.41,0.33,2.01-1.84,0.6-2.17c-2.05-0.47-4.11-0.72-6.19-0.72c4.22-4.77,10.33-6.29,16.66-5.21c1.42,0.24,2.02-1.93,0.6-2.17 c-6.5-1.11-12.66,0.19-17.34,4.34c0.35-1.72,0.61-3.48,0.78-5.29c0.02-0.07,0.05-0.14,0.05-0.22c0-0.11,0-0.22,0-0.32 c0.01-0.08,0.02-0.16,0.02-0.24c0.01-0.07-0.02-0.12-0.02-0.18c0.11-7.02-1.49-13.72-4.76-19.95c-0.67-1.28-2.62-0.15-1.94,1.14 c3.16,6.02,4.63,12.44,4.46,19.23c-0.78,9.37-4.23,17.37-9.53,25.08c-0.22,0.32-0.24,0.63-0.14,0.89 c-14.65,8-30.56,13.03-47.16,14.83c-0.08-0.04-0.16-0.08-0.26-0.11c-0.94-0.25-1.87-0.51-2.81-0.76c1.55-7.57,2.22-15.37,2.58-23.06 c0.19-4.06,0-8.11,0.09-12.17c0.14-6.32,2.37-11.65,3.95-17.65c0.37-1.4-1.8-2-2.17-0.6c-0.67,2.54-1.54,5-2.3,7.49 c-0.36-1.82-0.72-3.63-1.08-5.45c-0.28-1.42-2.45-0.82-2.17,0.6c0.55,2.79,1.11,5.57,1.66,8.36c-0.96-0.91-1.91-1.83-2.87-2.74 c-1.05-1-2.64,0.59-1.59,1.59c1.52,1.45,3.04,2.91,4.56,4.36c-0.49,4.48-0.11,9.01-0.23,13.51c-0.23,8.39-0.91,16.94-2.61,25.18 c-5.77-1.51-11.56-2.86-17.53-3.54c-0.23-0.03-0.41,0.03-0.57,0.11c-11.16-6.27,0.7-21.6,4.24-29.19 c4.21-9.04,7.24-18.58,10.63-27.95c1.98-5.45,5.63-11.09,11.46-12.87c2.23-0.78,4.57-1.63,6.61-2.86 c6.61,7.82,17.72,6.93,25.85,1.79c0.08-0.05,0.15-0.11,0.21-0.17c7.21,2.51,19.1-2.9,22.37-8.43c0.14-0.13,0.24-0.31,0.29-0.56 c0.01-0.07,0.02-0.13,0.03-0.2c0,0,0,0,0-0.01c0.1-0.6,0.18-1.21,0.23-1.81C148.43,102.73,144.57,169.57,110.08,195.53z M71.18,158.93c-6.95-3.56-12.71-8.68-17.02-15.19c-0.79-1.2-2.74-0.08-1.94,1.14c4.51,6.83,10.54,12.27,17.83,16 C71.33,161.53,72.47,159.59,71.18,158.93z M76.03,154c-4.23-0.58-7.95-2.38-10.98-5.4c-1.03-1.02-2.62,0.57-1.59,1.59 c3.27,3.27,7.38,5.35,11.97,5.98C76.85,156.36,77.46,154.19,76.03,154z M102.98,179.49c-4.56,2.92-9.33,5.27-14.25,7.14 c3.16,3.53,6.57,7.08,10.61,9.55c1.95,1.19,5.9,3.48,7.87,1.17c1.35-1.59,0.57-4.96,0.16-6.72 C106.48,186.82,104.91,183.09,102.98,179.49z" style="fill: rgb(130, 168, 178);"/></g><g id="__id42_s2pplbyhko"><path d="M52.22,144.87c-0.8-1.21,1.15-2.34,1.94-1.14c4.3,6.51,10.07,11.63,17.02,15.19 c1.29,0.66,0.15,2.6-1.14,1.94C62.76,157.14,56.73,151.7,52.22,144.87z M26.2,190.57c1.22-4.53,1.62-9.1,1.1-13.77 c-0.16-1.42-2.41-1.44-2.25,0c0.5,4.47,0.16,8.83-1.02,13.17C23.65,191.37,25.82,191.97,26.2,190.57z M52.53,61.66 c-1.84,1.35-4.46,0.02-3.92-2.38c0.32-1.41-1.85-2.01-2.17-0.6c-0.93,4.14,3.66,7.53,7.22,4.92C54.83,62.76,53.71,60.81,52.53,61.66 z M58.93,67.52c-1.53,0.97-3.06,1.93-4.59,2.9c-1.22,0.77-0.09,2.72,1.14,1.94c1.53-0.97,3.06-1.93,4.59-2.9 C61.29,68.69,60.16,66.74,58.93,67.52z M31.79,57.26c1.98-2.25,5.11-3.41,8.15-2.79c1.41,0.29,2.02-1.88,0.6-2.17 c-5.36-1.09-10.65,1.9-12.5,7.04c-0.09,0.26-0.09,0.49-0.02,0.68c0.13,2.44,3.29,3.63,4.97,1.72C34.44,60.07,33.5,57.92,31.79,57.26 z M15.48,259.82c-2.82,0.18-5.46,1.03-7.81,2.61c-1.2,0.8-0.07,2.75,1.14,1.94c2.02-1.36,4.24-2.15,6.67-2.3 C16.91,261.98,16.92,259.73,15.48,259.82z M184.95,461.19c-0.01,0.06-0.03,0.11-0.05,0.17c0,0.05,0.01,0.08,0.01,0.13 c-0.6,4.22-0.14,8.53-0.22,12.77c-0.01,0.41-0.2,0.69-0.46,0.87c-0.1,0.09-0.22,0.16-0.36,0.21c-14.98,5.56-31.33,10.18-45.46-0.11 c-0.04-0.03-0.07-0.06-0.11-0.1c-0.26-0.18-0.45-0.46-0.45-0.87c0.02-1.94,0.13-3.81-0.5-5.69c-0.35-1.04-1.11-2.63-2.44-2.02 c-0.54,0.25-1.14,1-1.31,1.54c-0.11,0.35-0.33,0.58-0.6,0.69c-0.39,0.23-0.88,0.24-1.28-0.19c-0.02-0.02-0.03-0.03-0.05-0.05 c-0.01-0.01-0.02-0.02-0.03-0.03c-2.63-2.86-5.43-5.56-8.06-8.43c0,0,0,0-0.01-0.01c0,0-0.01-0.01-0.01-0.01 c-0.07-0.07-0.12-0.15-0.16-0.22c-0.05-0.08-0.09-0.18-0.11-0.29c-0.01-0.05-0.02-0.09-0.03-0.14c-0.01-0.05-0.03-0.09-0.03-0.15 c0.03-4.96,0.18-9.94-0.63-14.86c-1.73-7.74-3.47-15.48-5.2-23.23c-0.08-0.11-0.14-0.25-0.17-0.42c-0.2-1.1-0.44-2.2-0.67-3.3 c-0.19-0.86-0.39-1.73-0.58-2.59c0-0.01,0-0.02,0-0.04c-2.24-9.56-5.63-18.85-10.2-27.54c-0.39-0.47-0.64-0.98-0.78-1.5 c-0.02-0.03-0.03-0.06-0.05-0.09c-0.19-0.35-0.18-0.68-0.06-0.96c0.08-1.38,1.04-2.64,2.81-3.11c0.14-0.04,0.27-0.04,0.39-0.03 c-12.85-35.98-24.64-72.35-33.13-109.64c-2.64,0.17-5.29,0.26-7.93,0.29c-0.99,38.65,0.92,77.26,3.66,115.8 c1.92,0.36,3.25,1.04,4.71,2.27c0.23,0.11,0.4,0.3,0.47,0.58c0.03,0.11,0.04,0.22,0.04,0.33c0,0.01,0,0.02,0,0.03 c-1.83,20.62-1.21,41.45,0.95,62.02c0.43,3.51,0.87,7.02,1.3,10.54c0.07,0.56-0.23,0.9-0.63,1.02 c-10.92,6.66-23.75,9.85-36.48,10.12c-0.04,0-0.07-0.02-0.11-0.02c-0.44,0.01-0.86-0.23-0.98-0.81c-0.32-1.65-1.2-4.13-3.18-4.33 c-1.94-0.19-4.9,1.76-4.22,3.96c0.07,0.23,0.06,0.44,0.01,0.62c0.06,0.49-0.17,0.99-0.8,1.13c-8.94,1.97-18.05,1.89-26.99,0 c-0.01,0-0.02-0.01-0.03-0.01c-0.07-0.01-0.13-0.03-0.19-0.06c-0.01,0-0.02-0.01-0.03-0.01c-0.02-0.01-0.05-0.03-0.07-0.04 c-0.29-0.16-0.44-0.42-0.48-0.71c-1.03-4.44-1.98-8.93-2.63-13.44c-2.07-9.94-3.38-23.09,7.99-27.84 c5.39-2.25,11.76-2.53,17.51-3.28c5.63-0.73,11.27-1.4,16.89-2.2c0.12-0.04,0.24-0.08,0.4-0.07c0.03,0,0.05,0,0.08,0.01 c0.61-0.09,1.23-0.17,1.84-0.26c-1.62-10.65-4.27-21.03-8.03-31.14c-0.19-0.51,0-0.91,0.33-1.14c1.55-1.83,3.18-3.12,5.28-4.16 C32.88,359.49,23.89,327.19,19,294.1c-0.07-0.17-0.09-0.35-0.08-0.53c-0.46-3.17-0.9-6.34-1.29-9.52c-0.16-0.01-0.31-0.08-0.43-0.16 c-4.88-1.49-10.66-4.7-12.56-9.69c-1.82-4.76-0.79-11.12,0.84-15.8c1.22-6.09,2.3-12.18,4.23-18.1c2.51-14.61,4.55-29.29,6.54-43.97 c-2-0.55-3.27-2.11-2.84-5.44c0.38-2.94,1.16-5.78,1.41-8.76c0.17-2.05,0.02-4.2,0.4-6.24c0.34-1.77,1.07-3.21,2.27-4.19 c-6.46-4.74-4.58-13.95-1.23-20.39c3.33-6.4,6.72-12.53,9.35-19.28c2.47-6.35,4.63-12.82,6.94-19.23c0.99-2.73,2.34-5.46,4.11-7.83 c-2.57,0.07-5.12,0.29-7.67,0.7c-0.3,0.05-0.56-0.03-0.78-0.16c-0.16-0.01-0.33-0.06-0.51-0.18c-3.44-2.22-5.44-5.93-5.5-9.86 c-2.05,2.77-2.81,6.77-1.23,9.75c0.25,0.46,0.15,0.9-0.1,1.22c-0.12,0.18-0.3,0.32-0.54,0.4c-0.09,0.04-0.19,0.06-0.29,0.07 c-0.01,0-0.02,0.01-0.04,0.01c-0.01,0-0.03,0-0.04,0c-0.04,0-0.07,0-0.11,0c-9.38,0.23-16.31-8.16-16.6-17.22 c-0.23-7.04,2.68-13.71,3.82-20.55c1.38-8.27-0.63-16.5-0.88-24.78C5.65,26.64,14.99,6.37,33.85,2.91 c22.47-7.32,47.37-1.19,56.26,22.45c2.03,5.4,3.04,11.13,3.38,16.88c0.4,6.64-0.44,13.04,1.31,19.55c2.11,7.8,6.77,15.89,7,24.16 c48.54,14.44,45.71,82.62,10.8,110.45c0.91,2.35,1.8,4.71,2.68,7.07c0.01,0.03,0.02,0.06,0.03,0.09 c6.39,17.23,11.85,34.67,14.6,52.94c0,0.03-0.01,0.04,0,0.07c0.14,0.44,0.03,0.93-0.51,1.2c-1.71,0.84-3.45,1.64-5.2,2.41 c4.68,38.89,7.56,77.96,9.61,117.07c3.06,0.1,9.25,0.93,8.05,4.83c-0.06,0.19-0.15,0.37-0.25,0.54 c-1.85,10.95-3.41,24.99,3.99,33.96c4.17,3.46,9.36,3.91,14.61,4.18c1.24-0.14,2.52-0.11,3.79,0.1c0.14,0.02,0.24,0.08,0.35,0.13 c4.84,0.35,9.52,1.2,13.29,4.82C186.98,434.76,185.9,449.48,184.95,461.19z M133.93,379.46c0.07,1.45,0.15,2.89,0.23,4.34 c0.17-0.05,0.35-0.1,0.52-0.16c1.31-0.42,4.84-0.99,2.49-3.71C136.74,379.43,135.12,379.42,133.93,379.46z M86.12,194.17 c0.03,3.59,0.07,7.18,0.14,10.77c0.96-0.22,1.93-0.43,2.88-0.67c-0.23-3.59-0.46-7.18-0.68-10.77 C87.69,193.74,86.9,193.95,86.12,194.17z M88.32,191.18c-0.04-0.63-0.08-1.25-0.12-1.88c-0.71-0.73-1.3-1.36-1.73-1.84 c-0.13,0.04-0.25,0.09-0.38,0.14c0,1.41,0.01,2.82,0.02,4.24C86.85,191.62,87.59,191.41,88.32,191.18z M104.5,267.1 c2.04,5.42,3.16,11.1,4.39,16.75c1,0.58,1.82,1.47,2.33,2.57c4.57-1.98,8.89-4.53,12.8-7.73c0,0,0.01-0.01,0.01-0.01 c-0.62-5.86-1.28-11.72-1.98-17.57C116.39,263.47,110.51,265.48,104.5,267.1z M116.29,260.99c-0.55-3.76-1.11-7.52-1.66-11.28 c-1.19,0.53-2.39,1.04-3.59,1.53c0.59,3.66,1.19,7.32,1.82,10.98C114,261.82,115.15,261.41,116.29,260.99z M109.88,243.93 c0.26,1.68,0.51,3.35,0.78,5.03c1.21-0.5,2.42-1.03,3.62-1.57c-0.25-1.68-0.49-3.35-0.74-5.03 C112.33,242.9,111.11,243.43,109.88,243.93z M113.2,240.05c-0.59-4.03-1.19-8.06-1.78-12.09c-1.21,0.52-2.42,1.02-3.64,1.5 c0.56,4.06,1.15,8.12,1.76,12.18C110.77,241.13,111.99,240.6,113.2,240.05z M110.5,221.72c-1.19,0.44-2.39,0.85-3.6,1.26 c0.18,1.4,0.38,2.79,0.57,4.19c1.21-0.48,2.41-0.98,3.61-1.51C110.89,224.35,110.69,223.04,110.5,221.72z M110.17,219.48 c-0.6-4.05-1.19-8.11-1.79-12.16c-1.09,0.41-2.17,0.82-3.27,1.21c0.48,4.07,0.98,8.14,1.51,12.21 C107.81,220.33,108.99,219.92,110.17,219.48z M108.05,205.07c-0.23-1.58-0.46-3.15-0.7-4.73c-0.32,0.17-0.67,0.27-1.03,0.34 c-0.67,0.29-1.34,0.58-2.01,0.86c0.17,1.57,0.35,3.14,0.53,4.71C105.92,205.87,106.98,205.48,108.05,205.07z M87.32,233.33 c1.21-0.26,2.42-0.54,3.62-0.84c-0.11-1.71-0.22-3.41-0.32-5.12c-1.19,0.25-2.39,0.47-3.58,0.69 C87.12,229.82,87.22,231.57,87.32,233.33z M91.5,205.92c0.09,1.39,0.18,2.79,0.27,4.18c3.67-0.88,7.31-1.91,10.91-3.11 c-0.18-1.53-0.35-3.06-0.52-4.59C98.66,203.77,95.1,204.94,91.5,205.92z M107.37,190.63c-0.88-3.81-2.45-7.53-4.39-11.14 c-4.56,2.92-9.33,5.27-14.25,7.14c3.16,3.53,6.57,7.08,10.61,9.55c1.95,1.19,5.9,3.48,7.87,1.17 C108.56,195.75,107.78,192.39,107.37,190.63z M86.3,207.21c0.03,1.35,0.08,2.7,0.11,4.05c1.05-0.2,2.09-0.4,3.14-0.63 c-0.09-1.37-0.17-2.74-0.26-4.12C88.3,206.76,87.3,206.99,86.3,207.21z M86.48,213.51c0.12,4.1,0.27,8.21,0.46,12.31 c1.18-0.21,2.36-0.44,3.53-0.68c-0.26-4.09-0.52-8.17-0.78-12.26C88.63,213.11,87.55,213.3,86.48,213.51z M88.24,248.28 c1.22-0.26,2.44-0.55,3.65-0.85c-0.27-4.22-0.54-8.45-0.8-12.67c-1.21,0.3-2.43,0.58-3.65,0.84 C87.68,239.83,87.93,244.05,88.24,248.28z M88.41,250.54c0.13,1.74,0.27,3.48,0.41,5.22c1.19-0.25,2.37-0.52,3.55-0.81 c-0.11-1.75-0.22-3.49-0.33-5.24C90.83,250,89.62,250.28,88.41,250.54z M89,258.02c0.28,3.33,0.58,6.65,0.89,9.97 c1.09-0.18,2.18-0.38,3.27-0.58c-0.22-3.4-0.43-6.79-0.65-10.19C91.34,257.5,90.17,257.77,89,258.02z M105.33,228 c-0.2-1.44-0.4-2.88-0.59-4.32c-3.93,1.25-7.9,2.31-11.91,3.21c0.11,1.68,0.21,3.35,0.32,5.03 C97.26,230.82,101.33,229.52,105.33,228z M94.25,249.15c0.11,1.74,0.22,3.49,0.33,5.23c4.73-1.25,9.39-2.77,13.96-4.56 c-0.27-1.68-0.53-3.36-0.78-5.04C103.33,246.48,98.82,247.95,94.25,249.15z M99.81,268.28c1.57,5.08,2.84,10.22,3.83,15.44 c0.4-0.2,0.82-0.37,1.28-0.47c0.51-0.12,1.02-0.15,1.52-0.13c-1.12-5.22-2.23-10.45-4.12-15.45 C101.49,267.88,100.65,268.08,99.81,268.28z M102.97,289.28c2.09-0.56,4.15-1.22,6.17-2C107.53,284.01,102.38,285.53,102.97,289.28z M123.71,237.25c-2.64,1.48-5.33,2.87-8.06,4.15c0.25,1.67,0.49,3.35,0.74,5.02c2.87-1.36,5.69-2.83,8.47-4.42 C124.5,240.41,124.11,238.83,123.71,237.25z M118.25,218.62c-1.86,0.81-3.73,1.57-5.61,2.3c0.19,1.26,0.37,2.53,0.56,3.79 c2.04-0.94,4.06-1.92,6.06-2.97C118.92,220.7,118.59,219.66,118.25,218.62z M110.76,197.82c-0.46,0.33-0.92,0.66-1.38,0.98 c0.27,1.81,0.53,3.62,0.8,5.43c0.87-0.35,1.74-0.71,2.6-1.08C112.12,201.37,111.44,199.59,110.76,197.82z M73.1,46.27 c-0.01-0.23,0.06-0.46,0.24-0.67c0.07-0.1,0.15-0.18,0.24-0.24c1.73-1.57,2.87-3.63,2.91-6.01c0.02-1.17-0.22-2.43-0.81-3.46 c-1.17-2.06-4.55-3.3-5.75-0.67c0.02,0.3-0.05,0.6-0.23,0.85c3.75,7.34,1.17,18.64-8.9,19.66c-5.39,0.54-10.27-2.34-12.62-6.86 c-1.44-0.27-3.77,0.99-4.48,2.27c2.69,7.28-0.18,17.18-9.57,18.13c-0.74,0.08-1.48,0.07-2.2,0.02c11.31,9.79,26.91,15.93,38.2,3.02 C69.87,63.55,70.93,54.73,73.1,46.27z M59.23,32.08c-0.23,0.04-0.45,0.08-0.68,0.13c2.11,1.11,4.46,1.8,6.94,2.02 C63.91,32.83,61.81,31.98,59.23,32.08z M55.69,33.07c-3.88,1.57-6.69,4.64-6.75,9.47C48.86,48.92,54.12,54,60.5,53.44 c8.59-0.75,10.55-10.83,6.94-16.87c-1.49,0.01-2.94-0.13-4.35-0.41c-0.1,0.47-0.44,0.9-1.03,0.96c-3.17,0.36-5.8,2.6-6.91,5.48 c1.89-0.07,3.62,1.74,2.83,3.79c-0.44,1.15-1.54,1.97-2.79,1.86c-1.24-0.1-2.31-0.97-2.64-2.17c-0.13-0.17-0.23-0.38-0.22-0.66 c0.1-4.75,3.31-8.76,7.69-10.12C58.49,34.73,57.04,33.98,55.69,33.07z M53.68,31.52c-1.43-1.26-2.69-2.74-3.76-4.4 c0.27,1.94,0.9,3.79,1.9,5.55C52.4,32.25,53.02,31.86,53.68,31.52z M40.66,41.13c-1.82,0.78-3.77,1.67-5.75,2.36 c3.51,0.54,6.12,2.63,7.76,5.41c1.2-1.23,2.94-2.19,4.59-2.35c-0.2-0.67-0.36-1.37-0.45-2.09c-0.31-2.46,0.01-4.67,0.81-6.6 C45.35,39.13,42.93,40.16,40.66,41.13z M32.56,45.61c-2.3,0.39-4.43,1.18-6.15,2.4c0,0.95-0.05,1.9-0.13,2.83 c2.59-2.62,5.91-4.27,9.64-4.76C34.91,45.74,33.79,45.56,32.56,45.61z M28.83,44.27c-1.03-0.66-1.95-1.44-2.74-2.34 c0.11,1.15,0.21,2.32,0.27,3.49C27.13,44.98,27.96,44.59,28.83,44.27z M22.27,56.07c0,0.32,0.02,0.63,0.04,0.94 c1.1-2,1.64-4.34,1.83-6.79C22.98,51.76,22.3,53.7,22.27,56.07z M23.38,70.02c2.15,1.66,4.76,1.97,7.32,1.56 c-1.35-1.2-2.65-2.46-3.89-3.78c-2.32-1.25-4.22-3.22-5.41-5.62C19.95,64.85,20.92,68.12,23.38,70.02z M33.82,66.97 c7.84-0.69,10.16-9.14,7.76-15.2c-0.16-0.15-0.26-0.36-0.26-0.6c-0.73-1.59-1.81-2.99-3.21-3.98c-0.08,0.49-0.42,0.96-1.05,1 c-4.4,0.28-8.32,2.5-10.82,6.14c-0.18,0.26-0.42,0.41-0.67,0.47c-0.51,1.82-1.31,3.52-2.47,5.04c1.55,2.07,3.36,4.18,5.38,6.22 C30.09,66.79,31.9,67.14,33.82,66.97z M54.64,96.36c5.76,6.43,14.8,5.79,21.91,1.71c-0.98-0.74-1.79-1.71-2.37-2.97 c-0.01-0.02-0.02-0.05-0.03-0.07c-0.03-0.06-0.06-0.12-0.09-0.2c-2.11-6.3-3.33-12.85-3.77-19.45c-3.65,3.49-8.07,5.47-12.78,6.08 c1.42,3.67,1.83,7.53,0.03,11.25C56.83,94.2,55.82,95.38,54.64,96.36z M19.85,170.53c0.16-0.08,0.34-0.13,0.57-0.11 c5.97,0.69,11.75,2.03,17.53,3.54c1.69-8.24,2.37-16.79,2.61-25.18c0.12-4.5-0.26-9.02,0.23-13.51c-1.52-1.45-3.04-2.91-4.56-4.36 c-1.05-1,0.54-2.59,1.59-1.59c0.96,0.91,1.91,1.83,2.87,2.74c-0.55-2.79-1.11-5.57-1.66-8.36c-0.28-1.42,1.89-2.02,2.17-0.6 c0.36,1.82,0.72,3.63,1.08,5.45c0.76-2.49,1.63-4.96,2.3-7.49c0.37-1.4,2.54-0.8,2.17,0.6c-1.58,6-3.81,11.33-3.95,17.65 c-0.09,4.06,0.1,8.11-0.09,12.17c-0.36,7.7-1.03,15.5-2.58,23.06c0.94,0.25,1.87,0.5,2.81,0.76c0.1,0.03,0.18,0.06,0.26,0.11 c16.61-1.8,32.52-6.83,47.16-14.83c-0.1-0.27-0.08-0.58,0.14-0.89c5.3-7.71,8.75-15.7,9.53-25.08c0.17-6.78-1.29-13.2-4.46-19.23 c-0.67-1.28,1.27-2.42,1.94-1.14c3.27,6.23,4.88,12.93,4.76,19.95c0,0.06,0.03,0.11,0.02,0.18c-0.01,0.08-0.02,0.16-0.02,0.24 c0,0.11,0,0.22,0,0.32c0,0.08-0.04,0.14-0.05,0.22c-0.17,1.81-0.43,3.57-0.78,5.29c4.68-4.14,10.84-5.45,17.34-4.34 c1.43,0.24,0.82,2.41-0.6,2.17c-6.33-1.08-12.43,0.44-16.66,5.21c2.08,0.01,4.14,0.25,6.19,0.72c1.41,0.33,0.81,2.49-0.6,2.17 c-2.21-0.51-4.42-0.69-6.66-0.61c3.03,1.29,5.88,2.87,8.49,4.92c2.32,1.82,5.28,4.16,5.97,7.22c0.51,2.26-0.68,4.21-3.14,4.02 c-3.1-0.24-5.8-2.68-7.5-5.07c-0.84-1.18,1.11-2.31,1.94-1.14c0.8,1.12,1.73,2.1,2.91,2.83c0.84,0.52,3.2,1.76,3.63-0.05 c0.38-1.6-3.02-4.25-4.09-5.16c-2.8-2.39-5.92-4.2-9.3-5.61c-1.63,4.4-3.87,8.57-6.64,12.66c0.03,0.03,0.05,0.05,0.08,0.09 c5.09,6.82,10.03,13.9,13.72,21.59c1.86,3.87,4.22,8.93,3.57,13.45c34.49-25.96,38.34-92.8-8.32-107.24 c-0.05,0.6-0.12,1.21-0.23,1.81c0,0,0,0,0,0.01c-0.01,0.07-0.01,0.13-0.03,0.2c-0.05,0.25-0.15,0.43-0.29,0.56 c-3.27,5.53-15.16,10.94-22.37,8.43c-0.06,0.06-0.13,0.12-0.21,0.17c-8.13,5.14-19.23,6.03-25.85-1.79 c-2.04,1.23-4.38,2.08-6.61,2.86c-5.83,1.78-9.48,7.41-11.46,12.87c-3.39,9.37-6.41,18.91-10.63,27.95 C20.56,148.93,8.69,164.25,19.85,170.53z M17.18,194.39c1.09,0.57,3.28-0.27,4.39-0.54c0.1-0.02,0.19-0.03,0.27-0.03 c0.01,0,0.02-0.01,0.03-0.01c5.45-0.1,10.84-1.04,16.17-2.19c0.1-0.04,0.21-0.06,0.32-0.07c1.89-0.41,3.77-0.84,5.65-1.26 c0.04-0.02,0.1-0.02,0.15-0.03c0.02,0,0.03-0.01,0.05-0.01c0.06-0.01,0.12-0.02,0.17-0.02c0.04,0,0.08-0.02,0.13-0.02 c20.09,1.14,40.18-1.67,57.37-12.68c-3.09-5.33-6.88-10.37-10.37-15.03c-15.03,8.22-31.31,13.31-48.35,15.15 c-0.28,0.03-0.48-0.05-0.65-0.16c-0.06-0.01-0.11-0.01-0.17-0.03c-7.2-1.95-14.34-3.91-21.78-4.78c-1.5,0.41-2.37,1.79-2.88,3.57 c2.16-0.58,4.41-0.31,6.47,0.83c1.27,0.7,0.13,2.64-1.14,1.94c-1.89-1.04-3.93-1.1-5.84-0.2c-0.17,1.29-0.24,2.62-0.3,3.83 c1.85-0.58,3.75-0.81,5.75-0.59c1.43,0.16,1.44,2.41,0,2.25c-2.05-0.22-3.99,0-5.89,0.75c-0.02,0.27-0.05,0.52-0.08,0.75 c-0.12,0.82-0.45,2.08-0.67,3.41c1.97-0.82,4.07-1.16,6.24-0.9c1.42,0.17,1.43,2.42,0,2.25c-2.27-0.27-4.4,0.12-6.41,1.21 C15.89,192.92,16.25,193.9,17.18,194.39z M83.86,192.44c-0.01-1.38-0.02-2.75-0.02-4.13c-3.59,1.11-7.25,1.99-10.96,2.66 c-0.06,1.16-0.1,2.32-0.16,3.48C76.47,194.03,80.19,193.37,83.86,192.44z M72.2,209.36c-0.03,1.28-0.05,2.57-0.07,3.85 c4.04-0.32,8.06-0.82,12.05-1.52c-0.04-1.34-0.09-2.68-0.12-4.02C80.14,208.45,76.18,209.02,72.2,209.36z M27.62,264.88 c1.48,0.42,2.98,0.82,4.48,1.18c-0.3-2.96-0.54-5.91-0.7-8.87c-1.27-0.31-2.53-0.64-3.79-0.99c0.01,0.83,0.02,1.65,0.04,2.48 c0,0.01,0,0.01,0,0.02C27.86,260.75,27.85,262.83,27.62,264.88z M27.63,248.6c-0.03,1.75-0.04,3.5-0.04,5.25 c1.23,0.35,2.47,0.68,3.71,0.99c-0.07-1.77-0.13-3.54-0.15-5.3C29.98,249.25,28.8,248.94,27.63,248.6z M31.14,247.22 c0-4.01,0.12-8.01,0.37-12c-1.08-0.24-2.15-0.5-3.22-0.77c-0.3,3.94-0.51,7.89-0.62,11.83C28.83,246.61,29.98,246.92,31.14,247.22z M32.22,227.12c-1.07-0.23-2.14-0.46-3.2-0.71c0,0.01-0.01,0.03-0.01,0.04c0.01,0.07,0.03,0.13,0.02,0.21 c-0.2,1.84-0.38,3.68-0.54,5.52c1.06,0.27,2.13,0.53,3.19,0.77C31.83,231,32.01,229.06,32.22,227.12z M32.47,224.87 c0.48-3.99,1.1-7.96,1.84-11.91c-0.52-0.11-1.04-0.21-1.57-0.33c-1.02,3.87-2.09,7.73-3.14,11.6 C30.56,224.46,31.51,224.67,32.47,224.87z M45.18,235.3c0.12-2,0.27-4,0.42-5.99c-3.73-0.43-7.45-1.01-11.16-1.74 c-0.21,1.95-0.39,3.91-0.54,5.87C37.65,234.23,41.41,234.85,45.18,235.3z M64.94,258.58c-0.07-1.76-0.13-3.52-0.19-5.28 c-3.89,0.09-7.79,0-11.68-0.27c0.04,1.76,0.1,3.52,0.17,5.28C57.14,258.58,61.05,258.67,64.94,258.58z M64.92,209.71 c-3.07,0.05-6.15-0.03-9.23-0.25c-0.19,1.33-0.37,2.66-0.54,3.98c3.21,0.17,6.43,0.22,9.63,0.14 C64.83,212.3,64.87,211.01,64.92,209.71z M53.55,230c-0.13,2-0.24,3.99-0.33,5.99c3.75,0.21,7.5,0.26,11.24,0.14 c-0.01-1.97-0.02-3.93-0.01-5.9C60.82,230.3,57.18,230.22,53.55,230z M53.46,209.3c-1.12-0.1-2.24-0.24-3.36-0.37 c-0.19,1.37-0.38,2.74-0.55,4.11c1.12,0.11,2.24,0.21,3.37,0.29C53.08,211.99,53.26,210.64,53.46,209.3z M47.29,237.78 c-0.22,4.13-0.37,8.26-0.44,12.39c1.3,0.16,2.61,0.29,3.91,0.41c-0.06-4.16,0-8.33,0.14-12.48C49.7,238.02,48.5,237.91,47.29,237.78 z M50.98,235.86c0.08-2,0.2-4,0.33-6c-1.16-0.09-2.32-0.19-3.47-0.31c-0.16,2-0.3,3.99-0.42,5.99 C48.6,235.66,49.79,235.77,50.98,235.86z M46.82,257.71c1.39,0.17,2.78,0.31,4.17,0.44c-0.07-1.76-0.13-3.53-0.17-5.29 c-1.33-0.12-2.66-0.25-3.99-0.41C46.81,254.2,46.81,255.95,46.82,257.71z M46.84,259.98c0.04,2.95,0.12,5.91,0.23,8.86 c1.54,0.2,3.08,0.38,4.63,0.52c-0.25-2.98-0.46-5.97-0.62-8.95C49.67,260.29,48.25,260.14,46.84,259.98z M52.62,215.55 c-1.12-0.08-2.24-0.18-3.36-0.29c-0.49,4.01-0.9,8.03-1.24,12.05c1.15,0.12,2.3,0.22,3.45,0.31 C51.76,223.59,52.14,219.57,52.62,215.55z M47.87,208.65c-3.35-0.48-6.68-1.13-9.99-1.94c-0.34,1.5-0.66,3-0.96,4.5 c3.45,0.68,6.91,1.21,10.38,1.6C47.49,211.43,47.68,210.04,47.87,208.65z M45.63,270.92c0.05,6.62,0.11,13.23,0.16,19.85 c0.84,0.82,1.4,1.96,1.75,3.26c5.78-0.77,11.48-2.23,17-4.37c0.02-5.8,0.1-11.6,0.25-17.4C58.36,272.23,51.95,271.79,45.63,270.92z M65.7,194.94c0.06-0.99,0.11-1.97,0.18-2.96c-2.38,0.26-4.77,0.45-7.17,0.56c-0.16,0.76-0.32,1.53-0.47,2.3 C60.72,194.98,63.21,195.01,65.7,194.94z M56.4,192.64c-1.2,0.03-2.4,0.05-3.61,0.05c-0.1,0.54-0.2,1.09-0.3,1.63 c1.16,0.14,2.33,0.26,3.49,0.35C56.12,193.99,56.26,193.31,56.4,192.64z M52.08,196.53c-0.61,3.38-1.16,6.77-1.67,10.17 c1.12,0.14,2.25,0.27,3.37,0.37c0.52-3.4,1.1-6.8,1.76-10.18C54.38,196.79,53.23,196.67,52.08,196.53z M50.52,192.66 c-1.97-0.03-3.94-0.09-5.91-0.2c-0.41,0.09-0.82,0.18-1.22,0.28c2.28,0.51,4.58,0.94,6.88,1.27 C50.35,193.56,50.43,193.11,50.52,192.66z M38.9,193.95c-0.16-0.04-0.31-0.08-0.47-0.12c-0.52,0.11-1.04,0.22-1.57,0.33 c-0.54,3.19-1.18,6.35-1.9,9.5c0.06,0.01,0.13,0.01,0.19,0.03c0.35,0.1,0.71,0.18,1.07,0.27C37.02,200.61,37.91,197.28,38.9,193.95z M34.56,205.87c-0.04-0.01-0.07-0.03-0.1-0.04c-0.37,1.55-0.75,3.09-1.14,4.63c0.47,0.11,0.95,0.2,1.42,0.3 c0.31-1.53,0.63-3.07,0.98-4.6C35.32,206.06,34.94,205.97,34.56,205.87z M33.42,250.1c0.03,1.76,0.08,3.53,0.16,5.3 c3.64,0.84,7.31,1.52,10.99,2.03c-0.01-1.76,0-3.51,0.02-5.27C40.84,251.63,37.11,250.96,33.42,250.1z M43.38,270.59 c-0.89-0.14-1.78-0.28-2.67-0.44c-0.25,6.48-0.66,12.92-0.14,19.38c0.35-0.08,0.71-0.14,1.08-0.17c0.69-0.05,1.31,0.01,1.88,0.14 C43.48,283.21,43.43,276.9,43.38,270.59z M38.4,294.67c2.3-0.01,4.6-0.13,6.89-0.37c-0.42-1.47-1.17-2.65-3.05-2.7 C40.22,291.55,38.66,292.72,38.4,294.67z M66.71,236.05c1.07-0.05,2.14-0.12,3.2-0.2c-0.04-1.93-0.08-3.86-0.1-5.8 c-1.04,0.06-2.07,0.1-3.11,0.13C66.69,232.14,66.7,234.09,66.71,236.05z M69.85,215.61c-0.96,0.06-1.92,0.1-2.87,0.14 c-0.12,4.07-0.2,8.13-0.24,12.2c1.03-0.03,2.05-0.08,3.07-0.13C69.78,223.75,69.8,219.68,69.85,215.61z M69.95,209.51 c-0.92,0.06-1.85,0.12-2.77,0.16c-0.05,1.28-0.09,2.57-0.14,3.85c0.95-0.04,1.89-0.08,2.84-0.14 C69.9,212.09,69.92,210.8,69.95,209.51z M70.01,207.27c0.09-3.45,0.21-6.89,0.36-10.34c-0.85,0.07-1.7,0.13-2.55,0.17 c-0.21,3.44-0.38,6.87-0.53,10.31C68.19,207.39,69.1,207.33,70.01,207.27z M70.47,194.67c0.05-1.1,0.09-2.21,0.15-3.31 c-0.82,0.13-1.65,0.25-2.47,0.36c-0.07,1.05-0.13,2.09-0.19,3.14C68.79,194.81,69.63,194.74,70.47,194.67z M20,280.91 c-5.07-3.11-8.57-8.23-9.55-14.17c-0.24-1.42,1.93-2.02,2.17-0.6c1,6.02,4.64,10.98,10.1,13.71c0.49-0.24,0.97-0.54,1.41-0.89 c-4.37-3.27-7.4-7.94-8.56-13.36c-0.3-1.41,1.87-2.01,2.17-0.6c1.06,4.97,3.77,9.22,7.79,12.2c0.21-0.49,0.31-1.04,0.24-1.65 c-0.13-1.22-2.25-3.44-2.81-4.69c-1.41-3.14-2.03-6.45-2.11-9.88c-0.03-1.45,2.22-1.45,2.25,0c0.06,2.72,0.52,5.33,1.45,7.81 c1.92-6.92,1-14.45-2.57-20.73c-0.17-0.29-0.19-0.58-0.11-0.83c0-0.01,0-0.02,0-0.04c3.07-17.78,9.48-34.81,12.61-52.58 c-4.13,0.77-8.29,1.34-12.48,1.43c-1.21,0.29-2.43,0.48-3.55,0.5c-1.99,14.7-4.03,29.39-6.54,44c0,0.1-0.02,0.21-0.05,0.33 c-1.89,5.82-2.97,11.81-4.17,17.8c-0.01,0.1-0.02,0.2-0.06,0.3c-0.02,0.09-0.05,0.18-0.08,0.26c-1.3,3.82-1.96,8.26-1.26,12.25 c0.62,3.53,3.23,6.16,6.34,7.98c-2.74-2.91-4.7-6.49-5.65-10.51c-0.33-1.41,1.84-2.01,2.17-0.6c1.3,5.51,4.59,10.09,9.4,13.05 C19.05,281.25,19.52,281.08,20,280.91z M25.45,245.61c0.06-2,0.15-4.01,0.26-6.01c-0.43,1.9-0.83,3.81-1.19,5.73 C24.83,245.42,25.14,245.51,25.45,245.61z M24.31,247.62c0.38,0.71,0.73,1.43,1.05,2.16c0.01-0.61,0.02-1.22,0.03-1.83 C25.03,247.84,24.67,247.73,24.31,247.62z M21.04,292.68c5,1.19,10.06,1.84,15.11,1.96c0.16-1.75,0.98-3.19,2.25-4.13 c-0.66-6.93-0.18-13.82,0.08-20.76c-3.78-0.72-7.52-1.6-11.19-2.63c-0.3,1.55-0.73,3.08-1.29,4.57c-0.01,0.03-0.03,0.05-0.04,0.08 c0.07,0.13,0.14,0.26,0.22,0.39c0.97,1.62,2.9,3.27,3.06,5.26c0.29,3.62-5.86,5.1-9.43,6.06C20.18,286.55,20.6,289.62,21.04,292.68z M41.32,395.5c1.35,0.28,2.7,0.46,4.05,0.57c-0.32-0.92-0.64-1.84-0.95-2.76C43.27,393.92,42.25,394.63,41.32,395.5z M70.87,390.32 c0.04,0.61,0.09,1.23,0.13,1.84c0.63-0.3,1.25-0.63,1.87-1C72.24,390.76,71.58,390.48,70.87,390.32z M70.1,395 c-3.92,1.48-8.15,2.06-12.37,2.65c-5.69,0.8-11.25,1.2-16.83,0.06c0.78,2.19,1.52,4.38,2.2,6.59c4.08-0.35,8.16-0.75,12.25-1.06 c2.32-0.18,5.47-0.13,6.2,2.65c0.75,2.85-2.36,3.89-4.43,4.53c-3.81,1.18-7.77,1.8-11.75,2.05c0.09,0.37,0.17,0.74,0.26,1.11 c3.98-0.39,8.05-1.04,12.04-1.08c1.93-0.02,4.78,0.18,5.03,2.67c0.25,2.54-2.44,3.7-4.38,4.43c-3.53,1.33-7.22,1.92-10.97,1.98 c0.15,0.83,0.3,1.65,0.45,2.48c3.38-0.7,6.79-0.8,10.2-0.12c1.84,0.36,4.92,1,5.06,3.42c0.3,4.94-9.4,4.04-14.37,3.31 c0.48,0.77,0.86,1.64,1.16,2.52c0.88,2.59,1.59,7.44-0.82,9.47c-2.16,1.81-4.67,0.18-5.61-2.02c-1.32-3.07-2.03-9.62-6.71-9.5 c-0.02,0-0.03-0.01-0.05-0.01c-0.5,0.06-1.01,0.13-1.51,0.19c1.25,1.11,2.05,2.68,2.4,4.57c0.53,2.94,0.86,7.27-1.95,9.21 c-2.19,1.52-4.65,0.33-5.91-1.78c-2.04-3.4-1.48-9.35-6.19-10.49c-1.54,0.21-3.09,0.42-4.63,0.65c-5.95,0.9-12.05,2.1-15.07,7.96 c-3.05,5.92-1.52,13.05-0.24,19.21c0.03,0.2,0.07,0.4,0.1,0.6c23.77,2.02,48.52-1.04,70.81-9.65c-1.95-19.3-2.52-38.82-0.96-58.17 c-0.86,0.49-1.74,0.91-2.64,1.28C70.67,394.89,70.39,395,70.1,395z M66.93,250.98c1.15-0.05,2.29-0.11,3.43-0.19 c-0.18-4.23-0.31-8.47-0.4-12.71c-1.08,0.08-2.16,0.15-3.24,0.2C66.75,242.52,66.81,246.75,66.93,250.98z M67.19,258.51 c1.18-0.05,2.37-0.11,3.55-0.19c-0.1-1.76-0.19-3.52-0.27-5.28c-1.15,0.08-2.31,0.14-3.47,0.19 C67.06,254.99,67.12,256.75,67.19,258.51z M71.47,269.89c-0.23-3.11-0.44-6.22-0.62-9.33c-1.19,0.08-2.38,0.14-3.58,0.19 c0.13,3.08,0.29,6.16,0.48,9.23C68.99,269.97,70.23,269.94,71.47,269.89z M72.16,235.66c4.34-0.4,8.65-1.03,12.93-1.87 c-0.1-1.78-0.2-3.57-0.29-5.35c-4.22,0.69-8.48,1.18-12.74,1.48C72.08,231.83,72.12,233.75,72.16,235.66z M72.98,258.14 c4.57-0.4,9.12-1.03,13.63-1.92c-0.14-1.75-0.28-3.49-0.41-5.24c-4.46,0.87-8.96,1.5-13.49,1.89 C72.79,254.63,72.88,256.38,72.98,258.14z M82.04,291.39c6.28,0.34,12.62-0.15,18.73-1.56c-0.3-1.57,0.05-3.16,0.92-4.4 c-1.02-5.64-2.38-11.18-4.08-16.65c-6.69,1.46-13.51,2.47-20.37,3.01C78.74,278.35,80.35,284.88,82.04,291.39z M108.31,383.8 c0.38,0.85,0.81,1.51,1.31,2.02c-0.27-0.76-0.55-1.53-0.82-2.29C108.67,383.64,108.51,383.74,108.31,383.8z M182.7,461.19 c0.96-11.75,2.52-31.37-11.29-36.7c-2.37-0.91-4.84-1.32-7.33-1.56c-0.2,0.09-0.42,0.14-0.67,0.1c-4.19-0.7-8.61,1.28-11.05,4.76 c-1.38,1.96-1.76,4.51-3.34,6.34c-1.63,1.89-4.67,3.13-6.82,1.28c-2.39-2.06-1.21-6-0.03-8.35c1.42-2.81,3.7-4.8,6.39-6.22 c-0.26-0.1-0.52-0.21-0.77-0.32c-2.01,0.88-3.86,1.94-5.41,3.54c-1.57,1.62-2.37,3.7-3.8,5.4c-1.61,1.9-4.68,3.05-6.5,0.72 c-2.13-2.73,0.51-6.33,2.36-8.34c0.72-0.78,1.51-1.48,2.34-2.12c-1.57,0.51-3.13,0.93-4.67,1.11c-1.89,0.23-3.72-0.55-4.05-2.59 c-0.8-4.91,7.21-7.69,11.34-8.85c-0.05-0.16-0.09-0.32-0.14-0.48c-3.14,1.23-6.59,2.97-9.85,3.31c-1.91,0.2-3.83-0.6-4.11-2.7 c-0.68-5.21,8.29-6.97,12.73-7.57c-0.03-0.35-0.06-0.71-0.08-1.06c-3.93,1.35-8.25,3.32-12.31,3.63c-2.22,0.17-4.37-0.77-4.59-3.21 c-0.28-3.09,2.72-4.57,5.17-5.39c3.8-1.27,7.78-1.95,11.76-2.24c0.19-2.98,0.56-5.94,0.99-8.78c-3.68,1.87-9.71,2.5-12.09,2.9 c-3.81,0.65-7.65,1.01-11.51,1.22c-1.83,0.1-4.11,0.45-6.13,0.12c4.29,8.77,7.44,18.11,9.46,27.66c2,8.91,3.99,17.83,5.99,26.74 c6.6,6.78,13.38,13.37,19.98,20.15c11.2,8.84,26.03,3.7,37.86-1.09c0.04-0.46,0.1-0.93,0.16-1.39 C182.7,461.2,182.7,461.2,182.7,461.19z M75.43,156.17c1.42,0.19,2.03-1.97,0.6-2.17c-4.23-0.58-7.95-2.38-10.98-5.4 c-1.03-1.02-2.62,0.57-1.59,1.59C66.73,153.46,70.84,155.54,75.43,156.17z" style="fill: rgb(27, 24, 23);"/></g></svg>