<svg xmlns="http://www.w3.org/2000/svg" xmlns:xlink="http://www.w3.org/1999/xlink" preserveAspectRatio="xMidYMid meet"
  version="1.0" viewBox="-0.7 -3.5 169.1 475.0" zoomAndPan="magnify" style="fill: rgb(0, 0, 0);"
  original_string_length="18421">
  <g id="__id290_ss9twpl4nl">
    <path
      d="M166.26,134.15c1.66,4.26-0.1,7.8-3.37,10.75c-3.62,3.26-7.94,3.79-12.11,2.02 c0.11,4.36,0.08,8.72-0.09,13.08c-0.28,6.92-0.25,14.87-2.96,21.38c-2.32,5.6-6.66,8.57-11.54,9.22 c-2.11,39.11-5.78,78.12-7.87,117.23c0,0.07-0.04,0.13-0.05,0.19c-0.01,0.09-0.03,0.18-0.07,0.27c0,0,0,0.01,0,0.01 c-0.11,0.27-0.34,0.5-0.7,0.61c-3.03,0.88-6.11,1.55-9.22,2.05c-0.18,5.2-0.39,10.4-0.61,15.6c3.52,0.55,7.04,1.1,10.56,1.65 c2.56,0.4,6.85,0.24,9.13,1.4c0.02,0.01,0.03,0.02,0.05,0.02c0.1,0,0.21,0,0.32,0.03c4.04,0.99,6.44,1.12,6.77,5.81 c0.65,9.25,0.27,18.75-0.18,28.01c-0.46,9.42-1.32,18.83-2.65,28.16c-0.84,5.91-3.39,8.85-9.63,8.66 c-8.35,1.59-13.87-9.07-16.59-18.45c-0.08,3.11-0.15,6.22-0.21,9.32c1.79,0.36,3.01,1.43,3.4,2.76c0.13,0.17,0.22,0.38,0.21,0.65 c-0.39,13.68-1.22,27.35-1.53,41.04c0.15,2.59,0.3,5.19,0.46,7.78c0,0.02-0.01,0.04-0.01,0.06c0,0.06-0.01,0.12-0.03,0.18 c-0.03,0.21-0.11,0.39-0.23,0.52c-7.67,13.81-20.93,23.39-36.65,25.79c-6.68,1.02-15.6,1.52-21.66-2.11 c-4.45-2.67-4.94-6.56-5.39-11.4c-0.01-0.14,0.01-0.24,0.04-0.35c-0.1-5,0.33-10.27,2.92-14.65c2.75-4.67,7.58-7.88,12.04-10.75 c5.9-3.78,13.66-7.53,15.34-15.01c1.42-6.31-1.3-13.84-4.03-19.44c-1.72-3.27,1-5.26,3.78-5.72c-2.9-11.94-4.89-24.09-6.47-36.27 c-0.78-6-1.47-11.98-1.77-18.01c-9.4-2.42-18.8-4.84-28.2-7.26c-10.31-2.65-21.1-4.57-30.95-8.68C7.96,316.77,0.8,310.3,0.07,300.56 c-0.75-9.99,4.98-19.4,9.49-27.94c-0.57-0.67-1.14-1.33-1.68-2.02c-0.03-0.04-0.05-0.08-0.08-0.12c-0.27-0.32-0.38-0.77-0.1-1.24 c3.51-5.89,7.1-11.72,10.69-17.56c17.68-28.81,35.79-57.38,53.1-86.41c0-0.04,0.01-0.08,0.01-0.12c-0.17-0.96-0.16-2-0.11-2.88 c-0.49-0.07-0.98-0.13-1.5-0.18c-0.07-0.01-0.12-0.04-0.18-0.05c-3.25,1.19-6.45,2.48-9.69,3.7c-2.99,1.13-6.58,2.96-9.88,2.66 c-6.55-0.59-8.49-7.53-9.39-12.96c-0.14-0.22-0.18-0.52-0.04-0.86c6.11-15.28,25.81-13.21,39.36-9.1c2.19-3.26,3.9-6.5,5.32-10.07 c-3.08,0.52-6.14-1.31-7.2-4.56c-4.24-0.29-6.12-4.46-4.41-7.8c-7.92,0.11-13.6-7.13-14.41-15.01c-0.68-6.58,1.44-12.92,3.39-19.11 c2.17-6.88,3.98-13.84,5.28-20.93c3.62-19.85,0.74-59.55,30.03-60.56C110.29-1.85,132-3.49,143.15,8.6 c5.69,6.18,9.45,15.02,11.49,23.07c2.51,9.89,5.74,19.97,7.36,30.05c0.51,3.16,0.46,6.31-1.03,9.2c-1.81,3.51-5.62,6.02-6.64,9.92 c-1.76,6.72,7.15,11.23,10.66,15.66c3.46,4.36,3.31,8.98,0.36,13.59c-2.67,4.16-6.62,7.38-5.41,12.78 C160.91,127.22,164.66,130.06,166.26,134.15z"
      style="fill: rgb(252, 248, 239);" />
  </g>
  <g id="__id291_ss9twpl4nl">
    <path
      d="M118,260.39c-3.97-3.01-7.94-6.03-11.91-9.04c2.8-6.53,5.65-13.04,8.53-19.54 c3.82,3.04,7.64,6.08,11.47,9.12C123.39,247.42,120.69,253.9,118,260.39z M102.43,252.31c-4.78-3.63-9.56-7.26-14.35-10.89 c-3.09,6.98-6.14,13.98-9.14,21c4.89,3.62,9.78,7.25,14.67,10.87C96.51,266.27,99.45,259.28,102.43,252.31z M112.2,229.88 c-4.63-3.69-9.27-7.37-13.9-11.06c-3.04,6.58-6.03,13.17-8.98,19.79c4.77,3.62,9.54,7.24,14.31,10.87 C106.45,242.93,109.31,236.4,112.2,229.88z M108.93,196.24c-3.16,6.58-6.27,13.18-9.34,19.8c4.62,3.68,9.24,7.35,13.86,11.03 c3.14-7.05,6.33-14.08,9.55-21.09C118.3,202.75,113.61,199.5,108.93,196.24z M84.36,203.93c4.27,3.4,8.55,6.8,12.82,10.2 c3.05-6.56,6.14-13.1,9.28-19.62c-4.36-3.05-8.71-6.11-13.05-9.19C90.36,191.5,87.35,197.71,84.36,203.93z M92.44,276.12 c-4.9-3.63-9.8-7.26-14.7-10.89c-2,4.71-3.98,9.43-5.93,14.15c4.98,3.57,9.97,7.15,14.95,10.72 C88.64,285.44,90.53,280.78,92.44,276.12z M106.98,286.89c-4.02-2.98-8.04-5.96-12.06-8.94c-1.9,4.64-3.79,9.29-5.66,13.95 c4.02,2.88,8.03,5.76,12.05,8.64C103.2,295.99,105.09,291.44,106.98,286.89z M116.81,263.23c-3.98-3.02-7.95-6.04-11.93-9.06 c-2.97,6.96-5.9,13.94-8.79,20.94c4.02,2.98,8.04,5.96,12.07,8.94C111.05,277.11,113.93,270.17,116.81,263.23z M68.14,280.43 c-4.71-3.38-9.42-6.75-14.13-10.13c-1.96,4.5-3.91,9-5.84,13.51c4.92,3.14,9.84,6.28,14.76,9.41 C64.65,288.95,66.39,284.69,68.14,280.43z M70.64,282.22c-1.73,4.21-3.44,8.42-5.14,12.64c5.16,3.29,10.31,6.58,15.47,9.87 c1.54-3.93,3.09-7.85,4.65-11.76C80.63,289.39,75.63,285.81,70.64,282.22z M51.52,268.52c-3.07-2.2-6.14-4.4-9.21-6.61 c-2.24,4.62-4.48,9.25-6.72,13.87c3.34,2.13,6.69,4.26,10.03,6.4C47.57,277.62,49.54,273.07,51.52,268.52z M20.87,266.39 c4.06,2.59,8.12,5.18,12.19,7.77c2.26-4.67,4.53-9.35,6.79-14.02c-3.77-2.7-7.54-5.41-11.31-8.11 C25.98,256.82,23.42,261.61,20.87,266.39z M43.63,259.18c3.04,2.18,6.08,4.36,9.11,6.54c2.09-4.78,4.21-9.54,6.34-14.3 c-2.87-2.13-5.74-4.25-8.61-6.38C48.19,249.75,45.91,254.47,43.63,259.18z M100.69,309.79c2.76,0.08,5.52,0.05,8.26-0.1 c-2.11-1.51-4.22-3.03-6.33-4.54C101.97,306.7,101.33,308.25,100.69,309.79z M109.45,288.72c-1.88,4.54-3.77,9.07-5.65,13.61 c3.26,2.33,6.51,4.67,9.77,7c1.22-0.13,2.44-0.3,3.65-0.48c1.41-3.74,2.84-7.47,4.3-11.19 C117.49,294.67,113.47,291.69,109.45,288.72z M126.66,297.76c0.12-1.92,0.22-3.85,0.34-5.77c-0.62,1.55-1.26,3.09-1.87,4.64 C125.64,297,126.15,297.38,126.66,297.76z M120.64,308.23c1.84-0.37,3.67-0.78,5.49-1.29c0.1-1.88,0.22-3.76,0.33-5.63 c-0.82-0.61-1.63-1.21-2.45-1.82C122.87,302.4,121.75,305.32,120.64,308.23z M83.54,306.37c1.13,0.72,2.26,1.44,3.38,2.16 c3.52,0.53,7.06,0.91,10.6,1.13c0.87-2.09,1.74-4.19,2.61-6.28c-4-2.87-8-5.74-12-8.61C86.59,298.63,85.05,302.5,83.54,306.37z M19.45,269.05c-1.24,2.32-2.47,4.63-3.71,6.95c3.6,3.56,7.53,6.8,11.72,9.73c1.43-2.95,2.85-5.89,4.28-8.84 C27.64,274.27,23.55,271.66,19.45,269.05z M34.28,278.5c-1.44,2.97-2.87,5.93-4.31,8.9c3.47,2.28,7.08,4.36,10.78,6.26 c0.44-1.05,0.87-2.1,1.31-3.14c0.78-1.85,1.58-3.69,2.36-5.54C41.05,282.82,37.66,280.66,34.28,278.5z M43.45,294.99 c5.27,2.55,10.7,4.76,16.13,6.64c0.39-0.98,0.76-1.95,1.15-2.93c0.35-0.88,0.71-1.76,1.07-2.65c-4.94-3.15-9.87-6.3-14.81-9.45 C45.79,289.4,44.63,292.2,43.45,294.99z M62.44,302.59c0.31,0.1,0.62,0.21,0.93,0.31c5.1,1.63,10.37,3.07,15.75,4.21 c-4.92-3.14-9.83-6.27-14.75-9.41C63.72,299.33,63.09,300.96,62.44,302.59z M73.63,226.7c4.42,3.35,8.83,6.71,13.25,10.06 c2.96-6.64,5.97-13.25,9.01-19.85c-4.28-3.41-8.56-6.81-12.84-10.22C79.87,213.35,76.73,220.01,73.63,226.7z M63.19,218.77 c2.67,2.03,5.34,4.05,8.01,6.08c3.12-6.71,6.26-13.4,9.45-20.07c-2.57-2.05-5.15-4.09-7.72-6.14 C69.68,205.35,66.44,212.06,63.19,218.77z M51.8,242.31c2.85,2.11,5.69,4.22,8.54,6.32c3.15-7.02,6.35-14.03,9.58-21.01 c-2.68-2.04-5.37-4.07-8.05-6.11C58.51,228.44,55.15,235.37,51.8,242.31z M75.26,263.4c-4.57-3.39-9.14-6.77-13.72-10.16 c-2.12,4.75-4.22,9.5-6.31,14.27c4.69,3.36,9.38,6.73,14.07,10.09C71.27,272.85,73.25,268.12,75.26,263.4z M90.74,129.09 c2.22-4.17,4.45-8.33,6.67-12.5c-0.08-0.07-0.16-0.13-0.24-0.2c-1.81-0.79-3.41-2.06-4.61-3.76c-0.04-0.03-0.08-0.07-0.12-0.1 c-0.89,1.06-1.71,2.15-2.41,3.29c-1.94,3.16-2.76,6.89-2.58,10.58C88.55,127.29,89.64,128.19,90.74,129.09z M99.74,143.25 c-0.91,1.87-1.81,3.74-2.72,5.61c3.68,0.22,7.39,0.32,11.05,0.69c0.3-0.58,0.59-1.16,0.89-1.74c-2.73-2.23-5.46-4.46-8.19-6.68 C100.43,141.83,100.08,142.54,99.74,143.25z M114.64,126.42c0.19-6.05,0.94-12.07,2.3-17.96c0.13-0.54,0.27-1.09,0.42-1.63 c-2.54,5.25-5.08,10.49-7.62,15.74C111.38,123.85,113.01,125.14,114.64,126.42z M111.04,113.03c-1.43,1.35-3.02,2.52-4.84,3.33 c-1.04,0.46-2.12,0.74-3.2,0.88c1.44,1.15,2.89,2.3,4.34,3.44C108.58,118.13,109.81,115.58,111.04,113.03z M99.73,136.41 c2.1-4.33,4.19-8.66,6.29-12.99c-2.08-1.64-4.15-3.28-6.22-4.93c-2.23,4.17-4.46,8.35-6.68,12.53 C95.32,132.82,97.52,134.62,99.73,136.41z M89.31,131.77c-0.39-0.32-0.78-0.63-1.16-0.95c0.18,0.66,0.4,1.3,0.64,1.93 C88.96,132.42,89.14,132.1,89.31,131.77z M108.42,125.32c-2.1,4.35-4.21,8.69-6.31,13.04c2.75,2.25,5.51,4.49,8.26,6.74 c1.48-2.85,2.97-5.69,4.46-8.54c-0.15-2.13-0.23-4.25-0.24-6.38C112.54,128.56,110.48,126.94,108.42,125.32z M98.72,185.42 c3.01,2.13,6.02,4.26,9.04,6.37c0.57-1.18,1.15-2.35,1.72-3.52c-1.92-0.26-3.85-0.64-5.79-1.18 C102.01,186.61,100.35,186.05,98.72,185.42z M34.99,233.57c-0.67-0.5-1.35-1-2.02-1.5c-2.78,4.5-5.55,9-8.31,13.5 c0.95,0.68,1.89,1.36,2.84,2.04C29.99,242.93,32.49,238.25,34.99,233.57z M26.08,250.27c-1-0.71-1.99-1.43-2.99-2.14 c-2.89,4.72-5.75,9.45-8.6,14.19c1.28,0.82,2.57,1.64,3.85,2.46C20.92,259.94,23.5,255.1,26.08,250.27z M53.27,199.3 c-1.68,2.71-3.35,5.42-5.03,8.12c0.17,0.13,0.33,0.25,0.5,0.38C50.25,204.97,51.76,202.13,53.27,199.3z M47.32,210.46 c-0.22-0.17-0.44-0.33-0.65-0.5c-4.04,6.52-8.09,13.04-12.12,19.56c0.62,0.46,1.24,0.92,1.87,1.38 C40.04,224.09,43.68,217.28,47.32,210.46z M12.94,264.89c-0.96,1.61-1.93,3.21-2.89,4.82c1.12,1.39,2.3,2.71,3.51,4.02 c1.12-2.1,2.24-4.2,3.36-6.29C15.59,266.58,14.27,265.74,12.94,264.89z M120.45,262.25c2.72,2.06,5.44,4.13,8.16,6.19 c0.57-8.04,1.16-16.07,1.76-24.11c-0.62-0.49-1.24-0.98-1.85-1.48C125.82,249.32,123.13,255.78,120.45,262.25z M110.63,285.88 c4,2.97,8.01,5.93,12.01,8.9c1.63-4.09,3.3-8.17,4.99-12.23c0.24-3.52,0.48-7.04,0.73-10.55c-3.03-2.3-6.06-4.6-9.09-6.9 C116.39,272.02,113.51,278.95,110.63,285.88z M112.66,188.56c-0.8,1.66-1.62,3.3-2.42,4.96c4.67,3.25,9.34,6.49,14.03,9.72 c2-4.31,4.01-8.62,6.04-12.91c-2.22-0.49-4.44-1.39-6.54-2.7c-0.02-0.01-0.03-0.02-0.04-0.03 C120.14,188.44,116.44,188.76,112.66,188.56z M130.62,240.73c0.09-1.2,0.18-2.41,0.26-3.61c-0.4,0.96-0.8,1.91-1.19,2.87 C130.01,240.24,130.32,240.49,130.62,240.73z M115.86,228.99c3.8,3.03,7.61,6.05,11.41,9.08c1.43-3.44,2.86-6.88,4.29-10.32 c0.36-5.07,0.71-10.13,1.04-15.2c-2.37-1.62-4.74-3.23-7.1-4.85C122.24,214.77,119.03,221.87,115.86,228.99z M133.39,190.79 c-2.23,4.71-4.43,9.43-6.62,14.16c2.02,1.38,4.04,2.76,6.06,4.14c0.38-5.96,0.75-11.93,1.08-17.9 C133.74,191.06,133.57,190.93,133.39,190.79z M29.95,249.37c3.74,2.68,7.47,5.36,11.21,8.04c2.29-4.73,4.58-9.46,6.87-14.19 c-3.54-2.62-7.07-5.24-10.61-7.86C34.93,240.04,32.44,244.71,29.95,249.37z M80.53,176.09c-2.76-2-5.51-4.01-8.25-6.02 c-3.03,5.67-6.06,11.35-9.08,17.02c2.89,2.3,5.78,4.6,8.67,6.9C74.75,188.02,77.64,182.05,80.53,176.09z M81.98,202.03 c2.96-6.17,5.94-12.33,8.96-18.47c-2.65-1.89-5.3-3.8-7.95-5.7c-2.91,6.01-5.82,12.02-8.73,18.04 C76.83,197.94,79.4,199.98,81.98,202.03z M60.76,216.93c3.26-6.73,6.52-13.46,9.77-20.19c-2.92-2.33-5.85-4.65-8.77-6.98 c-3.54,6.63-7.07,13.25-10.61,19.88C54.36,212.07,57.56,214.5,60.76,216.93z M38.84,232.71c3.5,2.59,7.01,5.19,10.51,7.78 c3.36-6.94,6.72-13.89,10.08-20.83c-3.23-2.45-6.47-4.91-9.7-7.36C46.11,219.1,42.47,225.91,38.84,232.71z M62.79,250.45 c4.56,3.38,9.12,6.76,13.68,10.13c3.01-7.03,6.05-14.04,9.16-21.03c-4.43-3.36-8.85-6.72-13.28-10.08 C69.13,236.44,65.93,243.44,62.79,250.45z M115.36,142.02c-0.87,1.67-1.75,3.34-2.62,5.01c1.32,1.07,2.63,2.15,3.95,3.22 C116.14,147.53,115.69,144.78,115.36,142.02z M98.39,139.18c-2.24-1.83-4.47-3.65-6.71-5.48c-0.42,0.78-0.83,1.56-1.25,2.34 c0.26,0.42,0.54,0.82,0.84,1.21c0.87,1.16-1.08,2.28-1.94,1.14c-0.03-0.04-0.05-0.08-0.08-0.12c-1.54,2.89-3.09,5.78-4.63,8.68 c3.02,0.91,6.1,1.39,9.21,1.68C95.34,145.47,96.87,142.32,98.39,139.18z M111.68,150.02c-0.11-0.09-0.23-0.19-0.34-0.28 c-0.04,0.07-0.07,0.14-0.11,0.21C111.38,149.97,111.53,149.99,111.68,150.02z"
      style="fill: rgb(100, 132, 206);" />
  </g>
  <g id="__id292_ss9twpl4nl">
    <path
      d="M115.02,40.87c3.74-0.98,7.7-0.85,11.31,0.57c1.33,0.52,0.75,2.7-0.6,2.17c-3.26-1.28-6.73-1.46-10.12-0.57 C114.21,43.4,113.62,41.23,115.02,40.87z M166.26,134.15c1.66,4.26-0.1,7.8-3.37,10.75c-3.62,3.26-7.94,3.79-12.11,2.02 c0.11,4.36,0.08,8.72-0.09,13.08c-0.28,6.92-0.25,14.87-2.96,21.38c-2.32,5.6-6.66,8.57-11.54,9.22 c-2.11,39.11-5.78,78.12-7.87,117.23c0,0.07-0.04,0.13-0.05,0.19c-0.01,0.09-0.03,0.18-0.07,0.27c0,0,0,0.01,0,0.01 c-0.11,0.27-0.34,0.5-0.7,0.61c-3.03,0.88-6.11,1.55-9.22,2.05c-0.18,5.2-0.39,10.4-0.61,15.6c3.52,0.55,7.04,1.1,10.56,1.65 c2.56,0.4,6.85,0.24,9.13,1.4c0.02,0.01,0.03,0.02,0.05,0.02c0.1,0,0.21,0,0.32,0.03c4.04,0.99,6.44,1.12,6.77,5.81 c0.65,9.25,0.27,18.75-0.18,28.01c-0.46,9.42-1.32,18.83-2.65,28.16c-0.84,5.91-3.39,8.85-9.63,8.66 c-8.35,1.59-13.87-9.07-16.59-18.45c-0.08,3.11-0.15,6.22-0.21,9.32c1.79,0.36,3.01,1.43,3.4,2.76c0.13,0.17,0.22,0.38,0.21,0.65 c-0.39,13.68-1.22,27.35-1.53,41.04c0.15,2.59,0.3,5.19,0.46,7.78c0,0.02-0.01,0.04-0.01,0.06c0,0.06-0.01,0.12-0.03,0.18 c-0.03,0.21-0.11,0.39-0.23,0.52c-7.67,13.81-20.93,23.39-36.65,25.79c-6.68,1.02-15.6,1.52-21.66-2.11 c-4.45-2.67-4.94-6.56-5.39-11.4c-0.01-0.14,0.01-0.24,0.04-0.35c-0.1-5,0.33-10.27,2.92-14.65c2.75-4.67,7.58-7.88,12.04-10.75 c5.9-3.78,13.66-7.53,15.34-15.01c1.42-6.31-1.3-13.84-4.03-19.44c-1.72-3.27,1-5.26,3.78-5.72c-2.9-11.94-4.89-24.09-6.47-36.27 c-0.78-6-1.47-11.98-1.77-18.01c-9.4-2.42-18.8-4.84-28.2-7.26c-10.31-2.65-21.1-4.57-30.95-8.68C7.96,316.77,0.8,310.3,0.07,300.56 c-0.75-9.99,4.98-19.4,9.49-27.94c-0.57-0.67-1.14-1.33-1.68-2.02c-0.03-0.04-0.05-0.08-0.08-0.12c-0.27-0.32-0.38-0.77-0.1-1.24 c3.51-5.89,7.1-11.72,10.69-17.56c17.69-28.82,35.8-57.4,53.11-86.44c-0.19-0.98-0.17-2.06-0.12-2.97c-0.49-0.07-0.98-0.13-1.5-0.18 c-0.07-0.01-0.12-0.04-0.18-0.05c-3.25,1.19-6.45,2.48-9.69,3.7c-2.99,1.13-6.58,2.96-9.88,2.66c-6.55-0.59-8.49-7.53-9.39-12.96 c-0.14-0.22-0.18-0.52-0.04-0.86c6.11-15.28,25.81-13.21,39.36-9.1c2.19-3.26,3.9-6.5,5.32-10.07c-3.08,0.52-6.14-1.31-7.2-4.56 c-4.24-0.29-6.12-4.46-4.41-7.8c-7.92,0.11-13.6-7.13-14.41-15.01c-0.68-6.58,1.44-12.92,3.39-19.11 c2.17-6.88,3.98-13.84,5.28-20.93c3.62-19.85,0.74-59.55,30.03-60.56C110.29-1.85,132-3.49,143.15,8.6 c5.69,6.18,9.45,15.02,11.49,23.07c2.51,9.89,5.74,19.97,7.36,30.05c0.51,3.16,0.46,6.31-1.03,9.2c-1.81,3.51-5.62,6.02-6.64,9.92 c-1.76,6.72,7.15,11.23,10.66,15.66c3.46,4.36,3.31,8.98,0.36,13.59c-2.67,4.16-6.62,7.38-5.41,12.78 C160.91,127.22,164.66,130.06,166.26,134.15z M113.86,79.24c0.19-0.07,0.4-0.07,0.61-0.03c0.02,0,0.04,0,0.06,0 c17.74-1.85,20.57-23.35,19.76-37.82c-3.35-0.58-6.26-1.8-8.41-3.76c-2.66,2.47-7.19,2.6-10.58,2.19c-2.31-0.28-4.31-1.16-5.97-2.49 c-3.56,2.34-8.94,1.86-11.99-1.19c-0.45-0.45-0.82-0.92-1.16-1.41c-2.29,4.95-5.82,9.09-10.39,12.17c0.77,6.05,2.17,11.97,5,17.43 C95.27,72.95,103.75,79.96,113.86,79.24z M82.76,60.17c0.93,2.46,3.37,4.07,5.88,4.9c-2.03-4-3.34-8.27-4.22-12.65 C82.6,54.54,81.72,57.41,82.76,60.17z M136.22,53.3c3.66-1.09,7.06-3.29,8.89-6.75c1.6-3.03,2.04-7.27-0.46-10.01 c-2.91-3.2-8.5-1.98-8.21,2.77c0,0.06-0.02,0.11-0.02,0.16C136.75,43.64,136.76,48.45,136.22,53.3z M115.45,82.6 c7.24,1.92,15.26,1.09,21.88-2.45c-1.18-5.85-2.15-11.74-2.88-17.67c-2.74,9.5-8.41,17.52-18.95,18.89 C115.5,81.79,115.48,82.2,115.45,82.6z M94.01,110.75c5.48,9.44,15.43,1.59,19.77-4.53c3.23-4.56,6.26-8.26,11.01-11.33 c0.05-0.03,0.09-0.05,0.13-0.07c0.37-0.25,0.76-0.49,1.16-0.71c4.16-2.27,9.03-1.92,12.72,1.09c0.99,0.81,1.85,1.75,2.62,2.78 c-1.03-5.22-2.22-10.42-3.57-15.56c-6.93,3.52-15.21,4.36-22.73,2.42c-0.44,2-1.24,3.91-2.42,5.65c0,0.01-0.01,0.01-0.01,0.02 c-0.04,0.07-0.1,0.14-0.16,0.21c-3.97,4.16-7.71,8.51-11.53,12.81C98.84,105.96,96.3,108.28,94.01,110.75z M82.3,146.19 c0.5,0.17,0.99,0.34,1.47,0.51c10.72,3.53,22.29,1.22,33.03,4.48c-0.01-0.1-0.01-0.19,0.01-0.28c-2.9-13.96-3.09-28.56,0.13-42.43 c0.33-1.43,0.74-2.88,1.25-4.28c-1.33,1.68-2.6,3.45-3.98,5.27c-2.16,2.84-4.7,5.44-8,6.9c-4.99,2.21-10.71,0.56-13.74-3.86 c-0.9,1.07-1.72,2.17-2.43,3.32c-4.01,6.52-3.25,15.5,1.25,21.43c0.87,1.16-1.08,2.28-1.94,1.14c-0.63-0.84-1.18-1.71-1.66-2.61 C86.22,139.48,84.52,142.83,82.3,146.19z M43.88,159.59c3.59-2.25,7.33-4.24,10.92-6.48c-0.24-0.45-0.5-0.9-0.77-1.33 c-3.49,2.03-7.13,3.82-10.61,5.87C43.55,158.3,43.69,158.95,43.88,159.59z M46.19,163.93c3.49-2.13,6.99-4.25,10.48-6.38 c-0.26-0.82-0.55-1.63-0.89-2.42c-3.65,2.27-7.45,4.29-11.09,6.59C45.08,162.53,45.57,163.28,46.19,163.93z M71.72,158.93 c0.94-0.32,1.5,0.59,1.34,1.34c1.61,0.32,3.15,0.81,4.66,1.61c0.18-0.31,0.33-0.57,0.44-0.75c2.15-3.53,4.48-8.22,4.26-12.54 c-12-4.15-33.42-8.3-39.47,6.42c0.01,0.09,0.03,0.18,0.04,0.28c3.2-1.84,6.5-3.51,9.7-5.35c-0.3-0.37-0.6-0.74-0.93-1.08 c-1-1.05,0.59-2.64,1.59-1.59c3.58,3.77,5.74,9.05,6.55,14.12c0.23,1.42-1.94,2.02-2.17,0.6c-0.12-0.73-0.27-1.46-0.44-2.19 c-3.05,1.86-6.11,3.72-9.16,5.57c2.79,1.31,5.97,0.1,8.9-0.94C61.96,162.68,66.76,160.61,71.72,158.93z M111.37,399.9 c-4.41,0.24-8.91,0.01-13.32-0.18c-4.46-0.19-9.45-0.03-13.81-1.05c-0.23-0.05-0.45-0.11-0.68-0.17c3.56,8.6,5.15,18.66-1.91,25.85 c-4.48,4.56-10.54,7.24-15.66,10.97c-7.39,5.39-10.02,12.01-9.9,20.85c21.29,12.18,45.61-4.55,58.98-20.91 c0.29-12.21,0.96-24.41,1.37-36.62C114.97,399.6,113.17,399.8,111.37,399.9z M117.57,328.82c-0.62,14.38-1.33,28.77-1.83,43.15 c0.58,7.7,6.68,31.11,18.28,25.27c0.53-15.12,2.15-30.19,3.08-45.29c0.35-5.74,0.98-11.75,0.37-17.5c-0.32-3.01-0.24-2.55-3.36-3.04 C128.59,330.54,123.08,329.68,117.57,328.82z M133.93,190.75c-3.38-0.03-6.92-1.1-10.16-3.13c-0.02-0.01-0.03-0.02-0.04-0.03 c-6.39,1.51-13.14,1.42-20.03-0.51c-11.72-3.28-22.24-10.61-30.57-19.36c-0.13-0.06-0.25-0.13-0.37-0.21 c-3.25,5.42-6.56,10.81-9.86,16.19c-17.6,28.67-35.62,57.1-52.85,86c13.27,16.46,33.53,26.84,53.32,33.19 c19.82,6.36,42.36,9.76,62.75,4.05C128.22,268.18,131.84,229.51,133.93,190.75z M148.51,145.35c-0.02-0.11-0.02-0.23-0.01-0.34 c-0.38-11.56-1.78-23.11-4.35-34.33c-0.2-0.89-0.44-1.84-0.71-2.81c-0.17-0.13-0.3-0.32-0.35-0.6c-0.07-0.44-0.16-0.89-0.23-1.33 c-1.59-4.85-4.27-9.78-9.28-10.91c-2.89-0.65-5.26-0.09-7.2,1.22c-0.07,0.22-0.22,0.43-0.46,0.59c-0.48,0.31-0.92,0.64-1.36,0.97 c-3.71,3.9-5.47,10.73-6.26,15.39c-2.15,12.64-1.77,25.5,0.88,37.95c1.92,4.64,7.15,7.91,12.13,7.72c1.45-0.06,1.44,2.19,0,2.25 c-3.94,0.15-7.86-1.52-10.74-4.24c0.55,2.04,1.17,4.06,1.84,6.07c0.46,1.38-1.71,1.96-2.17,0.6c-1.08-3.21-2.01-6.49-2.79-9.8 c-10.58-3.66-22.04-1.45-32.75-4.43c0.03,5.51-3.34,11.85-6.59,15.85c-0.56,0.68-1.33,1.58-2.22,2.17 c7.26,7.32,16.05,13.47,25.85,16.78c14.12,4.79,27.98,1.72,39.19-8.02c1.09-0.95,2.69,0.64,1.59,1.59 c-4.79,4.17-10.08,7.23-15.69,9.05c5.74,2.84,12.38,2.92,16.8-2.61c4.81-6.01,4.44-15.91,4.78-23.19 C148.63,155.77,148.67,150.56,148.51,145.35z M110.65,63.7c0.73-1.25-1.21-2.39-1.94-1.14c-0.37,0.64-1.37,0.95-1.98,0.43 c-0.62-0.53-0.46-1.53,0.09-2.03c1.07-0.98-0.52-2.56-1.59-1.59c-1.54,1.4-1.52,4.08,0.13,5.39C107.03,66.09,109.6,65.5,110.65,63.7 z M116.05,70.03c0.85-1.18-1.11-2.3-1.94-1.14c-1.95,2.72-5.39,2.98-7.98,1.02c-1.16-0.87-2.28,1.08-1.14,1.94 C108.64,74.61,113.45,73.66,116.05,70.03z M124.88,48.76c0.18,3.29-3.59,4.74-5.71,2.26c-0.94-1.1-2.53,0.49-1.59,1.59 c3.39,3.97,9.84,1.34,9.55-3.85C127.05,47.32,124.8,47.31,124.88,48.76z M98.07,56.27c-1.02,1.88-3.51,2.23-4.81,0.39 c-0.83-1.18-2.78-0.05-1.94,1.14c2.21,3.15,6.81,3.08,8.7-0.39C100.7,56.13,98.76,54.99,98.07,56.27z M96.84,46.79 c-2.97-0.04-5.71,1.02-7.92,3.01c-1.08,0.97,0.52,2.56,1.59,1.59c1.77-1.59,3.95-2.38,6.33-2.35 C98.28,49.06,98.28,46.81,96.84,46.79z"
      style="fill: rgb(27, 24, 23);" />
  </g>
</svg>