<svg xmlns="http://www.w3.org/2000/svg" xmlns:xlink="http://www.w3.org/1999/xlink" preserveAspectRatio="xMidYMid meet" version="1.0" viewBox="-5.2 -2.2 133.2 486.5" zoomAndPan="magnify" style="fill: rgb(0, 0, 0);" original_string_length="43031"><g id="__id29_s2pplbyhko"><path d="M127.26,342.15c-0.07-1.09-0.17-2.2-0.32-3.32c-0.58-5.96-1.62-12.55-6.05-16.97 c-3.86-3.85-9.83-4.5-15.03-5.02c-0.13-0.65-0.26-1.31-0.4-1.96c1.94-0.59,3.84-1.25,5.73-1.97c0.17-0.07,0.28-0.18,0.36-0.3 c0.01-0.02,0.03-0.04,0.04-0.06c0.02-0.03,0.03-0.06,0.05-0.1c0.06-0.13,0.1-0.28,0.07-0.45c-0.24-1.42-0.48-2.84-0.73-4.26 c5.02-1.97,9.88-4.25,14.55-6.95c0.03-0.02,0.04-0.04,0.06-0.05c0.05-0.03,0.1-0.08,0.14-0.13c0.02-0.02,0.04-0.05,0.05-0.07 c0.03-0.05,0.05-0.1,0.07-0.16c0.01-0.04,0.02-0.08,0.02-0.11c0-0.04,0.02-0.07,0.02-0.11c-0.64-30.15-10.77-58.96-20.81-87.06 c-0.67-3.88-1.53-7.72-2.22-11.6c3.32-1.47,5.98-3.84,6.35-7.32c0.11,0,0.22-0.02,0.33-0.08c3.05-1.47,5.07-4.07,5.79-7.06 c5.31-4.16,6.75-10.75,5.78-17.26c-1.45-9.72-5.86-19.12-8.28-28.66c-5.37-21.17-7.65-42.98-7.04-64.79 c1.99-3.21,3.41-6.76,4.42-10.49c1.95,7.54,2.02,14.71-0.73,22.3c-0.13,0.36,0.02,0.63,0.27,0.78c0.21,0.18,0.51,0.25,0.81,0.06 c7.9-4.9,7.42-14.38,6.34-22.53c-1.08-8.12-3.18-16.02-4.36-24.12c0.07-0.06,0.13-0.13,0.18-0.23c3.8-7.27,5.4-14.9,1.26-22.35 c-4.55-8.19-11.03-11.95-19.36-15.86c-0.17-0.08-0.34-0.08-0.49-0.05C80.67-2.16,65.81-1.02,53.18,6.5 c-11.13,6.63-17.06,16.88-17.3,29.85c-2.14,27.64-6.3,54.46-18.35,79.68C7.2,137.64-5.15,159.37,2.25,183.96 c0.02,0.08,0.06,0.15,0.11,0.21c0.11,0.17,0.27,0.27,0.45,0.31c0.03,0.01,0.06,0.02,0.09,0.02c0.01,0,0.02,0,0.03,0 c0.19,0.02,0.38-0.03,0.53-0.17c0.08-0.06,0.14-0.13,0.18-0.22c1.31-2.18,1.96-4.68,2.94-7.03c1.44,12.48,11.33,22.33,24.46,23.53 c0.02,0.76,0.19,1.49,0.62,2.16c1.78,2.76,6.76,2.74,10.06,3.22c0.33,3.49,0.03,7.03-0.15,10.52c-0.09,0.14-0.14,0.31-0.13,0.47 c-16.13,26.11-26.79,55.2-31.31,85.56c0,0.03,0.01,0.05,0,0.08c-0.06,0.28,0.02,0.58,0.34,0.76c4.83,2.79,9.88,5.01,15.14,6.83 c-0.24,1.35-0.5,2.7-0.73,4.06c-0.03,0.15,0,0.28,0.04,0.4c0.06,0.22,0.2,0.42,0.47,0.52c4.3,1.46,8.76,2.39,13.26,3.07 c-8.5,1.28-16.12,5.17-15.77,15.48c0.1,13.57-0.73,27.51,0.44,41.03c0.78,9,5.97,13.77,14.91,14.35c1.54,0.1,3.09,0.17,4.65,0.21 c-1.39,15.54-3.07,31.05-5.04,46.52c-1.95,15.34-4.95,30.69-5.55,46.17c-0.01,0.29,0.13,0.48,0.32,0.6 c0.11,0.08,0.25,0.15,0.43,0.14c12.77-0.1,25.52,0.58,38.28,0.94c5.99,0.17,12.25,0.68,18.22,0.11c2.76-0.26,5.28-1.31,6.61-3.88 c0.08-0.16,0.15-0.32,0.22-0.47c5.42-0.05,12.22,1.04,17.45-0.5c2.13-0.62,4.41-2.14,5.33-4.24c1.47-3.34-1.28-6-3.87-7.73 c-8.57-5.74-19.75-7.64-29.68-9.96c5.16-22.92,9.52-46.03,13.08-69.25c3.1-0.08,6.21-0.16,9.31-0.24c0.21,0.09,0.45,0.08,0.65-0.02 c2.43-0.06,4.87-0.13,7.3-0.19c6.79,0.53,10.16-5.37,10.47-11.47C127,364.76,128.02,353.25,127.26,342.15z M54.93,457.1 c4.16-9.23,8.13-18.55,11.92-27.95c-0.84,10.54-1.83,21.06-2.63,31.6C61.02,459.8,57.9,458.65,54.93,457.1z" style="fill: rgb(255, 255, 255);"/></g><g id="__id30_s2pplbyhko"><path d="M125.78,342.15c0.5,7.3-0.09,14.69-0.43,21.98c-0.33,7.09,1.72,22.58-9.39,21.72 c-2.32,0.06-4.63,0.12-6.95,0.18c-0.64-20.29-1.27-40.58-1.91-60.87c4.42-0.04,9.39,0.14,13.06,2.83c3.5,2.56,4.77,6.86,5.31,11.04 c0,0.02,0,0.04,0.01,0.06c0,0.01,0,0.01,0,0.01C125.62,340.13,125.71,341.16,125.78,342.15z M45.56,325.31 c-0.12,0.11-0.27,0.19-0.48,0.19c-7.64-0.06-19.32-2.12-20.7,8.24c0.09,12.25,0.09,24.5,0.28,36.74c0.1,6.35,0.71,13.19,7.44,15.9 c4.65,1.87,10.07,1.41,15.05,1.23C46.59,366.84,46.12,346.07,45.56,325.31z M45.08,324.01c0.19,0,0.33,0.07,0.45,0.17 c-0.08-1.66-0.09-3.32-0.03-4.99c-7.93,0.14-17.1,1.61-20.12,8.58C29.66,322.93,38.29,323.96,45.08,324.01z M95.15,324.86 c1.26,20.3,1.14,40.66,2.36,60.96c-0.03,0.17-0.05,0.33-0.08,0.5c-12.97,0.33-25.94,0.66-38.91,0.99 c-0.29-20.61-0.42-41.22-0.71-61.83C70.26,325.17,82.7,324.72,95.15,324.86z M91.51,369.57c-0.33-9.99-0.7-19.97-0.95-29.96 c0-0.15-0.05-0.27-0.12-0.37c-0.11-0.21-0.31-0.38-0.62-0.37c-8.75,0.21-17.49,0.42-26.24,0.63c-0.03,0-0.05,0.02-0.08,0.02 c-0.4-0.04-0.82,0.18-0.81,0.7c0.32,9.89,0.54,19.79,0.86,29.68c0,0.03,0.01,0.05,0.02,0.08c-0.01,0.3,0.14,0.58,0.53,0.64 c8.99,1.4,17.91,1.29,26.87-0.33c0.27-0.05,0.42-0.21,0.49-0.39c0.01-0.01,0.01-0.03,0.01-0.04c0.02-0.06,0.03-0.12,0.03-0.19 C91.5,369.63,91.51,369.61,91.51,369.57z M57.75,324c12.4-0.31,24.79-0.76,37.19-0.62c-0.3-1.74-0.65-3.45-1.06-5.13 c-12.11,0.1-24.21,0.63-36.32,1C57.57,320.82,57.64,322.4,57.75,324z M121.98,327.55c0.66,0.6,1.24,1.25,1.74,1.96 c-0.82-2.44-2.03-4.72-3.87-6.6c-3.4-3.47-9.01-4.09-13.69-4.56c0.32,1.77,0.59,3.55,0.82,5.33 C112.13,323.64,117.97,323.96,121.98,327.55z" style="fill: rgb(124, 64, 66);"/></g><g id="__id31_s2pplbyhko"><path d="M90.44,339.23c-0.11-0.21-0.31-0.38-0.62-0.37c-8.75,0.21-17.49,0.42-26.24,0.63 c-0.03,0-0.05,0.02-0.08,0.02c-0.4-0.04-0.82,0.18-0.81,0.7c0.32,9.89,0.54,19.79,0.86,29.68c0,0.03,0.01,0.05,0.02,0.08 c-0.01,0.3,0.14,0.58,0.53,0.64c8.99,1.4,17.91,1.29,26.87-0.33c0.27-0.05,0.42-0.21,0.49-0.39c0.01-0.01,0.01-0.03,0.01-0.04 c0.02-0.06,0.03-0.12,0.03-0.19c0-0.03,0.02-0.06,0.02-0.09c-0.33-9.99-0.7-19.97-0.95-29.96 C90.55,339.46,90.51,339.34,90.44,339.23z M65.02,369.25c-0.3-9.43-0.52-18.86-0.82-28.29c8.3-0.2,16.6-0.4,24.9-0.6 c0.25,9.53,0.59,19.05,0.91,28.58C81.68,370.39,73.38,370.5,65.02,369.25z M82.18,282.13c-3.62-1.03-7.23-2.08-10.81-3.25 c-0.9-0.3-0.51-1.73,0.39-1.43c3.58,1.17,7.19,2.22,10.81,3.25C83.49,280.96,83.1,282.39,82.18,282.13z M70.68,52.15 c-1.65-2.15,0.11-4.71,1.8-6.16c4.71-4.53,11.36-0.46,12.71,5.06c0.23,0.93-1.2,1.32-1.43,0.39c-0.91-3.72-4.83-7.02-8.39-5.6 c1.38,0.59,2.56,1.58,2.48,3.26c-0.06,1.25-0.85,2.68-1.79,3.49C74.52,53.91,71.96,53.8,70.68,52.15z M98.66,56.4 c-1.27-1.71,0.04-3.7,1.38-4.86c3.64-3.51,8.82-0.41,9.87,3.89c0.23,0.93-1.2,1.32-1.43,0.39c-0.62-2.55-3.2-4.88-5.67-4.24 c0.92,0.49,1.63,1.26,1.57,2.43c-0.05,0.99-0.66,2.11-1.4,2.76C101.75,57.84,99.67,57.76,98.66,56.4z M91.96,65.52 c0.96,0.03,1.29-1.03,1.12-1.82c-0.17-0.78-0.67-1.48-1.11-2.13c-0.54-0.79,0.75-1.53,1.28-0.75c0.79,1.17,1.66,2.58,1.29,4.06 c-0.3,1.21-1.29,2.16-2.58,2.12C91,66.97,91,65.49,91.96,65.52z M84.99,73.22c2.92,2.75,7.25,2.97,10.49,0.66 c0.78-0.56,1.52,0.73,0.75,1.28c-3.78,2.7-8.93,2.28-12.29-0.89C83.24,73.61,84.29,72.57,84.99,73.22z M36.51,265.65 c0.01-0.02,0.01-0.05,0.02-0.07c-0.39,1.61-0.79,3.22-1.17,4.83C35.73,268.83,36.12,267.24,36.51,265.65z M60.73,297.07 c-0.13,0.51-0.27,1.01-0.39,1.52c0.1-0.38,0.19-0.77,0.29-1.15C60.66,297.31,60.7,297.19,60.73,297.07z M80.58,218.98 c0.23,1.55,0.46,3.09,0.68,4.64c-0.16-1.13-0.33-2.26-0.5-3.4C80.7,219.81,80.64,219.4,80.58,218.98z M110.68,233.55 c-0.37-1.11-0.74-2.21-1.12-3.32c-0.22-0.65-0.44-1.29-0.67-1.94c0.82,2.39,1.64,4.78,2.43,7.18 C111.12,234.84,110.9,234.2,110.68,233.55z M38.15,259.05c0.09-0.37,0.2-0.74,0.29-1.11c-0.29,1.12-0.57,2.25-0.85,3.37 C37.78,260.56,37.96,259.8,38.15,259.05z M64.02,317.56c2.7-0.09,5.39-0.18,8.09-0.27c0,0-0.01,0-0.01,0 C69.4,317.38,66.71,317.47,64.02,317.56z M96.98,234.38c0.05,0.28,0.1,0.56,0.14,0.84c-0.25-1.45-0.5-2.91-0.74-4.36 C96.58,232.03,96.78,233.2,96.98,234.38z M98.72,244.55c0.02,0.1,0.03,0.2,0.05,0.3c-0.17-1.02-0.35-2.04-0.52-3.06 c0.01,0.08,0.03,0.15,0.04,0.23C98.43,242.86,98.57,243.7,98.72,244.55z M104.67,216.3c-0.27-0.75-0.53-1.5-0.8-2.24 c1.2,3.36,2.4,6.73,3.59,10.11C106.54,221.53,105.61,218.91,104.67,216.3z M113.29,241.53c-0.24-0.77-0.49-1.54-0.74-2.31 c0.04,0.12,0.08,0.24,0.12,0.36C112.88,240.23,113.08,240.88,113.29,241.53z M124.2,294.85c-0.07-1.19-0.17-2.37-0.26-3.56 c0.02,0.2,0.04,0.39,0.05,0.59c0.05,0.65,0.12,1.31,0.16,1.96C124.16,294.18,124.18,294.52,124.2,294.85z M84.41,248.89 c0.15,1.36,0.28,2.71,0.42,4.07c-0.1-0.93-0.19-1.86-0.29-2.78C84.5,249.75,84.46,249.32,84.41,248.89z M112.87,305.36 c1.07-0.45,2.14-0.92,3.2-1.4c-0.09,0.04-0.17,0.09-0.26,0.13c-0.74,0.34-1.48,0.67-2.23,0.99 C113.34,305.17,113.1,305.27,112.87,305.36z M123.36,285.43c0.15,1.27,0.28,2.54,0.4,3.82C123.63,287.98,123.51,286.7,123.36,285.43 z M108.69,294.23c-0.07-0.4-0.14-0.81-0.21-1.21c-0.29-1.7-0.58-3.41-0.87-5.11C107.97,290.02,108.33,292.12,108.69,294.23z M127.26,342.15c-0.07-1.09-0.17-2.2-0.32-3.32c-0.58-5.96-1.62-12.55-6.05-16.97c-3.86-3.85-9.83-4.5-15.03-5.02 c-0.13-0.65-0.26-1.31-0.4-1.96c1.94-0.59,3.84-1.25,5.73-1.97c0.17-0.07,0.28-0.18,0.36-0.3c0.01-0.02,0.03-0.04,0.04-0.06 c0.02-0.03,0.03-0.06,0.05-0.1c0.06-0.13,0.1-0.28,0.07-0.45c-0.24-1.42-0.48-2.84-0.73-4.26c5.02-1.97,9.88-4.25,14.55-6.95 c0.03-0.02,0.04-0.04,0.06-0.05c0.05-0.03,0.1-0.08,0.14-0.13c0.02-0.02,0.04-0.05,0.05-0.07c0.03-0.05,0.05-0.1,0.07-0.16 c0.01-0.04,0.02-0.08,0.02-0.11c0-0.04,0.02-0.07,0.02-0.11c-0.64-30.15-10.77-58.96-20.81-87.06c-0.67-3.88-1.53-7.72-2.22-11.6 c3.32-1.47,5.98-3.84,6.35-7.32c0.11,0,0.22-0.02,0.33-0.08c3.05-1.47,5.07-4.07,5.79-7.06c5.31-4.16,6.75-10.75,5.78-17.26 c-1.45-9.72-5.86-19.12-8.28-28.66c-5.37-21.17-7.65-42.98-7.04-64.79c1.99-3.21,3.41-6.76,4.42-10.49 c1.95,7.54,2.02,14.71-0.73,22.3c-0.13,0.36,0.02,0.63,0.27,0.78c0.21,0.18,0.51,0.25,0.81,0.06c7.9-4.9,7.42-14.38,6.34-22.53 c-1.08-8.12-3.18-16.02-4.36-24.12c0.07-0.06,0.13-0.13,0.18-0.23c3.8-7.27,5.4-14.9,1.26-22.35c-4.55-8.19-11.03-11.95-19.36-15.86 c-0.17-0.08-0.34-0.08-0.49-0.05C80.67-2.16,65.81-1.02,53.18,6.5c-11.13,6.63-17.06,16.88-17.3,29.85 c-2.14,27.64-6.3,54.46-18.35,79.68C7.2,137.64-5.15,159.37,2.25,183.96c0.02,0.08,0.06,0.15,0.11,0.21 c0.11,0.17,0.27,0.27,0.45,0.31c0.03,0.01,0.06,0.02,0.09,0.02c0.01,0,0.02,0,0.03,0c0.19,0.02,0.38-0.03,0.53-0.17 c0.08-0.06,0.14-0.13,0.18-0.22c1.31-2.18,1.96-4.68,2.94-7.03c1.44,12.48,11.33,22.33,24.46,23.53c0.02,0.76,0.19,1.49,0.62,2.16 c1.78,2.76,6.76,2.74,10.06,3.22c0.33,3.49,0.03,7.03-0.15,10.52c-0.09,0.14-0.14,0.31-0.13,0.47 c-16.13,26.11-26.79,55.2-31.31,85.56c0,0.03,0.01,0.05,0,0.08c-0.06,0.28,0.02,0.58,0.34,0.76c4.83,2.79,9.88,5.01,15.14,6.83 c-0.24,1.35-0.5,2.7-0.73,4.06c-0.03,0.15,0,0.28,0.04,0.4c0.06,0.22,0.2,0.42,0.47,0.52c4.3,1.46,8.76,2.39,13.26,3.07 c-8.5,1.28-16.12,5.17-15.77,15.48c0.1,13.57-0.73,27.51,0.44,41.03c0.78,9,5.97,13.77,14.91,14.35c1.54,0.1,3.09,0.17,4.65,0.21 c-1.39,15.54-3.07,31.05-5.04,46.52c-1.95,15.34-4.95,30.69-5.55,46.17c-0.01,0.29,0.13,0.48,0.32,0.6 c0.11,0.08,0.25,0.15,0.43,0.14c12.77-0.1,25.52,0.58,38.28,0.94c5.99,0.17,12.25,0.68,18.22,0.11c2.76-0.26,5.28-1.31,6.61-3.88 c0.08-0.16,0.15-0.32,0.22-0.47c5.42-0.05,12.22,1.04,17.45-0.5c2.13-0.62,4.41-2.14,5.33-4.24c1.47-3.34-1.28-6-3.87-7.73 c-8.57-5.74-19.75-7.64-29.68-9.96c5.16-22.92,9.52-46.03,13.08-69.25c3.1-0.08,6.21-0.16,9.31-0.24c0.21,0.09,0.45,0.08,0.65-0.02 c2.43-0.06,4.87-0.13,7.3-0.19c6.79,0.53,10.16-5.37,10.47-11.47C127,364.76,128.02,353.25,127.26,342.15z M119.85,322.91 c1.84,1.88,3.05,4.16,3.87,6.6c-0.51-0.7-1.08-1.36-1.74-1.96c-4.01-3.59-9.85-3.91-14.99-3.87c-0.24-1.78-0.51-3.56-0.82-5.33 C110.84,318.82,116.45,319.44,119.85,322.91z M105.49,284.27c0.28,1.66,0.56,3.31,0.85,4.97c-0.19-1.08-0.37-2.17-0.55-3.25 C105.69,285.41,105.59,284.84,105.49,284.27z M105.08,273.1c0.2,1.15,0.39,2.3,0.59,3.45c0.11,0.65,0.22,1.31,0.33,1.96 c0.07,0.41,0.14,0.82,0.21,1.23C105.84,277.53,105.46,275.32,105.08,273.1z M106.19,313.09c1.34-0.43,2.67-0.89,3.98-1.38 c-0.07-0.43-0.15-0.85-0.22-1.28c0.01,0.04,0.01,0.08,0.02,0.13c0.07,0.38,0.13,0.77,0.2,1.15 C108.85,312.2,107.53,312.66,106.19,313.09z M108.71,303.16c-0.05-0.32-0.11-0.64-0.16-0.96c-0.41-2.37-0.81-4.75-1.22-7.12 c-0.06-0.34-0.12-0.68-0.17-1.03C107.68,297.09,108.2,300.13,108.71,303.16z M107.61,287.91c0.36,2.11,0.72,4.22,1.08,6.33 c-0.07-0.4-0.14-0.81-0.21-1.21C108.19,291.32,107.9,289.61,107.61,287.91z M115.8,304.09c-0.74,0.34-1.48,0.67-2.23,0.99 c-0.23,0.1-0.47,0.19-0.7,0.29c1.07-0.45,2.14-0.92,3.2-1.4c1.34-0.61,2.66-1.24,3.98-1.9c-1.31,0.67-2.64,1.29-3.98,1.9 C115.98,304,115.89,304.05,115.8,304.09z M120.24,301.96c0.63-0.32,1.26-0.65,1.88-0.99c0.77-0.41,1.53-0.82,2.29-1.25 C123.04,300.5,121.64,301.24,120.24,301.96z M123.99,291.88c0.05,0.65,0.12,1.31,0.16,1.96c0.02,0.33,0.04,0.67,0.06,1 c-0.07-1.19-0.17-2.37-0.26-3.56c-0.06-0.68-0.11-1.36-0.18-2.04c-0.12-1.27-0.25-2.55-0.4-3.82c0.15,1.27,0.28,2.54,0.4,3.82 c0.07,0.68,0.12,1.36,0.18,2.04C123.95,291.49,123.97,291.69,123.99,291.88z M122.31,277.85c0.06,0.4,0.11,0.79,0.17,1.19 c0.23,1.47,0.45,2.94,0.65,4.42c-0.19-1.48-0.42-2.95-0.65-4.42c-0.17-1.05-0.34-2.1-0.52-3.14 C122.08,276.56,122.2,277.2,122.31,277.85z M120.34,267.54c0.06,0.29,0.12,0.57,0.18,0.86c0.53,2.49,1.01,4.99,1.45,7.49 c-0.37-2.14-0.78-4.27-1.22-6.39c-0.08-0.37-0.15-0.73-0.23-1.1c-0.11-0.54-0.23-1.07-0.35-1.61c-0.35-1.61-0.72-3.21-1.1-4.81 c0.39,1.6,0.75,3.2,1.1,4.81C120.22,267.04,120.29,267.29,120.34,267.54z M118.58,260.03c0.16,0.65,0.33,1.3,0.49,1.95 c-0.19-0.79-0.39-1.57-0.59-2.36C118.51,259.76,118.54,259.89,118.58,260.03z M114.88,246.68c0.09,0.29,0.17,0.58,0.25,0.87 c0.35,1.17,0.69,2.33,1.02,3.5c0.14,0.5,0.29,1,0.43,1.5c0.45,1.59,0.89,3.19,1.31,4.79c-0.42-1.6-0.86-3.19-1.31-4.79 c-0.14-0.5-0.28-1-0.43-1.5c-0.33-1.17-0.68-2.34-1.02-3.5c-0.14-0.47-0.28-0.93-0.42-1.4c-0.47-1.54-0.94-3.08-1.43-4.62 c0.49,1.54,0.96,3.08,1.43,4.62C114.77,246.33,114.82,246.51,114.88,246.68z M112.67,239.58c0.21,0.65,0.41,1.3,0.62,1.95 c-0.24-0.77-0.49-1.54-0.74-2.31C112.59,239.34,112.63,239.46,112.67,239.58z M109.56,230.24c0.38,1.1,0.75,2.21,1.12,3.32 c0.22,0.64,0.43,1.28,0.65,1.93c-0.8-2.4-1.61-4.79-2.43-7.18C109.12,228.94,109.34,229.59,109.56,230.24z M108.87,228.24 c-0.47-1.36-0.94-2.72-1.41-4.07C107.94,225.52,108.41,226.88,108.87,228.24z M103.87,214.05c0.27,0.75,0.53,1.5,0.8,2.24 c0.93,2.61,1.86,5.23,2.79,7.86C106.27,220.78,105.07,217.41,103.87,214.05c-1.87,0.08-3.74,0.16-5.61,0.23 c-0.66,0.03-1.31,0.05-1.97,0.08c-0.41,0.02-0.82,0.03-1.22,0.05c0.18,1.06,0.36,2.12,0.54,3.19c0.11,0.65,0.22,1.31,0.33,1.96 c0.03,0.18,0.06,0.37,0.09,0.55c-0.32-1.9-0.65-3.8-0.97-5.7C98.01,214.3,100.94,214.17,103.87,214.05z M104.51,310.96 c0,0.02,0.01,0.04,0.02,0.06C104.52,311,104.52,310.98,104.51,310.96z M103.07,270.1c-0.11-0.65-0.22-1.31-0.34-1.96 c-0.1-0.58-0.2-1.15-0.29-1.73c-1.23-7.19-2.45-14.37-3.68-21.56c-0.17-1.02-0.35-2.04-0.52-3.06c-0.1-0.58-0.2-1.16-0.3-1.74 c-0.21-1.24-0.42-2.48-0.63-3.72c-0.06-0.37-0.13-0.74-0.19-1.11c-0.25-1.45-0.5-2.91-0.74-4.36c0-0.01,0-0.02-0.01-0.03 c-0.07-0.39-0.13-0.79-0.2-1.18c0.07,0.41,0.14,0.81,0.21,1.22c0.2,1.17,0.4,2.34,0.6,3.51c0.05,0.28,0.1,0.56,0.14,0.84 c0.37,2.19,0.75,4.38,1.12,6.57c0.01,0.08,0.03,0.15,0.04,0.23c0.14,0.84,0.29,1.69,0.43,2.53c0.02,0.1,0.03,0.2,0.05,0.3 c1.6,9.4,3.21,18.81,4.81,28.21C103.41,272.07,103.24,271.08,103.07,270.1z M103.17,306.42 C103.17,306.42,103.17,306.42,103.17,306.42C103.17,306.42,103.17,306.42,103.17,306.42z M102.43,304.26 C102.43,304.26,102.42,304.26,102.43,304.26C102.42,304.26,102.42,304.26,102.43,304.26C102.43,304.26,102.43,304.26,102.43,304.26z M101.68,302.29C101.68,302.29,101.68,302.29,101.68,302.29C101.68,302.29,101.68,302.29,101.68,302.29 C101.68,302.29,101.68,302.29,101.68,302.29z M100.8,300.17C100.8,300.18,100.8,300.18,100.8,300.17 C100.8,300.18,100.8,300.18,100.8,300.17z M98.67,295.78c-0.04-0.07-0.07-0.13-0.11-0.2C98.59,295.65,98.63,295.71,98.67,295.78z M97.26,293.29C97.26,293.29,97.26,293.29,97.26,293.29C97.26,293.29,97.26,293.29,97.26,293.29 C97.26,293.29,97.26,293.29,97.26,293.29z M96.12,291.49c0.02,0.03,0.04,0.06,0.05,0.09C96.16,291.55,96.14,291.52,96.12,291.49z M96.68,223.86c0.05,0.29,0.1,0.59,0.15,0.88c0.07,0.43,0.15,0.87,0.22,1.3C96.93,225.32,96.81,224.59,96.68,223.86z M101.59,252.61 c0.1,0.59,0.2,1.19,0.3,1.78c0.02,0.15,0.05,0.29,0.07,0.44C101.84,254.09,101.71,253.35,101.59,252.61z M102.54,258.21 c0.14,0.84,0.29,1.67,0.43,2.51c0.11,0.65,0.22,1.31,0.33,1.96c0.31,1.8,0.61,3.6,0.92,5.4c0.03,0.15,0.05,0.3,0.08,0.45 C103.72,265.09,103.13,261.65,102.54,258.21z M94.47,219.63c-0.11-0.65-0.22-1.31-0.33-1.96c-0.18-1.06-0.36-2.13-0.54-3.19 c-0.7,0.03-1.4,0.06-2.1,0.09c-0.18,0.01-0.37,0.02-0.55,0.02c-0.71,0.03-1.42,0.06-2.13,0.09c0.24-0.01,0.48-0.02,0.72-0.03 c0.47-0.02,0.94-0.04,1.41-0.06c0.88-0.04,1.77-0.07,2.65-0.11c0.54,3.18,1.09,6.37,1.63,9.55c-0.07-0.39-0.13-0.77-0.2-1.16 C94.83,221.79,94.65,220.71,94.47,219.63z M94.94,289.77c0,0-0.01-0.01-0.01-0.01C94.93,289.76,94.94,289.76,94.94,289.77z M89.59,283.48C89.6,283.48,89.6,283.48,89.59,283.48c-0.26-0.26-0.52-0.53-0.79-0.79C89.07,282.94,89.33,283.21,89.59,283.48z M88.24,274.34c0.21,2.74,0.4,5.48,0.58,8.23C88.64,279.82,88.45,277.08,88.24,274.34z M107.58,191.96c0.56,5.86-3.93,8.19-8.8,9.34 c-7.18,0.85-14.39,1.41-21.58,2.22c1.16-1.57,1.35-3.14-0.77-4.25c-0.41-0.22-0.87-0.33-1.35-0.36c3.52-3.87,4.28-8.71,4.97-14.03 c1.17-9.11-0.12-18.53-0.71-27.65c-0.61-9.43-1.21-18.86-1.82-28.28c-0.32-4.91-0.57-9.96-1.62-14.8c0.71,0.18,1.43,0.37,2.14,0.55 c0,0,0,0,0,0c-0.64,9.69,8.43,14.34,14.82,19.74c12.18,10.28,5.29,23.78-2.83,34.02c-0.59,0.74,0.45,1.79,1.05,1.05 c1.17-1.47,2.36-3.02,3.5-4.64c2.79,5.55,5.58,11.1,8.36,16.65C104.52,184.64,107.24,188.48,107.58,191.96z M87.89,270.02 c-0.1-1.27-0.2-2.55-0.31-3.82C87.69,267.47,87.79,268.74,87.89,270.02z M86.46,270.67c0.18,2.21,0.34,4.43,0.5,6.64 c0.03,0.41,0.06,0.83,0.09,1.24C86.86,275.92,86.67,273.29,86.46,270.67z M86.73,279.29C86.73,279.29,86.73,279.29,86.73,279.29 C86.73,279.29,86.73,279.29,86.73,279.29C86.73,279.29,86.73,279.29,86.73,279.29z M86.84,258.13c0.07,0.76,0.14,1.52,0.21,2.28 C86.98,259.65,86.92,258.89,86.84,258.13z M85.85,263.46c0.16,1.74,0.3,3.48,0.44,5.23C86.15,266.94,86.01,265.2,85.85,263.46z M86.15,251.33c-0.04-0.4-0.08-0.8-0.12-1.2C86.07,250.53,86.11,250.93,86.15,251.33z M85.78,262.64c-0.04-0.38-0.07-0.77-0.11-1.15 c-0.08-0.91-0.17-1.82-0.25-2.73C85.54,260.05,85.66,261.35,85.78,262.64z M88.69,316.85c-1.65,0.03-3.3,0.07-4.96,0.11 c0,0,0.01,0,0.01,0C85.39,316.92,87.04,316.87,88.69,316.85z M84.4,294.46c0.35,0.64,0.69,1.28,1.02,1.92 c0.01,0.02,0.02,0.04,0.03,0.07c0.47,0.9,0.93,1.79,1.37,2.69c-0.45-0.9-0.9-1.8-1.37-2.69C85.11,295.78,84.76,295.12,84.4,294.46z M86.94,299.36c0.47,0.96,0.93,1.92,1.37,2.88C87.87,301.27,87.41,300.32,86.94,299.36z M88.52,309.21 c0.02,0.66,0.03,1.31,0.05,1.97C88.55,310.52,88.54,309.87,88.52,309.21z M92.43,316.79c0.36-0.01,0.72-0.01,1.08-0.02 c-0.9,0.01-1.79,0.03-2.69,0.04C91.36,316.8,91.9,316.8,92.43,316.79z M91,308.78c0.35,0.94,0.68,1.89,0.99,2.85 C91.68,310.67,91.35,309.72,91,308.78z M91.99,311.64c0.28,0.84,0.54,1.68,0.79,2.53C92.54,313.32,92.27,312.48,91.99,311.64z M90.99,308.76c-0.35-0.95-0.71-1.89-1.09-2.83C90.28,306.87,90.64,307.81,90.99,308.76z M93.89,318.25 c0.4,1.68,0.75,3.39,1.06,5.13c-12.4-0.13-24.79,0.31-37.19,0.62c-0.12-1.6-0.18-3.18-0.18-4.75 C69.67,318.87,81.78,318.34,93.89,318.25z M56.32,324.73c0.3,20.87,0.43,41.75,0.72,62.62c-2.8,0.07-5.61,0.15-8.41,0.21 c-0.56-21-1.04-42-1.61-63c-0.55-9.53,1.47-19.19,4.99-28.03c1.08-2.72,2.47-5.92,4.24-8.93c0.23-0.1,0.41-0.31,0.42-0.63 c0-0.03,0-0.05,0-0.08c2.47-4.02,5.65-7.57,9.77-8.97c-1.18,3.1-2.66,6.12-4.21,9.11c-0.02,0.03-0.02,0.06-0.03,0.09 c-0.01,0.03-0.04,0.05-0.05,0.08C58.02,299.55,55.21,311.63,56.32,324.73z M43.71,238.48c0.19-0.66,0.37-1.33,0.56-1.99 c0.32-1.12,0.65-2.24,0.98-3.35c-0.96,3.27-1.89,6.55-2.8,9.83c0.11-0.38,0.21-0.76,0.32-1.14 C43.08,240.71,43.4,239.59,43.71,238.48z M43.1,235.19c0.19-0.66,0.37-1.32,0.57-1.99c0,0,0,0,0,0 C43.47,233.86,43.29,234.53,43.1,235.19z M74.39,113.65c2.59,10.23,2.13,22.73,2.62,30.37c0.64,9.97,1.49,19.95,1.88,29.94 c0.32,8.19,0.53,19.36-6.17,25.2c-0.01,0.01-0.02,0.03-0.03,0.04c-1.54,0.39-3.11,1.06-4.3,1.3c-5.44,1.08-10.97,1.38-16.5,1.08 c-1.01-0.31-2.06-0.48-3.17-0.44c-0.75,0.03-1.5,0.18-2.21,0.43c-6.93-17.64-10.06-36.51-9.12-55.46 c0.46-9.21,1.86-18.36,4.16-27.29c2.17-8.42,4.59-22.41,15.73-22c9.8,0.35,14.56,7.32,16.93,16.15 C74.15,113.21,74.2,113.47,74.39,113.65z M49.66,202.69c3.06,0.19,5.58,2.1,7.89,3.93c0.74,0.59,1.79-0.46,1.05-1.05 c-1.06-0.84-2.17-1.69-3.34-2.42c3.69,0.03,7.36-0.22,11.02-0.8c1.47-0.23,6.24-2.12,7.31-1.63c0.47,1.06,0.94,2.12,1.4,3.19 c-0.75,0.62-1.5,1.23-2.24,1.85c-1.28,0.91-2.62,1.61-4.03,2.29c-0.86,0.41-0.11,1.69,0.75,1.28c0.78-0.38,3.19-1.72,5.26-3.37 c0.12,0,0.24-0.02,0.37-0.09c0.58-0.34,1.52,0.24,1.88,0.69c0.85,1.06-0.13,2.12-0.91,2.87c-0.05,0.05-0.1,0.09-0.15,0.13 c-0.02,0.01-0.03,0.02-0.04,0.04c-1.27,1.21-2.63,2.34-3.99,3.45c-0.74,0.6,0.31,1.64,1.05,1.05c1.05-0.85,2.11-1.72,3.12-2.63 c0.87,3.64-1.17,6.62-4.15,8.94c-0.13,0.06-0.25,0.14-0.34,0.26c-3.07,2.29-7.01,3.92-9.83,4.91c-2.39,0.84-5.88,2.27-8.47,1.93 c-5.11-0.68-4.67-7.9-4.42-12.22c2.84,1.54,5.97,2.59,8.01,3.09c0.93,0.23,1.32-1.2,0.39-1.43c-4.34-1.07-10.06-3.25-12.57-7.23 C42.16,205.72,45.58,202.44,49.66,202.69z M80.44,259.08c-0.15-0.6-0.29-1.2-0.43-1.79c-0.16-0.65-0.31-1.3-0.47-1.96 c-0.39-1.65-0.78-3.3-1.15-4.96c-0.65-2.88-1.28-5.76-1.87-8.65C77.71,247.53,79.03,253.31,80.44,259.08z M76.89,216.87 c0.03-0.06,0.05-0.11,0.08-0.17C76.94,216.75,76.92,216.81,76.89,216.87z M77.54,215.15c-0.08,0.3-0.17,0.59-0.28,0.88 C77.37,215.74,77.46,215.45,77.54,215.15z M76.51,241.68c-0.6-2.89-1.16-5.79-1.68-8.7C75.35,235.89,75.91,238.79,76.51,241.68z M74.84,219.72c0.05-0.05,0.1-0.1,0.15-0.15C74.94,219.61,74.89,219.66,74.84,219.72z M75.91,218.46 C75.91,218.46,75.91,218.46,75.91,218.46C75.91,218.46,75.91,218.46,75.91,218.46z M74.61,231.81c-0.12-0.65-0.23-1.3-0.34-1.96 C74.38,230.51,74.49,231.16,74.61,231.81z M73.63,226.02c0.2,1.27,0.42,2.54,0.63,3.8C74.05,228.56,73.83,227.29,73.63,226.02z M73.63,226c-0.24-1.51-0.47-3.03-0.68-4.55c0.12,0.87,0.26,1.74,0.39,2.61C73.43,224.7,73.53,225.35,73.63,226z M55.26,285.52 c0,0.02,0,0.05,0,0.07c-0.02,0.33-0.03,0.66-0.05,0.99C55.23,286.23,55.25,285.87,55.26,285.52z M53.73,289.26 C53.73,289.26,53.73,289.26,53.73,289.26C53.73,289.26,53.73,289.26,53.73,289.26z M52.28,292.21c-0.2,0.43-0.4,0.86-0.58,1.27 C51.88,293.07,52.08,292.64,52.28,292.21z M50.44,228.16c-0.04-0.03-0.08-0.06-0.12-0.09C50.35,228.1,50.4,228.13,50.44,228.16z M49.96,297.77C49.96,297.77,49.96,297.77,49.96,297.77C49.96,297.77,49.96,297.77,49.96,297.77 C49.96,297.77,49.96,297.77,49.96,297.77z M49.51,227.34L49.51,227.34L49.51,227.34z M49.06,300.32c-0.01,0.04-0.03,0.08-0.04,0.12 C49.03,300.4,49.05,300.36,49.06,300.32z M48.95,226.62c0.02,0.03,0.04,0.06,0.06,0.09C48.99,226.68,48.97,226.65,48.95,226.62z M48.59,226.01c-0.03-0.05-0.05-0.1-0.08-0.15C48.53,225.91,48.56,225.96,48.59,226.01z M48.23,225.25 c-0.02-0.06-0.05-0.11-0.07-0.17C48.18,225.14,48.21,225.19,48.23,225.25z M45.95,218.11L45.95,218.11 C45.95,218.11,45.95,218.11,45.95,218.11C45.95,218.11,45.95,218.11,45.95,218.11L45.95,218.11z M44.48,217.99 c-0.1-0.01-0.19-0.02-0.29-0.03C44.29,217.97,44.38,217.98,44.48,217.99z M45.57,317.64c0.06-0.89,0.14-1.78,0.24-2.67 C45.71,315.86,45.63,316.75,45.57,317.64c-0.3-0.03-0.6-0.07-0.9-0.1c-0.66-0.07-1.33-0.15-1.99-0.23 C43.65,317.42,44.61,317.54,45.57,317.64z M45.35,232.8c0.32-1.1,0.65-2.2,0.98-3.3c-0.16,0.54-0.32,1.09-0.48,1.63 C45.68,231.69,45.52,232.24,45.35,232.8z M46.3,224.39c-0.03,0.11-0.06,0.21-0.1,0.32c0.33-1.09,0.65-2.19,0.99-3.28 C46.89,222.41,46.6,223.4,46.3,224.39z M47.04,307.56c-0.01,0.05-0.02,0.1-0.03,0.14C47.02,307.66,47.03,307.61,47.04,307.56z M56.41,264.6c0.16-2.77,0.31-5.54,0.46-8.31c-0.03,0.66-0.07,1.32-0.1,1.98c-0.08,1.51-0.16,3.01-0.25,4.52 C56.48,263.39,56.44,263.99,56.41,264.6z M57.35,238.49c-0.02-0.04-0.03-0.08-0.04-0.12c0.08,0.21,0.15,0.43,0.23,0.64 C57.47,238.83,57.41,238.66,57.35,238.49z M57.52,239.08c-0.01,0.45-0.03,0.89-0.04,1.34c0-0.1,0.01-0.2,0.01-0.3 C57.5,239.77,57.51,239.42,57.52,239.08z M57.44,241.94c-0.01,0.46-0.02,0.93-0.04,1.39c-0.06,1.92-0.12,3.83-0.2,5.75 C57.3,246.7,57.38,244.32,57.44,241.94z M57.48,271.64c0.02-0.28,0.03-0.55,0.05-0.83c-0.15,2.56-0.29,5.12-0.43,7.68 C57.22,276.21,57.35,273.93,57.48,271.64z M57.12,251.06c-0.05,1.02-0.1,2.03-0.15,3.05c0.08-1.67,0.16-3.35,0.23-5.02 C57.17,249.75,57.15,250.41,57.12,251.06z M57,280.46c0.03-0.65,0.07-1.3,0.1-1.95C57.06,279.16,57.03,279.81,57,280.46z M57.84,265.42c0.01-0.25,0.03-0.5,0.04-0.75c0,0.01,0,0.02,0,0.03C57.87,264.94,57.86,265.18,57.84,265.42z M58.18,282.34 c0.1-0.12,0.2-0.23,0.3-0.35C58.38,282.11,58.28,282.22,58.18,282.34z M58.33,256.58c0.01-0.14,0.01-0.27,0.02-0.41 c0,0.02,0,0.03,0,0.05C58.34,256.34,58.33,256.46,58.33,256.58z M58,262.72c0,0.01,0,0.01,0,0.02c0.07-1.25,0.14-2.5,0.21-3.75 C58.13,260.23,58.07,261.48,58,262.72z M58.73,247.69c0.07-1.69,0.12-3.39,0.17-5.08C58.86,244.3,58.8,246,58.73,247.69z M59.98,280.37C59.98,280.37,59.98,280.37,59.98,280.37C59.98,280.37,59.98,280.37,59.98,280.37S59.98,280.37,59.98,280.37 C59.98,280.37,59.98,280.37,59.98,280.37z M62.28,250.76c0.02,0.05,0.04,0.09,0.06,0.14c0,0,0,0,0,0 C62.32,250.85,62.3,250.8,62.28,250.76z M62.5,278.29C62.5,278.29,62.5,278.29,62.5,278.29L62.5,278.29 C62.5,278.29,62.5,278.29,62.5,278.29z M63.76,277.52c-0.21,0.12-0.42,0.24-0.63,0.37C63.34,277.77,63.55,277.64,63.76,277.52z M65.17,276.85c-0.27,0.11-0.54,0.23-0.8,0.36C64.63,277.08,64.89,276.96,65.17,276.85z M64.6,255.96c0.15,0.33,0.31,0.67,0.47,1 C64.91,256.63,64.76,256.29,64.6,255.96C64.6,255.96,64.6,255.96,64.6,255.96z M65.67,276.65c0.46-0.17,0.92-0.32,1.39-0.43 c0.29-0.84,0.54-1.7,0.78-2.55c0.19-0.69,0.36-1.38,0.51-2.08c-0.13,0.61-0.27,1.21-0.43,1.82c-0.02,0.09-0.05,0.17-0.08,0.26 c-0.23,0.86-0.49,1.71-0.78,2.55C66.59,276.33,66.12,276.48,65.67,276.65z M61.99,317.62c0.31-0.01,0.62-0.02,0.93-0.03 c-1.78,0.06-3.56,0.12-5.35,0.18C59.05,317.72,60.52,317.67,61.99,317.62z M57.71,314.76c0.09-1.56,0.23-3.12,0.42-4.66 c-0.08,0.66-0.14,1.32-0.2,1.98C57.84,312.97,57.77,313.86,57.71,314.76z M58.17,309.83c0.21-1.68,0.48-3.34,0.79-5 C58.65,306.48,58.38,308.15,58.17,309.83z M58.96,304.82c0.12-0.66,0.24-1.32,0.38-1.98c0.24-1.14,0.51-2.28,0.79-3.41 c0.07-0.28,0.14-0.57,0.21-0.85c0.1-0.38,0.19-0.77,0.29-1.15c0.03-0.12,0.07-0.25,0.1-0.37c0.3-1.14,0.62-2.27,0.95-3.41 c-0.33,1.14-0.65,2.27-0.95,3.41c-0.13,0.51-0.27,1.01-0.39,1.52c-0.07,0.28-0.14,0.57-0.21,0.85 C59.69,301.22,59.3,303.02,58.96,304.82z M62.85,289.88c-0.41,1.26-0.79,2.52-1.17,3.77C62.06,292.4,62.45,291.14,62.85,289.88z M72.11,317.29c0,0-0.01,0-0.01,0c-2.69,0.09-5.38,0.18-8.08,0.27C66.72,317.47,69.41,317.38,72.11,317.29z M64.58,290.23 c0.03,0.03,0.06,0.06,0.09,0.09C64.64,290.29,64.61,290.26,64.58,290.23z M66.3,291.71c-0.03-0.02-0.06-0.05-0.08-0.07 C66.25,291.67,66.27,291.69,66.3,291.71z M68.05,293c-0.01-0.01-0.02-0.02-0.04-0.03C68.02,292.98,68.03,292.99,68.05,293z M69.9,294.17C69.9,294.17,69.9,294.17,69.9,294.17C69.9,294.17,69.9,294.17,69.9,294.17C69.9,294.17,69.9,294.17,69.9,294.17z M73.06,295.76C73.06,295.76,73.06,295.76,73.06,295.76C73.06,295.76,73.06,295.76,73.06,295.76z M76.32,296.82 C76.32,296.82,76.32,296.82,76.32,296.82C76.32,296.82,76.32,296.82,76.32,296.82C76.32,296.82,76.32,296.82,76.32,296.82z M77.65,297.07c0.07,0.01,0.13,0.02,0.2,0.03C77.78,297.09,77.72,297.08,77.65,297.07z M81.3,295.15c-0.39,0.53-0.78,1.06-1.2,1.58 C80.52,296.21,80.91,295.68,81.3,295.15z M83.2,292.3c-0.41,0.69-0.87,1.38-1.33,2.05C82.34,293.68,82.79,292.99,83.2,292.3z M79.02,295.73c-0.75-0.04-1.51-0.15-2.28-0.32c1.27-3.2,2.93-6.22,4.14-9.44c0.34-0.89-1.1-1.28-1.43-0.39 c-1.21,3.22-2.87,6.25-4.14,9.45c-1.18-0.37-2.35-0.87-3.49-1.47c1.34-3.49,3.23-6.74,4.55-10.24c0.34-0.89-1.09-1.28-1.43-0.39 c-1.28,3.39-3.09,6.55-4.42,9.92c-1-0.6-1.97-1.26-2.89-1.96c1.19-3.1,2.72-6.04,3.6-9.25c0.25-0.92-1.18-1.31-1.43-0.39 c-0.83,3.01-2.22,5.79-3.38,8.67c-0.99-0.84-1.89-1.72-2.67-2.6c1.67-3.25,3.23-6.53,4.44-9.92c0.18-0.14,0.24-0.36,0.21-0.59 c1.29-3.74,2.12-7.61,2.16-11.7c0-0.15-0.04-0.26-0.1-0.36c0,0,0-0.01,0-0.01c-5.91-11.56-10.87-23.44-14.9-35.77 c2.07-0.35,4.2-1.14,5.7-1.64c2.97-0.98,6.99-2.6,10.33-4.87c1.8,12.5,4.43,24.84,7.42,37.11c0.01,0.05,0.04,0.08,0.06,0.12 c0.01,0.02,0.01,0.04,0.02,0.05c3.61,6.64,6.14,13.79,6.22,21.42c-0.01,0.06-0.02,0.13-0.01,0.19 C84.88,286.91,82.47,291.46,79.02,295.73z M68.41,271.28c0.13-0.62,0.24-1.25,0.34-1.88C68.66,270.04,68.54,270.66,68.41,271.28z M68.76,269.37c0.09-0.59,0.15-1.19,0.21-1.79C68.91,268.18,68.84,268.78,68.76,269.37z M69,267.13c0.05-0.62,0.08-1.24,0.09-1.88 C69.08,265.88,69.05,266.51,69,267.13z M80.58,218.98c0.06,0.41,0.12,0.83,0.18,1.24c0.17,1.13,0.34,2.26,0.5,3.4 C81.04,222.08,80.8,220.53,80.58,218.98z M81.94,218.2c-0.16-1.07-0.31-2.14-0.47-3.21C81.63,216.06,81.79,217.13,81.94,218.2 C81.95,218.2,81.94,218.2,81.94,218.2z M82.06,229.5c0.09,0.65,0.18,1.31,0.27,1.96c0.16,1.21,0.3,2.42,0.46,3.63 c-0.35-2.75-0.71-5.49-1.09-8.24C81.82,227.73,81.94,228.62,82.06,229.5z M83.46,240.52c-0.14-1.15-0.28-2.29-0.42-3.44 C83.18,238.22,83.33,239.37,83.46,240.52z M84.34,248.21c-0.25-2.27-0.51-4.55-0.78-6.82c0.04,0.37,0.08,0.73,0.13,1.1 C83.91,244.39,84.14,246.3,84.34,248.21z M84.17,234.3c0-0.03-0.01-0.06-0.01-0.09C84.16,234.24,84.17,234.27,84.17,234.3z M83.73,266.15C83.73,266.15,83.73,266.15,83.73,266.15C83.73,266.15,83.73,266.15,83.73,266.15z M84.41,248.89 c0.04,0.43,0.09,0.86,0.13,1.29c0.1,0.93,0.19,1.86,0.29,2.78C84.7,251.6,84.56,250.24,84.41,248.89z M85.06,255.1 c0.07,0.65,0.13,1.31,0.2,1.96C85.19,256.41,85.13,255.76,85.06,255.1z M85.19,242.68c-0.02-0.17-0.04-0.34-0.06-0.51 C85.16,242.34,85.17,242.51,85.19,242.68z M68.24,43.24c10.65-3,21.12-7.83,29.99-14.5c1.03,6.63,7.75,11.06,12.82,14.71 c0.06,10.97-0.86,22.58-6.48,31.9c-0.09,0.07-0.15,0.18-0.19,0.3c-0.29,0.47-0.57,0.95-0.89,1.4c-4.63,6.73-12.63,11.62-20.98,10.49 c-9.95-1.34-17.68-9.44-21.11-18.5C62.38,60.54,66.01,51.56,68.24,43.24z M61.18,72.22c3.87,7.91,10.79,13.94,18.51,15.97 c-1.22,3.34-1.93,6.86-2.15,10.41c-8.91-2.94-17.54-6.61-25.85-10.98c0,0,0,0,0.01,0c1.87-2.23,3.4-4.77,4.53-7.47 c2.2,4.31,5.75,7.91,10.27,10.24c0.11,0.11,0.23,0.16,0.35,0.19c0.1,0.05,0.2,0.11,0.3,0.16c0.86,0.41,1.61-0.87,0.75-1.28 c-0.18-0.08-0.33-0.18-0.5-0.27C62.54,84.16,61,78.36,61.18,72.22z M51,46.52c0.85-2.77,2.72-6.19,6.05-5.62 c2.21,0.38,3.52,2.74,3.51,5c-1.53,4.6-3.6,9.09-5.07,13.73C50.41,57.17,49.44,51.58,51,46.52z M48.09,87.35 c8.01,4.41,16.31,8.23,24.93,11.29c2.1,0.75,4.91,1.15,6.83,2.26c2.48,1.44,1.7,3.47,1.44,6.09c-0.14,1.35,0.12,5.53-0.94,6.35 c-0.8,0.62-3.49-0.4-4.82-0.82c-0.46-1.77-1.04-3.5-1.8-5.19c-4.07-9.1-17.66-17.26-25.96-8.26c-1.98-1.17-3.93-2.18-5.66-3.72 C44.13,92.71,46.06,89.99,48.09,87.35z M33.11,197.41c0.75-2.96,1.36-5.82,1.61-8.88c0.72-8.79-0.34-17.64-0.94-26.41 c0-0.04-0.02-0.07-0.03-0.11c0-0.03,0.01-0.06,0-0.09c-3.38-21.85-0.21-44.1,8.96-64.21c1.3,0.91,2.68,1.68,4.08,2.5 c-4.09,5.36-5.58,13.63-7.11,19.89c-1.94,7.95-3.18,16.09-3.69,24.26c-1.23,19.72,1.91,39.46,9.17,57.83 c-0.98,0.6-1.81,1.43-2.33,2.47C38.18,203.67,31.45,204.03,33.11,197.41z M42.21,243.83c-0.54,1.95-1.07,3.9-1.59,5.85 c-0.17,0.64-0.34,1.29-0.51,1.93c-0.03,0.13-0.07,0.25-0.1,0.38c-0.53,1.98-1.04,3.96-1.56,5.95c-0.29,1.12-0.57,2.25-0.85,3.37 c-0.19,0.78-0.39,1.56-0.58,2.34c-0.16,0.64-0.32,1.29-0.48,1.93c-0.39,1.61-0.79,3.22-1.17,4.83c0.38-1.59,0.77-3.18,1.16-4.76 c0.01-0.02,0.01-0.05,0.02-0.07c0.35-1.43,0.7-2.85,1.06-4.27c0.19-0.75,0.37-1.51,0.56-2.26c0.09-0.37,0.2-0.74,0.29-1.11 c0.71-2.76,1.43-5.51,2.17-8.26c0.01-0.02,0.01-0.04,0.02-0.06C41.15,247.69,41.67,245.76,42.21,243.83z M35.45,263.72 C35.45,263.72,35.45,263.72,35.45,263.72c0.38-1.54,0.78-3.07,1.17-4.61c0.17-0.67,0.33-1.33,0.51-2c0,0,0-0.01,0-0.01 C36.56,259.31,36,261.51,35.45,263.72z M40.64,243.87c-0.8,2.91-1.58,5.82-2.35,8.73c-0.06,0.21-0.12,0.43-0.17,0.64c0,0,0,0,0,0 c0.06-0.21,0.12-0.43,0.17-0.64c0.46-1.72,0.92-3.44,1.39-5.16C40,246.25,40.31,245.06,40.64,243.87 C40.64,243.87,40.64,243.87,40.64,243.87z M40.16,221.99c-0.69,1.18-1.37,2.37-2.04,3.56C38.79,224.36,39.47,223.17,40.16,221.99z M38.12,225.56c-0.59,1.05-1.18,2.1-1.75,3.15C36.94,227.66,37.53,226.61,38.12,225.56z M33.77,233.65 c0.35-0.68,0.69-1.35,1.05-2.02c0.44-0.84,0.89-1.67,1.34-2.5c-0.97,1.79-1.91,3.59-2.82,5.41 C33.47,234.24,33.62,233.94,33.77,233.65z M35.19,271.14c-0.1,0.42-0.19,0.85-0.29,1.27c-0.36,1.55-0.72,3.1-1.08,4.65 C34.27,275.08,34.72,273.11,35.19,271.14z M33.52,271.79c0.1-0.44,0.21-0.88,0.31-1.32c0.24-1,0.47-2,0.71-3 c0.14-0.58,0.27-1.17,0.42-1.75c0,0,0,0,0,0c-0.14,0.58-0.28,1.17-0.42,1.75C34.2,268.91,33.86,270.35,33.52,271.79z M32.82,281.46 c0.15-0.66,0.29-1.33,0.44-1.99c-0.16,0.7-0.3,1.39-0.46,2.09C32.81,281.53,32.81,281.49,32.82,281.46z M32.22,236.74 c-0.33,0.66-0.65,1.32-0.96,1.99C31.57,238.06,31.89,237.4,32.22,236.74z M31.51,287.55c-0.61,2.87-1.19,5.74-1.76,8.62 c0.44-2.23,0.89-4.46,1.35-6.69C31.23,288.83,31.38,288.19,31.51,287.55z M28.87,293.12c0.32-1.59,0.64-3.17,0.97-4.76 c0,0,0,0,0-0.01C29.51,289.94,29.19,291.53,28.87,293.12z M23.2,257.7c0.2-0.53,0.41-1.05,0.61-1.58c0.34-0.89,0.68-1.78,1.03-2.67 c0.18-0.45,0.35-0.91,0.53-1.36c0.27-0.67,0.55-1.34,0.82-2c0.01-0.02,0.02-0.04,0.03-0.06c0.75-1.81,1.52-3.61,2.32-5.4 c0.05-0.12,0.1-0.24,0.16-0.36c0.64-1.42,1.29-2.84,1.95-4.25c-0.72,1.53-1.42,3.07-2.11,4.61c-0.8,1.79-1.57,3.59-2.32,5.4 c-0.47,1.14-0.93,2.29-1.38,3.43c-0.35,0.89-0.69,1.77-1.03,2.67c-0.45,1.19-0.91,2.39-1.34,3.59 C22.71,259.04,22.95,258.37,23.2,257.7z M27.85,298.16c-0.4,2.07-0.78,4.15-1.16,6.22c0.07-0.37,0.14-0.75,0.21-1.12 C27.21,301.56,27.52,299.86,27.85,298.16C27.85,298.16,27.85,298.16,27.85,298.16z M16.59,278.57c0.49-1.87,1.01-3.73,1.55-5.59 c-0.55,1.87-1.07,3.75-1.57,5.64c-0.53,1.99-1.03,4-1.5,6.01c0.47-2.01,0.97-4.01,1.5-6.01C16.59,278.6,16.59,278.58,16.59,278.57z M15.08,284.62c-0.18,0.75-0.34,1.5-0.51,2.25C14.74,286.11,14.91,285.37,15.08,284.62z M12.33,298.25 c0.11-0.66,0.22-1.32,0.34-1.97c0-0.01,0-0.01,0-0.02C12.55,296.92,12.44,297.58,12.33,298.25z M14.14,288.85 c0.04-0.17,0.07-0.34,0.11-0.52c-0.29,1.36-0.58,2.72-0.85,4.09C13.64,291.23,13.88,290.04,14.14,288.85z M13.69,303.43 c0.75,0.4,1.51,0.79,2.27,1.17C15.2,304.22,14.44,303.83,13.69,303.43z M18.69,305.89c-0.27-0.12-0.54-0.26-0.81-0.38 C18.15,305.63,18.41,305.77,18.69,305.89C18.69,305.89,18.69,305.89,18.69,305.89z M20.19,266.38c0.02-0.06,0.04-0.12,0.06-0.19 c0.59-1.8,1.2-3.59,1.83-5.38c-0.63,1.79-1.24,3.58-1.83,5.38c-0.52,1.59-1.02,3.19-1.51,4.79 C19.21,269.44,19.69,267.91,20.19,266.38z M23.07,307.69c-0.12-0.04-0.24-0.09-0.35-0.13c-0.41-0.16-0.81-0.32-1.22-0.49 C22.02,307.28,22.54,307.49,23.07,307.69c0.55,0.21,1.11,0.41,1.66,0.62c0.38,0.14,0.76,0.29,1.14,0.42 C24.93,308.4,24,308.05,23.07,307.69z M26.44,313.95c0.94,0.31,1.89,0.58,2.84,0.84C28.33,314.53,27.38,314.26,26.44,313.95z M26.75,312.21c0.07-0.4,0.15-0.81,0.22-1.21c0.34-1.93,0.68-3.86,1.04-5.78c0.12-0.66,0.23-1.32,0.36-1.98 c0.32-1.7,0.66-3.39,0.99-5.09C28.44,302.83,27.57,307.51,26.75,312.21z M34.38,316c-0.67-0.13-1.33-0.28-2-0.43 c-0.05-0.01-0.1-0.02-0.14-0.04c-0.88-0.2-1.75-0.41-2.62-0.65c0.87,0.23,1.74,0.45,2.62,0.65C32.95,315.7,33.66,315.85,34.38,316 c2.75,0.55,5.52,0.97,8.3,1.31C39.9,316.97,37.13,316.55,34.38,316z M45.49,319.19c-0.06,1.66-0.05,3.33,0.03,4.99 c-0.11-0.1-0.26-0.17-0.45-0.17c-6.78-0.06-15.42-1.09-19.7,3.76C28.39,320.8,37.57,319.34,45.49,319.19z M32.1,386.38 c-6.73-2.71-7.34-9.56-7.44-15.9c-0.19-12.25-0.19-24.5-0.28-36.74c1.38-10.36,13.06-8.3,20.7-8.24c0.21,0,0.36-0.08,0.48-0.19 c0.56,20.76,1.03,41.53,1.59,62.3C42.17,387.78,36.75,388.25,32.1,386.38z M44.36,389.34c10.58,0.19,21.35-0.73,31.86-1 c1.35-0.04,2.69-0.07,4.04-0.1c-0.04,0.06-0.09,0.12-0.12,0.21c-2.64,8.1-5.47,16.14-8.45,24.12c-9.96,1.61-19.77,1.27-29.47-1.55 C43,403.8,43.72,396.57,44.36,389.34z M90.74,468.95c-1.88-1.08-3.86-1.92-5.44-2.5c-3.45-1.28-7.04-2.2-10.64-3.06 c1.56-0.37,3.06-0.97,4.47-1.73c3.85,1.43,7.67,2.93,11.53,4.34C90.56,466.97,90.59,467.96,90.74,468.95z M89.86,470.09 c-0.32,6.88-11.02,2.92-15.63,1.58c0.95-2.19,2.22-4.18,4.02-5.86c2.47,0.65,4.93,1.37,7.31,2.3 C87.02,468.69,88.48,469.32,89.86,470.09z M76.58,465.38c-2.35,2.44-3.81,5.46-4.8,8.71c-1.3-0.16-2.59-0.31-3.89-0.47 c0.14-3.96,2.32-7.22,5.89-8.94c0.18,0.04,0.36,0.09,0.53,0.13C75.07,465,75.82,465.19,76.58,465.38z M67.14,469.81 c-6.95-2.02-13.69-4.52-20.28-7.5c2.39-1.32,4.78-2.64,7.17-3.96c0.02-0.01,0.03-0.03,0.05-0.04c4.65,2.46,9.68,3.9,14.77,5.16 c0.07,0.04,0.13,0.07,0.22,0.09c0.11,0.02,0.22,0.03,0.33,0.04c0.76,0.19,1.52,0.37,2.27,0.55 C69.55,465.54,67.99,467.51,67.14,469.81z M54.93,457.1c4.16-9.23,8.13-18.55,11.92-27.95c-0.84,10.54-1.83,21.06-2.63,31.6 C61.02,459.8,57.9,458.65,54.93,457.1z M91.38,482.04c-4.15,1.46-10.25,0.4-14.59,0.32c-4.89-0.09-9.79-0.27-14.68-0.44 c-9.43-0.34-18.86-0.69-28.3-0.63c0.23-5.26,0.73-10.51,1.36-15.75c5.5,1.7,11.76,1.05,17.4,0.81c0,0,0.01,0,0.01,0 c4.63,1.85,9.33,3.49,14.13,4.89c-0.22,0.95-0.33,1.93-0.32,2.95c0,0.39,0.25,0.61,0.54,0.68c0.11,0.09,0.23,0.16,0.4,0.18 c1.57,0.19,3.15,0.38,4.72,0.57c0.03,0,0.05-0.01,0.08-0.01c0.35,0.08,0.75-0.05,0.88-0.49c0.2-0.7,0.43-1.38,0.67-2.04 c5.2,1.44,16.58,5.48,17.6-2.1C95.15,473.56,98.04,479.7,91.38,482.04z M114.8,468.18c1.59,1.06,2.87,2.33,3.22,3.84 c1.82,7.78-16,6.07-21.16,5.95c0.63-3.17-1.38-5.75-4.11-7.73c1.48,0.43,2.96,0.85,4.44,1.28c0.19,0.06,0.36,0.02,0.5-0.04 c0.27-0.08,0.48-0.3,0.44-0.67c-0.09-0.81-0.12-1.67-0.09-2.53C101.41,469.21,114.35,472.65,114.8,468.18z M107.34,464.71 c1.51,0.59,3.87,1.44,6,2.59c-0.02,0.08-0.03,0.16-0.02,0.26c0.37,2.89-12.54-0.1-15.13-0.79c0.23-1.67,0.77-3.27,1.76-4.58 C102.43,462.94,104.9,463.76,107.34,464.71z M95.11,460.86c1.11,0.29,2.22,0.59,3.33,0.9c-1.52,2.32-2,5.28-1.86,8.05 c-1.47-0.42-2.94-0.85-4.41-1.27C91.74,465.59,92.61,462.58,95.11,460.86z M93.32,460.4c-1.21,1.14-1.98,2.57-2.39,4.13 c-3.87-1.41-7.71-2.92-11.58-4.35c-0.03-0.01-0.06-0.02-0.08-0.03c-0.35-0.13-0.71-0.26-1.06-0.38c2.01-0.54,4.01-1.08,6.02-1.62 c0.08,0.07,0.18,0.13,0.31,0.16C87.47,458.99,90.4,459.66,93.32,460.4z M91.92,418.91c-6.87,0.47-13.64-0.17-20.3-1.96 c3.53-9.29,6.87-18.66,9.95-28.11c0.09-0.26,0.02-0.47-0.11-0.63c5.25-0.14,10.5-0.27,15.75-0.4 C95.6,398.2,93.84,408.57,91.92,418.91z M97.44,386.32c-12.97,0.33-25.94,0.66-38.91,0.99c-0.29-20.61-0.42-41.22-0.71-61.83 c12.45-0.31,24.89-0.76,37.34-0.62c1.26,20.3,1.14,40.66,2.36,60.96C97.49,385.99,97.46,386.15,97.44,386.32z M99.02,386.28 c-0.01-0.14-0.01-0.28-0.02-0.42c0-0.01,0-0.03,0.01-0.04c0.02-0.13,0-0.24-0.03-0.35c-1.2-20.34-1.09-40.73-2.37-61.07 c0-0.04-0.02-0.07-0.03-0.11c0-0.03,0.01-0.05,0-0.09c-1.94-12.3-6.39-22.71-12.53-33.42c1.29-2.49,2.19-5.14,2.58-8.06 c11.97,10.7,17,26.1,18.98,41.7c0.64,20.55,1.29,41.09,1.93,61.64C104.7,386.13,101.86,386.21,99.02,386.28z M125.35,364.13 c-0.33,7.09,1.72,22.58-9.39,21.72c-2.32,0.06-4.63,0.12-6.95,0.18c-0.64-20.29-1.27-40.58-1.91-60.87 c4.42-0.04,9.39,0.14,13.06,2.83c3.5,2.56,4.77,6.86,5.31,11.04c0,0.02,0,0.04,0.01,0.06c0,0.01,0,0.01,0,0.01 c0.13,1.03,0.22,2.06,0.29,3.05C126.28,349.45,125.69,356.84,125.35,364.13z M116.58,252.55c-0.14-0.5-0.28-1-0.43-1.5 C116.3,251.56,116.44,252.05,116.58,252.55z M109.98,310.56c0.07,0.38,0.13,0.77,0.2,1.15c-0.07-0.43-0.15-0.85-0.22-1.28 C109.96,310.47,109.97,310.52,109.98,310.56z M115.13,247.55c-0.14-0.47-0.28-0.93-0.42-1.4c0.05,0.18,0.11,0.35,0.16,0.53 C114.97,246.97,115.05,247.26,115.13,247.55z M120.52,268.4c-0.11-0.54-0.23-1.07-0.35-1.61c0.05,0.25,0.12,0.5,0.17,0.75 C120.4,267.82,120.46,268.11,120.52,268.4z M119.06,261.98c-0.19-0.79-0.39-1.57-0.59-2.36c0.03,0.14,0.07,0.27,0.1,0.41 C118.74,260.68,118.91,261.33,119.06,261.98z M81.47,214.99c0.16,1.07,0.32,2.14,0.47,3.22c0,0,0,0,0,0 C81.79,217.13,81.63,216.06,81.47,214.99z M81.7,226.85c0.12,0.88,0.24,1.76,0.36,2.65c0.09,0.65,0.18,1.31,0.27,1.96 c0.16,1.21,0.3,2.42,0.46,3.63C82.44,232.34,82.08,229.6,81.7,226.85z M83.56,241.39c0.27,2.27,0.53,4.54,0.78,6.82 c-0.21-1.91-0.43-3.81-0.65-5.72C83.65,242.12,83.6,241.76,83.56,241.39z M122.48,279.05c-0.17-1.05-0.34-2.1-0.52-3.14 c0.11,0.65,0.24,1.3,0.34,1.95C122.37,278.25,122.42,278.65,122.48,279.05z M23.81,256.12c-0.45,1.19-0.91,2.39-1.34,3.59 c0.24-0.67,0.48-1.34,0.73-2.01C23.39,257.17,23.61,256.65,23.81,256.12z M62.34,250.89C62.34,250.89,62.34,250.89,62.34,250.89 c-0.02-0.05-0.04-0.09-0.06-0.14C62.3,250.8,62.32,250.85,62.34,250.89z M55.26,285.59c-0.02,0.33-0.03,0.66-0.05,0.99 c0.02-0.35,0.04-0.71,0.05-1.06C55.26,285.54,55.26,285.57,55.26,285.59z M45.57,317.64c-0.96-0.1-1.93-0.21-2.89-0.33 c0.66,0.08,1.33,0.16,1.99,0.23C44.97,317.57,45.27,317.61,45.57,317.64z M62.5,278.29L62.5,278.29 C62.5,278.29,62.5,278.29,62.5,278.29C62.5,278.29,62.5,278.29,62.5,278.29z M36.15,229.12c-0.97,1.79-1.91,3.59-2.82,5.41 c0.15-0.29,0.29-0.59,0.44-0.88c0.35-0.68,0.69-1.35,1.05-2.02C35.25,230.79,35.7,229.96,36.15,229.12z M78.39,250.38 c0.38,1.65,0.76,3.3,1.15,4.96c0.15,0.65,0.31,1.3,0.47,1.96c0.14,0.6,0.28,1.2,0.43,1.79c-1.41-5.77-2.73-11.55-3.92-17.35 C77.11,244.62,77.74,247.5,78.39,250.38z M30.65,240.01c-0.72,1.53-1.42,3.07-2.11,4.61c0.05-0.12,0.1-0.24,0.16-0.36 C29.33,242.84,29.98,241.42,30.65,240.01z M26.22,250.02c-0.47,1.14-0.93,2.29-1.38,3.43c0.18-0.45,0.35-0.91,0.53-1.36 c0.27-0.67,0.55-1.34,0.82-2C26.2,250.06,26.21,250.04,26.22,250.02z M56.97,254.11c0.08-1.67,0.16-3.35,0.23-5.02 c-0.03,0.66-0.05,1.31-0.08,1.97C57.08,252.08,57.02,253.1,56.97,254.11z M57.2,249.08c0.1-2.38,0.18-4.76,0.24-7.14 c-0.01,0.46-0.02,0.93-0.04,1.39C57.35,245.25,57.28,247.17,57.2,249.08z M57.53,270.81c-0.02,0.28-0.03,0.55-0.05,0.83 c-0.13,2.28-0.26,4.57-0.38,6.85C57.24,275.93,57.38,273.37,57.53,270.81z M34.96,265.72c-0.14,0.58-0.28,1.17-0.42,1.75 C34.69,266.89,34.82,266.3,34.96,265.72C34.96,265.72,34.96,265.72,34.96,265.72z M33.26,279.47c-0.16,0.7-0.3,1.39-0.46,2.09 c0.01-0.03,0.01-0.06,0.02-0.1C32.97,280.8,33.11,280.13,33.26,279.47z M47.19,221.43c-0.3,0.98-0.59,1.97-0.89,2.96 c-0.03,0.11-0.06,0.21-0.1,0.32C46.54,223.61,46.86,222.52,47.19,221.43z M56.51,262.79c-0.03,0.6-0.07,1.21-0.1,1.81 c0.16-2.77,0.31-5.54,0.46-8.31c-0.03,0.66-0.07,1.32-0.1,1.98C56.68,259.77,56.6,261.28,56.51,262.79z M29.75,296.17 c0.44-2.23,0.89-4.46,1.35-6.69c0.13-0.64,0.28-1.28,0.41-1.92C30.91,290.42,30.32,293.29,29.75,296.17z M86.96,277.3 c-0.16-2.21-0.32-4.43-0.5-6.64c0.21,2.63,0.41,5.25,0.59,7.88C87.02,278.13,86.99,277.72,86.96,277.3z M21.5,307.07 c0.52,0.21,1.05,0.41,1.57,0.62c-0.12-0.04-0.24-0.09-0.35-0.13C22.31,307.4,21.9,307.23,21.5,307.07z M89.52,214.65 c0.47-0.02,0.94-0.04,1.41-0.06c-0.71,0.03-1.42,0.06-2.13,0.09C89.04,214.67,89.28,214.66,89.52,214.65z M38.12,253.24 c0.06-0.21,0.12-0.43,0.17-0.64C38.23,252.82,38.17,253.03,38.12,253.24C38.12,253.24,38.12,253.24,38.12,253.24z M59.34,302.84 c0.24-1.14,0.51-2.28,0.79-3.41c-0.44,1.79-0.83,3.59-1.17,5.39C59.08,304.16,59.2,303.5,59.34,302.84z M28.37,303.24 c0.32-1.7,0.66-3.39,0.99-5.09c-0.91,4.68-1.79,9.36-2.6,14.06c0.07-0.4,0.15-0.81,0.22-1.21c0.34-1.93,0.68-3.86,1.04-5.78 C28.13,304.56,28.24,303.9,28.37,303.24z M32.24,315.53c0.71,0.16,1.42,0.32,2.14,0.46c-0.67-0.13-1.33-0.28-2-0.43 C32.33,315.56,32.29,315.54,32.24,315.53z M42.68,317.31c-2.78-0.34-5.55-0.76-8.3-1.31C37.13,316.55,39.9,316.97,42.68,317.31z M40.63,249.62c0.52-1.93,1.04-3.86,1.58-5.79c-0.54,1.95-1.07,3.9-1.59,5.85C40.62,249.66,40.63,249.64,40.63,249.62z M14.14,288.85c-0.25,1.19-0.5,2.38-0.74,3.57c0.27-1.37,0.56-2.73,0.85-4.09C14.21,288.51,14.18,288.68,14.14,288.85z M67.92,273.4 c-0.02,0.09-0.05,0.17-0.08,0.26c0.19-0.69,0.36-1.38,0.51-2.08C68.22,272.19,68.08,272.8,67.92,273.4z M20.25,266.19 c-0.52,1.59-1.02,3.19-1.51,4.79c0.46-1.54,0.95-3.07,1.44-4.6C20.21,266.31,20.23,266.25,20.25,266.19z M12.66,296.27 c0-0.01,0-0.01,0-0.02c-0.12,0.66-0.23,1.33-0.34,1.99C12.44,297.59,12.55,296.93,12.66,296.27z M18.15,272.98 c-0.55,1.87-1.07,3.75-1.57,5.64c0-0.02,0.01-0.03,0.01-0.05C17.09,276.7,17.61,274.83,18.15,272.98z M17.88,305.51 c0.27,0.12,0.54,0.26,0.81,0.38c0,0,0,0,0,0C18.41,305.77,18.15,305.63,17.88,305.51z M42.77,241.83c0.31-1.12,0.63-2.24,0.94-3.35 c0.19-0.66,0.37-1.33,0.56-1.99c0.32-1.12,0.65-2.24,0.98-3.35c-0.96,3.27-1.89,6.55-2.8,9.83 C42.56,242.59,42.66,242.21,42.77,241.83z M85.42,296.38c0.01,0.02,0.02,0.04,0.03,0.07c-0.35-0.66-0.7-1.33-1.06-1.99 C84.75,295.1,85.09,295.74,85.42,296.38z" style="fill: rgb(27, 24, 23);"/></g></svg>